<svg width="979" height="853" viewBox="0 0 979 853" fill="none" xmlns="http://www.w3.org/2000/svg">
  <g style="mix-blend-mode:multiply">
    <path d="M359.195 1165.58C359.958 1137.69 359.051 1109.78 356.478 1081.99C355.337 1069.65 353.77 1057.03 348.211 1045.95C334 1017.61 298.757 1007.58 267.198 1004.61C238.102 1001.89 208.788 1002.63 179.873 1006.83C151.307 1010.99 122.639 1018.55 93.8291 1015.92C65.0191 1013.29 34.8858 997.398 26.2359 969.793C21.0892 953.364 24.3666 935.145 32.0924 919.777C39.8182 904.408 51.6788 891.505 64.1784 879.687C78.5034 866.157 94.4905 852.843 100.984 834.242C107.705 814.982 102.114 792.009 87.2918 777.986C66.2031 758.039 33.8477 758.555 4.91189 756.331C-31.8535 753.496 -69.4692 743.541 -97.4085 719.472C-125.348 695.404 -141.221 654.913 -128.61 620.281" stroke="white" stroke-opacity="0.02" stroke-miterlimit="10" />
  </g>
  <g style="mix-blend-mode:multiply">
    <path d="M351.576 1169.25C352.352 1141.85 351.377 1114.41 348.656 1087.13C347.454 1075 345.832 1062.65 340.372 1051.75C329.409 1029.85 305.958 1018.78 281.535 1013.31C274.941 1011.85 268.276 1010.75 261.567 1010C233.213 1006.77 204.578 1006.94 176.269 1010.5C148.247 1014.02 120.162 1021.01 91.9056 1018.09C76.0632 1016.45 59.8225 1011.19 46.6143 1002.37C35.1225 994.684 25.9164 984.181 21.6272 971.041C20.8531 968.696 20.2462 966.299 19.8108 963.869C17.083 948.948 20.5705 933.152 27.3795 919.396C29.553 915.007 32.0123 910.766 34.7415 906.699C41.817 896.072 50.4317 886.424 59.2534 877.318C73.2007 862.865 88.0909 848.459 93.9501 829.425C99.8093 810.392 94.5272 788.33 80.1203 774.558C59.6185 754.969 28.3657 754.874 0.532001 752.092C-1.65538 751.872 -3.86138 751.625 -6.04827 751.352C-39.2501 747.198 -72.3235 736.633 -97.0562 714.307C-123.416 690.509 -138.001 651.137 -125.258 617.611" stroke="white" stroke-opacity="0.02" stroke-miterlimit="10" />
  </g>
  <g style="mix-blend-mode:multiply">
    <path d="M343.974 1172.93C344.747 1146 343.706 1119.06 340.859 1092.27C339.598 1080.38 337.896 1068.27 332.544 1057.55C321.763 1036.07 299.076 1024.83 275.346 1019.04C268.933 1017.5 262.447 1016.29 255.912 1015.42C228.302 1011.72 200.351 1011.32 172.651 1014.23C145.266 1017.07 117.678 1023.51 89.9345 1020.28C73.6385 1018.39 56.9043 1013.08 43.1673 1004.18C31.2563 996.38 21.5387 985.751 16.8808 972.262C16.0541 969.857 15.3986 967.397 14.9191 964.9C11.937 949.533 15.5739 933.282 22.4169 919.05C24.6249 914.508 27.1097 910.107 29.8572 905.87C36.9764 894.839 45.4892 884.65 54.0789 874.984C67.7118 859.575 81.4688 844.142 86.6792 824.625C91.6071 806.082 86.6969 784.675 72.7056 771.156C52.7844 751.932 22.6488 751.224 -4.08291 747.884C-6.18586 747.623 -8.29269 747.332 -10.4035 747.012C-42.2505 742.229 -73.6791 731.244 -96.9246 709.17C-121.713 685.636 -135.023 647.399 -122.134 614.978" stroke="white" stroke-opacity="0.02" stroke-miterlimit="10" />
  </g>
  <g style="mix-blend-mode:multiply">
    <path d="M336.358 1176.61C337.154 1150.15 336.053 1123.66 333.064 1097.36C331.712 1085.74 329.985 1073.83 324.723 1063.3C314.168 1042.16 292.19 1030.84 269.164 1024.72C262.929 1023.09 256.616 1021.79 250.248 1020.82C223.373 1016.61 196.094 1015.64 168.992 1017.92C142.147 1020.14 115.189 1025.97 87.9957 1022.49C71.2186 1020.36 54.0268 1015 39.738 1006C27.3668 998.177 17.1597 987.305 12.2166 973.532C11.323 971.06 10.6077 968.527 10.0763 965.953C6.84836 950.147 10.6199 933.443 17.5858 918.67C19.8184 913.978 22.3189 909.418 25.0748 905.012C32.2109 893.544 40.6904 882.88 49.0275 872.61C62.2782 856.3 74.959 839.818 79.525 819.794C83.6566 801.686 78.9706 781.006 65.4077 767.723C46.0798 748.847 17.0486 747.543 -8.58109 743.645C-10.608 743.336 -12.6221 743.011 -14.6421 742.641C-45.1427 737.222 -74.9328 725.826 -96.6994 703.998C-119.917 680.728 -131.931 643.616 -118.907 612.316" stroke="white" stroke-opacity="0.02" stroke-miterlimit="10" />
  </g>
  <g style="mix-blend-mode:multiply">
    <path d="M328.767 1180.3C329.561 1154.34 328.386 1128.35 325.252 1102.55C323.865 1091.12 322.041 1079.5 316.895 1069.15C306.534 1048.4 285.262 1036.99 262.983 1030.51C256.881 1028.75 250.694 1027.36 244.634 1026.25C218.518 1021.53 191.933 1019.96 165.447 1021.57C139.223 1023.17 112.729 1028.32 86.116 1024.63C68.8705 1022.25 51.198 1016.82 36.3848 1007.72C23.5708 999.835 12.8673 988.781 7.62872 974.702C6.68387 972.178 5.92342 969.588 5.35343 966.954C1.89628 950.72 5.78379 933.537 12.8554 918.263C15.1177 913.414 17.6438 908.694 20.4226 904.122C27.5774 892.232 35.9383 881.014 44.0768 870.207C57.0175 852.919 68.5853 835.505 72.4798 814.941C75.8299 797.266 71.3769 777.267 58.1786 764.303C39.4439 745.776 11.5236 743.867 -13.0041 739.411C-14.9318 739.059 -16.8699 738.686 -18.7721 738.301C-47.9282 732.232 -76.0714 720.43 -96.3591 698.848C-117.989 675.855 -128.736 639.872 -115.573 609.67" stroke="white" stroke-opacity="0.02" stroke-miterlimit="10" />
  </g>
  <g style="mix-blend-mode:multiply">
    <path d="M321.125 1183.96C321.93 1158.48 320.69 1132.97 317.415 1107.68C315.967 1096.46 314.086 1085.09 309.024 1074.93C298.887 1054.56 278.36 1043 256.722 1036.28C250.815 1034.4 244.809 1032.91 238.92 1031.68C213.547 1026.46 187.642 1024.32 161.761 1025.28C136.139 1026.23 110.168 1030.75 84.1073 1026.83C66.3934 1024.19 48.2357 1018.72 32.8726 1009.54C19.6221 1001.59 8.42229 990.351 2.86709 975.977C1.86611 973.397 1.05978 970.745 0.454872 968.045C-3.28153 951.346 0.771968 933.721 7.94093 917.939C10.2389 912.941 12.7857 908.061 15.5716 903.318C22.76 891.003 31.0523 879.27 38.9568 867.887C51.566 849.684 62.0251 831.315 65.2571 810.163C67.8505 792.941 63.5947 773.636 50.8356 760.875C32.6962 742.712 5.87836 740.193 -17.539 735.184C-19.3906 734.785 -21.2294 734.369 -23.0722 733.924C-50.8627 727.194 -77.3968 714.984 -96.187 693.676C-116.239 670.939 -125.713 636.075 -112.407 607.001" stroke="white" stroke-opacity="0.02" stroke-miterlimit="10" />
  </g>
  <g style="mix-blend-mode:multiply">
    <path d="M313.514 1187.63C314.327 1162.63 313.018 1137.59 309.602 1112.8C308.103 1101.83 306.15 1090.7 301.187 1080.72C291.25 1060.73 271.458 1049.07 250.525 1042.01C244.794 1040.05 238.976 1038.45 233.265 1037.1C208.641 1031.38 183.42 1028.66 158.147 1028.98C133.114 1029.29 107.695 1033.12 82.1805 1029.02C63.9942 1026.09 45.3278 1020.64 29.4595 1011.32C15.7494 1003.29 4.0763 991.879 -1.78079 977.207C-2.84244 974.565 -3.69808 971.844 -4.34018 969.069C-8.33524 951.948 -4.14073 933.862 3.13835 917.556C5.45945 912.361 8.07949 907.33 10.8325 902.454C18.0417 889.732 26.2635 877.468 33.9359 865.524C46.2263 846.388 55.6311 827.08 58.1249 805.336C60.058 788.614 55.9096 769.946 43.5745 757.444C26.0073 739.64 0.315052 736.514 -22.0086 730.941C-23.7674 730.507 -25.5302 730.044 -27.2739 729.555C-53.7454 722.208 -78.5967 709.58 -95.9183 688.498C-114.433 665.999 -122.615 632.336 -109.118 604.309" stroke="white" stroke-opacity="0.02" stroke-miterlimit="10" />
  </g>
  <g style="mix-blend-mode:multiply">
    <path d="M305.906 1191.32C306.72 1166.79 305.343 1142.23 301.791 1117.95C300.231 1107.19 298.206 1096.31 293.351 1086.52C283.614 1066.91 264.556 1055.13 244.321 1047.75C238.781 1045.7 233.149 1043.98 227.603 1042.51C203.737 1036.3 179.211 1033.01 154.558 1032.69C130.129 1032.36 105.242 1035.51 80.2481 1031.21C61.5979 1028.02 42.4803 1022.49 26.0512 1013.13C11.9149 1005.05 -0.292369 993.455 -6.44693 978.463C-7.56452 975.762 -8.46887 972.977 -9.15168 970.135C-13.401 952.567 -9.05705 934.026 -1.71399 917.187C0.638086 911.831 3.28267 906.647 6.05196 901.611C13.2863 888.458 21.4229 875.666 28.8696 863.152C40.8117 843.088 49.1977 822.88 50.9641 800.514C52.2369 784.291 48.1811 766.263 36.2616 754.013C19.2897 736.572 -5.26807 732.794 -26.5132 726.711C-28.1911 726.229 -29.8596 725.723 -31.5188 725.193C-56.6374 717.202 -79.8502 704.162 -95.6908 683.341C-112.592 661.138 -119.503 628.528 -105.958 601.648" stroke="white" stroke-opacity="0.02" stroke-miterlimit="10" />
  </g>
  <g style="mix-blend-mode:multiply">
    <path d="M298.296 1194.99C299.121 1170.93 297.678 1146.85 293.983 1123.07C292.352 1112.56 290.308 1101.93 285.521 1092.31C275.979 1073.1 257.676 1061.25 238.124 1053.48C232.767 1051.34 227.336 1049.5 221.954 1047.92C198.827 1041.2 174.97 1037.31 150.909 1036.35C127.083 1035.37 102.733 1037.82 78.2881 1033.38C59.1803 1029.9 39.5794 1024.34 22.6068 1014.89C8.034 1006.75 -4.66964 994.971 -11.1261 979.682C-12.2984 976.918 -13.2541 974.068 -13.9845 971.157C-18.486 953.158 -13.9756 934.123 -6.52094 916.826C-4.13789 911.309 -1.47064 905.957 1.30852 900.769C8.57637 887.193 16.611 873.859 23.8508 860.804C35.4574 839.794 42.8411 818.7 43.8423 795.708C44.5156 779.991 40.5062 762.594 29.0025 750.597C12.6092 733.506 -10.8697 729.165 -30.9808 722.483C-32.5645 721.958 -34.1436 721.41 -35.7183 720.839C-59.4904 712.213 -81.0396 698.78 -95.4199 678.177C-110.733 656.251 -116.377 624.77 -102.651 599.021" stroke="white" stroke-opacity="0.02" stroke-miterlimit="10" />
  </g>
  <g style="mix-blend-mode:multiply">
    <path d="M290.672 1198.67C291.509 1175.1 290.001 1151.49 286.171 1128.21C284.494 1117.92 282.332 1107.53 277.677 1098.12C268.355 1079.26 250.725 1067.29 231.92 1059.21C226.746 1057 221.495 1055.04 216.3 1053.34C193.918 1046.12 170.744 1041.66 147.288 1040.05C124.052 1038.43 100.244 1040.18 76.3468 1035.57C56.7416 1031.79 36.6909 1026.23 19.1727 1016.68C4.15703 1008.48 -9.05972 996.505 -15.8014 980.931C-17.0311 978.109 -18.0354 975.195 -18.805 972.215C-23.5545 953.762 -18.9182 934.32 -11.351 916.462C-8.94972 910.8 -6.24506 905.278 -3.44965 899.931C3.83699 885.932 11.803 872.083 18.794 858.453C30.0587 836.507 36.5179 814.546 36.6974 790.898C36.8025 775.699 32.8 758.915 21.7055 747.179C5.90749 730.451 -16.4624 725.491 -35.4696 718.265C-36.9771 717.693 -38.4718 717.104 -39.9474 716.49C-62.394 707.238 -82.2746 693.337 -95.1848 673.026C-108.912 651.362 -113.275 621.008 -99.4143 596.38" stroke="white" stroke-opacity="0.02" stroke-miterlimit="10" />
  </g>
  <g style="mix-blend-mode:multiply">
    <path d="M283.062 1202.34C283.891 1179.26 282.305 1156.15 278.328 1133.39C276.589 1123.32 274.377 1113.17 269.815 1103.95C260.686 1085.48 243.772 1073.42 225.684 1065C220.706 1062.68 215.637 1060.62 210.613 1058.75C188.984 1051.03 166.493 1045.99 143.643 1043.74C121.01 1041.47 97.7338 1042.49 74.374 1037.75C54.3323 1033.67 33.7772 1028.1 15.7155 1018.47C0.271632 1010.2 -13.4331 998.051 -20.5017 982.161C-21.7867 979.278 -22.8377 976.297 -23.6443 973.246C-28.6544 954.355 -23.8938 934.44 -16.2125 916.086C-13.7719 910.269 -11.0427 904.594 -8.23937 899.081C-0.919213 884.658 6.96159 870.281 13.7353 856.087C24.6414 833.192 30.1925 810.377 29.5273 786.068C29.1041 771.404 25.0788 755.238 14.3916 743.747C-0.852765 727.351 -22.07 721.819 -39.977 714.02C-41.3917 713.412 -42.7956 712.774 -44.1868 712.119C-65.274 702.215 -83.5479 687.943 -94.9869 667.82C-107.149 646.429 -110.232 617.187 -96.2312 593.672" stroke="white" stroke-opacity="0.02" stroke-miterlimit="10" />
  </g>
  <g style="mix-blend-mode:multiply">
    <path d="M275.445 1206.02C276.3 1183.4 274.657 1160.75 270.546 1138.48C268.749 1128.64 266.458 1118.75 262.01 1109.71C253.09 1091.62 236.912 1079.41 219.518 1070.68C214.707 1068.32 209.801 1066.09 204.982 1064.17C184.101 1055.95 162.292 1050.32 140.043 1047.42C118.015 1044.52 95.2789 1044.81 72.4625 1039.94C51.9778 1035.57 30.9038 1029.99 12.3196 1020.26C-3.56918 1011.91 -17.7831 999.602 -25.1472 983.406C-26.4902 980.458 -27.5884 977.405 -28.4307 974.277C-33.6866 954.946 -28.7914 934.578 -21 915.701C-18.5265 909.737 -15.7427 903.852 -12.93 898.24C-5.55768 883.421 2.20641 868.504 8.76281 853.747C19.327 829.916 24.0688 806.255 22.4518 781.271C21.5424 767.121 17.4085 751.547 7.17879 740.34C-7.44527 724.326 -27.5933 718.157 -44.4045 709.808C-45.7284 709.152 -47.0396 708.478 -48.3463 707.782C-68.0722 697.241 -84.7285 682.568 -94.607 662.74C-105.183 641.61 -107.023 613.545 -92.8493 591.102" stroke="white" stroke-opacity="0.02" stroke-miterlimit="10" />
  </g>
  <g style="mix-blend-mode:multiply">
    <path d="M267.835 1209.71C268.692 1187.56 266.98 1165.38 262.734 1143.62C260.85 1133.98 258.521 1124.36 254.172 1115.5C245.458 1097.79 230.009 1085.48 213.313 1076.42C208.702 1073.92 204.014 1071.64 199.318 1069.58C179.177 1060.88 158.041 1054.69 136.389 1051.16C114.957 1047.62 92.7729 1047.15 70.4806 1042.16C49.5073 1037.45 28.0144 1031.93 8.85322 1022.09C-7.47209 1013.68 -22.1824 1001.18 -29.8568 984.682C-31.2661 981.687 -32.4311 978.583 -33.3406 975.4C-38.8488 955.638 -33.8062 934.801 -25.9174 915.416C-23.4129 909.29 -20.6134 903.298 -17.809 897.455C-10.4345 882.201 -2.76403 866.749 3.59812 851.434C13.7743 826.656 17.7739 802.15 15.1924 776.506C13.822 762.889 9.61473 747.947 -0.207138 736.933C-14.2442 721.276 -33.3147 714.478 -49.0134 705.592C-50.2465 704.886 -51.4816 704.165 -52.6641 703.444C-71.0518 692.261 -86.04 677.172 -94.4791 657.573C-103.476 636.714 -104.002 609.734 -89.7257 588.454" stroke="white" stroke-opacity="0.02" stroke-miterlimit="10" />
  </g>
  <g style="mix-blend-mode:multiply">
    <path d="M260.225 1213.38C261.088 1191.7 259.307 1170 254.92 1148.75C253.017 1139.36 250.591 1129.97 246.335 1121.3C237.822 1103.96 223.074 1091.58 207.116 1082.15C202.694 1079.56 198.18 1077.18 193.67 1074.99C174.285 1065.78 153.834 1059.01 132.787 1054.83C111.951 1050.65 90.3121 1049.44 68.5503 1044.32C47.1219 1039.29 25.1035 1033.77 5.4385 1023.85C-11.3214 1015.39 -26.5364 1002.7 -34.5127 985.906C-35.9701 982.846 -37.1699 979.671 -38.0996 976.412C-43.8287 956.23 -38.7123 934.933 -30.6923 915.013C-28.1568 908.727 -25.3494 902.569 -22.5204 896.573C-15.1124 880.894 -7.54383 864.901 -1.3887 849.043C8.44357 823.315 11.7223 797.952 8.10886 771.65C6.31123 758.54 1.9781 744.228 -7.4536 733.5C-20.9017 718.215 -38.817 710.806 -53.4431 701.366C-54.5917 700.618 -55.7276 699.855 -56.8591 699.067C-73.9001 687.249 -87.2431 671.739 -94.2012 652.402C-101.62 631.798 -100.871 605.953 -86.4561 585.771" stroke="white" stroke-opacity="0.02" stroke-miterlimit="10" />
  </g>
  <g style="mix-blend-mode:multiply">
    <path d="M252.607 1217.05C253.477 1195.85 251.626 1174.62 247.099 1153.89C245.129 1144.72 242.605 1135.55 238.489 1127.09C230.186 1110.15 216.201 1097.59 200.911 1087.89C196.671 1085.2 192.379 1082.68 188.015 1080.41C169.389 1070.69 149.627 1063.33 129.184 1058.5C108.952 1053.67 87.8552 1051.7 66.628 1046.49C44.7405 1041.11 22.2402 1035.62 2.02333 1025.62C-15.1731 1017.08 -30.8846 1004.22 -39.1628 987.122C-40.6747 984 -41.9258 980.759 -42.9033 977.431C-48.9201 956.777 -43.6018 935.027 -35.4972 914.616C-32.9371 908.176 -30.0986 901.856 -27.2617 895.694C-19.8266 879.6 -12.3183 863.098 -6.41388 846.651C3.07008 819.994 5.69114 793.744 0.98253 766.815C-1.26737 754.192 -5.70961 740.524 -14.732 730.057C-27.6015 715.122 -44.4102 707.132 -57.913 697.123C-58.9644 696.318 -60.0242 695.506 -61.0756 694.701C-76.7783 682.24 -88.4743 666.326 -93.9469 647.226C-99.7796 626.885 -97.7554 602.175 -83.233 583.08" stroke="white" stroke-opacity="0.02" stroke-miterlimit="10" />
  </g>
  <g style="mix-blend-mode:multiply">
    <path d="M244.989 1220.73C245.868 1200 243.949 1179.24 239.285 1159.02C237.248 1150.07 234.7 1141.18 230.635 1132.88C222.545 1116.3 209.315 1103.67 194.69 1093.62C190.64 1090.84 186.508 1088.23 182.335 1085.81C164.47 1075.59 145.393 1067.65 125.552 1062.18C105.916 1056.7 85.401 1053.92 64.6807 1048.64C42.3424 1042.91 19.3457 1037.47 -1.40016 1027.38C-19.0479 1018.77 -35.2558 1005.72 -43.8124 988.285C-45.3887 985.108 -46.6887 981.802 -47.6983 978.404C-53.9757 957.312 -48.5079 935.107 -40.3059 914.188C-37.7149 907.587 -34.8774 901.147 -31.9987 894.792C-24.5384 878.267 -17.1026 861.22 -11.4346 844.235C-2.24447 816.665 -0.244742 789.463 -6.14331 761.927C-8.73454 749.836 -13.3846 736.803 -22.008 726.575C-34.2757 711.995 -49.9818 703.395 -62.3657 692.84C-63.3391 692.002 -64.3061 691.156 -65.254 690.285C-79.6036 677.18 -89.6608 660.853 -93.6842 642.056C-97.9436 621.994 -94.6647 598.377 -79.9366 580.432" stroke="white" stroke-opacity="0.02" stroke-miterlimit="10" />
  </g>
  <g style="mix-blend-mode:multiply">
    <path d="M237.371 1224.41C238.271 1204.15 236.288 1183.87 231.48 1164.17C229.53 1155.38 226.623 1146.84 222.813 1138.69C214.923 1122.49 202.392 1109.71 188.508 1099.36C184.648 1096.49 180.698 1093.78 176.695 1091.24C159.587 1080.54 141.202 1072.02 121.971 1065.9C102.94 1059.8 82.9904 1056.31 62.7673 1050.88C39.9825 1044.78 16.4912 1039.4 -4.79829 1029.22C-22.8827 1020.55 -39.5934 1007.33 -48.4711 989.614C-50.1087 986.379 -51.4603 983.006 -52.5106 979.536C-59.034 958.004 -53.4316 935.346 -45.1258 913.912C-42.5038 907.149 -39.6097 900.515 -36.7486 894.027C-29.2612 877.086 -21.9234 859.528 -16.4664 841.971C-7.66819 813.426 -6.15531 785.269 -13.2783 757.206C-16.2751 745.558 -21.0894 733.206 -29.2803 723.243C-40.9631 709.005 -55.5562 699.815 -66.8546 688.69C-67.7519 687.804 -68.6198 686.915 -69.4832 686.002C-82.4945 672.255 -90.9045 655.523 -93.4105 636.922C-96.0901 617.13 -91.5364 594.701 -76.6754 577.81" stroke="white" stroke-opacity="0.02" stroke-miterlimit="10" />
  </g>
  <g style="mix-blend-mode:multiply">
    <path d="M229.759 1228.08C230.661 1208.3 228.61 1188.49 223.674 1169.3C221.628 1160.75 218.715 1152.44 214.981 1144.48C207.252 1128.64 195.489 1115.77 182.303 1105.1C178.633 1102.14 174.837 1099.29 171.038 1096.65C154.688 1085.42 136.984 1076.31 118.347 1069.53C99.9189 1062.78 80.4897 1058.47 60.8468 1053.01C37.6136 1046.53 13.6085 1041.23 -8.21191 1030.95C-26.6976 1022.24 -43.9466 1008.81 -53.1346 990.794C-54.8214 987.501 -56.2188 984.067 -57.311 980.532C-64.0886 958.554 -58.3536 935.429 -49.9357 913.485C-47.289 906.569 -44.364 899.773 -41.4931 893.134C-33.9804 875.763 -26.7342 857.684 -21.4965 839.549C-13.0466 810.076 -11.9174 780.95 -20.4032 752.333C-23.7159 741.184 -28.7738 729.479 -36.524 719.787C-47.6178 705.921 -61.1019 696.112 -71.2981 684.428C-72.1026 683.508 -72.8944 682.571 -73.6586 681.615C-85.2675 667.468 -92.083 650 -93.1213 631.734C-94.2146 612.204 -88.3287 590.888 -73.3775 575.124" stroke="white" stroke-opacity="0.02" stroke-miterlimit="10" />
  </g>
  <g style="mix-blend-mode:multiply">
    <path d="M222.149 1231.77C223.054 1212.45 220.929 1193.1 215.852 1174.44C213.716 1166.13 210.794 1158.05 207.123 1150.31C199.636 1134.87 188.591 1121.83 176.085 1110.86C172.611 1107.79 169.015 1104.88 165.362 1102.09C149.758 1090.38 132.727 1080.7 114.68 1073.29C96.8415 1065.9 77.9391 1060.76 58.8281 1055.24C35.1677 1048.37 10.6487 1043.16 -11.7153 1032.79C-30.671 1023.99 -48.383 1010.4 -57.9049 992.131C-59.653 988.779 -61.102 985.279 -62.235 981.672C-69.2733 959.256 -63.3889 935.676 -54.8569 913.238C-52.1709 906.166 -49.2316 899.196 -46.3507 892.406C-38.8109 874.619 -31.6628 856.028 -26.663 837.288C-18.5487 806.869 -17.7369 776.654 -27.673 747.614C-31.3488 736.395 -36.8536 725.859 -43.9646 716.433C-54.4797 702.917 -66.8527 692.503 -75.9468 680.261C-76.6604 679.292 -77.3593 678.32 -78.0455 677.331C-88.286 662.449 -93.5331 644.699 -93.0287 626.647C-92.557 607.389 -85.4163 587.166 -70.3291 572.591" stroke="white" stroke-opacity="0.02" stroke-miterlimit="10" />
  </g>
  <g style="mix-blend-mode:multiply">
    <path d="M214.531 1235.45C215.45 1216.59 213.259 1197.72 208.045 1179.57C205.818 1171.5 202.894 1163.64 199.304 1156.08C192.023 1141.02 181.698 1127.86 169.899 1116.58C166.609 1113.4 163.222 1110.37 159.739 1107.47C144.892 1095.26 128.543 1085 111.09 1076.94C93.854 1068.9 75.5726 1062.97 56.9245 1057.39C32.8201 1050.11 7.79769 1045 -15.112 1034.53C-34.5107 1025.67 -52.7192 1011.9 -62.5112 993.289C-64.314 989.874 -65.8144 986.308 -66.995 982.632C-74.2793 959.777 -68.2537 935.737 -59.6283 912.761C-56.9368 905.561 -53.9454 898.419 -51.0586 891.449C-43.4917 873.245 -36.4096 854.101 -31.6468 834.875C-23.8808 803.528 -23.3531 772.248 -34.7601 742.744C-38.8432 732.108 -44.3737 722.086 -51.1954 712.96C-61.1152 699.808 -72.4003 688.786 -80.369 675.99C-80.9982 674.979 -81.6146 673.951 -82.2016 672.92C-91.0707 657.298 -94.7517 639.266 -92.7136 621.425C-90.662 602.438 -82.2459 583.35 -66.988 569.832" stroke="white" stroke-opacity="0.02" stroke-miterlimit="10" />
  </g>
  <g style="mix-blend-mode:multiply">
    <path d="M206.912 1239.12C207.84 1220.74 205.577 1202.33 200.223 1184.71C197.918 1176.88 194.989 1169.24 191.465 1161.88C184.325 1147.33 174.95 1133.98 163.68 1122.33C160.573 1119.07 157.36 1115.94 154.042 1112.93C139.971 1100.2 124.322 1089.35 107.479 1080.62C90.8401 1071.94 73.1018 1065.25 54.9798 1059.56C30.4423 1051.85 4.91191 1046.86 -18.5626 1036.32C-38.3979 1027.39 -57.105 1013.42 -67.2136 994.519C-69.0747 991.045 -70.6218 987.412 -71.8364 983.663C-79.3729 960.377 -73.2063 935.875 -64.4835 912.391C-61.7419 905.005 -58.747 897.721 -55.842 890.605C-48.2164 871.996 -41.253 852.299 -36.7012 832.501C-29.2855 800.211 -28.9312 767.739 -41.9113 737.903C-46.3978 727.85 -51.9743 718.318 -58.5406 709.48C-67.8797 696.693 -78.0178 685.054 -84.9137 671.704C-85.4418 670.664 -85.9443 669.592 -86.4533 668.527C-93.9453 652.18 -96.0661 633.883 -92.5112 616.263C-88.8816 597.531 -79.1837 579.57 -63.7913 567.173" stroke="white" stroke-opacity="0.02" stroke-miterlimit="10" />
  </g>
  <g style="mix-blend-mode:multiply">
    <path d="M199.3 1242.79C201.698 1201.13 184.927 1159.54 157.494 1128.05C130.06 1096.55 92.701 1074.72 53.0168 1061.77C28.0775 1053.62 2.00145 1048.76 -21.9809 1038.13C-45.9633 1027.49 -68.4669 1009.66 -76.6415 984.735C-86.8872 953.54 -72.7724 920.228 -60.5931 889.773C-40.5263 839.693 -25.4166 781.65 -49.0349 733.098C-60.7977 708.917 -81.2992 689.408 -90.6438 664.195C-103.594 629.236 -90.6639 586.404 -60.4887 564.517" stroke="white" stroke-opacity="0.02" stroke-miterlimit="10" />
  </g>
  <g style="mix-blend-mode:multiply">
    <path d="M466.386 1254.48C491.607 1228.81 481.94 1183.39 457.048 1157.37C432.156 1131.35 396.867 1118.73 364.419 1103.12C331.971 1087.5 298.984 1065.32 288.198 1030.97C274.4 987.051 301.339 937.522 285.671 894.197C273.479 860.44 238.759 841.158 205.431 833.803C186.582 829.651 166.435 831.501 147.361 828.923C60.82 817.244 2.9262 884.454 -56.2255 855.792C-120.289 824.744 -129.686 774.765 -125.808 748.047C-120.811 713.851 -95.5568 634.548 -7.78141 633.201C27.8748 632.655 64.1348 630.731 98.1825 620.129C149.149 604.251 189.487 551.208 180.083 498.644C173.645 462.611 146.189 430.224 150.862 393.942C154 369.541 172.014 348.792 193.911 337.617C215.808 326.443 241.188 323.757 265.797 324.62" stroke="white" stroke-opacity="0.02" stroke-miterlimit="10" />
  </g>
  <g style="mix-blend-mode:multiply">
    <path d="M464.038 1254.92C488.805 1227.58 480.229 1181.06 454.973 1153.77C430.345 1127.15 394.57 1114.14 361.688 1099.09C329.148 1084.26 296.194 1063.6 284.359 1030.83C269.228 988.898 292.997 940.5 277.206 897.491C264.561 863.308 231.646 842.669 198.838 833.424C179.993 828.11 159.339 828.581 139.542 825.634C55.6361 813.141 -1.29257 877.465 -59.2339 849.505C-121.537 819.408 -131.865 770.991 -128.632 744.269C-124.517 710.377 -99.9518 634.172 -15.6065 631.045C19.1846 629.743 54.9241 626.84 88.5834 616.191C138.198 600.574 177.483 549.703 169.649 498.737C164.235 463.476 138.588 431.164 143.071 395.252C146.101 370.663 163.144 349.66 184.092 337.547C205.219 325.32 230.031 320.955 254.629 320.553" stroke="white" stroke-opacity="0.02" stroke-miterlimit="10" />
  </g>
  <g style="mix-blend-mode:multiply">
    <path d="M461.684 1255.37C485.973 1226.4 478.511 1178.74 452.884 1150.19C428.445 1122.95 392.339 1109.48 358.935 1095.08C326.336 1081.03 293.456 1061.96 280.52 1030.71C264.05 990.768 284.743 943.468 268.695 900.778C255.659 866.137 224.486 844.12 192.214 833.036C173.361 826.538 152.19 825.661 131.644 822.378C50.3907 809.205 -5.5907 870.51 -62.2879 843.224C-122.832 814.064 -134.11 767.235 -131.524 740.493C-128.266 706.977 -104.392 633.749 -23.4069 628.803C10.5256 626.739 45.7025 622.875 78.9989 612.147C127.272 596.813 165.502 548.097 159.199 498.727C154.807 464.208 130.978 431.993 135.286 396.449C138.185 371.667 154.272 350.409 174.249 337.367C194.633 324.054 218.914 318.066 243.537 316.334" stroke="white" stroke-opacity="0.02" stroke-miterlimit="10" />
  </g>
  <g style="mix-blend-mode:multiply">
    <path d="M459.33 1255.81C483.159 1225.2 476.779 1176.44 450.795 1146.6C426.572 1118.8 390.09 1104.86 356.197 1091.07C323.527 1077.78 290.677 1060.28 276.667 1030.59C258.873 992.639 276.43 946.443 260.183 904.065C246.72 868.978 217.308 845.544 185.574 832.649C166.692 824.978 145.03 822.772 123.824 819.037C45.1597 805.266 -9.83352 863.465 -65.3293 836.927C-124.128 808.72 -136.329 763.459 -134.384 736.691C-131.976 703.542 -108.781 633.259 -31.2605 626.614C1.84914 623.774 36.4032 618.891 69.3843 608.16C116.258 592.958 153.51 546.523 148.768 498.798C145.411 465.019 123.465 432.921 127.497 397.736C130.35 372.773 145.423 351.214 164.425 337.268C184.056 322.863 207.808 315.265 232.431 312.237" stroke="white" stroke-opacity="0.02" stroke-miterlimit="10" />
  </g>
  <g style="mix-blend-mode:multiply">
    <path d="M456.982 1256.25C480.345 1224 475.056 1174.14 448.706 1143.02C424.678 1114.65 387.815 1100.22 353.453 1087.06C320.7 1074.51 287.881 1058.59 272.828 1030.47C253.702 994.501 268.104 949.435 251.665 907.359C237.809 871.852 210.139 846.921 178.949 832.26C160.033 823.372 137.904 819.856 115.939 815.764C39.885 801.505 -14.1191 856.492 -68.3982 830.648C-125.43 803.384 -138.548 759.736 -137.275 732.929C-135.705 700.131 -113.173 632.754 -39.1122 624.439C-6.82731 620.808 27.1583 614.921 59.7671 604.209C105.285 589.24 141.535 544.961 138.31 498.887C135.998 465.816 115.875 433.844 119.688 399.033C122.454 373.872 136.551 352.015 154.588 337.184C173.456 321.666 196.647 312.501 221.31 308.141" stroke="white" stroke-opacity="0.02" stroke-miterlimit="10" />
  </g>
  <g style="mix-blend-mode:multiply">
    <path d="M454.628 1256.7C477.524 1222.79 473.345 1171.81 446.618 1139.44C422.777 1110.51 385.563 1095.57 350.708 1083.05C317.93 1071.26 285.072 1056.97 268.975 1030.35C248.455 996.411 259.793 952.426 243.153 910.646C228.831 874.676 202.964 848.254 172.31 831.874C153.372 821.752 130.774 816.964 108.092 812.442C34.6062 797.768 -18.3744 849.464 -71.4266 824.334C-126.722 798.002 -140.755 755.93 -140.154 729.084C-139.397 696.656 -117.533 632.089 -46.9585 622.189C-15.4543 617.762 17.9079 610.908 50.1431 600.148C94.299 585.419 129.6 543.245 127.844 498.865C126.587 466.509 108.258 434.667 111.873 400.234C114.539 374.877 127.661 352.684 144.729 336.992C162.853 320.336 185.564 309.586 210.182 303.935" stroke="white" stroke-opacity="0.02" stroke-miterlimit="10" />
  </g>
  <g style="mix-blend-mode:multiply">
    <path d="M452.242 1257.19C474.678 1221.64 471.537 1169.61 444.489 1135.89C420.83 1106.41 383.278 1090.97 347.93 1079.07C315.094 1068.03 282.255 1055.34 265.128 1030.23C243.254 998.277 251.45 955.405 234.634 913.926C219.883 877.495 195.791 849.55 165.677 831.478C146.707 820.102 123.614 814.075 100.226 809.145C29.3616 794.176 -22.6553 842.469 -74.4825 818.038C-128.018 792.658 -142.963 752.175 -143.015 725.319C-143.071 693.261 -121.821 631.451 -54.7805 620.01C-22.4348 614.556 9.43481 606.589 40.539 596.182C83.3808 581.716 117.661 541.671 117.405 498.929C117.213 467.256 100.681 435.574 104.083 401.506C106.648 375.952 118.788 353.418 134.903 336.877C152.267 319.07 174.423 306.745 199.045 299.774" stroke="white" stroke-opacity="0.02" stroke-miterlimit="10" />
  </g>
  <g style="mix-blend-mode:multiply">
    <path d="M449.92 1257.59C471.897 1220.39 469.811 1167.28 442.441 1132.27C418.949 1102.25 381.039 1086.25 345.226 1075.03C312.352 1064.72 279.526 1053.65 261.29 1030.11C238.096 1000.17 243.118 958.405 226.135 917.196C210.901 880.394 188.66 850.81 159.065 831.073C140.076 818.424 116.501 811.195 92.3622 805.809C24.0943 790.579 -26.9355 835.421 -77.5358 811.705C-129.31 787.276 -145.153 748.381 -145.884 721.495C-146.763 689.786 -126.115 630.663 -62.6183 617.765C-30.9127 611.254 0.336572 602.697 30.9337 592.148C72.3653 577.899 105.768 539.987 106.943 498.936C107.84 467.951 93.0616 436.434 96.2878 402.735C98.7656 378.27 108.824 355.196 125.059 336.735C141.676 317.708 163.321 303.853 187.972 295.635" stroke="white" stroke-opacity="0.02" stroke-miterlimit="10" />
  </g>
  <g style="mix-blend-mode:multiply">
    <path d="M447.572 1258.03C469.075 1219.18 468.047 1165.02 440.345 1128.7C417.029 1098.13 378.846 1081.61 342.513 1070.99C309.6 1061.4 276.779 1051.93 257.452 1029.93C232.919 1001.99 234.784 961.338 217.617 920.437C201.967 883.159 181.511 852.004 152.428 830.648C133.43 816.697 109.381 808.271 84.5274 802.47C18.8168 787.081 -31.162 828.388 -80.5269 805.393C-130.543 781.9 -147.282 744.609 -148.693 717.677C-150.343 686.37 -130.411 629.809 -70.4005 615.551C-41.2331 608.66 -9.8605 599.079 21.3375 588.187C61.4089 574.194 93.9023 538.35 96.4992 499.023C98.5203 468.714 85.4636 437.351 88.4761 404.017C90.7346 379.45 100.016 356.058 115.212 336.631C131.304 316.301 152.602 300.709 176.847 291.51" stroke="white" stroke-opacity="0.02" stroke-miterlimit="10" />
  </g>
  <g style="mix-blend-mode:multiply">
    <path d="M445.243 1258.45C466.287 1217.95 466.301 1162.72 438.274 1125.07C415.127 1093.98 376.632 1076.91 339.777 1066.99C306.843 1058.13 274.004 1050.28 253.632 1029.84C227.762 1003.91 226.456 964.368 209.094 923.741C192.977 886 174.381 853.226 145.776 830.278C126.778 815.03 102.198 805.483 76.6445 799.213C13.4887 783.703 -35.468 821.427 -83.6309 799.127C-131.895 776.579 -149.517 740.873 -151.63 713.907C-154.033 682.962 -134.669 628.89 -78.2975 613.368C-49.7957 605.531 -19.0623 595.09 11.7114 584.164C50.4373 570.424 82.0892 536.648 86.0379 499.031C89.1562 469.363 77.8441 438.211 80.6827 405.261C82.723 380.558 91.2394 356.835 105.374 336.481C120.61 314.883 141.49 297.889 165.734 287.354" stroke="white" stroke-opacity="0.02" stroke-miterlimit="10" />
  </g>
  <g style="mix-blend-mode:multiply">
    <path d="M442.864 1258.93C463.442 1216.79 464.499 1160.49 436.173 1121.51C413.18 1089.88 374.384 1072.24 337.012 1062.99C304.027 1054.83 271.229 1048.63 249.767 1029.74C222.573 1005.79 218.081 967.374 200.595 927.063C184.041 888.907 167.3 854.472 139.171 829.917C120.191 813.347 95.0733 802.687 68.8297 795.901C8.18347 780.381 -39.7128 814.472 -86.6925 792.84C-133.195 771.243 -151.699 737.138 -154.513 710.138C-157.696 679.588 -138.956 627.869 -86.1416 611.184C-58.3792 602.411 -28.3233 591.16 2.09146 580.184C39.4695 566.735 70.3283 534.998 75.5822 499.134C79.8503 470.109 70.2429 439.151 72.8762 406.572C75.0148 380.243 83.1323 356.15 95.5397 336.413C109.91 313.549 130.369 295.145 154.622 283.264" stroke="white" stroke-opacity="0.02" stroke-miterlimit="10" />
  </g>
  <g style="mix-blend-mode:multiply">
    <path d="M440.516 1259.37C460.62 1215.58 462.714 1158.24 434.071 1117.94C411.226 1085.79 372.144 1067.57 334.255 1059C301.234 1051.52 268.429 1046.96 245.907 1029.63C217.391 1007.69 209.721 970.393 192.071 930.366C175.055 891.777 160.192 855.684 132.525 829.539C113.571 811.639 87.9193 799.895 60.9256 792.654C2.86318 777.062 -43.9952 807.462 -89.7145 786.57C-134.465 765.918 -153.828 733.404 -157.359 706.371C-161.302 676.192 -143.204 626.747 -93.9629 609.006C-66.9187 599.286 -37.5717 587.215 -7.49732 576.216C28.5102 563.001 58.5927 533.316 65.1459 499.161C70.5932 470.774 62.6316 440.018 65.0763 407.824C67.1074 381.307 74.1948 356.795 85.691 336.294C99.1831 312.167 119.225 292.35 143.504 279.132" stroke="white" stroke-opacity="0.02" stroke-miterlimit="10" />
  </g>
  <g style="mix-blend-mode:multiply">
    <path d="M438.162 1259.81C457.807 1214.38 460.916 1155.99 431.983 1114.36C409.313 1081.72 369.921 1062.87 331.518 1054.99C298.469 1048.2 265.659 1045.29 242.063 1029.51C212.221 1009.55 201.361 973.397 183.561 933.653C166.082 894.63 153.131 856.852 125.887 829.152C106.979 809.912 80.7514 797.105 53.0921 789.367C-2.44649 773.816 -48.2759 800.572 -92.7358 780.301C-135.769 760.672 -155.924 729.695 -160.205 702.604C-164.893 672.794 -147.5 625.481 -101.769 606.825C-75.4333 596.06 -46.7276 583.339 -17.0623 572.253C17.5953 559.313 46.9586 531.657 54.7163 499.232C61.3954 471.484 55.0417 440.927 57.317 409.093C59.2259 382.389 65.2602 357.455 75.8959 336.176C88.5004 310.78 108.128 289.537 132.451 274.968" stroke="white" stroke-opacity="0.02" stroke-miterlimit="10" />
  </g>
  <g style="mix-blend-mode:multiply">
    <path d="M435.791 1260.25C454.977 1213.17 459.086 1153.73 429.877 1110.76C407.295 1077.6 367.673 1058.15 328.732 1050.95C295.662 1044.85 262.872 1043.61 238.183 1029.36C207.019 1011.4 192.958 976.37 175.01 936.922C157.062 897.475 146.051 857.993 119.229 828.738C100.368 808.157 73.568 794.317 45.1763 786.032C-7.84732 770.567 -52.6084 793.524 -95.8414 773.967C-137.13 755.277 -158.147 725.876 -163.136 698.758C-168.553 669.329 -151.839 624.063 -109.667 604.574C-84.0508 592.743 -56.0575 579.344 -26.7511 568.208C6.56299 555.536 35.2467 529.926 44.2089 499.23C52.1197 472.122 47.3593 441.766 49.4523 410.308C51.237 383.404 56.2183 358.047 65.9953 336.005C77.6885 309.36 96.8775 286.695 121.227 270.767" stroke="white" stroke-opacity="0.02" stroke-miterlimit="10" />
  </g>
  <g style="mix-blend-mode:multiply">
    <path d="M433.455 1260.71C452.206 1212 457.306 1151.5 427.84 1107.22C405.411 1073.52 365.5 1053.46 326.055 1047C292.962 1041.57 260.167 1041.97 234.406 1029.3C201.925 1013.32 184.664 979.425 166.541 940.293C148.106 900.393 139.052 859.236 112.647 828.434C93.8476 806.511 66.4093 791.706 37.3594 782.811C-13.1722 767.428 -56.865 786.586 -98.8479 767.748C-138.376 750.01 -160.23 722.203 -165.965 695.057C-172.112 665.994 -156.168 622.666 -117.463 602.468C-92.592 589.483 -65.2467 575.495 -36.316 564.296C-4.34148 551.922 23.7049 528.338 33.7961 499.367C43.0079 472.91 39.7798 442.749 41.6969 411.659C43.3722 384.552 47.2708 358.776 56.1956 335.963C66.9984 308.082 85.7798 284.009 110.193 266.751" stroke="white" stroke-opacity="0.02" stroke-miterlimit="10" />
  </g>
  <g style="mix-blend-mode:multiply">
    <path d="M431.124 1261.16C449.376 1210.79 455.512 1149.28 425.76 1103.59C403.491 1069.34 363.282 1048.68 323.326 1042.94C290.153 1038.2 257.37 1040.27 230.495 1029.19C196.683 1015.21 176.248 982.467 157.991 943.562C139.098 903.258 131.989 860.39 105.969 828.03C87.2516 804.755 59.222 788.941 29.4545 779.496C-18.5858 764.249 -61.145 779.591 -101.934 761.442C-139.704 744.64 -162.389 718.42 -168.875 691.254C-175.732 662.548 -160.631 621.047 -125.335 600.236C-101.246 586.058 -74.5157 571.56 -45.9563 560.275C-15.338 548.186 12.1168 526.689 23.3142 499.384C33.8667 473.597 32.1228 443.607 33.8577 412.894C35.4024 385.593 38.2524 359.372 46.3289 335.817C56.2144 306.696 74.5721 281.196 99.0493 262.584" stroke="white" stroke-opacity="0.02" stroke-miterlimit="10" />
  </g>
  <g style="mix-blend-mode:multiply">
    <path d="M428.754 1261.59C446.546 1209.57 453.662 1147.05 423.63 1100.03C401.44 1065.31 361.02 1043.96 320.54 1038.95C287.384 1034.85 254.622 1038.6 226.682 1029.03C191.557 1017.01 167.888 985.418 149.512 946.807C130.144 906.086 125.019 861.508 99.3774 827.599C80.7338 802.965 52.0637 786.224 21.6297 776.163C-23.9576 761.101 -65.3801 772.538 -104.949 755.111C-140.96 739.246 -164.46 714.61 -171.714 687.426C-179.272 659.082 -165.095 619.308 -133.141 598.003C-109.915 582.515 -83.7191 567.608 -55.5438 556.254C-26.2587 544.453 0.667795 525.013 12.8768 499.396C24.8368 474.329 24.4936 444.446 26.086 414.126C27.5065 386.625 29.2401 360.012 36.513 335.656C45.4841 305.305 63.4182 278.38 87.9644 258.409" stroke="white" stroke-opacity="0.02" stroke-miterlimit="10" />
  </g>
  <g style="mix-blend-mode:multiply">
    <path d="M426.4 1262.04C443.746 1208.35 451.836 1144.82 421.541 1096.44C399.506 1061.25 358.83 1039.16 317.796 1034.94C284.614 1031.48 251.849 1036.85 222.836 1028.91C186.407 1018.79 159.506 988.433 141.002 950.093C121.144 908.958 118.023 862.66 92.7708 827.171C74.264 801.2 44.8882 783.548 13.8029 772.816C-29.3082 757.943 -69.5791 765.42 -107.972 748.775C-142.188 733.781 -166.526 710.792 -174.561 683.592C-182.814 655.603 -169.662 617.479 -140.946 595.77C-117.63 578.082 -92.148 563.446 -65.1186 552.217C-37.1794 540.722 -10.7503 523.401 2.43485 499.431C15.8357 475.11 16.8869 445.342 18.2932 415.37C19.6165 387.701 20.2214 360.661 26.6715 335.529C34.7229 303.951 52.2345 275.595 76.8602 254.26" stroke="white" stroke-opacity="0.02" stroke-miterlimit="10" />
  </g>
  <g style="mix-blend-mode:multiply">
    <path d="M424.052 1262.48C440.906 1207.17 449.996 1142.59 419.453 1092.86C397.496 1057.13 356.568 1034.44 315.059 1030.93C281.843 1028.12 249.07 1035.17 218.986 1028.8C181.224 1020.67 151.15 991.414 132.446 953.371C112.104 911.813 110.996 863.802 86.0757 826.807C67.641 799.462 37.5859 780.986 5.86641 769.544C-34.8025 754.887 -73.924 758.441 -111.092 742.496C-143.556 728.447 -168.678 707.054 -177.505 679.816C-186.453 652.181 -174.459 615.657 -148.865 593.582C-126.686 574.716 -101.702 559.422 -74.8114 548.248C-48.2118 537.05 -22.2595 521.891 -8.07406 499.468C6.81127 475.94 9.19461 446.213 10.4334 416.615C11.6011 388.735 11.1337 361.296 16.7842 335.394C23.899 302.594 40.9829 272.804 65.6955 250.104" stroke="white" stroke-opacity="0.02" stroke-miterlimit="10" />
  </g>
  <g style="mix-blend-mode:multiply">
    <path d="M421.705 1262.92C438.099 1205.96 448.187 1140.32 417.364 1089.28C395.526 1053.03 354.344 1029.67 312.321 1026.92C279.07 1024.74 246.306 1033.49 215.152 1028.66C176.054 1022.54 142.671 994.486 123.981 956.666C103.057 914.728 104.078 864.974 79.4834 826.429C61.1751 797.726 30.3922 778.454 -1.94416 766.262C-40.1792 751.815 -78.1494 751.461 -114.09 736.231C-144.802 723.126 -170.731 703.272 -180.328 676.053C-189.924 648.834 -179.269 613.799 -156.654 591.414C-136.592 571.533 -111.417 555.937 -84.37 544.276C-59.0996 533.396 -33.6181 520.443 -18.4486 499.501C-2.04589 476.844 1.57751 447.088 2.70966 417.871C3.69232 389.783 2.19313 361.912 7.01642 335.257C13.2073 301.252 29.8604 270.034 54.6523 245.961" stroke="white" stroke-opacity="0.02" stroke-miterlimit="10" />
  </g>
  <g style="mix-blend-mode:multiply">
    <path d="M419.344 1263.37C435.279 1204.77 446.225 1138.19 415.269 1085.7C393.482 1048.99 352.111 1024.89 309.571 1022.92C276.323 1021.39 243.504 1031.86 211.285 1028.54C170.867 1024.38 134.302 997.484 115.448 959.948C94.0858 917.595 97.09 866.184 72.853 826.049C54.6566 795.989 23.1011 775.98 -9.80943 762.964C-45.6278 748.767 -82.3977 744.424 -117.146 729.935C-146.09 717.773 -172.801 699.477 -183.198 672.267C-193.504 645.299 -184.262 611.92 -164.494 589.208C-145.799 567.724 -120.615 552.029 -93.9602 540.292C-70.0023 529.744 -44.9839 519.056 -28.904 499.605C-10.9466 477.874 -6.03175 448.021 -5.09657 419.183C-4.22974 390.901 -6.86713 362.701 -2.8258 335.182C2.42978 299.97 18.6545 267.319 43.5411 241.872" stroke="white" stroke-opacity="0.02" stroke-miterlimit="10" />
  </g>
  <g style="mix-blend-mode:multiply">
    <path d="M416.991 1263.82C432.458 1203.56 444.44 1135.93 413.14 1082.09C391.53 1044.85 349.897 1020.08 306.851 1018.86C273.518 1017.93 240.769 1030.11 207.473 1028.39C165.725 1026.23 126.014 1000.41 106.972 963.208C85.1311 920.409 90.1776 867.281 66.2327 825.623C48.1775 794.202 15.8131 773.521 -17.6564 759.628C-51.1258 745.734 -86.6869 737.409 -120.174 723.607C-147.341 712.409 -174.847 695.634 -186.059 668.435C-197.032 641.803 -189.439 610.112 -172.307 586.969C-155.174 563.826 -129.786 548.089 -103.58 536.246C-80.9514 526.017 -56.3965 517.646 -39.359 499.589C-19.7929 478.852 -13.6537 448.853 -12.9008 420.391C-12.1478 391.929 -15.9515 363.298 -12.6657 335.003C-8.34771 298.59 7.44366 264.502 32.4239 237.672" stroke="white" stroke-opacity="0.02" stroke-miterlimit="10" />
  </g>
  <g style="mix-blend-mode:multiply">
    <path d="M-43.4656 1179.83C-7.65284 1183.44 21.7121 1147.45 26.413 1111.75C31.1139 1076.06 18.7986 1040.66 10.6132 1005.59C2.42776 970.52 -0.961328 930.933 19.0537 901.02C44.6458 862.768 100.156 852.765 124.135 813.437C142.803 782.81 136.055 743.668 120.906 713.059C112.337 695.768 98.2561 681.231 88.2935 664.74C43.1263 589.981 -45.586 586.937 -60.3374 522.88C-76.314 453.507 -43.2346 414.901 -19.975 401.192C9.81297 383.643 87.4943 353.726 143.594 421.295C166.39 448.749 190.584 475.791 220.24 495.702C264.592 525.488 331.212 523.699 366.335 483.496C390.381 455.928 398.416 414.251 429.636 395.178C450.621 382.348 478.101 383.394 500.547 393.473C522.993 403.551 540.991 421.603 555.709 441.325" stroke="white" stroke-opacity="0.02" stroke-miterlimit="10" />
  </g>
  <g style="mix-blend-mode:multiply">
    <path d="M-45.2849 1178.27C-8.46004 1180.46 22.4505 1144.65 27.8933 1107.89C33.2057 1072 20.9676 1035.99 12.0125 1000.94C3.16497 966.307 -1.39424 927.729 16.7256 897.94C39.9317 859.899 92.5748 848.124 116.198 808.881C134.918 777.633 130.387 739.037 116.994 707.708C109.31 689.693 95.9963 673.877 85.8771 656.605C42.9992 583.387 -42.8311 579.241 -57.3986 516.622C-73.0093 449.209 -41.7486 410.851 -18.8665 396.615C10.1186 378.61 84.9661 350.043 140.354 413.839C163.192 440.147 187.859 466.175 217.288 485.741C260.579 514.649 324.875 513.422 359.706 475.416C383.809 449.122 392.909 408.908 423.726 389.911C444.763 376.909 471.849 377.018 494.432 385.76C517.22 394.579 536.188 411.19 551.923 430.103" stroke="white" stroke-opacity="0.02" stroke-miterlimit="10" />
  </g>
  <g style="mix-blend-mode:multiply">
    <path d="M-47.1101 1176.71C-9.31733 1177.5 23.1766 1141.87 29.3739 1104.02C35.2812 1067.92 23.1453 1031.34 13.4187 996.291C3.882 962.052 -1.81192 924.524 14.4146 894.873C35.2348 857.043 85.1005 843.552 108.305 804.319C127.16 772.446 124.757 734.408 113.15 702.303C106.346 683.519 93.8002 666.493 83.5373 648.422C42.8302 576.813 -40.0718 571.575 -54.3666 510.329C-69.6093 444.891 -40.1673 406.781 -17.6863 392.066C10.4896 373.614 82.5536 346.382 137.177 406.404C160.08 431.572 185.15 456.572 214.402 475.817C256.629 503.83 318.59 503.145 353.131 467.352C377.298 442.324 387.464 403.588 417.873 384.675C439.013 371.434 465.675 370.663 488.38 378.068C511.539 385.624 531.441 400.807 548.208 418.909" stroke="white" stroke-opacity="0.02" stroke-miterlimit="10" />
  </g>
  <g style="mix-blend-mode:multiply">
    <path d="M-48.9145 1175.14C-10.0807 1174.58 23.9195 1139.06 30.8735 1100.12C37.3627 1063.84 25.3503 1026.66 14.8393 991.635C4.7097 957.843 -2.24863 921.292 12.1224 891.782C30.5483 854.156 77.5654 838.921 100.415 799.72C119.336 767.276 119.165 729.677 109.31 696.875C103.448 677.344 91.5999 659.079 81.1868 640.218C42.5829 570.272 -37.283 563.853 -51.389 503.968C-66.2741 440.484 -38.6482 402.585 -16.5516 387.404C10.8106 368.527 80.1502 342.623 133.958 398.885C156.933 422.904 182.462 446.786 211.47 465.779C252.725 492.797 312.284 492.759 346.528 459.186C370.771 435.407 382.022 398.23 411.976 379.339C433.238 365.94 459.493 364.195 482.284 370.278C505.822 376.562 526.65 390.31 544.45 407.615" stroke="white" stroke-opacity="0.02" stroke-miterlimit="10" />
  </g>
  <g style="mix-blend-mode:multiply">
    <path d="M-50.7523 1173.6C-10.9443 1171.62 24.61 1136.29 32.3082 1096.25C39.3962 1059.78 27.5494 1021.99 16.258 987.018C5.51038 953.652 -2.67059 918.11 9.81546 888.744C25.8555 851.329 70.0391 834.296 92.5325 795.18C111.533 762.095 113.601 724.979 105.47 691.499C100.513 671.166 89.3764 651.712 78.826 632.045C42.2382 563.841 -34.5044 556.161 -48.401 497.681C-62.9138 436.149 -37.0948 398.587 -15.3984 382.821C11.1502 363.52 77.8184 338.891 130.754 391.416C153.834 414.311 179.743 437.109 208.557 455.82C248.782 481.917 306.017 482.443 339.935 451.094C364.267 428.6 376.553 392.89 406.113 374.081C427.453 360.477 453.342 357.791 476.213 362.559C500.181 367.571 521.891 379.891 540.715 396.379" stroke="white" stroke-opacity="0.02" stroke-miterlimit="10" />
  </g>
  <g style="mix-blend-mode:multiply">
    <path d="M-52.5777 1172.05C-11.7786 1168.67 25.3109 1133.49 33.8286 1092.39C41.4254 1055.7 29.729 1017.35 17.639 982.345C6.26072 949.423 -3.16746 914.818 7.4626 885.645C21.0455 848.413 62.4493 829.701 84.5895 790.579C103.661 756.901 108.025 720.193 101.575 686.056C97.5954 664.949 87.1611 644.352 76.4527 623.837C41.803 557.408 -31.7383 548.434 -45.419 491.35C-59.5722 431.786 -35.568 394.502 -14.2658 378.196C11.444 358.451 75.5498 335.129 127.537 383.911C150.765 405.662 177.014 427.411 205.62 445.804C244.795 470.991 299.771 472.116 333.296 442.993C357.735 421.759 371.06 387.545 400.187 368.802C421.621 355.005 447.148 351.34 470.09 354.839C494.437 358.527 517.066 369.474 536.921 385.15" stroke="white" stroke-opacity="0.02" stroke-miterlimit="10" />
  </g>
  <g style="mix-blend-mode:multiply">
    <path d="M-54.3947 1170.5C-12.5963 1165.73 25.9991 1130.71 35.3175 1088.53C43.465 1051.64 31.9528 1012.7 19.047 977.706C7.07187 945.2 -3.632 911.656 5.15139 882.578C16.3066 845.525 54.9079 825.078 76.7029 786.009C95.8331 751.701 102.535 715.432 97.7643 680.675C94.7006 658.736 84.9541 636.998 74.1377 615.673C41.3583 551.072 -28.9139 540.751 -42.3788 485.062C-56.1661 427.46 -33.9829 390.461 -13.0686 373.607C11.888 353.497 73.4348 331.338 124.387 376.457C148.924 398.259 175.123 418.116 202.745 435.848C240.883 460.123 293.612 461.829 326.774 434.876C351.336 414.9 365.677 382.178 394.379 363.506C415.879 349.536 441.092 344.863 464.089 347.081C488.868 349.46 512.377 359.015 533.257 373.889" stroke="white" stroke-opacity="0.02" stroke-miterlimit="10" />
  </g>
  <g style="mix-blend-mode:multiply">
    <path d="M-56.2052 1168.94C-13.4223 1162.78 26.6961 1127.88 36.8045 1084.65C45.4879 1047.56 34.1748 1008.03 20.4615 973.059C7.90231 940.953 -4.0728 908.446 2.832 879.505C11.6263 842.682 47.3436 820.45 68.7997 781.426C87.9988 746.509 97.0636 710.648 93.8784 675.238C91.8418 652.51 82.6759 629.617 71.7478 607.451C40.7753 544.71 -26.1791 533.013 -39.4008 478.701C-52.824 423.044 -32.4371 386.351 -11.9253 368.951C12.2362 348.444 77.2669 321.199 121.147 368.948C141.88 391.435 171.592 408.055 199.8 425.826C236.896 449.197 287.396 451.499 320.176 426.687C344.892 407.981 360.202 376.742 388.52 358.173C409.138 344.828 433.409 338.245 457.955 339.34C483.157 340.389 507.534 348.585 529.446 362.647" stroke="white" stroke-opacity="0.02" stroke-miterlimit="10" />
  </g>
  <g style="mix-blend-mode:multiply">
    <path d="M-58.0303 1167.38C-14.2736 1159.86 27.309 1125.09 38.2855 1080.79C47.488 1043.48 36.4117 1003.37 21.8679 968.406C8.6947 936.756 -4.51342 905.237 0.521121 876.438C6.91473 839.828 39.7794 815.823 60.8884 776.837C80.1481 741.305 91.5992 705.855 90.0093 669.815C88.9664 646.273 80.4147 622.249 69.3684 599.252C40.1542 538.399 -23.4044 525.293 -36.4377 472.395C-49.5142 418.724 -30.9125 382.304 -10.8116 364.351C12.5652 343.468 75.5336 316.669 117.931 361.444C138.596 383.257 168.863 398.357 196.873 415.817C232.92 438.293 281.253 441.211 313.545 418.593C338.438 401.16 354.702 371.391 382.578 352.881C403.149 339.262 427.209 331.851 451.887 331.531C477.83 331.346 503.343 338.19 525.716 351.336" stroke="white" stroke-opacity="0.02" stroke-miterlimit="10" />
  </g>
  <g style="mix-blend-mode:multiply">
    <path d="M-59.8472 1165.83C-15.0804 1156.89 28.0056 1122.32 39.7726 1076.91C49.5154 1039.38 38.6568 998.708 23.2869 963.736C9.54631 932.497 -4.92676 902.009 -1.77918 873.339C2.24515 836.953 32.2342 811.17 53.0146 772.25C72.3328 736.088 86.2037 701.074 86.1841 664.384C86.1728 640.031 78.1846 614.89 67.0475 591.043C39.5283 532.11 -20.5857 517.566 -33.4033 466.064C-46.101 414.336 -29.3146 378.247 -9.62023 359.718C12.9822 338.48 73.7616 312.188 114.767 353.939C135.462 375.074 166.18 388.667 193.991 405.817C228.99 427.396 275.185 430.928 306.967 410.446C332.054 394.299 349.254 365.988 376.721 347.562C397.269 333.69 421.112 325.476 445.852 323.747C472.248 322.1 498.593 327.737 522.011 340.042" stroke="white" stroke-opacity="0.02" stroke-miterlimit="10" />
  </g>
  <g style="mix-blend-mode:multiply">
    <path d="M-61.6725 1164.27C-15.9063 1153.94 28.6541 1119.52 41.2699 1073.05C51.5045 1035.33 40.9248 994.053 24.6988 959.126C10.3698 928.311 -5.37006 898.837 -4.09472 870.295C-2.47944 834.116 24.6589 806.573 45.1108 767.72C64.4665 730.938 80.8185 696.315 82.3225 659.018C83.3428 633.854 75.9034 607.599 64.682 582.894C38.8091 525.909 -17.8181 509.906 -30.4263 459.808C-42.7516 410.032 -27.7677 374.257 -8.47793 355.167C13.382 333.532 71.8688 307.814 111.56 346.508C132.42 366.856 163.446 379.045 191.065 395.874C225.008 416.567 269.101 420.751 300.379 402.398C325.622 387.535 343.784 360.648 370.843 342.306C392.703 327.486 416.586 318.739 439.754 316.047C466.595 312.935 493.777 317.365 518.25 328.839" stroke="white" stroke-opacity="0.02" stroke-miterlimit="10" />
  </g>
  <g style="mix-blend-mode:multiply">
    <path d="M-63.4892 1162.72C-16.7321 1150.99 29.288 1116.72 42.7342 1069.17C53.4795 1031.24 43.1663 989.365 26.0886 954.46C11.2069 924.056 -5.82538 895.629 -6.42228 867.216C-7.19937 831.256 17.078 801.933 37.2057 763.123C56.6014 725.683 75.4508 691.517 78.4682 653.593C80.5347 627.615 73.6083 600.257 62.3237 574.683C38.0549 519.668 -15.0624 502.211 -27.4229 453.467C-39.3906 405.645 -26.1905 370.211 -7.31756 350.523C13.7424 328.568 63.6409 311.715 108.358 339.001C132.927 353.986 160.718 369.347 188.161 385.87C221.047 405.661 263.056 410.526 293.802 394.252C319.343 380.728 338.332 355.269 364.984 337.026C386.922 322 410.49 312.178 433.696 308.311C460.974 303.726 488.998 306.944 514.536 317.593" stroke="white" stroke-opacity="0.02" stroke-miterlimit="10" />
  </g>
  <g style="mix-blend-mode:multiply">
    <path d="M-65.3146 1161.17C-17.5665 1148.04 29.9197 1113.91 44.2295 1065.3C55.4562 1027.15 45.4387 984.686 27.4966 949.821C12.0686 919.819 -6.25164 892.418 -8.7419 864.143C-11.905 828.393 9.47364 797.288 29.3023 758.539C48.7458 720.502 70.093 686.739 74.607 648.175C77.7346 621.382 71.277 592.928 59.9478 566.513C37.2709 513.43 -12.3764 494.501 -24.4454 447.158C-36.1484 401.325 -24.6246 366.195 -6.18121 345.928C14.1191 323.615 61.9159 307.588 105.137 331.519C130.056 345.304 157.971 359.688 185.228 375.884C217.078 394.815 257.01 400.405 287.183 386.14C313.025 373.919 332.856 349.884 359.092 331.719C381.113 316.48 404.343 305.579 427.604 300.55C455.303 294.482 484.168 296.485 510.773 306.322" stroke="white" stroke-opacity="0.02" stroke-miterlimit="10" />
  </g>
  <g style="mix-blend-mode:multiply">
    <path d="M-67.1247 1159.61C-18.392 1145.09 30.5373 1111.1 45.7107 1061.43C57.4252 1023.06 47.7182 980 28.9033 945.168C12.9144 915.569 -6.6836 889.214 -11.0608 861.069C-16.5952 825.529 1.89293 792.647 21.393 753.965C40.8931 715.282 64.7672 681.973 70.7714 642.776C74.9934 615.194 68.9667 585.64 57.6294 558.319C36.4402 507.288 -9.55524 486.79 -21.4084 440.842C-32.7454 396.969 -22.9991 362.172 -4.99372 341.318C14.5572 318.67 60.3207 303.361 102.009 324.003C127.304 336.553 155.31 349.988 182.375 365.865C213.146 383.904 251.114 390.226 280.658 377.994C306.764 367.192 327.48 344.51 353.259 326.405C375.364 310.952 398.261 298.963 421.571 292.781C449.686 285.236 479.393 286.025 507.079 295.05" stroke="white" stroke-opacity="0.02" stroke-miterlimit="10" />
  </g>
  <g style="mix-blend-mode:multiply">
    <path d="M-68.95 1158.05C-19.2179 1142.14 31.1542 1108.29 47.1977 1057.55C59.4019 1018.98 50.0118 975.311 30.3177 940.52C13.7742 911.318 -7.10146 886.009 -13.3804 857.996C-21.2924 822.672 -5.69669 788 13.4896 749.382C32.9958 710.069 59.4595 677.233 66.8936 637.345C72.2016 608.967 66.5764 578.318 55.2476 550.104C35.5486 501.087 -6.79738 479.056 -18.4495 434.505C-29.4058 392.592 -21.4203 358.14 -3.86313 336.678C14.9467 313.701 58.722 299 98.7586 316.525C124.473 327.782 152.528 340.342 179.413 355.882C209.116 373.051 245.096 380.154 274.016 369.878C300.418 360.506 321.931 339.082 347.349 321.138C369.539 305.471 392.087 292.382 415.462 285.059C443.98 276.025 474.535 275.595 503.307 283.826" stroke="white" stroke-opacity="0.02" stroke-miterlimit="10" />
  </g>
  <g style="mix-blend-mode:multiply">
    <path d="M-70.7673 1156.5C-20.0507 1139.2 31.7479 1105.48 48.6781 1053.69C61.3618 1014.88 52.3116 970.615 31.7173 935.876C14.6486 907.065 -7.53432 882.806 -15.7003 854.923C-25.9836 819.809 -13.293 783.362 5.59421 744.806C25.1654 704.855 54.133 672.467 63.0406 631.934C69.4681 602.785 64.1899 571.026 52.8907 541.909C34.6716 494.885 -4.01472 471.342 -15.451 428.187C-26.0413 388.234 -19.823 354.136 -2.76025 332.057C15.315 308.743 57.1345 294.556 95.4974 309.026C121.673 318.904 149.723 330.692 176.453 345.863C205.088 362.161 239.097 370.109 267.379 361.74C294.103 353.832 316.394 333.692 341.433 315.827C363.69 299.935 385.881 285.738 409.339 277.287C438.248 266.764 469.647 265.113 499.513 272.545" stroke="white" stroke-opacity="0.02" stroke-miterlimit="10" />
  </g>
  <g style="mix-blend-mode:multiply">
    <path d="M-72.5754 1154.95C-20.8761 1136.25 32.3487 1102.65 50.1337 1049.85C63.2904 1010.82 54.593 965.942 33.0919 931.264C15.4981 902.845 -7.98352 879.642 -18.0429 851.897C-30.6974 816.992 -20.9288 778.759 -2.34713 740.273C17.2384 699.697 48.8085 667.767 59.1563 626.564C66.6827 596.603 61.7361 563.788 50.496 533.763C33.6762 488.802 -1.27421 463.7 -12.4839 421.91C-22.6935 383.915 -18.234 350.177 -1.58809 327.502C15.7692 303.863 55.6702 290.02 92.3202 301.591C118.977 310.01 147.029 321.086 173.527 335.973C201.096 351.415 233.137 360.239 260.781 353.723C287.82 347.34 310.908 328.391 335.548 310.632C357.881 294.52 379.714 279.216 403.263 269.644C432.553 257.628 464.799 254.752 495.767 261.392" stroke="white" stroke-opacity="0.02" stroke-miterlimit="10" />
  </g>
  <g style="mix-blend-mode:multiply">
    <path d="M-74.4087 1153.39C-21.7018 1133.3 32.943 1099.84 51.6467 1045.94C65.2764 1006.69 56.9337 961.211 34.5388 926.576C16.4115 898.542 -8.32043 876.367 -20.3301 848.783C-35.2926 814.056 -28.4862 774.07 -10.2099 735.655C9.43224 694.435 43.5454 663.023 55.3358 621.111C63.9753 590.388 59.3104 556.479 48.1716 525.526C32.7324 482.601 1.64659 455.893 -9.45932 415.558C-19.2312 379.499 -16.5747 346.128 -0.400194 322.84C16.2411 298.891 54.2228 285.272 89.1608 294.064C117.582 301.174 144.983 311.879 170.699 325.921C197.187 340.51 227.268 350.267 254.266 345.546C281.638 340.753 305.515 322.952 329.755 305.283C352.164 288.951 373.631 272.533 397.277 261.831C426.943 248.337 460.032 244.233 492.11 250.071" stroke="white" stroke-opacity="0.02" stroke-miterlimit="10" />
  </g>
  <g style="mix-blend-mode:multiply">
    <path d="M-76.2338 1151.83C-22.5276 1130.35 33.5587 1096.96 53.1275 1042.07C67.2283 1002.59 59.2384 956.491 35.9387 921.93C17.299 894.272 -8.79448 873.132 -22.6431 845.701C-40.0235 811.227 -36.0987 769.419 -18.1132 731.072C1.51829 689.209 38.2693 658.294 51.4748 615.693C61.2087 584.18 56.7935 549.219 45.8215 517.321C31.7418 476.443 4.42969 448.179 -6.47072 409.218C-15.8766 375.12 -14.9475 342.119 0.772889 318.18C16.7109 293.904 52.7114 280.382 85.9428 286.492C114.563 291.97 142.159 301.869 167.738 315.834C193.16 329.567 221.249 340.3 247.647 337.315C275.315 334.191 299.959 317.413 323.842 299.881C346.318 283.323 367.425 265.769 391.165 253.975C421.201 238.998 455.139 233.667 488.336 238.712" stroke="white" stroke-opacity="0.02" stroke-miterlimit="10" />
  </g>
  <g style="mix-blend-mode:multiply">
    <path d="M-78.051 1150.28C-23.3537 1127.41 34.1039 1094.18 54.6229 1038.2C69.1549 998.467 61.5639 951.76 37.3197 917.258C18.1593 889.968 -9.22076 869.92 -24.9962 842.602C-44.7307 808.297 -43.8035 764.697 -26.0419 726.47C-6.47312 683.91 32.9614 653.555 47.5885 610.255C58.4773 578.013 54.2007 541.953 43.3992 509.142C30.6688 470.289 7.14722 440.48 -3.52069 402.928C-12.5606 370.791 -13.3527 338.153 1.84774 313.63C17.0481 289.107 51.0566 275.489 82.6953 279.096C110.779 282.297 138.765 292.144 164.786 305.925C189.129 318.819 215.203 330.576 241.002 329.289C268.961 327.896 294.447 312.094 317.925 294.676C340.435 277.865 361.176 259.25 385.042 246.323C415.44 229.857 450.229 223.296 484.551 227.557" stroke="white" stroke-opacity="0.02" stroke-miterlimit="10" />
  </g>
  <g style="mix-blend-mode:multiply">
    <path d="M-79.9015 1148.76C-24.2363 1124.48 34.5553 1091.36 56.072 1034.37C71.0373 994.403 63.8644 947.063 38.7597 912.629C19.1125 885.681 -9.62143 866.728 -27.2947 839.571C-49.3961 805.451 -51.3682 760.122 -33.9058 721.956C-14.2784 678.767 27.7287 648.926 43.7901 604.912C55.815 571.911 51.6222 534.791 41.1161 500.988C29.678 464.183 10.0037 432.808 -0.454763 396.661C-9.12227 366.475 -11.6206 334.198 3.06867 309.045C17.6253 284.135 49.4271 270.442 79.5521 271.634C108.034 272.758 136.067 282.562 161.934 295.973C185.19 308.021 209.216 320.844 234.47 321.204C262.662 321.617 289.028 306.739 312.138 289.37C334.732 272.346 355.067 252.6 379.056 238.563C409.799 220.616 445.423 212.815 480.869 216.268" stroke="white" stroke-opacity="0.02" stroke-miterlimit="10" />
  </g>
  <g style="mix-blend-mode:multiply">
    <path d="M-81.6862 1147.17C-24.9864 1121.54 35.2403 1088.5 57.5912 1030.46C73.061 990.275 66.2369 942.289 40.143 907.972C19.9623 881.409 -10.0704 863.512 -29.5929 836.487C-54.1015 802.589 -58.9283 755.471 -41.8003 717.327C-22.1374 673.504 22.4654 644.181 39.9297 599.441C53.0927 565.698 48.9163 527.519 38.7793 492.715C28.6422 457.912 12.7981 425.01 2.56185 390.25C-5.7544 362.026 -9.92751 330.121 4.25258 304.354C18.1374 279.128 47.6058 265.197 76.3949 264.069C105.184 262.941 133.348 272.885 159.057 285.897C181.221 297.123 203.15 311.026 227.907 313.003C256.317 315.276 283.595 301.282 306.273 284.045C328.951 266.808 348.866 245.933 372.983 230.777C404.081 211.369 440.553 202.356 477.127 205.04" stroke="white" stroke-opacity="0.02" stroke-miterlimit="10" />
  </g>
</svg>
  