<svg width="954" height="928" viewBox="0 0 954 928" fill="none" xmlns="http://www.w3.org/2000/svg">
<g style="mix-blend-mode:multiply">
<g style="mix-blend-mode:multiply">
<path d="M619.947 1165.58C619.184 1137.69 620.091 1109.78 622.664 1081.99C623.805 1069.65 625.372 1057.03 630.931 1045.95C645.142 1017.61 680.385 1007.58 711.944 1004.61C741.04 1001.89 770.354 1002.63 799.269 1006.83C827.835 1010.99 856.503 1018.55 885.313 1015.92C914.123 1013.29 944.256 997.398 952.906 969.793C958.053 953.364 954.775 935.145 947.05 919.776C939.324 904.408 927.463 891.505 914.964 879.687C900.639 866.157 884.652 852.843 878.158 834.242C871.437 814.982 877.028 792.009 891.85 777.986C912.939 758.039 945.294 758.555 974.23 756.331C1011 753.496 1048.61 743.54 1076.55 719.472C1104.49 695.404 1120.36 654.913 1107.75 620.281" stroke="black" stroke-opacity="0.02" stroke-miterlimit="10"/>
</g>
<g style="mix-blend-mode:multiply">
<path d="M627.566 1169.25C626.79 1141.85 627.766 1114.41 630.487 1087.13C631.688 1075 633.31 1062.65 638.77 1051.75C649.734 1029.85 673.185 1018.78 697.608 1013.31C704.201 1011.85 710.867 1010.75 717.576 1010C745.93 1006.77 774.565 1006.94 802.874 1010.5C830.896 1014.02 858.98 1021.01 887.237 1018.09C903.079 1016.45 919.32 1011.19 932.528 1002.37C944.02 994.684 953.226 984.181 957.515 971.041C958.289 968.696 958.896 966.299 959.332 963.869C962.06 948.948 958.572 933.152 951.763 919.396C949.59 915.007 947.13 910.766 944.401 906.699C937.326 896.072 928.711 886.424 919.889 877.318C905.942 862.865 891.052 848.459 885.193 829.425C879.333 810.392 884.615 788.33 899.022 774.558C919.524 754.969 950.777 754.874 978.611 752.092C980.798 751.872 983.004 751.625 985.191 751.352C1018.39 747.198 1051.47 736.633 1076.2 714.307C1102.56 690.509 1117.14 651.137 1104.4 617.611" stroke="black" stroke-opacity="0.02" stroke-miterlimit="10"/>
</g>
<g style="mix-blend-mode:multiply">
<path d="M635.168 1172.93C634.396 1146 635.436 1119.06 638.283 1092.27C639.544 1080.38 641.246 1068.27 646.598 1057.55C657.379 1036.07 680.066 1024.83 703.796 1019.04C710.209 1017.5 716.695 1016.29 723.23 1015.42C750.84 1011.72 778.791 1011.32 806.491 1014.23C833.876 1017.07 861.464 1023.51 889.207 1020.28C905.503 1018.39 922.238 1013.08 935.975 1004.18C947.886 996.38 957.603 985.751 962.261 972.262C963.088 969.857 963.743 967.397 964.223 964.9C967.205 949.533 963.568 933.282 956.725 919.05C954.517 914.508 952.032 910.107 949.285 905.87C942.166 894.839 933.653 884.65 925.063 874.984C911.43 859.575 897.673 844.142 892.463 824.625C887.535 806.082 892.445 784.675 906.436 771.156C926.358 751.932 956.493 751.224 983.225 747.884C985.328 747.623 987.435 747.332 989.545 747.012C1021.39 742.229 1052.82 731.244 1076.07 709.17C1100.86 685.636 1114.17 647.399 1101.28 614.978" stroke="black" stroke-opacity="0.02" stroke-miterlimit="10"/>
</g>
<g style="mix-blend-mode:multiply">
<path d="M642.784 1176.61C641.988 1150.15 643.089 1123.66 646.079 1097.36C647.43 1085.74 649.157 1073.83 654.419 1063.3C664.974 1042.16 686.952 1030.84 709.978 1024.72C716.213 1023.09 722.526 1021.79 728.894 1020.82C755.769 1016.61 783.048 1015.64 810.15 1017.92C836.996 1020.14 863.954 1025.97 891.146 1022.49C907.924 1020.36 925.115 1015 939.404 1006C951.775 998.177 961.982 987.305 966.925 973.532C967.819 971.06 968.534 968.527 969.066 965.953C972.294 950.147 968.522 933.443 961.556 918.67C959.324 913.978 956.823 909.418 954.067 905.012C946.931 893.544 938.452 882.88 930.115 872.61C916.864 856.3 904.183 839.818 899.617 819.794C895.486 801.686 900.171 781.006 913.734 767.723C933.062 748.847 962.094 747.543 987.723 743.645C989.75 743.336 991.764 743.011 993.784 742.641C1024.28 737.222 1054.07 725.826 1075.84 703.998C1099.06 680.728 1111.07 643.616 1098.05 612.316" stroke="black" stroke-opacity="0.02" stroke-miterlimit="10"/>
</g>
<g style="mix-blend-mode:multiply">
<path d="M650.375 1180.3C649.581 1154.34 650.756 1128.35 653.89 1102.55C655.277 1091.12 657.101 1079.5 662.247 1069.15C672.608 1048.4 693.88 1036.99 716.159 1030.51C722.261 1028.75 728.449 1027.36 734.509 1026.25C760.624 1021.53 787.209 1019.96 813.695 1021.57C839.919 1023.17 866.413 1028.32 893.026 1024.63C910.272 1022.25 927.944 1016.82 942.757 1007.72C955.571 999.835 966.275 988.781 971.513 974.702C972.458 972.178 973.219 969.588 973.789 966.954C977.246 950.721 973.358 933.537 966.287 918.263C964.024 913.414 961.498 908.694 958.719 904.122C951.565 892.232 943.204 881.014 935.065 870.207C922.124 852.919 910.557 835.505 906.662 814.941C903.312 797.266 907.765 777.267 920.963 764.303C939.698 745.776 967.618 743.867 992.146 739.411C994.074 739.059 996.012 738.686 997.914 738.301C1027.07 732.232 1055.21 720.43 1075.5 698.848C1097.13 675.855 1107.88 639.872 1094.71 609.67" stroke="black" stroke-opacity="0.02" stroke-miterlimit="10"/>
</g>
<g style="mix-blend-mode:multiply">
<path d="M658.017 1183.96C657.212 1158.48 658.452 1132.97 661.727 1107.68C663.175 1096.46 665.056 1085.09 670.118 1074.93C680.255 1054.56 700.782 1043 722.42 1036.28C728.327 1034.4 734.333 1032.91 740.222 1031.68C765.595 1026.46 791.501 1024.32 817.381 1025.28C843.003 1026.23 868.974 1030.75 895.035 1026.83C912.749 1024.19 930.906 1018.72 946.269 1009.54C959.52 1001.59 970.72 990.351 976.275 975.977C977.276 973.397 978.082 970.745 978.687 968.045C982.423 951.346 978.37 933.721 971.201 917.939C968.903 912.941 966.356 908.061 963.57 903.318C956.382 891.003 948.09 879.27 940.185 867.887C927.576 849.684 917.117 831.315 913.885 810.163C911.291 792.941 915.547 773.636 928.306 760.875C946.446 742.712 973.264 740.193 996.681 735.184C998.533 734.785 1000.37 734.369 1002.21 733.924C1030 727.194 1056.54 714.984 1075.33 693.676C1095.38 670.938 1104.85 636.075 1091.55 607.001" stroke="black" stroke-opacity="0.02" stroke-miterlimit="10"/>
</g>
<g style="mix-blend-mode:multiply">
<path d="M665.628 1187.63C664.815 1162.63 666.124 1137.59 669.54 1112.8C671.039 1101.83 672.992 1090.7 677.955 1080.72C687.892 1060.73 707.684 1049.07 728.617 1042.01C734.348 1040.05 740.166 1038.45 745.877 1037.1C770.501 1031.38 795.723 1028.66 820.995 1028.98C846.028 1029.29 871.447 1033.12 896.962 1029.02C915.148 1026.09 933.814 1020.64 949.683 1011.32C963.393 1003.29 975.066 991.879 980.923 977.207C981.985 974.565 982.84 971.844 983.482 969.07C987.477 951.948 983.283 933.862 976.004 917.556C973.683 912.361 971.063 907.33 968.31 902.454C961.1 889.732 952.879 877.468 945.206 865.524C932.916 846.388 923.511 827.08 921.017 805.336C919.084 788.614 923.233 769.946 935.568 757.444C953.135 739.64 978.827 736.514 1001.15 730.941C1002.91 730.507 1004.67 730.044 1006.42 729.555C1032.89 722.208 1057.74 709.58 1075.06 688.498C1093.57 665.999 1101.76 632.336 1088.26 604.309" stroke="black" stroke-opacity="0.02" stroke-miterlimit="10"/>
</g>
<g style="mix-blend-mode:multiply">
<path d="M673.236 1191.32C672.422 1166.79 673.799 1142.23 677.351 1117.95C678.911 1107.19 680.936 1096.31 685.791 1086.52C695.528 1066.91 714.586 1055.13 734.821 1047.75C740.361 1045.7 745.993 1043.98 751.539 1042.51C775.405 1036.3 799.931 1033.01 824.584 1032.69C849.013 1032.36 873.9 1035.51 898.894 1031.21C917.544 1028.02 936.662 1022.49 953.091 1013.13C967.227 1005.05 979.434 993.455 985.589 978.463C986.707 975.762 987.611 972.977 988.294 970.135C992.543 952.567 988.199 934.026 980.856 917.187C978.504 911.831 975.859 906.647 973.09 901.611C965.856 888.458 957.719 875.666 950.272 863.152C938.33 843.088 929.944 822.88 928.178 800.514C926.905 784.291 930.961 766.263 942.88 754.013C959.852 736.572 984.41 732.794 1005.66 726.711C1007.33 726.229 1009 725.723 1010.66 725.193C1035.78 717.202 1058.99 704.162 1074.83 683.341C1091.73 661.138 1098.65 628.528 1085.1 601.648" stroke="black" stroke-opacity="0.02" stroke-miterlimit="10"/>
</g>
<g style="mix-blend-mode:multiply">
<path d="M680.846 1194.99C680.021 1170.93 681.464 1146.85 685.159 1123.07C686.79 1112.56 688.834 1101.93 693.621 1092.31C703.163 1073.1 721.466 1061.25 741.018 1053.48C746.375 1051.34 751.807 1049.5 757.188 1047.92C780.315 1041.2 804.172 1037.31 828.233 1036.35C852.059 1035.37 876.409 1037.82 900.854 1033.38C919.962 1029.9 939.563 1024.34 956.535 1014.89C971.108 1006.75 983.812 994.971 990.268 979.682C991.44 976.918 992.396 974.068 993.126 971.157C997.628 953.158 993.118 934.123 985.663 916.826C983.28 911.309 980.613 905.957 977.833 900.769C970.566 887.193 962.531 873.859 955.291 860.804C943.685 839.794 936.301 818.7 935.3 795.708C934.626 779.991 938.636 762.594 950.139 750.597C966.533 733.506 990.012 729.165 1010.12 722.482C1011.71 721.958 1013.29 721.41 1014.86 720.839C1038.63 712.213 1060.18 698.78 1074.56 678.177C1089.88 656.251 1095.52 624.77 1081.79 599.021" stroke="black" stroke-opacity="0.02" stroke-miterlimit="10"/>
</g>
<g style="mix-blend-mode:multiply">
<path d="M688.47 1198.67C687.633 1175.1 689.141 1151.49 692.971 1128.21C694.648 1117.92 696.81 1107.53 701.465 1098.12C710.787 1079.26 728.417 1067.29 747.222 1059.21C752.396 1057 757.647 1055.04 762.842 1053.34C785.224 1046.12 808.398 1041.66 831.854 1040.05C855.09 1038.43 878.898 1040.18 902.795 1035.57C922.4 1031.79 942.451 1026.23 959.969 1016.68C974.985 1008.48 988.202 996.505 994.943 980.931C996.173 978.109 997.177 975.195 997.947 972.215C1002.7 953.762 998.06 934.32 990.493 916.462C988.092 910.8 985.387 905.278 982.592 899.931C975.305 885.932 967.339 872.083 960.348 858.453C949.083 836.507 942.624 814.546 942.445 790.898C942.34 775.699 946.342 758.915 957.437 747.179C973.235 730.451 995.604 725.491 1014.61 718.265C1016.12 717.693 1017.61 717.104 1019.09 716.49C1041.54 707.238 1061.42 693.337 1074.33 673.026C1088.05 651.362 1092.42 621.008 1078.56 596.38" stroke="black" stroke-opacity="0.02" stroke-miterlimit="10"/>
</g>
<g style="mix-blend-mode:multiply">
<path d="M696.081 1202.34C695.251 1179.26 696.837 1156.15 700.814 1133.39C702.553 1123.32 704.765 1113.17 709.328 1103.95C718.456 1085.48 735.371 1073.42 753.459 1065C758.436 1062.68 763.505 1060.62 768.529 1058.75C790.158 1051.03 812.649 1045.99 835.499 1043.74C858.132 1041.47 881.408 1042.49 904.768 1037.75C924.81 1033.67 945.365 1028.1 963.427 1018.47C978.87 1010.2 992.575 998.051 999.644 982.161C1000.93 979.278 1001.98 976.297 1002.79 973.246C1007.8 954.355 1003.04 934.44 995.354 916.086C992.914 910.269 990.185 904.594 987.381 899.081C980.061 884.658 972.18 870.281 965.407 856.087C954.501 833.192 948.95 810.377 949.615 786.068C950.038 771.404 954.063 755.238 964.75 743.747C979.995 727.351 1001.21 721.819 1019.12 714.02C1020.53 713.412 1021.94 712.774 1023.33 712.119C1044.42 702.215 1062.69 687.943 1074.13 667.82C1086.29 646.429 1089.37 617.187 1075.37 593.672" stroke="black" stroke-opacity="0.02" stroke-miterlimit="10"/>
</g>
<g style="mix-blend-mode:multiply">
<path d="M703.697 1206.02C702.842 1183.4 704.485 1160.75 708.596 1138.48C710.393 1128.64 712.684 1118.75 717.133 1109.71C726.053 1091.62 742.23 1079.41 759.624 1070.69C764.435 1068.32 769.341 1066.09 774.16 1064.17C795.041 1055.95 816.85 1050.32 839.099 1047.42C861.128 1044.52 883.863 1044.81 906.68 1039.94C927.164 1035.57 948.238 1029.99 966.822 1020.26C982.711 1011.92 996.925 999.602 1004.29 983.406C1005.63 980.458 1006.73 977.405 1007.57 974.277C1012.83 954.947 1007.93 934.579 1000.14 915.701C997.669 909.737 994.885 903.852 992.072 898.241C984.7 883.421 976.936 868.505 970.379 853.748C959.815 829.916 955.073 806.256 956.69 781.272C957.6 767.122 961.734 751.547 971.963 740.34C986.587 724.326 1006.74 718.158 1023.55 709.809C1024.87 709.152 1026.18 708.479 1027.49 707.782C1047.21 697.241 1063.87 682.568 1073.75 662.74C1084.33 641.611 1086.17 613.546 1071.99 591.102" stroke="black" stroke-opacity="0.02" stroke-miterlimit="10"/>
</g>
<g style="mix-blend-mode:multiply">
<path d="M711.307 1209.71C710.45 1187.56 712.162 1165.38 716.408 1143.62C718.292 1133.98 720.621 1124.36 724.97 1115.5C733.684 1097.79 749.133 1085.48 765.829 1076.42C770.44 1073.92 775.128 1071.64 779.824 1069.58C799.965 1060.88 821.101 1054.69 842.753 1051.16C864.185 1047.62 886.369 1047.15 908.661 1042.16C929.635 1037.45 951.128 1031.93 970.289 1022.09C986.614 1013.68 1001.32 1001.18 1009 984.682C1010.41 981.687 1011.57 978.583 1012.48 975.4C1017.99 955.638 1012.95 934.801 1005.06 915.416C1002.55 909.29 999.755 903.298 996.951 897.455C989.577 882.201 981.906 866.749 975.544 851.434C965.368 826.656 961.368 802.15 963.95 776.506C965.32 762.889 969.527 747.947 979.349 736.933C993.386 721.276 1012.46 714.478 1028.16 705.592C1029.39 704.886 1030.62 704.165 1031.81 703.444C1050.19 692.261 1065.18 677.172 1073.62 657.573C1082.62 636.714 1083.14 609.734 1068.87 588.454" stroke="black" stroke-opacity="0.02" stroke-miterlimit="10"/>
</g>
<g style="mix-blend-mode:multiply">
<path d="M718.917 1213.38C718.054 1191.7 719.835 1170 724.222 1148.75C726.125 1139.36 728.551 1129.97 732.807 1121.3C741.321 1103.96 756.068 1091.58 772.026 1082.16C776.448 1079.56 780.962 1077.18 785.472 1074.99C804.858 1065.78 825.308 1059.01 846.355 1054.83C867.191 1050.65 888.83 1049.44 910.592 1044.32C932.02 1039.29 954.039 1033.77 973.704 1023.85C990.463 1015.39 1005.68 1002.7 1013.65 985.906C1015.11 982.847 1016.31 979.671 1017.24 976.413C1022.97 956.23 1017.85 934.934 1009.83 915.014C1007.3 908.727 1004.49 902.569 1001.66 896.573C994.255 880.894 986.686 864.902 980.531 849.044C970.699 823.315 967.42 797.952 971.033 771.651C972.831 758.54 977.164 744.229 986.596 733.501C1000.04 718.215 1017.96 710.807 1032.59 701.366C1033.73 700.619 1034.87 699.855 1036 699.068C1053.04 687.249 1066.39 671.74 1073.34 652.402C1080.76 631.799 1080.01 605.954 1065.6 585.772" stroke="black" stroke-opacity="0.02" stroke-miterlimit="10"/>
</g>
<g style="mix-blend-mode:multiply">
<path d="M726.535 1217.05C725.665 1195.85 727.516 1174.62 732.043 1153.89C734.013 1144.72 736.537 1135.55 740.653 1127.09C748.956 1110.15 762.941 1097.59 778.231 1087.89C782.471 1085.2 786.763 1082.68 791.127 1080.41C809.753 1070.69 829.515 1063.33 849.958 1058.5C870.19 1053.67 891.287 1051.7 912.514 1046.49C934.402 1041.11 956.902 1035.62 977.119 1025.62C994.315 1017.08 1010.03 1004.22 1018.3 987.122C1019.82 984 1021.07 980.759 1022.05 977.431C1028.06 956.777 1022.74 935.027 1014.64 914.616C1012.08 908.176 1009.24 901.856 1006.4 895.694C998.969 879.6 991.46 863.098 985.556 846.651C976.072 819.994 973.451 793.744 978.159 766.815C980.409 754.192 984.852 740.524 993.874 730.057C1006.74 715.122 1023.55 707.132 1037.05 697.123C1038.11 696.318 1039.17 695.507 1040.22 694.701C1055.92 682.24 1067.62 666.326 1073.09 647.226C1078.92 626.885 1076.9 602.175 1062.37 583.08" stroke="black" stroke-opacity="0.02" stroke-miterlimit="10"/>
</g>
<g style="mix-blend-mode:multiply">
<path d="M734.153 1220.73C733.274 1200 735.193 1179.24 739.857 1159.02C741.894 1150.07 744.443 1141.18 748.507 1132.88C756.597 1116.3 769.827 1103.67 784.452 1093.62C788.502 1090.84 792.634 1088.23 796.807 1085.81C814.672 1075.59 833.749 1067.65 853.59 1062.18C873.226 1056.7 893.741 1053.92 914.461 1048.64C936.8 1042.91 959.796 1037.47 980.542 1027.38C998.19 1018.77 1014.4 1005.72 1022.95 988.285C1024.53 985.108 1025.83 981.803 1026.84 978.404C1033.12 957.312 1027.65 935.107 1019.45 914.188C1016.86 907.587 1014.02 901.147 1011.14 894.792C1003.68 878.267 996.245 861.22 990.577 844.235C981.387 816.665 979.387 789.463 985.285 761.927C987.877 749.836 992.527 736.803 1001.15 726.575C1013.42 711.995 1029.12 703.395 1041.51 692.84C1042.48 692.002 1043.45 691.156 1044.4 690.285C1058.75 677.18 1068.8 660.853 1072.83 642.056C1077.09 621.994 1073.81 598.377 1059.08 580.432" stroke="black" stroke-opacity="0.02" stroke-miterlimit="10"/>
</g>
<g style="mix-blend-mode:multiply">
<path d="M741.771 1224.41C740.871 1204.15 742.854 1183.87 747.662 1164.17C749.613 1155.38 752.519 1146.84 756.329 1138.69C764.219 1122.49 776.75 1109.71 790.634 1099.36C794.494 1096.49 798.444 1093.78 802.447 1091.25C819.555 1080.54 837.941 1072.02 857.171 1065.9C876.202 1059.8 896.152 1056.31 916.375 1050.88C939.16 1044.78 962.651 1039.4 983.94 1029.22C1002.02 1020.55 1018.74 1007.33 1027.61 989.614C1029.25 986.379 1030.6 983.006 1031.65 979.536C1038.18 958.004 1032.57 935.346 1024.27 913.912C1021.65 907.149 1018.75 900.515 1015.89 894.027C1008.4 877.086 1001.07 859.528 995.608 841.971C986.81 813.426 985.297 785.269 992.42 757.206C995.417 745.558 1000.23 733.206 1008.42 723.243C1020.11 709.005 1034.7 699.815 1046 688.69C1046.89 687.804 1047.76 686.915 1048.63 686.002C1061.64 672.255 1070.05 655.523 1072.55 636.922C1075.23 617.13 1070.68 594.701 1055.82 577.81" stroke="black" stroke-opacity="0.02" stroke-miterlimit="10"/>
</g>
<g style="mix-blend-mode:multiply">
<path d="M749.383 1228.08C748.481 1208.3 750.532 1188.49 755.468 1169.3C757.514 1160.75 760.427 1152.44 764.161 1144.48C771.89 1128.64 783.653 1115.77 796.839 1105.1C800.509 1102.14 804.305 1099.29 808.104 1096.65C824.454 1085.42 842.158 1076.31 860.795 1069.53C879.223 1062.78 898.652 1058.47 918.295 1053.01C941.528 1046.53 965.534 1041.23 987.354 1030.95C1005.84 1022.24 1023.09 1008.81 1032.28 990.794C1033.96 987.501 1035.36 984.067 1036.45 980.532C1043.23 958.554 1037.5 935.429 1029.08 913.485C1026.43 906.569 1023.51 899.773 1020.64 893.134C1013.12 875.763 1005.88 857.684 1000.64 839.549C992.189 810.076 991.059 780.95 999.545 752.333C1002.86 741.184 1007.92 729.479 1015.67 719.787C1026.76 705.921 1040.24 696.112 1050.44 684.428C1051.24 683.508 1052.04 682.571 1052.8 681.615C1064.41 667.468 1071.23 650 1072.26 631.734C1073.36 612.204 1067.47 590.888 1052.52 575.124" stroke="black" stroke-opacity="0.02" stroke-miterlimit="10"/>
</g>
<g style="mix-blend-mode:multiply">
<path d="M756.993 1231.77C756.088 1212.45 758.213 1193.1 763.29 1174.44C765.426 1166.13 768.348 1158.05 772.019 1150.31C779.506 1134.87 790.551 1121.83 803.058 1110.86C806.531 1107.79 810.127 1104.88 813.78 1102.09C829.384 1090.38 846.415 1080.7 864.462 1073.29C882.301 1065.9 901.203 1060.76 920.314 1055.24C943.974 1048.37 968.493 1043.16 990.857 1032.79C1009.81 1023.99 1027.53 1010.4 1037.05 992.131C1038.8 988.779 1040.24 985.279 1041.38 981.672C1048.42 959.256 1042.53 935.677 1034 913.238C1031.31 906.166 1028.37 899.196 1025.49 892.406C1017.95 874.619 1010.8 856.028 1005.81 837.288C997.691 806.869 996.879 776.654 1006.82 747.614C1010.49 736.395 1016 725.859 1023.11 716.433C1033.62 702.917 1045.99 692.503 1055.09 680.261C1055.8 679.292 1056.5 678.32 1057.19 677.331C1067.43 662.449 1072.68 644.699 1072.17 626.647C1071.7 607.389 1064.56 587.166 1049.47 572.591" stroke="black" stroke-opacity="0.02" stroke-miterlimit="10"/>
</g>
<g style="mix-blend-mode:multiply">
<path d="M764.611 1235.45C763.692 1216.59 765.883 1197.72 771.097 1179.57C773.324 1171.5 776.248 1163.64 779.838 1156.08C787.119 1141.02 797.444 1127.86 809.243 1116.58C812.533 1113.4 815.92 1110.37 819.403 1107.47C834.25 1095.26 850.599 1085 868.052 1076.94C885.288 1068.9 903.569 1062.97 922.217 1057.39C946.322 1050.11 971.344 1045 994.254 1034.53C1013.65 1025.67 1031.86 1011.9 1041.65 993.289C1043.46 989.874 1044.96 986.309 1046.14 982.632C1053.42 959.777 1047.4 935.737 1038.77 912.761C1036.08 905.561 1033.09 898.419 1030.2 891.449C1022.63 873.245 1015.55 854.101 1010.79 834.875C1003.02 803.528 1002.5 772.248 1013.9 742.744C1017.99 732.108 1023.52 722.086 1030.34 712.96C1040.26 699.808 1051.54 688.786 1059.51 675.99C1060.14 674.979 1060.76 673.951 1061.34 672.92C1070.21 657.298 1073.89 639.266 1071.86 621.425C1069.8 602.438 1061.39 583.35 1046.13 569.832" stroke="black" stroke-opacity="0.02" stroke-miterlimit="10"/>
</g>
<g style="mix-blend-mode:multiply">
<path d="M772.23 1239.12C771.302 1220.74 773.565 1202.33 778.919 1184.71C781.224 1176.88 784.153 1169.24 787.677 1161.88C794.817 1147.33 804.192 1133.98 815.462 1122.33C818.569 1119.07 821.782 1115.94 825.1 1112.93C839.171 1100.2 854.82 1089.35 871.663 1080.62C888.302 1071.94 906.04 1065.25 924.162 1059.56C948.7 1051.85 974.23 1046.86 997.705 1036.32C1017.54 1027.39 1036.25 1013.42 1046.36 994.519C1048.22 991.045 1049.76 987.412 1050.98 983.663C1058.51 960.377 1052.35 935.875 1043.63 912.391C1040.88 905.005 1037.89 897.721 1034.98 890.605C1027.36 871.996 1020.39 852.299 1015.84 832.501C1008.43 800.211 1008.07 767.739 1021.05 737.903C1025.54 727.85 1031.12 718.318 1037.68 709.48C1047.02 696.693 1057.16 685.054 1064.06 671.704C1064.58 670.664 1065.09 669.592 1065.6 668.527C1073.09 652.18 1075.21 633.883 1071.65 616.263C1068.02 597.531 1058.33 579.57 1042.93 567.173" stroke="black" stroke-opacity="0.02" stroke-miterlimit="10"/>
</g>
<g style="mix-blend-mode:multiply">
<path d="M779.843 1242.79C777.444 1201.13 794.215 1159.54 821.648 1128.05C849.082 1096.55 886.441 1074.72 926.125 1061.77C951.065 1053.62 977.141 1048.76 1001.12 1038.13C1025.11 1027.49 1047.61 1009.66 1055.78 984.735C1066.03 953.54 1051.91 920.228 1039.74 889.773C1019.67 839.693 1004.56 781.65 1028.18 733.098C1039.94 708.917 1060.44 689.408 1069.79 664.195C1082.74 629.236 1069.81 586.404 1039.63 564.517" stroke="black" stroke-opacity="0.02" stroke-miterlimit="10"/>
</g>
</g>
<g style="mix-blend-mode:multiply">
<g style="mix-blend-mode:multiply">
<path d="M512.756 1254.48C487.535 1228.81 497.202 1183.39 522.094 1157.37C546.986 1131.35 582.275 1118.73 614.723 1103.12C647.171 1087.5 680.158 1065.32 690.944 1030.97C704.742 987.051 677.803 937.522 693.471 894.197C705.663 860.44 740.384 841.158 773.711 833.803C792.56 829.651 812.707 831.502 831.781 828.923C918.322 817.244 976.216 884.454 1035.37 855.792C1099.43 824.744 1108.83 774.765 1104.95 748.047C1099.95 713.851 1074.7 634.548 986.923 633.201C951.267 632.655 915.007 630.731 880.96 620.129C829.993 604.251 789.656 551.208 799.059 498.644C805.497 462.611 832.954 430.224 828.28 393.942C825.142 369.541 807.128 348.792 785.231 337.617C763.334 326.443 737.954 323.757 713.345 324.62" stroke="black" stroke-opacity="0.02" stroke-miterlimit="10"/>
</g>
<g style="mix-blend-mode:multiply">
<path d="M515.104 1254.92C490.337 1227.58 498.913 1181.06 524.169 1153.77C548.797 1127.15 584.572 1114.14 617.454 1099.09C649.994 1084.26 682.948 1063.6 694.783 1030.83C709.914 988.898 686.145 940.5 701.936 897.492C714.581 863.308 747.496 842.669 780.304 833.425C799.149 828.11 819.803 828.581 839.6 825.634C923.506 813.142 980.435 877.465 1038.38 849.505C1100.68 819.408 1111.01 770.991 1107.77 744.269C1103.66 710.377 1079.09 634.172 994.749 631.045C959.957 629.744 924.218 626.84 890.559 616.191C840.944 600.574 801.659 549.703 809.493 498.737C814.907 463.476 840.554 431.164 836.071 395.252C833.041 370.663 815.998 349.66 795.05 337.547C773.923 325.32 749.111 320.955 724.513 320.553" stroke="black" stroke-opacity="0.02" stroke-miterlimit="10"/>
</g>
<g style="mix-blend-mode:multiply">
<path d="M517.458 1255.37C493.169 1226.4 500.632 1178.74 526.258 1150.19C550.697 1122.95 586.803 1109.48 620.207 1095.08C652.806 1081.03 685.686 1061.96 698.622 1030.71C715.092 990.768 694.399 943.468 710.448 900.778C723.484 866.137 754.656 844.12 786.928 833.036C805.781 826.538 826.952 825.661 847.498 822.378C928.751 809.205 984.733 870.51 1041.43 843.224C1101.97 814.064 1113.25 767.235 1110.67 740.493C1107.41 706.977 1083.53 633.749 1002.55 628.803C968.617 626.739 933.44 622.875 900.143 612.147C851.87 596.813 813.64 548.097 819.943 498.727C824.336 464.208 848.164 431.993 843.856 396.449C840.957 371.667 824.87 350.409 804.893 337.367C784.51 324.054 760.228 318.066 735.605 316.334" stroke="black" stroke-opacity="0.02" stroke-miterlimit="10"/>
</g>
<g style="mix-blend-mode:multiply">
<path d="M519.812 1255.81C495.983 1225.2 502.363 1176.44 528.347 1146.6C552.57 1118.8 589.052 1104.86 622.945 1091.07C655.615 1077.79 688.465 1060.28 702.475 1030.59C720.269 992.639 702.712 946.444 718.959 904.065C732.422 868.978 761.834 845.544 793.568 832.649C812.45 824.978 834.112 822.773 855.318 819.037C933.982 805.266 988.976 863.465 1044.47 836.927C1103.27 808.72 1115.47 763.46 1113.53 736.691C1111.12 703.542 1087.92 633.259 1010.4 626.614C977.293 623.774 942.739 618.891 909.758 608.16C862.884 592.958 825.632 546.523 830.374 498.798C833.731 465.019 855.677 432.921 851.645 397.736C848.792 372.773 833.719 351.214 814.717 337.268C795.086 322.863 771.334 315.265 746.711 312.237" stroke="black" stroke-opacity="0.02" stroke-miterlimit="10"/>
</g>
<g style="mix-blend-mode:multiply">
<path d="M522.16 1256.25C498.797 1224 504.086 1174.14 530.436 1143.02C554.464 1114.65 591.327 1100.22 625.69 1087.06C658.442 1074.51 691.261 1058.59 706.314 1030.47C725.44 994.501 711.038 949.435 727.477 907.359C741.333 871.852 769.003 846.921 800.193 832.26C819.109 823.372 841.238 819.856 863.203 815.764C939.257 801.505 993.261 856.492 1047.54 830.648C1104.57 803.384 1117.69 759.736 1116.42 732.929C1114.85 700.131 1092.31 632.754 1018.25 624.439C985.969 620.808 951.984 614.921 919.375 604.209C873.857 589.24 837.607 544.961 840.832 498.887C843.144 465.816 863.267 433.844 859.454 399.033C856.688 373.872 842.591 352.015 824.554 337.184C805.686 321.666 782.495 312.501 757.832 308.141" stroke="black" stroke-opacity="0.02" stroke-miterlimit="10"/>
</g>
<g style="mix-blend-mode:multiply">
<path d="M524.514 1256.7C501.618 1222.79 505.797 1171.81 532.524 1139.44C556.365 1110.51 593.579 1095.57 628.434 1083.05C661.212 1071.26 694.07 1056.97 710.167 1030.35C730.687 996.411 719.349 952.426 735.988 910.646C750.311 874.676 776.178 848.254 806.832 831.874C825.77 821.752 848.368 816.964 871.05 812.442C944.536 797.768 997.516 849.464 1050.57 824.334C1105.86 798.002 1119.9 755.93 1119.3 729.084C1118.54 696.656 1096.67 632.089 1026.1 622.189C994.596 617.762 961.234 610.908 928.999 600.148C884.843 585.419 849.542 543.245 851.298 498.865C852.555 466.509 870.884 434.667 867.269 400.234C864.603 374.877 851.481 352.684 834.413 336.992C816.288 320.336 793.578 309.586 768.96 303.935" stroke="black" stroke-opacity="0.02" stroke-miterlimit="10"/>
</g>
<g style="mix-blend-mode:multiply">
<path d="M526.9 1257.19C504.464 1221.64 507.605 1169.61 534.653 1135.89C558.312 1106.41 595.864 1090.97 631.212 1079.07C664.048 1068.04 696.888 1055.34 714.014 1030.23C735.888 998.277 727.692 955.405 744.508 913.926C759.259 877.495 783.351 849.55 813.465 831.479C832.436 820.102 855.528 814.075 878.916 809.145C949.781 794.176 1001.8 842.469 1053.62 818.039C1107.16 792.658 1122.11 752.175 1122.16 725.319C1122.21 693.261 1100.96 631.451 1033.92 620.01C1001.58 614.556 969.707 606.589 938.603 596.182C895.761 581.716 861.481 541.671 861.737 498.929C861.929 467.256 878.461 435.574 875.059 401.507C872.494 375.952 860.355 353.418 844.239 336.877C826.875 319.07 804.719 306.745 780.097 299.774" stroke="black" stroke-opacity="0.02" stroke-miterlimit="10"/>
</g>
<g style="mix-blend-mode:multiply">
<path d="M529.223 1257.59C507.246 1220.39 509.332 1167.28 536.702 1132.27C560.194 1102.25 598.104 1086.25 633.917 1075.03C666.791 1064.72 699.616 1053.65 717.853 1030.11C741.047 1000.17 736.024 958.405 753.007 917.196C768.242 880.394 790.483 850.81 820.077 831.073C839.067 818.424 862.642 811.195 886.78 805.809C955.048 790.579 1006.08 835.421 1056.68 811.705C1108.45 787.276 1124.3 748.381 1125.03 721.495C1125.91 689.786 1105.26 630.663 1041.76 617.765C1010.06 611.254 978.806 602.697 948.209 592.148C906.777 577.899 873.375 539.987 872.199 498.936C871.303 467.951 886.081 436.434 882.855 402.735C880.377 378.27 870.318 355.196 854.084 336.735C837.467 317.708 815.822 303.853 791.171 295.635" stroke="black" stroke-opacity="0.02" stroke-miterlimit="10"/>
</g>
<g style="mix-blend-mode:multiply">
<path d="M531.57 1258.03C510.067 1219.18 511.095 1165.02 538.797 1128.7C562.113 1098.13 600.296 1081.61 636.629 1070.99C669.542 1061.4 702.364 1051.93 721.691 1029.93C746.223 1001.99 744.358 961.338 761.525 920.438C777.175 883.159 797.632 852.004 826.714 830.648C845.713 816.697 869.761 808.271 894.615 802.47C960.325 787.081 1010.3 828.388 1059.67 805.393C1109.69 781.9 1126.42 744.609 1127.84 717.677C1129.48 686.37 1109.55 629.809 1049.54 615.551C1020.38 608.66 989.003 599.079 957.805 588.187C917.733 574.194 885.24 538.35 882.643 499.023C880.622 468.714 893.679 437.351 890.666 404.017C888.408 379.45 879.127 356.058 863.931 336.631C847.838 316.301 826.54 300.709 802.295 291.51" stroke="black" stroke-opacity="0.02" stroke-miterlimit="10"/>
</g>
<g style="mix-blend-mode:multiply">
<path d="M533.899 1258.45C512.855 1217.95 512.841 1162.72 540.868 1125.07C564.015 1093.98 602.51 1076.91 639.365 1066.99C672.299 1058.13 705.138 1050.28 725.51 1029.84C751.38 1003.91 752.686 964.368 770.048 923.741C786.165 886 804.761 853.226 833.366 830.278C852.364 815.03 876.945 805.483 902.498 799.213C965.653 783.703 1014.61 821.427 1062.77 799.127C1111.04 776.579 1128.66 740.873 1130.77 713.907C1133.18 682.962 1113.81 628.89 1057.44 613.368C1028.94 605.531 998.204 595.09 967.431 584.164C928.705 570.424 897.053 536.648 893.104 499.031C889.986 469.363 901.298 438.211 898.459 405.261C896.419 380.558 887.903 356.835 873.768 336.481C858.532 314.883 837.653 297.889 813.409 287.354" stroke="black" stroke-opacity="0.02" stroke-miterlimit="10"/>
</g>
<g style="mix-blend-mode:multiply">
<path d="M536.278 1258.93C515.7 1216.79 514.643 1160.49 542.969 1121.51C565.962 1089.88 604.758 1072.24 642.13 1062.99C675.115 1054.83 707.913 1048.63 729.375 1029.74C756.569 1005.79 761.061 967.374 778.547 927.063C795.101 888.907 811.842 854.472 839.971 829.917C858.951 813.347 884.069 802.687 910.312 795.901C970.958 780.381 1018.85 814.472 1065.83 792.84C1112.34 771.243 1130.84 737.138 1133.66 710.137C1136.84 679.588 1118.1 627.869 1065.28 611.184C1037.52 602.411 1007.47 591.16 977.05 580.184C939.672 566.735 908.814 534.998 903.56 499.134C899.292 470.109 908.899 439.151 906.266 406.572C904.127 380.243 896.01 356.15 883.602 336.413C869.232 313.549 848.773 295.145 824.52 283.264" stroke="black" stroke-opacity="0.02" stroke-miterlimit="10"/>
</g>
<g style="mix-blend-mode:multiply">
<path d="M538.626 1259.37C518.522 1215.58 516.428 1158.24 545.071 1117.94C567.916 1085.79 606.999 1067.57 644.887 1059C677.908 1051.52 710.713 1046.96 733.235 1029.63C761.751 1007.69 769.421 970.393 787.071 930.366C804.087 891.777 818.95 855.684 846.617 829.539C865.571 811.639 891.223 799.895 918.217 792.654C976.279 777.062 1023.14 807.462 1068.86 786.57C1113.61 765.918 1132.97 733.404 1136.5 706.371C1140.44 676.192 1122.35 626.747 1073.11 609.006C1046.06 599.286 1016.71 587.215 986.64 576.216C950.632 563.001 920.549 533.316 913.996 499.161C908.549 470.774 916.511 440.018 914.066 407.824C912.035 381.307 904.947 356.795 893.451 336.294C879.959 312.167 859.917 292.35 835.638 279.132" stroke="black" stroke-opacity="0.02" stroke-miterlimit="10"/>
</g>
<g style="mix-blend-mode:multiply">
<path d="M540.98 1259.81C521.335 1214.38 518.226 1155.99 547.159 1114.36C569.829 1081.72 609.221 1062.87 647.624 1054.99C680.673 1048.2 713.483 1045.29 737.079 1029.51C766.921 1009.55 777.781 973.397 795.581 933.653C813.06 894.63 826.011 856.852 853.255 829.152C872.162 809.912 898.391 797.105 926.05 789.367C981.588 773.816 1027.42 800.572 1071.88 780.301C1114.91 760.673 1135.07 729.695 1139.35 702.604C1144.03 672.794 1126.64 625.481 1080.91 606.825C1054.58 596.06 1025.87 583.339 996.204 572.253C961.547 559.313 932.183 531.657 924.426 499.232C917.747 471.484 924.1 440.927 921.825 409.093C919.916 382.389 913.882 357.455 903.246 336.176C890.642 310.78 871.014 289.537 846.691 274.968" stroke="black" stroke-opacity="0.02" stroke-miterlimit="10"/>
</g>
<g style="mix-blend-mode:multiply">
<path d="M543.35 1260.25C524.165 1213.17 520.056 1153.73 549.264 1110.76C571.847 1077.6 611.468 1058.15 650.41 1050.95C683.48 1044.85 716.27 1043.61 740.959 1029.36C772.123 1011.4 786.184 976.37 804.132 936.922C822.079 897.475 833.091 857.993 859.912 828.738C878.774 808.158 905.574 794.317 933.966 786.032C986.989 770.567 1031.75 793.524 1074.98 773.967C1116.27 755.278 1137.29 725.876 1142.28 698.759C1147.69 669.33 1130.98 624.063 1088.81 604.575C1063.19 592.743 1035.2 579.344 1005.89 568.208C972.579 555.536 943.895 529.927 934.933 499.231C927.022 472.122 931.783 441.766 929.69 410.308C927.905 383.404 922.924 358.047 913.147 336.005C901.453 309.36 882.264 286.695 857.915 270.767" stroke="black" stroke-opacity="0.02" stroke-miterlimit="10"/>
</g>
<g style="mix-blend-mode:multiply">
<path d="M545.687 1260.71C526.936 1212 521.836 1151.5 551.302 1107.22C573.731 1073.52 613.642 1053.46 653.087 1047C686.18 1041.57 718.975 1041.97 744.736 1029.3C777.217 1013.32 794.478 979.425 812.601 940.293C831.036 900.393 840.089 859.236 866.494 828.434C885.294 806.511 912.733 791.706 941.782 782.811C992.314 767.429 1036.01 786.586 1077.99 767.748C1117.52 750.01 1139.37 722.203 1145.11 695.057C1151.25 665.995 1135.31 622.666 1096.6 602.468C1071.73 589.483 1044.39 575.496 1015.46 564.297C983.483 551.922 955.437 528.338 945.346 499.367C936.134 472.91 939.362 442.749 937.445 411.659C935.77 384.552 931.871 358.776 922.946 335.963C912.144 308.082 893.362 284.009 868.949 266.751" stroke="black" stroke-opacity="0.02" stroke-miterlimit="10"/>
</g>
<g style="mix-blend-mode:multiply">
<path d="M548.018 1261.16C529.766 1210.79 523.63 1149.28 553.382 1103.59C575.651 1069.34 615.86 1048.68 655.816 1042.94C688.988 1038.2 721.772 1040.27 748.647 1029.19C782.459 1015.21 802.894 982.467 821.151 943.563C840.044 903.259 847.153 860.39 873.173 828.03C891.89 804.755 919.92 788.941 949.687 779.496C997.728 764.249 1040.29 779.591 1081.08 761.443C1118.85 744.64 1141.53 718.42 1148.02 691.254C1154.87 662.548 1139.77 621.048 1104.48 600.236C1080.39 586.058 1053.66 571.56 1025.1 560.275C994.48 548.186 967.025 526.689 955.828 499.384C945.275 473.597 947.019 443.607 945.284 412.894C943.739 385.594 940.89 359.372 932.813 335.817C922.927 306.696 904.57 281.196 880.093 262.584" stroke="black" stroke-opacity="0.02" stroke-miterlimit="10"/>
</g>
<g style="mix-blend-mode:multiply">
<path d="M550.388 1261.59C532.596 1209.57 525.48 1147.05 555.512 1100.03C577.702 1065.31 618.122 1043.96 658.602 1038.95C691.758 1034.85 724.52 1038.6 752.46 1029.04C787.585 1017.01 811.254 985.418 829.63 946.807C848.998 906.086 854.123 861.508 879.765 827.599C898.408 802.965 927.078 786.224 957.512 776.163C1003.1 761.101 1044.52 772.538 1084.09 755.112C1120.1 739.246 1143.6 714.61 1150.86 687.426C1158.41 659.082 1144.24 619.308 1112.28 598.003C1089.06 582.515 1062.86 567.608 1034.69 556.254C1005.4 544.453 978.474 525.013 966.265 499.396C954.305 474.329 954.649 444.446 953.056 414.126C951.636 386.625 949.902 360.012 942.629 335.656C933.658 305.305 915.724 278.38 891.178 258.409" stroke="black" stroke-opacity="0.02" stroke-miterlimit="10"/>
</g>
<g style="mix-blend-mode:multiply">
<path d="M552.742 1262.04C535.396 1208.35 527.306 1144.82 557.601 1096.44C579.637 1061.25 620.312 1039.16 661.346 1034.94C694.529 1031.48 727.293 1036.85 756.306 1028.91C792.735 1018.79 819.636 988.433 838.14 950.094C857.999 908.958 861.119 862.66 886.371 827.171C904.878 801.2 934.254 783.548 965.339 772.816C1008.45 757.943 1048.72 765.42 1087.11 748.775C1121.33 733.781 1145.67 710.792 1153.7 683.592C1161.96 655.603 1148.8 617.479 1120.09 595.77C1096.77 578.082 1071.29 563.446 1044.26 552.217C1016.32 540.722 989.892 523.401 976.707 499.431C963.306 475.11 962.255 445.342 960.849 415.37C959.526 387.702 958.921 360.661 952.471 335.529C944.419 303.951 926.908 275.595 902.282 254.26" stroke="black" stroke-opacity="0.02" stroke-miterlimit="10"/>
</g>
<g style="mix-blend-mode:multiply">
<path d="M555.089 1262.48C538.236 1207.17 529.146 1142.59 559.689 1092.86C581.646 1057.13 622.574 1034.44 664.083 1030.93C697.299 1028.12 730.072 1035.17 760.156 1028.8C797.918 1020.67 827.992 991.414 846.696 953.371C867.038 911.813 868.146 863.802 893.066 826.807C911.501 799.462 941.556 780.986 973.276 769.544C1013.94 754.887 1053.07 758.441 1090.23 742.496C1122.7 728.447 1147.82 707.054 1156.65 679.816C1165.59 652.181 1153.6 615.657 1128.01 593.582C1105.83 574.716 1080.84 559.422 1053.95 548.248C1027.35 537.05 1001.4 521.891 987.216 499.468C972.331 475.94 969.947 446.213 968.709 416.615C967.541 388.735 968.008 361.296 962.358 335.394C955.243 302.594 938.159 272.804 913.446 250.104" stroke="black" stroke-opacity="0.02" stroke-miterlimit="10"/>
</g>
<g style="mix-blend-mode:multiply">
<path d="M557.437 1262.92C541.043 1205.96 530.955 1140.32 561.778 1089.28C583.616 1053.03 624.798 1029.67 666.821 1026.92C700.072 1024.74 732.836 1033.49 763.99 1028.66C803.088 1022.54 836.471 994.486 855.161 956.666C876.085 914.728 875.064 864.974 899.659 826.429C917.967 797.726 948.75 778.454 981.086 766.262C1019.32 751.815 1057.29 751.461 1093.23 736.231C1123.94 723.126 1149.87 703.272 1159.47 676.053C1169.07 648.834 1158.41 613.799 1135.8 591.414C1115.73 571.533 1090.56 555.937 1063.51 544.276C1038.24 533.396 1012.76 520.443 997.591 499.501C981.188 476.844 977.565 447.088 976.432 417.871C975.45 389.783 976.949 361.912 972.126 335.257C965.935 301.252 949.282 270.034 924.49 245.961" stroke="black" stroke-opacity="0.02" stroke-miterlimit="10"/>
</g>
<g style="mix-blend-mode:multiply">
<path d="M559.797 1263.37C543.863 1204.77 532.917 1138.19 563.872 1085.7C585.66 1048.99 627.031 1024.89 669.571 1022.92C702.818 1021.39 735.638 1031.86 767.857 1028.54C808.275 1024.38 844.84 997.484 863.694 959.948C885.056 917.595 882.052 866.184 906.289 826.049C924.485 795.989 956.041 775.98 988.951 762.964C1024.77 748.767 1061.54 744.424 1096.29 729.935C1125.23 717.773 1151.94 699.477 1162.34 672.267C1172.65 645.299 1163.4 611.92 1143.64 589.208C1124.94 567.724 1099.76 552.029 1073.1 540.292C1049.14 529.744 1024.13 519.056 1008.05 499.605C990.088 477.874 985.173 448.021 984.238 419.183C983.371 390.901 986.009 362.701 981.968 335.182C976.712 299.97 960.487 267.319 935.601 241.872" stroke="black" stroke-opacity="0.02" stroke-miterlimit="10"/>
</g>
<g style="mix-blend-mode:multiply">
<path d="M562.151 1263.82C546.684 1203.56 534.702 1135.93 566.002 1082.09C587.612 1044.85 629.245 1020.08 672.291 1018.86C705.623 1017.93 738.373 1030.11 771.669 1028.39C813.417 1026.23 853.128 1000.41 872.17 963.208C894.011 920.409 888.964 867.281 912.909 825.623C930.964 794.202 963.329 773.521 996.798 759.628C1030.27 745.734 1065.83 737.409 1099.32 723.607C1126.48 712.409 1153.99 695.634 1165.2 668.435C1176.17 641.803 1168.58 610.112 1151.45 586.969C1134.32 563.826 1108.93 548.089 1082.72 536.246C1060.09 526.017 1035.54 517.646 1018.5 499.589C998.935 478.852 992.796 448.853 992.043 420.391C991.29 391.929 995.094 363.298 991.808 335.003C987.49 298.59 971.698 264.502 946.718 237.672" stroke="black" stroke-opacity="0.02" stroke-miterlimit="10"/>
</g>
</g>
<g style="mix-blend-mode:multiply">
<g style="mix-blend-mode:multiply">
<path d="M1022.61 1179.83C986.795 1183.44 957.43 1147.45 952.729 1111.75C948.028 1076.06 960.343 1040.66 968.529 1005.59C976.714 970.52 980.103 930.933 960.088 901.02C934.496 862.768 878.986 852.765 855.007 813.437C836.339 782.81 843.087 743.668 858.236 713.059C866.805 695.768 880.886 681.231 890.849 664.74C936.016 589.981 1024.73 586.937 1039.48 522.88C1055.46 453.507 1022.38 414.901 999.117 401.192C969.329 383.643 891.648 353.726 835.548 421.295C812.753 448.749 788.558 475.791 758.903 495.702C714.55 525.488 647.93 523.699 612.807 483.496C588.761 455.928 580.726 414.251 549.507 395.178C528.522 382.348 501.041 383.394 478.595 393.473C456.149 403.551 438.152 421.603 423.433 441.325" stroke="black" stroke-opacity="0.02" stroke-miterlimit="10"/>
</g>
<g style="mix-blend-mode:multiply">
<path d="M1024.43 1178.27C987.602 1180.46 956.691 1144.65 951.248 1107.89C945.936 1072 958.174 1035.99 967.129 1000.94C975.977 966.307 980.536 927.729 962.416 897.94C939.21 859.899 886.567 848.124 862.943 808.881C844.223 777.633 848.755 739.037 862.147 707.708C869.831 689.693 883.145 673.877 893.264 656.605C936.142 583.387 1021.97 579.241 1036.54 516.622C1052.15 449.209 1020.89 410.851 998.008 396.615C969.023 378.61 894.176 350.043 838.788 413.839C815.95 440.147 791.283 466.175 761.854 485.741C718.563 514.649 654.267 513.422 619.436 475.416C595.333 449.122 586.233 408.908 555.416 389.911C534.379 376.909 507.292 377.018 484.71 385.76C461.921 394.579 442.954 411.19 427.219 430.103" stroke="black" stroke-opacity="0.02" stroke-miterlimit="10"/>
</g>
<g style="mix-blend-mode:multiply">
<path d="M1026.25 1176.71C988.459 1177.5 955.965 1141.87 949.768 1104.02C943.861 1067.92 955.996 1031.34 965.723 996.291C975.26 962.052 980.954 924.524 964.727 894.873C943.907 857.043 894.041 843.552 870.836 804.319C851.982 772.446 854.385 734.408 865.992 702.303C872.796 683.519 885.342 666.493 895.604 648.422C936.312 576.813 1019.21 571.575 1033.51 510.329C1048.75 444.891 1019.31 406.781 996.828 392.066C968.652 373.614 896.588 346.382 841.965 406.404C819.062 431.572 793.992 456.572 764.74 475.817C722.513 503.83 660.551 503.145 626.01 467.352C601.844 442.324 591.677 403.588 561.269 384.675C540.128 371.434 513.467 370.663 490.762 378.068C467.602 385.624 447.7 400.807 430.933 418.909" stroke="black" stroke-opacity="0.02" stroke-miterlimit="10"/>
</g>
<g style="mix-blend-mode:multiply">
<path d="M1028.06 1175.14C989.222 1174.58 955.222 1139.06 948.268 1100.12C941.779 1063.84 953.791 1026.66 964.302 991.636C974.432 957.843 981.39 921.292 967.019 891.782C948.593 854.156 901.576 838.921 878.727 799.72C859.806 767.276 859.976 729.677 869.832 696.875C875.693 677.344 887.542 659.079 897.955 640.218C936.559 570.272 1016.42 563.853 1030.53 503.968C1045.42 440.484 1017.79 402.585 995.693 387.404C968.331 368.527 898.991 342.623 845.184 398.885C822.209 422.904 796.68 446.786 767.672 465.779C726.417 492.797 666.858 492.759 632.614 459.186C608.371 435.407 597.12 398.23 567.165 379.339C545.903 365.94 519.649 364.195 496.858 370.278C473.32 376.562 452.492 390.31 434.691 407.615" stroke="black" stroke-opacity="0.02" stroke-miterlimit="10"/>
</g>
<g style="mix-blend-mode:multiply">
<path d="M1029.89 1173.6C990.086 1171.62 954.532 1136.29 946.834 1096.25C939.746 1059.78 951.593 1021.99 962.884 987.018C973.632 953.652 981.813 918.11 969.327 888.744C953.287 851.329 909.103 834.296 886.61 795.18C867.609 762.095 865.541 724.979 873.672 691.499C878.629 671.166 889.766 651.712 900.316 632.045C936.904 563.841 1013.65 556.161 1027.54 497.681C1042.06 436.149 1016.24 398.587 994.54 382.821C967.992 363.52 901.324 338.891 848.388 391.416C825.308 414.311 799.399 437.109 770.586 455.82C730.36 481.917 673.125 482.443 639.207 451.094C614.875 428.6 602.589 392.89 573.029 374.081C551.689 360.477 525.8 357.791 502.929 362.559C478.961 367.571 457.251 379.891 438.427 396.379" stroke="black" stroke-opacity="0.02" stroke-miterlimit="10"/>
</g>
<g style="mix-blend-mode:multiply">
<path d="M1031.72 1172.05C990.92 1168.67 953.831 1133.49 945.313 1092.39C937.716 1055.7 949.413 1017.35 961.503 982.345C972.881 949.423 982.309 914.818 971.679 885.645C958.096 848.413 916.693 829.701 894.552 790.579C875.481 756.901 871.117 720.193 877.567 686.055C881.547 664.949 891.981 644.352 902.689 623.837C937.339 557.407 1010.88 548.434 1024.56 491.35C1038.71 431.786 1014.71 394.502 993.408 378.196C967.698 358.451 903.592 335.129 851.605 383.911C828.377 405.662 802.128 427.411 773.522 445.804C734.347 470.991 679.371 472.116 645.846 442.993C621.407 421.759 608.082 387.545 578.955 368.802C557.521 355.005 531.994 351.34 509.052 354.839C484.706 358.527 462.076 369.474 442.221 385.15" stroke="black" stroke-opacity="0.02" stroke-miterlimit="10"/>
</g>
<g style="mix-blend-mode:multiply">
<path d="M1033.54 1170.5C991.738 1165.73 953.143 1130.71 943.824 1088.53C935.677 1051.64 947.189 1012.7 960.095 977.706C972.07 945.2 982.774 911.656 973.991 882.578C962.835 845.525 924.234 825.078 902.439 786.009C883.309 751.701 876.607 715.432 881.378 680.676C884.441 658.736 894.188 636.998 905.004 615.673C937.784 551.072 1008.06 540.751 1021.52 485.062C1035.31 427.46 1013.12 390.461 992.211 373.607C967.254 353.497 905.707 331.338 854.755 376.457C830.218 398.259 804.019 418.116 776.397 435.848C738.259 460.123 685.53 461.829 652.368 434.876C627.806 414.901 613.465 382.178 584.763 363.506C563.263 349.536 538.05 344.863 515.053 347.081C490.274 349.46 466.765 359.015 445.885 373.889" stroke="black" stroke-opacity="0.02" stroke-miterlimit="10"/>
</g>
<g style="mix-blend-mode:multiply">
<path d="M1035.35 1168.94C992.564 1162.78 952.445 1127.88 942.337 1084.65C933.654 1047.56 944.967 1008.03 958.68 973.059C971.239 940.953 983.214 908.446 976.31 879.505C967.515 842.682 931.798 820.45 910.342 781.426C891.143 746.509 882.078 710.648 885.263 675.238C887.3 652.51 896.466 629.617 907.394 607.451C938.366 544.71 1005.32 533.013 1018.54 478.702C1031.97 423.044 1011.58 386.351 991.067 368.951C966.905 348.444 901.875 321.199 857.994 368.948C837.262 391.435 807.55 408.055 779.341 425.826C742.245 449.197 691.746 451.499 658.966 426.687C634.25 407.981 618.939 376.742 590.621 358.173C570.004 344.828 545.732 338.245 521.187 339.34C495.984 340.389 471.607 348.585 449.695 362.647" stroke="black" stroke-opacity="0.02" stroke-miterlimit="10"/>
</g>
<g style="mix-blend-mode:multiply">
<path d="M1037.17 1167.38C993.415 1159.86 951.833 1125.09 940.856 1080.79C931.654 1043.48 942.73 1003.37 957.274 968.406C970.447 936.756 983.655 905.237 978.621 876.438C972.227 839.828 939.363 815.823 918.254 776.837C898.994 741.305 887.543 705.855 889.133 669.815C890.176 646.273 898.727 622.249 909.774 599.252C938.988 538.399 1002.55 525.293 1015.58 472.395C1028.66 418.724 1010.05 382.304 989.954 364.351C966.577 343.468 903.608 316.669 861.211 361.444C840.546 383.257 810.279 398.357 782.269 415.817C746.222 438.293 697.889 441.211 665.597 418.593C640.704 401.16 624.44 371.391 596.564 352.881C575.993 339.262 551.933 331.851 527.255 331.531C501.312 331.346 475.799 338.19 453.426 351.336" stroke="black" stroke-opacity="0.02" stroke-miterlimit="10"/>
</g>
<g style="mix-blend-mode:multiply">
<path d="M1038.99 1165.83C994.222 1156.89 951.136 1122.32 939.369 1076.91C929.627 1039.38 940.485 998.708 955.855 963.736C969.596 932.497 984.069 902.009 980.921 873.339C976.897 836.953 946.908 811.17 926.127 772.25C906.809 736.088 892.938 701.074 892.958 664.384C892.969 640.031 900.957 614.89 912.095 591.043C939.614 532.11 999.728 517.566 1012.55 466.064C1025.24 414.336 1008.46 378.247 988.762 359.718C966.16 338.48 905.38 312.188 864.375 353.939C843.68 375.074 812.962 388.667 785.151 405.817C750.152 427.396 703.957 430.928 672.175 410.446C647.088 394.299 629.888 365.988 602.421 347.562C581.873 333.69 558.03 325.476 533.29 323.747C506.895 322.1 480.549 327.737 457.131 340.042" stroke="black" stroke-opacity="0.02" stroke-miterlimit="10"/>
</g>
<g style="mix-blend-mode:multiply">
<path d="M1040.81 1164.27C995.048 1153.94 950.488 1119.52 937.872 1073.05C927.638 1035.33 938.217 994.053 954.443 959.126C968.772 928.311 984.512 898.837 983.237 870.295C981.622 834.116 954.483 806.573 934.031 767.72C914.676 730.938 898.324 696.315 896.82 659.018C895.799 633.854 903.239 607.599 914.46 582.894C940.333 525.909 996.96 509.906 1009.57 459.808C1021.89 410.032 1006.91 374.257 987.62 355.167C965.76 333.532 907.273 307.814 867.582 346.508C846.722 366.856 815.696 379.045 788.077 395.874C754.134 416.567 710.041 420.751 678.763 402.398C653.52 387.535 635.358 360.648 608.299 342.306C586.439 327.486 562.556 318.739 539.388 316.047C512.547 312.935 485.365 317.365 460.892 328.839" stroke="black" stroke-opacity="0.02" stroke-miterlimit="10"/>
</g>
<g style="mix-blend-mode:multiply">
<path d="M1042.63 1162.72C995.874 1150.99 949.854 1116.72 936.408 1069.17C925.662 1031.24 935.976 989.365 953.053 954.46C967.935 924.055 984.967 895.629 985.564 867.216C986.341 831.256 962.064 801.933 941.936 763.122C922.541 725.683 903.691 691.517 900.674 653.593C898.607 627.615 905.534 600.257 916.818 574.683C941.087 519.668 994.204 502.211 1006.56 453.467C1018.53 405.645 1005.33 370.21 986.46 350.523C965.4 328.568 915.501 311.715 870.784 339.001C846.215 353.986 818.424 369.347 790.981 385.87C758.095 405.661 716.086 410.526 685.341 394.252C659.799 380.728 640.81 355.269 614.158 337.026C592.22 322 568.652 312.178 545.446 308.311C518.169 303.726 490.145 306.944 464.606 317.593" stroke="black" stroke-opacity="0.02" stroke-miterlimit="10"/>
</g>
<g style="mix-blend-mode:multiply">
<path d="M1044.46 1161.17C996.708 1148.04 949.222 1113.91 934.913 1065.3C923.686 1027.15 933.703 984.686 951.645 949.821C967.073 919.819 985.394 892.418 987.884 864.143C991.047 828.393 969.668 797.288 949.84 758.539C930.396 720.502 909.049 686.739 904.535 648.175C901.407 621.382 907.865 592.928 919.194 566.513C941.871 513.43 991.518 494.501 1003.59 447.158C1015.29 401.325 1003.77 366.195 985.323 345.928C965.023 323.616 917.226 307.588 874.005 331.519C849.086 345.304 821.171 359.688 793.914 375.884C762.064 394.815 722.132 400.405 691.959 386.14C666.117 373.919 646.286 349.884 620.05 331.719C598.029 316.48 574.8 305.579 551.538 300.55C523.839 294.482 494.974 296.485 468.369 306.322" stroke="black" stroke-opacity="0.02" stroke-miterlimit="10"/>
</g>
<g style="mix-blend-mode:multiply">
<path d="M1046.27 1159.61C997.534 1145.09 948.605 1111.1 933.431 1061.43C921.717 1023.06 931.424 980 950.239 945.168C966.228 915.569 985.826 889.214 990.203 861.069C995.737 825.529 977.249 792.647 957.749 753.965C938.249 715.282 914.375 681.973 908.371 642.776C904.149 615.194 910.175 585.64 921.513 558.319C942.702 507.288 988.697 486.79 1000.55 440.842C1011.89 396.969 1002.14 362.172 984.136 341.318C964.585 318.67 918.821 303.361 877.133 324.003C851.838 336.553 823.832 349.989 796.767 365.865C765.996 383.904 728.029 390.226 698.484 377.994C672.378 367.192 651.662 344.51 625.883 326.405C603.778 310.952 580.881 298.963 557.571 292.781C529.456 285.236 499.749 286.025 472.063 295.05" stroke="black" stroke-opacity="0.02" stroke-miterlimit="10"/>
</g>
<g style="mix-blend-mode:multiply">
<path d="M1048.09 1158.05C998.36 1142.14 947.988 1108.29 931.944 1057.55C919.74 1018.98 929.13 975.311 948.824 940.52C965.368 911.317 986.244 886.009 992.523 857.995C1000.43 822.672 984.839 788 965.653 749.382C946.146 710.069 919.683 677.233 912.249 637.345C906.94 608.967 912.566 578.318 923.895 550.104C943.594 501.087 985.94 479.056 997.592 434.505C1008.55 392.592 1000.56 358.14 983.005 336.678C964.195 313.701 920.42 299 880.384 316.525C854.669 327.782 826.614 340.342 799.729 355.882C770.026 373.051 734.046 380.154 705.126 369.878C678.724 360.506 657.211 339.082 631.793 321.138C609.603 305.471 587.056 292.382 563.68 285.059C535.162 276.025 504.607 275.595 475.835 283.826" stroke="black" stroke-opacity="0.02" stroke-miterlimit="10"/>
</g>
<g style="mix-blend-mode:multiply">
<path d="M1049.91 1156.5C999.193 1139.2 947.394 1105.48 930.464 1053.69C917.78 1014.88 926.83 970.615 947.425 935.876C964.493 907.065 986.676 882.806 994.842 854.923C1005.13 819.809 992.435 783.362 973.548 744.806C953.977 704.855 925.009 672.467 916.101 631.934C909.674 602.785 914.952 571.026 926.251 541.909C944.47 494.885 983.157 471.342 994.593 428.187C1005.18 388.234 998.965 354.136 981.902 332.057C963.827 308.743 922.008 294.556 883.645 309.026C857.469 318.904 829.419 330.692 802.689 345.863C774.054 362.161 740.045 370.109 711.763 361.74C685.039 353.832 662.748 333.692 637.709 315.827C615.452 299.935 593.261 285.738 569.803 277.287C540.895 266.764 509.495 265.113 479.629 272.545" stroke="black" stroke-opacity="0.02" stroke-miterlimit="10"/>
</g>
<g style="mix-blend-mode:multiply">
<path d="M1051.72 1154.95C1000.02 1136.25 946.793 1102.65 929.008 1049.85C915.852 1010.82 924.549 965.942 946.05 931.264C963.644 902.845 987.125 879.642 997.185 851.897C1009.84 816.992 1000.07 778.759 981.489 740.273C961.904 699.697 930.333 667.767 919.986 626.564C912.459 596.603 917.406 563.788 928.646 533.763C945.466 488.802 980.416 463.7 991.626 421.91C1001.84 383.915 997.376 350.177 980.73 327.502C963.373 303.863 923.472 290.02 886.822 301.591C860.165 310.01 832.113 321.086 805.615 335.973C778.046 351.415 746.005 360.239 718.361 353.723C691.322 347.34 668.234 328.391 643.594 310.632C621.261 294.52 599.428 279.216 575.879 269.644C546.589 257.628 514.343 254.752 483.376 261.392" stroke="black" stroke-opacity="0.02" stroke-miterlimit="10"/>
</g>
<g style="mix-blend-mode:multiply">
<path d="M1053.55 1153.39C1000.84 1133.3 946.199 1099.84 927.495 1045.94C913.866 1006.69 922.208 961.211 944.603 926.576C962.73 898.542 987.462 876.367 999.472 848.783C1014.43 814.056 1007.63 774.07 989.352 735.655C969.71 694.435 935.597 663.023 923.806 621.111C915.167 590.388 919.832 556.479 930.97 525.526C946.41 482.601 977.495 455.893 988.601 415.558C998.373 379.499 995.717 346.128 979.542 322.84C962.901 298.891 924.919 285.272 889.981 294.064C861.56 301.174 834.159 311.879 808.443 325.921C781.955 340.51 751.874 350.267 724.876 345.546C697.504 340.753 673.627 322.952 649.387 305.283C626.978 288.951 605.511 272.533 581.865 261.831C552.199 248.337 519.11 244.233 487.032 250.071" stroke="black" stroke-opacity="0.02" stroke-miterlimit="10"/>
</g>
<g style="mix-blend-mode:multiply">
<path d="M1055.38 1151.83C1001.67 1130.35 945.583 1096.96 926.015 1042.07C911.914 1002.59 919.904 956.491 943.203 921.93C961.843 894.272 987.937 873.132 1001.79 845.701C1019.17 811.227 1015.24 769.419 997.255 731.072C977.624 689.209 940.873 658.294 927.667 615.693C917.933 584.18 922.349 549.218 933.321 517.321C947.4 476.443 974.712 448.179 985.613 409.218C995.019 375.12 994.09 342.119 978.369 318.18C962.431 293.904 926.431 280.382 893.199 286.492C864.579 291.97 836.983 301.869 811.404 315.834C785.982 329.567 757.893 340.3 731.495 337.315C703.827 334.191 679.183 317.413 655.3 299.881C632.824 283.323 611.717 265.769 587.977 253.975C557.941 238.998 524.003 233.667 490.806 238.712" stroke="black" stroke-opacity="0.02" stroke-miterlimit="10"/>
</g>
<g style="mix-blend-mode:multiply">
<path d="M1057.19 1150.28C1002.5 1127.41 945.038 1094.18 924.519 1038.2C909.987 998.467 917.578 951.76 941.822 917.258C960.983 889.968 988.363 869.92 1004.14 842.602C1023.87 808.297 1022.95 764.697 1005.18 726.47C985.615 683.91 946.181 653.555 931.554 610.255C920.665 578.013 924.941 541.953 935.743 509.142C948.473 470.289 971.995 440.48 982.663 402.928C991.703 370.791 992.495 338.153 977.294 313.63C962.094 289.107 928.085 275.489 896.447 279.096C868.363 282.297 840.377 292.144 814.356 305.925C790.013 318.819 763.939 330.576 738.14 329.289C710.181 327.896 684.695 312.094 661.217 294.676C638.707 277.865 617.966 259.25 594.1 246.323C563.702 229.857 528.914 223.296 494.591 227.557" stroke="black" stroke-opacity="0.02" stroke-miterlimit="10"/>
</g>
<g style="mix-blend-mode:multiply">
<path d="M1059.04 1148.76C1003.38 1124.48 944.587 1091.36 923.07 1034.37C908.105 994.403 915.278 947.063 940.382 912.629C960.03 885.681 988.763 866.728 1006.44 839.571C1028.54 805.451 1030.51 760.122 1013.05 721.956C993.42 678.767 951.413 648.926 935.352 604.911C923.327 571.911 927.52 534.791 938.026 500.988C949.464 464.183 969.138 432.808 979.597 396.66C988.264 366.475 990.763 334.198 976.073 309.045C961.517 284.135 929.715 270.442 899.59 271.634C871.108 272.758 843.075 282.562 817.209 295.973C793.952 308.021 769.926 320.844 744.672 321.204C716.48 321.617 690.114 306.739 667.004 289.37C644.41 272.346 624.075 252.6 600.086 238.563C569.343 220.616 533.719 212.815 498.274 216.268" stroke="black" stroke-opacity="0.02" stroke-miterlimit="10"/>
</g>
<g style="mix-blend-mode:multiply">
<path d="M1060.83 1147.17C1004.13 1121.54 943.902 1088.5 921.551 1030.46C906.081 990.275 912.905 942.289 938.999 907.972C959.18 881.409 989.212 863.512 1008.73 836.487C1033.24 802.589 1038.07 755.471 1020.94 717.327C1001.28 673.504 956.677 644.181 939.212 599.441C926.049 565.698 930.226 527.519 940.363 492.715C950.5 457.912 966.344 425.01 976.58 390.25C984.896 362.026 989.07 330.121 974.889 304.354C961.005 279.128 931.536 265.197 902.747 264.069C873.958 262.941 845.794 272.885 820.085 285.897C797.921 297.123 775.992 311.026 751.235 313.003C722.825 315.276 695.547 301.282 672.869 284.045C650.191 266.808 630.276 245.933 606.159 230.777C575.061 211.369 538.589 202.356 502.015 205.04" stroke="black" stroke-opacity="0.02" stroke-miterlimit="10"/>
</g>
</g>
</svg>
