<svg width="1045" height="1156" viewBox="0 0 1045 1156" fill="none" xmlns="http://www.w3.org/2000/svg">
  <g style="mix-blend-mode:multiply">
    <g style="mix-blend-mode:multiply">
      <path d="M977.465 296.993C952.131 308.733 927.524 321.978 903.776 336.656C893.225 343.175 882.619 350.197 875.172 360.11C856.122 385.454 862.886 421.464 874.336 451.029C884.898 478.283 898.668 504.187 915.355 528.195C931.849 551.909 951.436 574.2 961.956 601.156C972.476 628.112 971.701 662.16 950.829 682.198C938.406 694.123 920.614 699.305 903.388 699.236C886.163 699.168 869.298 694.3 853.12 688.378C834.593 681.583 815.516 673.206 795.944 675.68C775.681 678.244 757.591 693.481 751.649 712.994C743.2 740.753 758.123 769.481 769.063 796.369C782.954 830.536 790.845 868.636 781.764 904.363C772.682 940.089 743.49 972.332 706.818 976.473" stroke="#F7FBFF" stroke-miterlimit="10" />
    </g>
    <g style="mix-blend-mode:multiply">
      <path d="M984.162 302.175C959.253 313.689 935.107 326.781 911.871 341.37C901.542 347.847 891.196 354.801 883.867 364.544C869.139 384.112 869.703 410.03 875.713 434.327C877.359 440.875 879.349 447.332 881.675 453.671C891.457 480.484 904.407 506.036 920.251 529.787C935.926 553.3 954.74 575.322 964.752 601.913C970.362 616.823 972.912 633.698 970.913 649.448C969.158 663.158 963.861 676.075 954.003 685.767C952.247 687.505 950.371 689.115 948.387 690.588C936.235 699.675 920.521 703.59 905.15 703.624C900.246 703.633 895.345 703.322 890.481 702.691C877.795 701.092 865.299 697.68 853.196 693.84C834.01 687.796 814.444 680.886 794.769 684.121C775.093 687.355 757.682 701.91 751.781 720.938C743.389 748.013 757.271 776.026 767.219 802.176C767.999 804.232 768.764 806.317 769.497 808.395C780.613 839.961 785.928 874.267 776.974 906.348C767.429 940.54 738.664 971.131 702.924 974.661" stroke="#F7FBFF" stroke-miterlimit="10" />
    </g>
    <g style="mix-blend-mode:multiply">
      <path d="M990.85 307.345C966.376 318.647 942.693 331.582 919.96 346.062C909.866 352.488 899.774 359.406 892.565 368.968C878.131 388.186 878.202 413.495 883.619 437.313C885.106 443.737 886.921 450.081 889.056 456.32C898.08 482.68 910.214 507.873 925.203 531.367C939.988 554.611 958.091 576.432 967.598 602.7C973.181 618.129 975.91 635.467 974.069 651.729C972.404 665.862 967.221 679.294 957.216 689.471C955.43 691.282 953.518 692.965 951.495 694.506C939.057 704.02 922.868 708.004 907.056 708.219C901.999 708.266 896.944 708.003 891.92 707.431C878.852 705.973 865.917 702.893 853.415 699.511C833.514 694.173 813.535 688.735 793.717 692.766C774.897 696.615 757.908 710.545 752.046 729.089C743.722 755.481 756.557 782.767 765.511 808.179C766.217 810.178 766.898 812.193 767.555 814.224C777.502 844.857 781.705 877.878 772.313 908.515C762.303 941.183 733.985 970.127 699.171 973.033" stroke="#F7FBFF" stroke-miterlimit="10" />
    </g>
    <g style="mix-blend-mode:multiply">
      <path d="M997.546 312.528C973.479 323.602 950.238 336.384 928.002 350.777C918.195 357.161 908.298 364.01 901.206 373.413C886.98 392.275 886.664 416.985 891.467 440.32C892.799 446.623 894.453 452.854 896.424 458.988C904.667 484.913 915.988 509.76 930.147 532.998C944.136 556.035 961.405 577.566 970.439 603.454C976.026 619.419 978.906 637.193 977.23 653.988C975.751 668.544 970.57 682.521 960.437 693.08C958.621 694.981 956.671 696.749 954.602 698.371C941.88 708.301 925.226 712.366 908.875 712.712C903.672 712.804 898.468 712.597 893.288 712.093C879.822 710.815 866.476 707.976 853.546 705.089C833.008 700.495 812.571 696.487 792.586 701.32C774.513 705.688 758.076 719.093 752.234 737.149C743.958 762.854 755.764 789.417 763.726 814.091C764.355 816.043 764.964 817.99 765.535 819.963C774.311 849.674 777.412 881.411 767.58 910.614C757.105 941.758 729.217 969.041 695.348 971.327" stroke="#F7FBFF" stroke-miterlimit="10" />
    </g>
    <g style="mix-blend-mode:multiply">
      <path d="M1004.25 317.68C980.625 328.536 957.859 341.165 936.147 355.458C926.521 361.792 916.921 368.602 909.952 377.814C895.986 396.33 895.27 420.449 899.422 443.273C900.57 449.52 902.089 455.677 903.804 461.594C911.244 487.07 921.718 511.563 934.998 534.548C948.152 557.306 964.608 578.723 973.2 604.182C978.77 620.678 981.808 638.911 980.266 656.225C978.931 671.203 973.809 685.706 963.534 696.665C961.694 698.635 959.714 700.469 957.608 702.153C944.606 712.478 927.471 716.652 910.623 717.127C905.267 717.262 899.908 717.104 894.569 716.653C880.717 715.546 866.927 713.06 853.607 710.59C832.331 706.709 811.556 704.112 791.388 709.787C774.052 714.661 758.122 727.554 752.403 745.141C744.174 770.16 754.942 795.998 761.911 819.934C762.457 821.816 762.989 823.716 763.494 825.59C771.086 854.387 773.088 884.831 762.816 912.601C751.879 942.2 724.437 967.846 691.491 969.518" stroke="#F7FBFF" stroke-miterlimit="10" />
    </g>
    <g style="mix-blend-mode:multiply">
      <path d="M1010.94 322.895C987.742 333.526 965.437 345.999 944.238 360.194C934.835 366.485 925.482 373.235 918.641 382.291C904.918 400.436 903.74 423.952 907.382 446.314C908.339 452.437 909.688 458.476 911.219 464.294C917.887 489.324 927.54 513.464 939.97 536.197C952.273 558.704 967.929 579.934 976.06 605.005C981.613 622.033 984.831 640.717 983.466 658.558C982.264 673.958 977.201 688.985 966.803 700.359C964.939 702.404 962.923 704.307 960.773 706.051C947.48 716.833 929.875 721.056 912.529 721.669C907.023 721.839 901.512 721.733 896.016 721.353C881.769 720.404 867.549 718.209 853.816 716.205C831.869 713.029 810.734 711.85 790.336 718.379C773.745 723.728 758.348 736.136 752.616 753.238C744.446 777.563 754.174 802.685 760.152 825.873C760.622 827.708 761.071 829.539 761.496 831.387C767.885 859.256 768.803 888.441 758.107 914.748C746.694 942.821 719.688 966.828 687.689 967.87" stroke="#F7FBFF" stroke-miterlimit="10" />
    </g>
    <g style="mix-blend-mode:multiply">
      <path d="M1017.63 328.076C994.855 338.487 973.009 350.808 952.323 364.906C943.157 371.136 934.06 377.84 927.337 386.725C913.864 404.523 912.258 427.432 915.286 449.31C916.096 455.309 917.264 461.228 918.6 466.943C924.484 491.526 933.315 515.311 944.901 537.784C956.36 560.053 971.153 581.094 978.881 605.755C984.392 623.331 987.844 642.468 986.584 660.82C985.52 676.664 980.51 692.195 969.982 703.971C968.088 706.098 966.032 708.076 963.833 709.886C950.277 721.087 932.196 725.389 914.331 726.138C908.64 726.374 902.96 726.27 897.36 725.978C882.739 725.193 868.075 723.297 853.943 721.751C831.303 719.275 809.799 719.458 789.201 726.911C773.352 732.629 758.479 744.656 752.789 761.263C744.686 784.915 753.368 809.301 758.351 831.761C758.748 833.529 759.12 835.313 759.462 837.091C764.709 864.053 764.5 891.919 753.35 916.811C741.464 943.401 714.957 965.717 683.81 966.121" stroke="#F7FBFF" stroke-miterlimit="10" />
    </g>
    <g style="mix-blend-mode:multiply">
      <path d="M1024.32 333.248C1001.98 343.445 980.595 355.614 960.42 369.61C951.476 375.798 942.635 382.454 936.032 391.16C922.809 408.61 920.774 430.911 923.199 452.309C923.841 458.179 924.817 463.985 925.979 469.603C931.084 493.725 939.091 517.143 949.824 539.348C960.444 561.358 974.392 582.225 981.711 606.507C987.183 624.622 990.776 644.191 989.725 663.066C988.808 679.313 983.873 695.403 973.19 707.588C971.269 709.792 969.178 711.841 966.936 713.718C953.093 725.346 934.539 729.716 916.168 730.645C910.318 730.925 904.49 730.868 898.74 730.632C883.722 730.016 868.623 728.432 854.082 727.341C830.767 725.59 808.912 727.086 788.081 735.467C772.975 741.553 758.634 753.212 752.985 769.336C744.941 792.293 752.531 815.953 756.575 837.675C756.893 839.392 757.185 841.11 757.452 842.831C761.518 868.87 760.207 895.451 748.629 918.902C736.288 943.916 710.157 964.625 680.018 964.475" stroke="#F7FBFF" stroke-miterlimit="10" />
    </g>
    <g style="mix-blend-mode:multiply">
      <path d="M1031.01 338.429C1009.09 348.404 988.156 360.421 968.493 374.321C959.806 380.462 951.197 387.024 944.718 395.593C931.767 412.689 929.331 434.345 931.102 455.306C931.586 461.049 932.361 466.731 933.35 472.251C937.662 495.942 944.843 519.022 954.734 540.984C964.502 562.744 977.582 583.443 984.524 607.299C989.945 625.949 993.73 645.963 992.846 665.362C992.062 682.03 987.186 698.645 976.371 711.233C974.419 713.513 972.292 715.638 970.01 717.588C955.894 729.633 936.822 734.074 917.993 735.107C911.984 735.431 905.996 735.428 900.106 735.251C884.693 734.794 869.155 733.542 854.221 732.878C830.209 731.848 808.008 734.635 786.959 743.98C772.575 750.377 758.779 761.714 753.17 777.352C745.182 799.635 751.786 822.58 754.785 843.555C755.023 845.206 755.238 846.863 755.43 848.526C758.324 873.642 755.919 898.91 743.884 920.956C731.082 944.426 705.396 963.498 676.19 962.683" stroke="#F7FBFF" stroke-miterlimit="10" />
    </g>
    <g style="mix-blend-mode:multiply">
      <path d="M1037.72 343.615C1016.22 353.367 995.74 365.229 976.59 379.026C968.117 385.112 959.776 391.672 953.423 400.03C940.691 416.772 937.848 437.879 939.015 458.306C939.342 463.922 939.935 469.494 940.731 474.901C944.268 498.144 950.625 520.871 959.661 542.581C968.599 564.095 980.801 584.624 987.352 608.062C992.725 627.291 996.712 647.708 995.982 667.639C995.341 684.731 990.519 701.892 979.578 714.861C977.599 717.218 975.437 719.415 973.111 721.431C958.699 733.9 939.207 738.41 919.824 739.592C913.677 739.964 907.52 740.004 901.48 739.883C885.681 739.597 869.712 738.636 854.375 738.45C829.677 738.144 807.112 742.144 785.843 752.516C772.178 759.191 758.928 770.248 753.37 785.404C745.442 806.992 750.995 829.22 753.014 849.449C753.175 851.053 753.316 852.653 753.425 854.247C755.167 878.455 751.596 902.438 739.167 923.037C725.89 944.97 700.642 962.394 672.381 960.959" stroke="#F7FBFF" stroke-miterlimit="10" />
    </g>
    <g style="mix-blend-mode:multiply">
      <path d="M1044.4 348.796C1023.35 358.334 1003.35 370.046 984.738 383.741C976.487 389.784 968.384 396.283 962.16 404.473C949.687 420.869 946.447 441.374 946.98 461.315C947.128 466.8 947.551 472.254 948.116 477.584C950.868 500.377 956.403 522.749 964.595 544.201C972.681 565.464 983.992 585.843 990.185 608.858C995.49 628.609 999.687 649.483 999.124 669.939C998.617 687.442 993.857 705.117 982.778 718.52C980.77 720.954 978.568 723.222 976.195 725.303C961.507 738.2 941.536 742.809 921.659 744.109C915.356 744.516 909.051 744.601 902.859 744.548C886.664 744.421 870.26 743.771 854.516 744.031C829.128 744.468 806.205 749.661 784.722 761.083C771.772 767.993 759.086 778.795 753.566 793.476C745.688 814.421 750.213 835.873 751.227 855.371C751.315 856.908 751.371 858.448 751.405 859.985C751.955 883.267 747.335 905.977 734.416 925.176C720.685 945.587 695.862 961.37 668.535 959.313" stroke="#F7FBFF" stroke-miterlimit="10" />
    </g>
    <g style="mix-blend-mode:multiply">
      <path d="M1051.1 353.979C1030.44 363.289 1010.88 374.847 992.77 388.443C984.754 394.435 976.917 400.89 970.803 408.898C958.582 424.936 954.878 444.848 954.83 464.302C954.865 469.658 955.054 475.045 955.49 480.211C957.455 502.559 962.162 524.581 969.504 545.784C976.751 566.788 987.171 587.005 992.997 609.596C998.243 629.87 1002.66 651.215 1002.24 672.181C1001.87 690.116 997.188 708.32 985.968 722.123C983.927 724.638 981.682 726.98 979.256 729.127C964.285 742.44 943.848 747.13 923.452 748.565C917.003 749.008 910.486 749.137 904.202 749.119C887.629 749.122 870.794 748.817 854.642 749.522C828.568 750.682 805.25 756.976 783.587 769.55C771.315 776.666 759.208 787.302 753.739 801.447C745.926 821.666 749.403 842.444 749.435 861.207C749.438 862.684 749.421 864.157 749.381 865.637C748.751 887.984 743.048 909.425 729.697 927.096C715.492 945.971 691.168 960.116 664.725 957.428" stroke="#F7FBFF" stroke-miterlimit="10" />
    </g>
    <g style="mix-blend-mode:multiply">
      <path d="M1057.79 359.152C1037.57 368.249 1018.46 379.657 1000.87 393.148C993.067 399.128 985.493 405.495 979.499 413.333C967.517 429.022 963.395 448.328 962.743 467.301C962.565 472.542 962.617 477.752 962.868 482.872C964.071 504.772 967.972 526.442 974.484 547.392C980.889 568.147 990.387 588.207 995.876 610.379C1001.03 631.246 1005.69 652.937 1005.43 674.469C1005.19 692.825 1000.57 711.554 989.214 725.77C987.16 728.365 984.9 730.79 982.454 733.021C967.21 746.752 946.287 751.519 925.393 753.093C918.786 753.579 912.166 753.743 905.678 753.835C888.715 754.03 871.443 754.047 854.878 755.174C828.13 757.102 804.386 764.437 782.564 778.168C770.976 785.459 759.468 795.879 753.989 809.573C746.234 829.108 748.665 849.201 747.719 867.208C747.637 868.626 747.544 870.052 747.427 871.431C745.624 892.866 738.803 912.999 725.014 929.28C710.346 946.62 686.407 959.107 660.961 955.809" stroke="#F7FBFF" stroke-miterlimit="10" />
    </g>
    <g style="mix-blend-mode:multiply">
      <path d="M1064.48 364.333C1044.67 373.213 1026.03 384.472 1008.95 397.861C1001.38 403.747 994.059 410.097 988.193 417.768C976.461 433.109 971.962 451.818 970.645 470.298C970.299 475.41 970.179 480.512 970.238 485.52C970.65 506.969 973.72 528.286 979.38 548.983C984.944 569.49 993.529 589.394 998.671 611.147C1003.74 632.563 1008.63 654.727 1008.54 676.739C1008.44 695.509 1003.87 714.773 992.389 729.391C990.299 732.058 987.99 734.546 985.486 736.829C969.964 750.944 948.597 755.85 927.166 757.544C920.4 758.075 913.628 758.305 906.992 758.444C889.634 758.797 871.923 759.147 854.965 760.701C827.519 763.36 803.33 771.722 781.38 786.669C770.437 794.116 759.551 804.367 754.154 817.585C746.469 836.427 747.837 855.759 745.915 873.052C745.759 874.412 745.582 875.769 745.382 877.132C742.408 897.645 734.475 916.493 720.259 931.331C705.115 947.146 681.624 957.986 657.101 954.074" stroke="#F7FBFF" stroke-miterlimit="10" />
    </g>
    <g style="mix-blend-mode:multiply">
      <path d="M1071.17 369.516C1051.79 378.18 1033.6 389.291 1017.04 402.576C1009.71 408.422 1002.62 414.764 996.885 422.214C985.417 437.188 980.413 455.297 978.557 473.298C978.041 478.291 977.701 483.254 977.617 488.17C977.233 509.166 979.47 530.129 984.275 550.574C988.989 570.831 996.648 590.589 1001.47 611.904C1006.43 633.888 1011.57 656.464 1011.64 679.011C1011.67 698.202 1007.17 717.991 995.554 733.012C993.433 735.755 991.088 738.318 988.543 740.675C972.727 755.257 950.863 760.184 928.955 762.021C922.041 762.598 915.111 762.873 908.322 763.078C890.58 763.592 872.44 764.222 855.066 766.263C826.945 769.648 802.256 778.993 780.234 795.199C769.929 802.834 759.669 812.896 754.323 825.631C746.693 843.799 747.046 862.399 744.112 878.939C743.861 880.239 743.607 881.549 743.356 882.848C739.209 902.449 730.177 920.003 715.51 933.407C699.892 947.685 676.849 956.878 653.252 952.386" stroke="#F7FBFF" stroke-miterlimit="10" />
    </g>
    <g style="mix-blend-mode:multiply">
      <path d="M1077.87 374.7C1058.9 383.146 1041.16 394.108 1025.13 407.289C1018.02 413.094 1011.19 419.336 1005.57 426.669C994.336 441.292 988.931 458.756 986.465 476.318C985.78 481.182 985.29 486.041 984.991 490.851C983.813 511.391 985.223 531.999 989.188 552.19C993.06 572.199 999.733 591.797 1004.26 612.692C1009.11 635.232 1014.51 658.233 1014.74 681.292C1014.92 700.917 1010.47 721.231 998.671 736.654C996.53 739.479 994.149 742.115 991.555 744.532C975.463 759.542 953.126 764.538 930.72 766.514C923.647 767.136 916.61 767.464 909.63 767.718C891.491 768.401 872.896 769.339 855.146 771.831C826.339 775.885 801.074 786.21 779.04 803.75C769.365 811.454 759.767 821.419 754.457 833.691C746.877 851.162 746.19 869.046 742.268 884.829C741.952 886.073 741.626 887.315 741.269 888.551C735.94 907.228 725.807 923.499 710.764 935.47C694.693 948.216 672.069 955.8 649.411 950.612" stroke="#F7FBFF" stroke-miterlimit="10" />
    </g>
    <g style="mix-blend-mode:multiply">
      <path d="M1084.56 379.884C1066.01 388.1 1048.72 398.908 1033.22 411.985C1026.22 417.641 1019.87 424.046 1014.27 431.085C1003.28 445.36 997.427 462.266 994.367 479.296C993.515 484.031 992.854 488.772 992.371 493.482C990.423 513.56 991.011 533.804 994.121 553.737C997.155 573.487 1002.94 592.893 1007.11 613.408C1011.83 636.512 1017.51 659.929 1017.91 683.512C1018.21 703.559 1013.84 724.399 1001.94 740.231C999.771 743.137 997.354 745.849 994.714 748.334C978.339 763.76 955.536 768.837 932.622 770.95C925.391 771.615 918.154 771.98 911.064 772.308C892.54 773.153 873.53 774.406 855.363 777.341C825.858 782.18 799.956 793.365 777.997 812.236C768.901 820.105 759.987 829.913 754.721 841.68C747.186 858.475 745.474 875.626 740.555 890.691C740.163 891.888 739.754 893.061 739.322 894.24C732.82 912.005 721.588 926.982 706.043 937.508C689.509 948.719 667.38 954.633 645.607 948.856" stroke="#F7FBFF" stroke-miterlimit="10" />
    </g>
    <g style="mix-blend-mode:multiply">
      <path d="M1091.24 385.066C1073.12 393.07 1056.28 403.727 1041.3 416.688C1034.56 422.325 1028.41 428.634 1022.95 435.519C1012.21 449.489 1005.94 465.747 1002.28 482.296C1001.26 486.902 1000.41 491.563 999.736 496.141C996.984 515.771 996.732 535.671 998.987 555.366C1001.17 574.865 1005.99 594.169 1009.87 614.18C1014.45 637.855 1020.43 661.695 1020.97 685.798C1021.44 706.216 1017.11 727.633 1005.07 743.878C1002.88 746.854 1000.43 749.633 997.746 752.185C981.086 768.037 957.806 773.203 934.385 775.442C927.006 776.154 919.611 776.563 912.381 776.95C893.461 777.963 874.026 779.53 855.439 782.919C825.259 788.483 798.661 800.442 776.816 820.779C768.308 828.708 760.082 838.447 754.863 849.698C747.398 865.8 744.635 882.234 738.724 896.561C738.259 897.691 737.773 898.816 737.259 899.926C729.772 916.614 717.168 930.491 701.268 939.555C684.26 949.23 662.533 953.456 641.73 947.097" stroke="#F7FBFF" stroke-miterlimit="10" />
    </g>
    <g style="mix-blend-mode:multiply">
      <path d="M1097.94 390.24C1080.23 398.034 1063.85 408.549 1049.39 421.404C1042.91 427.012 1036.97 433.226 1031.67 439.961C1021.19 453.532 1014.44 469.226 1010.21 485.3C1009.01 489.776 1008.01 494.29 1007.14 498.798C1003.62 517.978 1002.56 537.529 1003.98 556.979C1005.33 576.231 1009.18 595.432 1012.78 614.991C1017.19 639.223 1023.48 663.485 1024.18 688.113C1024.77 708.994 1020.51 730.894 1008.4 747.551C1006.17 750.608 1003.69 753.463 1000.96 756.083C984.026 772.363 960.272 777.598 936.358 779.955C928.823 780.701 921.265 781.175 913.895 781.62C894.591 782.795 874.742 784.677 855.719 788.548C824.843 794.833 797.411 807.561 775.836 829.384C767.427 837.669 760.448 847.287 755.182 857.848C747.772 873.275 743.972 888.984 737.068 902.573C736.518 903.644 735.96 904.702 735.381 905.756C726.624 921.547 713.068 934.146 696.67 941.734C679.207 949.887 657.899 952.503 638.101 945.493" stroke="#F7FBFF" stroke-miterlimit="10" />
    </g>
    <g style="mix-blend-mode:multiply">
      <path d="M1104.63 395.424C1087.33 402.996 1071.4 413.362 1057.47 426.107C1051.24 431.693 1045.5 437.811 1040.33 444.391C1030.09 457.612 1022.92 472.711 1018.08 488.294C1016.71 492.651 1015.51 497.032 1014.47 501.439C1010.16 520.162 1008.28 539.361 1008.86 558.566C1009.36 577.568 1012.21 596.567 1015.54 615.742C1019.79 640.552 1026.39 665.218 1027.25 690.378C1027.98 711.682 1023.78 734.108 1011.49 751.157C1009.23 754.291 1006.71 757.221 1003.94 759.914C986.725 776.61 962.496 781.923 938.059 784.436C930.407 785.234 922.672 785.737 915.138 786.258C895.449 787.593 875.135 789.781 855.783 794.081C824.231 801.09 795.974 814.547 774.639 837.892C766.936 846.282 760.429 855.694 755.302 865.861C747.953 880.594 743.121 895.601 735.218 908.429C734.594 909.442 733.949 910.452 733.287 911.436C723.255 926.329 708.747 937.652 691.853 943.773C673.927 950.392 653.067 951.361 634.139 943.728" stroke="#F7FBFF" stroke-miterlimit="10" />
    </g>
    <g style="mix-blend-mode:multiply">
      <path d="M1111.32 400.609C1094.44 407.965 1078.95 418.188 1065.56 430.824C1059.58 436.374 1054.05 442.395 1049.02 448.827C1039.18 461.696 1031.41 476.027 1026.01 491.299C1024.48 495.532 1023.11 499.802 1021.9 504.111C1016.78 522.367 1014.05 541.205 1013.76 560.161C1013.42 578.915 1015.35 597.766 1018.35 616.514C1022.41 641.906 1029.35 666.97 1030.4 692.669C1031.26 714.394 1027.1 737.353 1014.69 754.817C1012.41 758.029 1009.84 761.031 1007.03 763.787C989.533 780.9 964.829 786.293 939.894 788.944C932.053 789.78 924.189 790.344 916.516 790.913C896.439 792.376 875.682 794.916 855.912 799.659C823.673 807.402 794.426 821.544 773.498 846.445C766.497 854.936 760.45 864.17 755.467 873.981C748.185 888.032 742.288 902.286 733.41 914.401C732.715 915.337 731.979 916.264 731.252 917.193C719.956 931.176 704.513 941.222 687.14 945.887C668.738 950.98 648.315 950.3 630.332 942.047" stroke="#F7FBFF" stroke-miterlimit="10" />
    </g>
    <g style="mix-blend-mode:multiply">
      <path d="M1118 405.79C1079.61 422.195 1049.85 455.72 1033.89 494.293C1017.93 532.866 1015.07 576.016 1021.2 617.292C1025.05 643.233 1032.35 668.729 1033.53 694.925C1034.72 721.122 1028.8 749.195 1010.13 767.609C986.761 790.668 950.614 792.871 917.89 795.534C864.062 799.878 805.316 812.204 772.376 854.957C755.97 876.249 747.655 903.281 729.244 922.869C703.714 950.024 659.568 957.526 626.479 940.272" stroke="#F7FBFF" stroke-miterlimit="10" />
    </g>
  </g>
  <g style="mix-blend-mode:multiply">
    <g style="mix-blend-mode:multiply">
      <path d="M1009.43 161.631C975.174 150.494 938.807 179.367 926.624 213.222C914.441 247.077 918.898 284.272 919.412 320.254C919.927 356.237 914.791 395.629 888.845 420.571C855.674 452.47 799.275 450.419 767.47 483.727C742.681 509.664 740.923 549.314 749.225 582.407C753.927 601.12 764.587 618.322 770.799 636.535C799.003 719.164 885.068 741.039 885.824 806.724C886.637 877.865 846.07 908.525 820.406 916.95C787.545 927.705 705.231 940.417 664.808 862.483C648.388 830.825 630.465 799.239 605.756 773.497C568.763 734.966 503.232 722.491 460.352 754.308C430.954 776.111 414.212 815.096 379.626 827.068C356.369 835.125 329.736 828.245 309.944 813.629C290.152 799.013 276.406 777.501 266.185 755.098" stroke="#F7FBFF" stroke-miterlimit="10" />
    </g>
    <g style="mix-blend-mode:multiply">
      <path d="M1010.88 163.536C975.322 153.55 937.486 181.935 924.327 216.682C911.484 250.57 915.813 288.372 917.03 324.49C918.281 360.208 914.503 398.89 890.439 424.069C859.639 456.277 805.67 456.558 774.202 489.835C749.234 516.369 745.454 555.007 751.831 588.477C755.491 607.704 765.141 625.973 771.345 644.998C797.644 725.632 880.694 747.928 881.537 812.218C882.416 881.361 843.663 912.158 818.284 921.163C786.088 932.571 706.856 944.522 666.371 870.449C649.661 839.9 631.092 809.216 606.516 783.842C570.361 746.404 507.244 733.905 465.094 763.606C435.93 784.149 418.447 821.482 384.277 833.46C360.899 841.697 334.472 835.799 314.264 822.45C293.873 808.991 278.877 788.734 267.528 766.905" stroke="#F7FBFF" stroke-miterlimit="10" />
    </g>
    <g style="mix-blend-mode:multiply">
      <path d="M1012.33 165.444C975.532 156.608 936.173 184.506 922.048 220.147C908.575 254.138 912.635 292.443 914.663 328.74C916.646 364.161 914.249 402.073 892.044 427.558C863.625 460.078 812.013 462.623 780.946 495.989C755.742 523.076 749.949 560.768 754.44 594.578C757.043 614.339 765.716 633.671 771.955 653.516C796.459 732.08 876.381 754.873 877.273 817.749C878.205 884.902 841.298 915.843 816.191 925.435C784.715 937.442 708.457 948.685 667.845 878.428C650.835 848.987 631.658 819.234 607.172 794.22C571.87 757.857 511.154 745.341 469.75 772.961C440.794 792.26 422.584 827.923 388.823 839.895C365.331 848.334 339.102 843.405 318.495 831.338C297.464 819.028 281.252 799.97 268.7 778.71" stroke="#F7FBFF" stroke-miterlimit="10" />
    </g>
    <g style="mix-blend-mode:multiply">
      <path d="M1013.78 167.352C975.71 159.66 934.88 187.081 919.769 223.611C905.684 257.666 909.5 296.512 912.288 332.978C914.989 368.121 913.985 405.307 893.656 431.059C867.61 463.878 818.388 468.737 787.689 502.142C762.276 529.809 754.427 566.558 757.056 600.693C758.621 621.002 766.324 641.365 772.452 662.002C795.264 738.516 871.963 761.807 872.988 823.276C873.993 888.443 838.904 919.511 814.058 929.688C783.291 942.293 709.976 952.833 669.388 886.432C652.051 858.073 632.239 829.331 607.892 804.6C573.333 769.429 515.097 756.773 474.469 782.264C445.712 800.308 426.768 834.235 393.451 846.292C369.817 854.854 343.772 850.966 322.79 840.174C301.117 829.024 283.7 811.155 269.986 790.473" stroke="#F7FBFF" stroke-miterlimit="10" />
    </g>
    <g style="mix-blend-mode:multiply">
      <path d="M1015.21 169.258C975.889 162.713 933.589 189.646 917.49 227.077C902.811 261.208 906.359 300.613 909.923 337.218C913.315 372.11 913.717 408.563 895.259 434.549C871.585 467.677 824.785 474.856 794.442 508.298C768.828 536.504 758.86 572.361 759.664 606.795C760.154 627.677 766.892 649.041 773.041 670.516C794.249 744.912 867.629 768.748 868.731 828.82C869.792 891.986 836.557 923.156 811.977 933.953C781.899 947.151 711.482 956.989 670.944 894.428C653.268 867.159 632.81 839.372 608.646 814.965C574.901 780.904 519.044 768.185 479.216 791.585C450.627 808.377 430.981 840.616 398.097 852.704C374.324 861.432 348.448 858.551 327.105 849.016C304.776 839.043 286.205 822.374 271.281 802.249" stroke="#F7FBFF" stroke-miterlimit="10" />
    </g>
    <g style="mix-blend-mode:multiply">
      <path d="M1016.66 171.165C976.065 165.776 932.265 192.215 915.211 230.541C899.949 264.753 903.199 304.699 907.558 341.458C911.643 376.035 913.517 411.799 896.871 438.051C875.637 471.523 831.173 480.962 801.185 514.452C775.365 543.281 763.256 578.189 762.28 612.909C761.675 634.36 767.483 656.711 773.567 679.018C793.256 751.301 863.232 775.687 864.426 834.343C865.545 895.541 834.13 926.829 809.816 938.244C780.432 952.004 712.829 961.189 672.43 902.453C654.389 876.236 633.344 849.438 609.304 825.387C576.383 792.438 522.835 779.63 483.868 800.961C455.448 816.491 435.116 847.068 402.659 859.164C378.755 868.069 353.014 866.209 331.332 857.925C308.315 849.125 288.54 833.591 272.479 814.081" stroke="#F7FBFF" stroke-miterlimit="10" />
    </g>
    <g style="mix-blend-mode:multiply">
      <path d="M1018.17 173.084C976.296 168.839 931.096 194.815 912.982 234.027C897.147 268.32 900.091 308.796 905.233 345.717C910.015 380.012 913.315 415.046 898.473 441.551C879.629 475.347 837.566 487.102 807.926 520.616C781.885 550.034 767.618 584.032 764.886 619.022C763.172 641.061 768.091 664.405 774.125 687.527C792.379 757.596 858.876 782.635 860.149 839.883C861.334 899.083 831.751 930.479 807.719 942.483C779.029 956.806 714.171 965.314 673.969 910.425C654.632 883.913 633.257 858.945 610.038 835.749C577.94 803.858 526.755 791.016 488.585 810.276C460.301 824.549 439.309 853.447 407.274 865.571C383.239 874.654 357.631 873.825 335.615 866.77C311.907 859.163 290.968 844.828 273.723 825.901" stroke="#F7FBFF" stroke-miterlimit="10" />
    </g>
    <g style="mix-blend-mode:multiply">
      <path d="M1019.56 174.981C976.423 171.881 929.781 197.396 910.653 237.471C894.254 271.858 896.863 312.9 902.818 349.936C908.267 383.943 913.016 418.242 900.077 445.04C883.631 479.119 843.973 493.222 814.649 526.766C788.492 556.782 771.93 589.854 767.474 625.12C764.629 647.742 768.686 672.054 774.647 696.049C791.507 763.912 854.472 789.604 855.838 845.437C857.088 902.638 829.328 934.13 805.572 946.755C777.562 961.659 715.38 969.509 675.457 918.439C655.459 892.97 633.833 868.821 610.713 846.141C579.439 815.415 530.556 802.41 493.261 819.635C465.107 832.628 443.479 859.884 411.853 872.001C388.832 880.677 363.67 881.95 339.881 875.644C315.414 869.248 293.333 856.051 274.958 837.654" stroke="#F7FBFF" stroke-miterlimit="10" />
    </g>
    <g style="mix-blend-mode:multiply">
      <path d="M1021 176.887C976.6 174.944 928.539 199.982 908.384 240.938C891.423 275.409 893.682 316.929 900.402 354.167C906.517 387.885 912.701 421.467 901.634 448.553C887.569 482.943 850.32 499.375 821.355 532.945C794.957 563.545 776.19 595.72 770.055 631.25C766.047 654.46 769.245 679.728 775.153 704.548C790.728 770.193 850.058 796.519 851.517 850.926C852.82 906.137 826.897 937.717 803.404 950.971C776.099 966.386 716.53 973.735 676.947 926.391C657.743 903.362 635.144 879.557 611.449 856.493C581.011 826.87 534.387 813.757 498.001 828.943C469.949 840.63 447.69 866.276 416.487 878.422C393.473 887.339 368.373 889.451 344.183 884.504C318.783 879.157 295.301 867.043 276.228 849.447" stroke="#F7FBFF" stroke-miterlimit="10" />
    </g>
    <g style="mix-blend-mode:multiply">
      <path d="M1022.41 178.787C976.737 177.988 927.254 202.569 906.062 244.405C888.548 278.962 890.46 321.003 898.038 358.396C904.824 391.806 912.461 424.685 903.254 452.013C891.583 486.706 856.752 505.478 828.119 539.102C801.514 570.326 780.466 601.556 772.692 637.368C767.522 661.156 769.953 687.399 775.753 713.054C790.079 776.467 845.742 803.474 847.287 856.496C848.654 909.718 824.545 941.383 801.335 955.28C774.691 971.208 717.605 977.958 678.515 934.432C658.761 912.419 635.677 889.57 612.141 866.9C582.531 838.369 538.135 825.087 502.676 838.303C474.709 848.722 451.86 872.713 421.076 884.845C398.038 894.018 372.984 896.96 348.437 893.376C322.283 889.36 297.733 878.245 277.464 861.244" stroke="#F7FBFF" stroke-miterlimit="10" />
    </g>
    <g style="mix-blend-mode:multiply">
      <path d="M1023.9 180.704C976.966 181.052 926.062 205.175 903.803 247.875C885.745 282.53 887.277 325.097 895.692 362.652C903.116 395.8 912.221 427.904 904.886 455.52C895.588 490.513 863.183 511.638 834.888 545.231C808.107 577.031 784.742 607.341 775.315 643.443C768.953 667.802 770.627 695.023 776.275 721.525C789.47 782.698 841.406 810.374 843.02 862.039C844.452 913.263 822.17 945.004 799.243 959.544C773.301 975.993 718.602 982.253 680.059 942.428C659.796 921.494 636.29 899.611 612.87 877.285C584.122 849.829 541.907 836.349 507.435 847.617C479.529 856.721 456.092 879.101 425.734 891.251C401.194 901.06 375.986 904.524 352.763 902.211C325.863 899.533 300.237 889.422 278.759 873.012" stroke="#F7FBFF" stroke-miterlimit="10" />
    </g>
    <g style="mix-blend-mode:multiply">
      <path d="M1025.34 182.61C977.143 184.115 924.84 207.775 901.544 251.345C882.953 286.1 884.097 329.18 893.347 366.897C901.403 399.771 911.976 431.154 906.509 459.025C899.597 494.308 869.619 517.775 841.652 551.389C814.689 583.796 789 613.165 777.942 649.56C770.377 674.489 771.319 702.67 776.894 730.046C788.87 788.939 837.037 817.33 838.751 867.539C840.246 916.774 819.773 948.576 797.137 963.772C771.866 980.737 719.49 986.558 681.598 950.4C660.808 930.53 636.883 909.647 613.594 887.635C585.669 861.302 545.638 847.603 512.116 856.947C484.255 864.712 460.263 885.529 430.334 897.676C405.673 907.666 380.551 912.238 357.051 911.08C329.411 909.751 302.706 900.641 280.018 884.803" stroke="#F7FBFF" stroke-miterlimit="10" />
    </g>
    <g style="mix-blend-mode:multiply">
      <path d="M1026.79 184.517C977.321 187.168 923.625 210.387 899.264 254.809C880.158 289.625 880.872 333.264 890.971 371.135C899.661 403.725 911.713 434.378 908.122 462.516C903.571 498.106 876.042 523.92 848.394 557.543C821.25 590.556 793.197 618.965 780.557 655.675C771.771 681.159 772.018 710.328 777.446 738.522C788.33 795.139 832.774 824.231 834.481 873.037C836.126 920.28 817.383 952.107 795.03 967.999C770.422 985.467 720.27 990.97 683.127 958.359C661.717 939.589 637.497 919.569 614.312 897.962C587.237 872.713 549.344 858.755 516.833 866.251C488.994 872.629 464.462 891.92 434.931 904.058C410.158 914.24 385.127 919.943 361.315 919.901C332.934 919.931 305.136 911.827 281.219 896.551" stroke="#F7FBFF" stroke-miterlimit="10" />
    </g>
    <g style="mix-blend-mode:multiply">
      <path d="M1028.24 186.445C977.497 190.241 922.415 213.032 896.982 258.295C877.362 293.268 877.643 337.38 888.597 375.427C897.909 407.732 911.447 437.624 909.716 466.057C907.551 501.939 882.456 530.117 855.14 563.74C827.824 597.363 797.379 624.795 783.157 661.819C773.15 687.858 772.727 718 777.991 747.093C787.83 801.421 828.393 831.249 830.191 878.64C831.898 923.904 814.952 955.801 792.891 972.339C768.95 990.288 720.935 995.489 684.636 966.433C662.592 948.781 638.082 929.699 615.013 908.436C588.778 884.27 553.022 870.008 521.521 875.657C493.704 880.649 468.64 898.424 439.527 910.558C414.63 920.941 389.691 927.774 365.578 928.84C336.487 930.241 307.611 923.164 282.464 908.469" stroke="#F7FBFF" stroke-miterlimit="10" />
    </g>
    <g style="mix-blend-mode:multiply">
      <path d="M1029.69 188.333C977.684 193.242 921.216 215.615 894.713 261.698C874.55 296.77 874.417 341.411 886.246 379.585C896.169 411.612 911.188 440.774 911.345 469.467C911.543 505.645 888.894 536.181 861.939 569.82C834.436 604.08 801.614 630.507 785.821 667.847C774.584 694.43 773.582 725.572 778.594 755.525C787.393 807.588 824.076 838.152 825.96 884.104C827.732 927.37 812.588 959.305 790.835 976.523C767.549 994.964 721.613 999.989 686.226 974.351C663.483 957.88 638.735 939.64 615.777 918.741C590.407 895.641 556.75 881.048 526.29 884.918C498.475 888.456 472.901 904.774 444.195 916.901C419.165 927.472 394.335 935.46 369.912 937.633C340.111 940.381 310.156 934.295 283.788 920.135" stroke="#F7FBFF" stroke-miterlimit="10" />
    </g>
    <g style="mix-blend-mode:multiply">
      <path d="M1031.14 190.218C977.859 196.316 920.026 218.21 892.388 265.176C871.659 300.353 871.123 345.526 883.825 383.836C894.405 415.627 910.907 444.039 912.991 473.019C915.572 509.498 895.376 542.36 868.685 576.018C841.024 610.868 805.8 636.316 788.439 674.006C775.954 701.117 774.312 733.238 779.152 764.078C786.959 813.852 819.718 845.1 821.686 889.678C823.511 930.954 810.16 962.926 788.724 980.826C766.074 999.742 722.152 1004.71 687.74 982.394C664.276 967.153 639.346 949.691 616.477 929.162C591.967 907.149 560.444 892.156 530.983 894.294C503.169 896.334 477.084 911.248 448.797 923.371C423.653 934.144 398.891 943.269 374.183 946.531C343.68 950.652 312.636 945.581 285.028 931.966" stroke="#F7FBFF" stroke-miterlimit="10" />
    </g>
    <g style="mix-blend-mode:multiply">
      <path d="M1032.58 192.147C978.033 199.389 918.847 220.862 890.146 268.671C868.961 303.983 867.9 349.654 881.497 388.106C892.637 419.599 910.638 447.241 914.552 476.501C919.474 513.284 901.752 548.529 875.376 582.162C847.554 617.624 809.912 642.058 790.995 680.099C777.258 707.75 775.073 740.856 779.659 772.567C786.535 820.064 815.288 852.035 817.358 895.198C819.236 934.484 807.669 966.481 786.559 985.075C764.547 1004.46 722.585 1009.48 689.222 990.378C664.971 976.492 639.913 959.691 617.154 939.536C593.498 918.587 564.053 903.15 535.651 903.632C507.853 904.092 481.238 917.705 453.367 929.781C428.098 940.755 403.484 951.053 378.418 955.39C347.222 960.877 315.09 956.819 286.233 943.749" stroke="#F7FBFF" stroke-miterlimit="10" />
    </g>
    <g style="mix-blend-mode:multiply">
      <path d="M1034.03 194.055C978.191 202.438 917.661 223.49 887.866 272.136C866.185 307.524 864.577 353.752 879.131 392.347C890.858 423.579 910.304 450.506 916.154 480.001C923.371 517.1 908.194 554.689 882.119 588.317C854.144 624.402 814.066 647.808 793.559 686.205C778.564 714.328 775.878 748.472 780.154 781.065C786.093 826.262 810.784 858.966 813.029 900.73C814.886 938.021 805.168 970.034 784.392 989.335C763.008 1009.18 722.981 1014.39 690.704 998.361C664.442 985.375 639.946 969.091 617.81 949.906C595.03 930.025 567.705 914.09 540.342 912.965C512.569 911.803 485.434 924.117 457.957 936.205C432.581 947.34 408.089 958.839 382.694 964.258C350.81 971.114 317.585 968.072 287.47 955.537" stroke="#F7FBFF" stroke-miterlimit="10" />
    </g>
    <g style="mix-blend-mode:multiply">
      <path d="M1035.47 195.961C978.398 205.508 916.483 226.131 885.586 275.601C863.39 311.157 861.355 357.881 876.755 396.586C889.078 427.558 910.039 453.742 917.778 483.495C927.367 520.904 914.595 560.841 888.874 594.517C860.736 631.222 818.224 653.591 796.22 692.361C779.962 721.032 776.841 756.151 780.764 789.628C785.806 832.543 806.47 865.965 808.794 906.322C810.714 941.625 802.776 973.629 782.321 993.656C761.564 1013.97 723.488 1019.5 692.278 1006.43C665.468 994.982 640.604 979.437 618.58 960.351C596.664 941.537 571.489 925.065 545.064 922.357C517.337 919.514 489.644 930.618 462.577 942.688C437.081 954.058 412.711 966.693 386.983 973.171C354.423 981.409 320.104 979.388 288.728 967.383" stroke="#F7FBFF" stroke-miterlimit="10" />
    </g>
    <g style="mix-blend-mode:multiply">
      <path d="M1036.91 197.868C978.566 208.559 915.254 228.762 883.307 279.067C860.593 314.748 858.071 361.997 874.379 400.824C887.286 431.547 909.766 456.965 919.359 486.992C931.342 524.703 921.132 567.063 895.605 600.626C867.386 638.023 822.361 659.263 798.823 698.432C781.291 727.594 777.783 763.719 781.309 798.082C785.452 838.726 802.101 872.858 804.517 911.799C806.501 945.114 800.301 977.155 780.207 997.862C760.113 1018.57 723.968 1024.63 693.811 1014.37C667.038 1005.27 641.819 989.686 619.287 970.677C598.25 952.91 575.261 935.878 549.724 931.629C522.099 927.041 493.825 937.049 467.147 949.045C441.547 960.672 417.251 974.424 391.218 981.977C357.991 991.579 322.586 990.578 289.944 979.114" stroke="#F7FBFF" stroke-miterlimit="10" />
    </g>
    <g style="mix-blend-mode:multiply">
      <path d="M1038.37 199.777C978.755 211.613 914.226 231.464 881.037 282.534C857.886 318.376 854.784 366.124 872.024 405.067C885.512 435.496 909.555 460.2 920.979 490.506C935.313 528.523 927.554 573.219 902.354 606.803C873.96 644.775 826.564 664.979 801.441 704.537C782.644 734.204 778.82 771.348 781.865 806.591C785.152 844.962 797.692 879.797 800.239 917.34C802.277 948.654 797.822 980.701 778.094 1002.12C758.541 1023.35 724.511 1029.94 695.332 1022.37C667.734 1015.21 642.422 999.661 619.998 981.037C599.845 964.296 579.091 946.67 554.482 940.943C526.992 934.551 498.055 943.446 471.804 955.45C446.082 967.267 421.998 982.184 395.542 990.821C361.651 1001.8 325.153 1001.82 291.238 990.881" stroke="#F7FBFF" stroke-miterlimit="10" />
    </g>
    <g style="mix-blend-mode:multiply">
      <path d="M1039.82 201.685C978.931 214.676 912.99 234.071 878.747 286.051C855.045 321.968 851.455 370.252 869.604 409.308C883.665 439.547 909.206 463.429 922.541 493.988C939.259 532.306 933.876 579.334 909.058 612.938C880.478 651.538 830.631 670.679 804.013 710.654C783.934 740.8 779.869 778.968 782.378 815.102C784.887 851.237 793.319 886.763 795.919 922.872C798.027 952.167 795.29 984.248 775.935 1006.39C756.981 1028.07 725.199 1035.39 696.813 1030.36C668.426 1025.34 642.985 1009.63 620.667 991.451C601.392 975.758 582.922 957.514 559.134 950.31C531.816 942.036 502.199 949.901 476.366 961.9C450.534 973.9 426.586 990.052 399.771 999.711C365.223 1012.06 327.632 1013.11 292.435 1002.7" stroke="#F7FBFF" stroke-miterlimit="10" />
    </g>
  </g>
  <g style="mix-blend-mode:multiply">
    <g style="mix-blend-mode:multiply">
      <path d="M1169.95 651.249C1157.18 617.615 1111.85 607.368 1077.79 619.05C1043.74 630.732 1017.54 657.502 989.801 680.43C962.06 703.359 928.132 724.009 892.413 719.42C846.738 713.556 812.992 668.36 767.074 664.417C731.318 661.351 699.288 684.807 678.649 711.979C666.997 727.338 660.27 746.402 649.955 762.652C603.196 836.32 640.088 917.017 589.327 958.719C534.353 1003.88 485.017 991.48 462.356 976.779C433.342 957.947 371.867 901.785 407.307 821.538C421.706 788.932 435.111 755.257 439.694 719.873C446.554 666.949 415.201 608.161 363.522 594.641C328.102 585.404 287.201 596.766 256.183 577.332C235.325 564.274 223.989 539.23 222.989 514.669C221.988 490.108 230.112 465.978 241.195 444.037" stroke="#F7FBFF" stroke-miterlimit="10" />
    </g>
    <g style="mix-blend-mode:multiply">
      <path d="M1169.36 653.575C1154.88 619.664 1109.02 607.955 1073.67 619.451C1039.16 630.672 1012.4 657.641 985.017 681.249C957.959 704.577 925.457 725.824 890.695 722.876C846.274 719.051 812.223 677.209 766.54 673.546C730.204 670.71 697.673 691.941 675.606 717.862C662.909 732.752 654.696 751.698 643.751 768.436C597.349 839.371 631.968 917.981 582.412 958.879C529.03 1002.84 480.728 991.956 457.764 977.826C428.701 959.916 369.7 905.688 402.08 827.757C415.434 795.623 427.72 761.978 432.095 726.949C438.642 675.365 408.831 618.406 359.25 604.169C324.945 594.314 284.879 604.072 254.109 584.965C233.073 571.937 221.075 547.663 218.816 523.575C216.534 499.269 222.935 474.912 232.84 452.421" stroke="#F7FBFF" stroke-miterlimit="10" />
    </g>
    <g style="mix-blend-mode:multiply">
      <path d="M1168.78 655.903C1152.61 621.75 1106.2 608.544 1069.54 619.85C1034.59 630.632 1007.25 657.768 980.223 682.064C953.83 705.832 922.774 727.626 888.982 726.31C845.816 724.525 811.469 685.931 765.981 682.638C729.026 679.96 696.044 699.038 672.485 723.708C658.707 738.153 649.066 756.951 637.471 774.172C591.54 842.45 623.873 918.926 575.425 958.969C523.647 1001.73 476.38 992.354 453.166 978.796C424.064 961.809 367.501 909.476 396.844 833.91C409.147 802.225 420.334 768.676 424.5 733.949C430.722 683.715 402.438 628.603 354.967 613.64C321.768 603.165 282.549 611.312 252.036 592.533C230.741 579.518 218.144 556.016 214.635 532.413C211.056 508.337 215.761 483.78 224.48 460.728" stroke="#F7FBFF" stroke-miterlimit="10" />
    </g>
    <g style="mix-blend-mode:multiply">
      <path d="M1168.18 658.216C1150.33 623.738 1103.35 609.137 1065.39 620.245C1030 630.59 1002.08 657.88 975.421 682.868C949.691 706.967 920.076 729.458 887.238 729.738C845.324 730.004 810.688 694.734 765.388 691.744C727.892 689.261 694.306 706.147 669.341 729.56C654.473 743.495 643.412 762.221 631.177 779.928C585.795 845.584 615.715 919.871 568.402 959.139C518.213 1000.71 471.946 992.865 448.487 979.859C419.367 963.788 365.21 913.301 391.551 840.137C402.794 808.899 412.775 775.438 416.823 741.041C422.588 692.12 395.957 638.868 350.607 623.183C318.492 612.083 280.183 618.567 249.894 600.184C228.403 587.131 215.116 564.426 210.384 541.335C205.498 517.487 208.505 492.74 216.049 469.118" stroke="#F7FBFF" stroke-miterlimit="10" />
    </g>
    <g style="mix-blend-mode:multiply">
      <path d="M1167.63 660.548C1148.08 625.826 1100.56 609.754 1061.27 620.69C1025.47 630.578 996.922 657.993 970.654 683.657C945.582 708.119 917.416 731.254 885.549 733.156C844.89 735.462 809.908 703.526 764.844 700.817C726.739 698.548 692.586 713.217 666.244 735.39C650.254 748.872 637.811 767.49 624.915 785.679C580.194 848.757 607.59 920.811 561.44 959.267C512.833 999.631 467.674 993.257 443.87 980.869C414.734 965.715 362.913 917.049 386.297 846.329C396.487 815.497 405.327 782.179 409.211 748.082C414.611 700.491 389.522 649.068 346.309 632.684C315.305 620.933 277.847 625.838 247.808 607.77C226.098 594.74 212.132 572.78 206.187 550.203C199.971 526.536 201.305 501.636 207.66 477.463" stroke="#F7FBFF" stroke-miterlimit="10" />
    </g>
    <g style="mix-blend-mode:multiply">
      <path d="M1167.05 662.876C1145.8 627.89 1097.74 610.374 1057.15 621.046C1020.9 630.583 991.791 658.113 965.854 684.503C941.461 709.332 914.69 733.165 883.826 736.641C844.428 741.063 809.185 712.361 764.273 709.97C725.605 707.902 690.793 720.336 663.111 741.298C645.992 754.25 632.212 772.749 618.627 791.457C574.629 852.011 599.437 921.777 554.441 959.419C507.436 998.586 463.337 993.711 439.226 981.915C410.067 967.709 360.559 920.754 381.016 852.548C390.116 822.093 397.865 788.937 401.557 755.167C406.612 708.921 383.067 659.252 342.023 642.229C312.099 629.821 275.517 633.131 245.73 615.423C223.806 602.393 209.125 581.194 202.013 559.118C194.441 535.702 194.136 510.591 199.304 485.856" stroke="#F7FBFF" stroke-miterlimit="10" />
    </g>
    <g style="mix-blend-mode:multiply">
      <path d="M1166.47 665.194C1143.53 629.933 1094.95 611 1053.02 621.437C1016.36 630.57 986.636 658.196 961.072 685.311C937.318 710.488 912.068 734.99 882.113 740.076C843.959 746.589 808.414 721.166 763.704 719.061C724.446 717.22 688.984 727.368 659.997 747.103C641.723 759.607 626.615 777.998 612.353 797.163C569.157 855.23 591.299 922.673 547.456 959.5C502.043 997.467 459.013 994.093 434.584 982.889C405.435 969.518 358.112 924.335 375.751 858.685C384.312 827.037 390.389 794.768 393.929 762.172C398.63 717.259 376.61 669.34 337.671 651.677C308.818 638.6 273.119 640.337 243.585 622.977C221.476 609.965 206.033 589.495 197.749 567.941C188.813 544.72 186.869 519.442 190.86 494.148" stroke="#F7FBFF" stroke-miterlimit="10" />
    </g>
    <g style="mix-blend-mode:multiply">
      <path d="M1165.88 667.509C1141.26 631.986 1092.1 611.637 1048.89 621.834C1011.8 630.576 981.468 658.286 956.281 686.116C933.145 711.638 909.392 736.815 880.398 743.52C843.504 752.042 807.65 729.993 763.132 728.17C723.298 726.539 687.144 734.392 656.866 753C637.428 764.936 621.026 783.323 606.062 802.961C563.724 858.585 583.152 923.672 540.433 959.668C496.6 996.444 454.645 994.541 429.907 983.94C400.758 971.457 347.325 925.422 370.477 864.926C381.35 836.376 382.961 802.406 386.274 769.268C390.631 725.689 370.14 679.5 333.288 661.225C305.503 647.445 270.699 647.655 241.429 630.592C220.274 618.092 203.541 599.314 193.561 576.874C183.245 553.868 179.696 528.418 182.5 502.562" stroke="#F7FBFF" stroke-miterlimit="10" />
    </g>
    <g style="mix-blend-mode:multiply">
      <path d="M1165.3 669.836C1139.03 634.048 1089.33 612.332 1044.77 622.234C1007.26 630.606 976.293 658.365 951.487 686.932C929.035 712.8 906.716 738.64 878.685 746.954C843.054 757.529 806.886 738.82 762.558 737.291C722.146 735.879 685.295 741.415 653.74 758.877C633.129 770.286 615.44 788.627 599.785 808.741C558.352 861.951 575.003 924.628 533.466 959.827C491.255 995.408 450.343 994.98 425.294 984.993C396.159 973.379 344.046 928.99 365.197 871.144C375.498 842.954 375.5 809.164 378.623 776.343C382.646 734.101 363.675 689.575 329.005 670.761C302.281 656.256 268.368 654.959 239.347 638.265C217.968 625.928 200.589 607.708 189.282 585.779C177.53 562.66 172.264 536.796 174.042 510.935" stroke="#F7FBFF" stroke-miterlimit="10" />
    </g>
    <g style="mix-blend-mode:multiply">
      <path d="M1164.72 672.154C1136.73 636.095 1086.54 612.947 1040.63 622.632C1002.68 630.62 971.118 658.433 946.672 687.744C924.842 713.935 904.01 740.449 876.938 750.393C842.566 762.987 806.09 747.641 761.967 746.377C720.966 745.193 683.425 748.37 650.587 764.717C628.789 775.565 609.849 793.898 593.473 814.472C553.002 865.312 566.827 925.548 526.443 959.933C485.804 994.31 445.998 995.359 420.615 985.991C391.508 975.228 340.827 932.571 359.893 877.316C369.573 849.402 368.024 815.878 370.958 783.373C374.648 742.468 357.18 699.581 324.65 680.272C298.991 665.022 265.965 662.238 237.202 645.873C215.608 633.67 197.606 616.001 185.01 594.644C171.748 571.77 165.03 545.699 165.588 519.278" stroke="#F7FBFF" stroke-miterlimit="10" />
    </g>
    <g style="mix-blend-mode:multiply">
      <path d="M1164.15 674.482C1134.46 638.149 1083.74 613.615 1036.51 623.012C998.172 630.645 965.939 658.479 941.916 688.535C920.727 715.065 901.369 742.259 875.248 753.821C842.137 768.478 805.36 756.464 761.443 755.464C719.87 754.523 681.571 755.307 647.509 770.561C624.525 780.847 604.342 799.186 587.236 820.217C547.774 868.717 558.735 926.484 519.515 960.056C480.457 993.232 441.737 995.753 416.032 986.997C386.902 977.074 337.759 936.212 354.675 883.494C363.577 855.782 360.633 822.608 363.366 790.417C366.733 750.851 350.789 709.554 320.39 689.748C295.81 673.787 263.629 669.509 235.125 653.472C212.095 640.517 193.599 623.05 180.842 603.528C166.071 580.907 157.898 554.625 157.241 527.631" stroke="#F7FBFF" stroke-miterlimit="10" />
    </g>
    <g style="mix-blend-mode:multiply">
      <path d="M1163.57 676.799C1132.19 640.202 1080.96 614.296 1032.38 623.432C993.62 630.705 960.74 658.564 937.119 689.371C916.544 716.212 898.702 744.096 873.531 757.275C841.685 773.974 804.592 765.311 760.858 764.582C718.678 763.898 679.673 762.245 644.374 776.425C620.195 786.138 598.796 804.508 580.94 825.982C542.524 872.171 550.616 927.446 512.498 960.194C475.03 992.18 437.412 996.145 411.359 988.027C382.298 978.964 344.927 941.837 349.386 889.7C351.83 861.058 353.171 829.367 355.708 797.47C358.74 759.25 344.335 719.514 316.036 699.259C292.523 682.435 261.25 676.782 233.016 661.065C209.767 648.132 190.45 631.425 176.625 612.391C160.338 590.036 150.704 563.541 148.833 535.961" stroke="#F7FBFF" stroke-miterlimit="10" />
    </g>
    <g style="mix-blend-mode:multiply">
      <path d="M1162.99 679.127C1129.91 642.266 1078.16 614.985 1028.25 623.82C989.081 630.758 955.537 658.616 932.337 690.179C912.367 717.33 896.017 745.909 871.816 760.72C841.224 779.459 803.829 774.182 760.285 773.693C717.549 773.232 677.79 769.166 641.249 782.292C615.866 791.419 593.276 809.857 574.687 831.746C537.291 875.651 542.516 928.477 505.522 960.341C469.716 991.205 433.119 996.533 406.739 989.058C377.698 980.833 342.004 945.219 344.128 895.913C345.34 867.492 345.752 836.124 348.079 804.539C350.804 767.629 337.976 729.428 311.731 708.791C289.25 691.118 258.877 684.078 230.898 668.699C207.421 655.786 187.288 639.862 172.399 621.297C154.597 599.224 143.5 572.518 140.425 544.345" stroke="#F7FBFF" stroke-miterlimit="10" />
    </g>
    <g style="mix-blend-mode:multiply">
      <path d="M1162.4 681.443C1127.64 644.319 1075.37 615.686 1024.12 624.22C984.54 630.82 950.325 658.666 927.544 690.994C908.186 718.467 893.343 747.723 870.101 764.164C840.755 784.931 803.061 783.029 759.723 782.805C716.384 782.58 675.902 776.053 638.13 788.127C611.551 796.627 587.785 815.169 568.389 837.468C532.166 879.129 534.354 929.388 498.513 960.438C464.298 990.102 428.794 996.872 402.083 990.05C373.077 982.644 338.935 948.528 338.798 902.058C338.738 873.85 338.259 842.823 340.386 811.552C342.794 776.004 331.499 739.234 307.355 718.254C286.026 699.714 256.468 691.281 228.748 676.284C205.042 663.39 184.084 648.248 168.14 630.152C148.831 608.366 136.27 581.446 131.987 552.668" stroke="#F7FBFF" stroke-miterlimit="10" />
    </g>
    <g style="mix-blend-mode:multiply">
      <path d="M1161.82 683.771C1125.37 646.373 1072.57 616.387 1019.99 624.618C980.001 630.873 945.103 658.704 922.752 691.8C903.996 719.592 890.66 749.526 868.385 767.609C840.296 790.405 802.291 791.888 759.15 791.915C715.244 791.966 674.03 782.911 635 794.015C607.224 801.897 582.298 820.568 562.098 843.256C527.013 882.689 526.2 930.366 491.52 960.613C458.889 989.066 424.48 997.256 397.426 991.106C368.456 984.509 335.746 951.901 333.556 908.295C332.151 880.287 330.867 849.607 332.773 818.646C334.879 784.44 325.17 749.101 303.056 727.809C282.876 708.368 254.089 698.662 226.673 683.916C202.739 671.042 180.951 656.702 163.957 639.055C143.134 617.571 129.105 590.435 123.624 561.04" stroke="#F7FBFF" stroke-miterlimit="10" />
    </g>
    <g style="mix-blend-mode:multiply">
      <path d="M1161.25 686.088C1123.11 648.429 1069.79 617.111 1015.86 625.019C975.459 630.946 939.872 658.74 917.969 692.618C899.798 720.706 887.987 751.341 866.671 771.053C839.828 795.877 801.532 800.748 758.58 801.015C714.074 801.292 672.143 789.799 631.878 799.871C602.912 807.095 576.837 825.95 555.815 849.014C521.853 886.236 518.053 931.312 484.526 960.746C453.487 987.998 420.184 997.612 392.798 992.178C363.855 986.388 332.478 955.301 328.301 914.551C325.455 886.745 323.482 856.413 325.127 825.754C326.93 792.891 318.859 758.939 298.736 737.369C279.722 716.988 251.738 706.015 224.563 691.573C200.396 678.74 177.777 665.212 159.736 647.993C137.405 626.822 121.905 599.475 115.222 569.456" stroke="#F7FBFF" stroke-miterlimit="10" />
    </g>
    <g style="mix-blend-mode:multiply">
      <path d="M1160.67 688.396C1120.84 650.483 1066.99 617.833 1011.78 625.427C970.967 631.029 934.671 658.781 913.226 693.444C895.641 721.827 885.355 753.153 865.009 774.498C839.411 801.35 800.821 809.629 758.068 810.138C712.997 810.679 670.314 796.655 628.805 805.738C598.622 812.341 571.453 831.368 549.593 854.783C516.854 889.835 509.989 932.264 477.582 960.888C448.127 986.928 415.932 997.955 388.198 993.159C359.284 988.156 329.072 958.632 323.065 920.704C318.699 893.117 316.087 863.099 317.581 832.776C319.095 801.247 312.686 768.665 294.507 746.841C276.718 725.499 249.444 713.284 222.542 699.151C198.144 686.348 174.693 673.632 155.608 656.832C131.771 635.984 114.796 608.425 106.912 577.774" stroke="#F7FBFF" stroke-miterlimit="10" />
    </g>
    <g style="mix-blend-mode:multiply">
      <path d="M1160.09 690.733C1118.57 652.535 1064.21 618.557 1007.61 625.816C966.383 631.093 929.39 658.796 908.384 694.239C891.382 722.927 882.574 754.915 863.243 777.932C838.835 806.768 799.999 818.476 757.446 819.227C711.773 820.005 668.418 803.476 625.631 811.584C594.268 817.53 565.995 836.793 543.258 860.53C511.725 893.441 501.697 933.129 470.547 961.012C442.629 985.799 411.567 998.275 383.496 994.173C354.624 989.948 325.47 962.041 317.74 926.881C311.413 898.299 308.76 869.029 309.847 839.781C311.079 809.599 306.381 778.353 290.098 756.309C273.584 733.963 246.985 720.53 220.342 706.715C195.714 693.942 171.429 682.049 151.29 665.664C125.961 645.139 107.51 617.372 98.4117 586.085" stroke="#F7FBFF" stroke-miterlimit="10" />
    </g>
    <g style="mix-blend-mode:multiply">
      <path d="M1159.51 693.061C1116.3 654.589 1061.36 619.289 1003.48 626.216C961.838 631.177 924.135 658.838 903.6 695.057C887.163 724.036 879.89 756.781 861.517 781.374C838.416 812.261 799.235 827.357 756.874 828.337C710.629 829.411 666.542 810.301 622.506 817.45C589.947 822.769 560.62 842.277 536.964 866.285C506.656 897.07 493.549 934.075 463.537 961.163C437.211 984.75 407.253 998.605 378.801 995.2C349.951 991.75 321.769 965.571 312.399 933.131C304.522 905.097 301.061 876.012 302.14 846.92C303.082 818.073 300.147 788.174 285.687 765.895C270.535 742.539 244.509 727.967 218.149 714.409C193.288 701.677 168.147 690.613 146.988 674.63C120.166 654.432 100.238 626.453 89.9301 594.519" stroke="#F7FBFF" stroke-miterlimit="10" />
    </g>
    <g style="mix-blend-mode:multiply">
      <path d="M1158.94 695.379C1114.03 656.643 1058.62 620.044 999.348 626.605C957.287 631.291 918.862 658.867 898.801 695.904C882.926 725.185 877.206 758.594 859.794 784.86C837.895 817.777 798.449 836.351 756.295 837.479C709.455 838.919 664.67 817.16 619.374 823.348C585.647 827.959 555.275 847.832 530.724 872.094C501.626 900.771 485.444 935.073 456.59 961.326C431.856 983.713 402.991 998.947 374.249 996.266C345.507 993.585 318.129 969.231 307.23 939.33C297.554 912.789 293.872 883.377 294.59 853.973C295.262 826.463 294.144 797.912 281.471 775.412C267.738 751.027 242.21 735.267 216.132 722.021C191.03 709.37 165.104 699.106 142.873 683.514C114.557 663.656 93.1483 635.463 81.6357 602.871" stroke="#F7FBFF" stroke-miterlimit="10" />
    </g>
    <g style="mix-blend-mode:multiply">
      <path d="M1158.4 697.715C1111.8 658.737 1055.9 620.898 995.274 627.015C952.808 631.419 913.63 658.902 894.015 696.679C878.664 726.243 874.527 760.376 858.107 788.268C837.432 823.218 797.732 845.155 755.767 846.523C708.337 848.191 662.863 823.902 616.287 829.126C581.374 833.058 550.016 853.328 524.446 877.767C496.604 904.377 477.302 935.935 449.611 961.376C426.458 982.561 398.678 999.16 369.601 997.217C340.8 995.284 314.341 972.936 301.954 945.464C290.242 919.492 286.5 890.058 286.956 860.955C287.356 834.795 288.106 807.6 277.151 784.855C264.931 759.458 239.838 742.499 213.968 729.56C188.638 716.93 161.88 707.531 138.601 692.324C108.806 672.817 85.9136 644.428 73.1758 611.191" stroke="#F7FBFF" stroke-miterlimit="10" />
    </g>
    <g style="mix-blend-mode:multiply">
      <path d="M1157.77 700.022C1109.5 660.721 1053.03 621.562 991.088 627.403C948.209 631.449 908.298 658.908 889.228 697.517C874.46 727.387 871.849 762.211 856.374 791.698C836.972 828.703 796.945 853.989 755.149 855.646C707.135 857.564 660.967 830.724 613.115 835.016C577.029 838.26 544.714 858.986 518.084 883.541C491.453 908.096 469.074 936.909 442.526 961.533C420.973 981.531 394.274 999.462 364.874 998.248C336.09 997.056 310.459 976.902 296.593 951.656C282.727 926.411 279.053 896.798 279.221 868.014C279.373 843.196 282.027 817.397 272.741 794.376C262.09 767.957 237.381 749.788 211.822 737.178C186.263 724.567 158.682 716.047 134.344 701.223C103.083 682.048 78.7268 653.441 64.7968 619.537" stroke="#F7FBFF" stroke-miterlimit="10" />
    </g>
  </g>
</svg>
   