<svg width="922" height="1019" viewBox="0 0 922 1019" fill="none" xmlns="http://www.w3.org/2000/svg">
  <g style="mix-blend-mode:multiply">
    <g style="mix-blend-mode:multiply">
      <path d="M46.8171 837.148C70.2585 821.942 92.7646 805.35 114.215 787.46C123.745 779.514 133.258 771.063 139.228 760.197C154.498 732.415 142.656 697.729 127.086 670.085C112.726 644.603 95.3789 620.912 75.4105 599.509C55.6752 578.371 33.0761 559.08 18.8011 533.887C4.526 508.694 0.436509 474.882 18.2708 452.095C28.8857 438.534 45.7859 430.886 62.8734 428.516C79.9609 426.147 97.3748 428.578 114.259 432.151C133.596 436.254 153.705 441.846 172.755 436.628C192.479 431.223 208.239 413.581 211.347 393.426C215.763 364.754 196.87 338.43 182.188 313.364C163.542 281.51 150.283 244.915 154.19 208.267C158.097 171.619 182.438 135.574 218.205 126.285" stroke="#F7FBFF" stroke-miterlimit="10" />
    </g>
    <g style="mix-blend-mode:multiply">
      <path d="M39.4456 832.966C62.4968 818.044 84.5673 801.669 105.522 783.94C114.838 776.068 124.103 767.72 129.979 757.039C141.789 735.586 137.532 710.012 128.108 686.813C125.542 680.565 122.648 674.455 119.438 668.51C105.915 643.354 89.4308 619.894 70.3356 598.628C51.4406 577.573 29.6467 558.436 15.9275 533.534C8.23931 519.569 3.30341 503.226 3.03872 487.355C2.82223 473.536 6.23123 460 14.6221 449.012C16.1146 447.044 17.7451 445.184 19.5014 443.446C30.2525 432.731 45.2734 426.632 60.5067 424.424C65.3678 423.72 70.2702 423.335 75.1824 423.272C87.9879 423.059 100.863 424.668 113.41 426.756C133.293 430.024 153.675 434.094 172.72 428.108C191.765 422.123 206.95 405.252 210.086 385.582C214.543 357.596 196.784 331.832 183.191 307.356C182.124 305.432 181.069 303.477 180.046 301.523C164.522 271.852 154.359 238.647 158.659 205.626C163.244 170.432 187.398 136.081 222.326 127.53" stroke="#F7FBFF" stroke-miterlimit="10" />
    </g>
    <g style="mix-blend-mode:multiply">
      <path d="M32.082 828.792C54.7313 814.142 76.3645 797.988 96.835 780.439C105.925 772.651 114.943 764.375 120.725 753.89C132.293 732.825 128.612 707.784 119.844 684.975C117.453 678.827 114.749 672.805 111.742 666.931C99.0371 642.117 83.4137 618.897 65.2027 597.763C47.2302 576.848 26.1711 557.811 12.9996 533.155C5.26303 518.673 0.0846063 501.898 -0.409839 485.542C-0.775454 471.316 2.44618 457.288 10.9135 445.799C12.4254 443.753 14.0806 441.817 15.8668 440.005C26.8399 428.829 42.32 422.595 57.9649 420.144C62.9711 419.383 68.0197 418.928 73.0823 418.783C86.2444 418.377 99.5071 419.596 112.383 421.174C132.874 423.641 153.455 426.197 172.527 419.403C190.635 412.93 205.49 396.738 208.655 377.554C213.142 350.253 196.527 325.061 184.025 301.175C183.04 299.296 182.077 297.398 181.136 295.48C166.905 266.567 158.028 234.477 162.968 202.823C168.232 169.071 192.175 136.415 226.274 128.613" stroke="#F7FBFF" stroke-miterlimit="10" />
    </g>
    <g style="mix-blend-mode:multiply">
      <path d="M24.7083 824.606C46.9862 810.24 68.2015 794.3 88.1912 776.908C97.0021 769.201 105.836 761.022 111.524 750.711C122.936 730.029 119.725 705.526 111.635 683.108C109.416 677.057 106.887 671.124 104.058 665.331C92.189 640.836 77.4218 617.844 60.072 596.846C42.9186 576.023 22.7279 557.155 10.08 532.809C2.26401 517.797 -3.12632 500.612 -3.86 483.75C-4.47044 469.134 -1.32847 454.566 7.21018 442.681C8.73896 440.542 10.4197 438.516 12.2394 436.618C23.434 424.99 39.3632 418.61 55.5233 415.954C60.6678 415.127 65.856 414.595 71.0623 414.361C84.5935 413.721 98.2284 414.643 111.457 415.671C132.472 417.313 153.303 418.388 172.424 410.777C189.717 403.896 204.099 388.302 207.314 369.604C211.852 342.99 196.359 318.368 184.947 295.071C184.045 293.229 183.164 291.387 182.316 289.516C169.378 261.349 161.776 230.374 167.357 200.077C173.299 167.768 197.052 136.818 230.301 129.764" stroke="#F7FBFF" stroke-miterlimit="10" />
    </g>
    <g style="mix-blend-mode:multiply">
      <path d="M17.3339 820.452C39.203 806.364 59.9683 790.644 79.4514 773.425C88.0894 765.793 96.6339 757.695 102.228 747.59C113.43 727.287 110.7 703.313 103.328 681.309C101.3 675.289 98.9161 669.409 96.3721 663.794C85.3626 639.631 71.4875 616.87 55.0442 595.997C38.7594 575.332 19.3926 556.462 7.24459 532.477C-0.629761 516.937 -6.24156 499.32 -7.18341 481.964C-7.99605 466.95 -4.98777 451.87 3.63372 439.569C5.17646 437.359 6.87814 435.263 8.72539 433.299C20.1405 421.24 36.5307 414.684 53.1634 411.831C58.453 410.939 63.7879 410.338 69.1441 410.028C83.0333 409.165 97.0563 409.675 110.613 410.235C132.256 411.067 153.219 410.698 172.402 402.228C188.89 394.951 202.842 379.935 206.003 361.719C210.591 335.791 196.231 311.74 185.909 289.033C185.099 287.248 184.301 285.442 183.533 283.658C171.9 256.229 165.573 226.379 171.794 197.439C178.413 166.594 201.957 137.327 234.376 131.011" stroke="#F7FBFF" stroke-miterlimit="10" />
    </g>
    <g style="mix-blend-mode:multiply">
      <path d="M9.96333 816.234C31.4402 802.43 51.7703 786.929 70.7578 769.88C79.1807 762.322 87.4881 754.318 92.9781 744.387C103.992 724.485 101.805 701.043 95.0057 679.424C93.1835 673.498 90.9855 667.712 88.6385 662.17C78.4589 638.339 65.4475 615.81 49.8838 595.067C34.4795 574.53 15.9328 555.731 4.29722 532.066C-3.63553 515.997 -9.49033 497.958 -10.6824 480.106C-11.6867 464.693 -8.81212 449.103 -0.128296 436.374C1.42843 434.086 3.15501 431.917 5.03688 429.887C16.6755 417.335 33.5236 410.665 50.6294 407.604C56.0626 406.657 61.5402 405.982 67.0416 405.581C81.2989 404.504 95.7072 404.665 109.604 404.707C131.812 404.746 152.928 402.923 172.216 393.576C187.898 385.934 201.39 371.475 204.632 353.736C209.26 328.504 196.035 305.013 186.802 282.907C186.074 281.157 185.368 279.409 184.684 277.64C174.375 250.959 169.303 222.201 176.153 194.649C183.461 165.248 206.805 137.665 238.374 132.108" stroke="#F7FBFF" stroke-miterlimit="10" />
    </g>
    <g style="mix-blend-mode:multiply">
      <path d="M2.60174 812.048C23.6866 798.522 43.5819 783.236 62.0739 766.356C70.2703 758.893 78.3307 750.971 83.7271 741.225C94.5424 721.703 92.8672 698.801 86.7452 677.574C85.0868 671.751 83.0847 666.058 80.9452 660.59C71.6072 637.09 59.4622 614.796 44.7734 594.192C30.2395 573.771 12.5764 555.036 1.399 531.72C-6.57009 515.102 -12.721 496.65 -14.0896 478.306C-15.295 462.473 -12.5446 446.392 -3.78842 433.247C-2.215 430.874 -0.459672 428.625 1.46175 426.522C13.3008 413.518 30.6084 406.702 48.2083 403.435C53.8159 402.396 59.4598 401.695 65.0521 401.192C79.6563 399.901 94.4608 399.704 108.688 399.236C131.481 398.484 152.769 395.261 172.122 384.971C187.015 377.069 200.041 363.061 203.312 345.818C207.97 321.261 195.887 298.352 187.744 276.826C187.099 275.133 186.475 273.419 185.883 271.708C176.837 245.762 173.069 218.152 180.571 191.936C188.559 163.936 211.649 138.098 242.463 133.292" stroke="#F7FBFF" stroke-miterlimit="10" />
    </g>
    <g style="mix-blend-mode:multiply">
      <path d="M-4.76991 807.872C15.9201 794.619 35.3808 779.55 53.3804 762.843C61.3618 755.454 69.1752 747.615 74.4774 738.064C85.0945 718.922 83.9308 696.561 78.4756 675.724C77.002 670.004 75.2068 664.395 73.2537 658.999C64.7537 635.845 53.4784 613.798 39.6734 593.339C26.0088 573.055 9.20872 554.373 -1.50906 531.374C-9.51502 514.219 -15.8673 495.357 -17.5181 476.526C-18.9267 460.315 -16.3295 443.691 -7.47938 430.119C-5.88955 427.667 -4.10943 425.342 -2.1553 423.167C9.90578 409.701 27.6724 402.751 45.7474 399.233C51.5055 398.128 57.2894 397.361 63.0221 396.781C77.9949 395.267 93.1855 394.699 107.753 393.722C131.111 392.158 152.558 387.586 172.009 376.345C186.112 368.184 198.663 354.615 201.963 337.858C206.661 313.997 195.764 291.652 188.657 270.723C188.098 269.069 187.563 267.409 187.053 265.744C179.31 240.546 176.817 214.05 184.948 189.201C193.612 162.697 216.558 138.503 246.45 134.389" stroke="#F7FBFF" stroke-miterlimit="10" />
    </g>
    <g style="mix-blend-mode:multiply">
      <path d="M-12.1297 803.686C8.17444 790.713 27.205 775.858 44.7094 759.319C52.4439 752.013 60.0398 744.3 65.2394 734.902C75.6367 716.149 74.9616 694.37 70.2176 673.873C68.9183 668.257 67.34 662.742 65.5731 657.419C57.9204 634.579 47.5122 612.75 34.5777 592.411C21.7932 572.255 5.87755 553.617 -4.40421 530.986C-12.4365 513.293 -19.0427 494.019 -20.9332 474.693C-22.5334 458.084 -20.0698 440.949 -11.1473 426.96C-9.53758 424.427 -7.73264 422.024 -5.74879 419.77C6.52326 405.852 24.7914 398.759 43.3059 395.074C49.2145 393.903 55.1494 393.059 61.0121 392.401C76.3529 390.674 91.9307 389.716 106.826 388.261C130.771 385.885 152.376 379.986 171.905 367.76C185.247 359.394 197.304 346.222 200.633 329.95C205.371 306.765 195.554 284.988 189.59 264.652C189.119 263.051 188.67 261.441 188.242 259.822C181.792 235.371 180.572 210.021 189.355 186.499C198.696 161.458 221.433 138.948 250.495 135.624" stroke="#F7FBFF" stroke-miterlimit="10" />
    </g>
    <g style="mix-blend-mode:multiply">
      <path d="M-19.511 799.499C0.40514 786.806 19.0058 772.169 36.0168 755.805C43.5463 748.584 50.8763 740.91 55.9803 731.74C66.2109 713.368 66.0183 692.075 61.9489 672.022C60.8239 666.509 59.4419 661.078 57.8819 655.838C51.0618 633.333 41.5207 611.736 29.469 591.526C17.5435 571.496 2.52261 552.902 -7.31217 530.63C-15.3794 512.356 -22.2415 492.712 -24.3606 472.881C-26.1629 455.873 -23.8319 438.206 -14.8381 423.822C-13.2133 421.209 -11.3833 418.729 -9.36554 416.404C3.13903 402.024 21.813 394.804 40.854 390.894C46.8921 389.655 52.9881 388.746 58.9913 388.011C74.6901 386.06 90.6529 384.753 105.879 382.768C130.399 379.579 152.191 372.428 171.79 359.154C184.381 350.615 195.935 337.797 199.282 322.01C204.061 299.521 195.387 278.305 190.501 258.569C190.113 257.004 189.746 255.441 189.41 253.878C184.232 230.163 184.351 205.921 193.731 183.774C203.76 160.187 226.297 139.371 254.51 136.795" stroke="#F7FBFF" stroke-miterlimit="10" />
    </g>
    <g style="mix-blend-mode:multiply">
      <path d="M-26.87 795.312C-7.36596 782.894 10.7804 768.474 27.273 752.288C34.5877 745.14 41.6914 737.561 46.6913 728.575C56.7132 710.582 57.0004 689.828 53.6291 670.167C52.6994 664.758 51.5027 659.421 50.1832 654.224C44.2047 632.054 35.5298 610.693 24.3519 590.618C13.3064 570.716 -0.808307 552.145 -10.2282 530.24C-18.3013 511.441 -25.4379 491.374 -27.7965 471.047C-29.7909 453.651 -27.594 435.484 -18.5263 420.651C-16.8828 417.958 -15.0245 415.402 -12.9693 413.007C-0.253208 398.164 18.8813 390.778 38.3943 386.681C44.5823 385.387 50.8183 384.411 56.9625 383.588C73.0293 381.424 89.3783 379.747 104.944 377.264C130.041 373.242 152.018 364.86 171.678 350.517C183.527 341.847 194.558 329.361 197.934 314.049C202.755 292.204 195.212 271.611 191.426 252.455C191.119 250.947 190.845 249.43 190.591 247.914C186.726 224.947 188.067 201.817 198.131 180.987C208.828 158.842 231.177 139.711 258.551 137.882" stroke="#F7FBFF" stroke-miterlimit="10" />
    </g>
    <g style="mix-blend-mode:multiply">
      <path d="M-34.2391 791.126C-15.1006 778.991 2.63509 764.785 18.6461 748.767C25.7351 741.703 32.5814 734.206 37.4977 725.415C47.321 707.813 48.1522 687.581 45.4257 668.319C44.6277 663.022 43.672 657.718 42.5037 652.665C37.3693 630.824 29.5647 609.692 19.2653 589.744C9.08858 569.979 -4.12053 551.443 -13.1151 529.906C-21.2045 510.581 -28.6256 490.079 -31.2033 469.268C-33.3887 451.464 -31.3464 432.784 -22.1958 417.535C-20.5317 414.758 -18.6412 412.122 -16.5433 409.654C-3.60573 394.36 15.9776 386.828 35.9846 382.524C42.3122 381.174 48.7517 380.124 54.9823 379.253C71.405 376.907 88.1311 374.829 104.036 371.847C129.709 367.012 151.919 357.486 171.593 341.977C182.74 333.199 193.221 320.96 196.624 306.185C201.483 285.068 195.074 264.995 192.367 246.428C192.153 244.966 191.96 243.506 191.789 242.036C189.226 219.828 191.82 197.8 202.531 178.422C213.916 157.731 236.003 140.291 262.59 139.213" stroke="#F7FBFF" stroke-miterlimit="10" />
    </g>
    <g style="mix-blend-mode:multiply">
      <path d="M-41.6092 786.949C-22.8621 775.085 -5.55863 761.092 9.95528 745.252C16.831 738.23 23.4285 730.858 28.2513 722.252C37.887 705.03 39.2191 685.338 37.159 666.467C36.5889 661.255 35.7943 656.105 34.8149 651.073C30.5003 629.566 23.5446 608.669 14.1049 588.855C4.79747 569.217 -7.47404 550.706 -16.0749 529.536C-24.1561 509.611 -31.8677 488.801 -34.6829 467.453C-37.0599 449.25 -35.1512 430.06 -25.9277 414.384C-24.2624 411.525 -22.3681 408.805 -20.2633 406.251C-7.11475 390.505 12.9385 382.828 33.4185 378.317C39.8966 376.901 46.433 375.803 52.8492 374.794C69.6309 372.203 86.7436 369.744 102.998 366.286C129.228 360.596 151.711 349.979 171.377 333.303C181.82 324.448 191.738 312.508 195.214 298.179C200.114 277.748 194.839 258.203 193.21 240.247C193.088 238.832 192.978 237.407 192.897 236.026C191.627 214.555 195.516 193.663 206.858 175.6C218.921 156.362 240.861 140.619 266.547 140.286" stroke="#F7FBFF" stroke-miterlimit="10" />
    </g>
    <g style="mix-blend-mode:multiply">
      <path d="M-48.967 782.763C-30.6075 771.174 -13.735 757.393 1.27705 741.727C7.93551 734.832 14.2877 727.511 19.0065 719.089C28.4441 702.247 30.235 683.093 28.9044 664.615C28.519 659.507 27.9102 654.44 27.1375 649.492C23.6712 628.32 17.5891 607.656 9.02998 587.971C0.591671 568.46 -10.7529 549.973 -18.9495 529.17C-27.0247 508.689 -35.0312 487.443 -38.0774 465.643C-40.657 447.052 -38.8813 427.339 -29.5854 411.247C-27.8948 408.312 -25.9616 405.523 -23.806 402.909C-10.4375 386.744 10.0357 378.867 31.0302 374.16C37.6588 372.678 44.3362 371.493 50.8923 370.418C68.042 367.614 85.5418 364.764 102.124 360.828C128.941 354.316 151.717 342.62 171.337 324.723C181.118 315.804 190.443 304.119 193.907 290.273C198.835 270.538 194.723 251.597 194.162 234.21C194.123 232.841 194.105 231.473 194.108 230.096C194.13 209.372 199.303 189.596 211.274 172.899C224.026 155.105 245.757 141.055 270.615 141.459" stroke="#F7FBFF" stroke-miterlimit="10" />
    </g>
    <g style="mix-blend-mode:multiply">
      <path d="M-56.3353 778.576C-38.3628 767.26 -21.9209 753.692 -7.41155 738.202C-0.9783 731.379 5.13976 724.1 9.76254 715.915C18.9906 699.473 21.3674 680.842 20.6395 662.763C20.4393 657.748 20.0678 652.788 19.4498 647.91C16.8369 627.075 11.6319 606.643 3.955 587.086C-3.60373 567.702 -14.0105 549.23 -21.825 528.815C-29.8719 507.756 -38.1869 486.138 -41.4722 463.832C-44.2432 444.843 -42.6012 424.619 -33.2328 408.11C-31.5221 405.095 -29.5641 402.227 -27.3789 399.535C-13.7863 382.865 7.17518 374.898 28.6216 369.982C35.3901 368.433 42.218 367.182 48.9152 366.019C66.4223 363.002 84.3066 359.814 101.231 355.338C128.612 348.012 151.744 335.273 171.255 316.119C180.376 307.105 189.108 295.696 192.59 282.335C197.559 263.275 194.558 244.915 195.106 228.129C195.17 226.807 195.234 225.475 195.298 224.153C196.613 204.166 203.059 185.515 215.681 170.176C229.12 153.835 250.642 141.479 274.664 142.589" stroke="#F7FBFF" stroke-miterlimit="10" />
    </g>
    <g style="mix-blend-mode:multiply">
      <path d="M-63.7005 774.389C-46.1108 763.347 -30.0953 749.989 -16.0866 734.677C-9.87852 727.927 -3.99924 720.783 0.522048 712.731C9.57312 696.669 12.4381 678.62 12.3784 660.889C12.3629 655.978 12.1561 651.1 11.7665 646.296C10.0055 625.8 5.67024 605.603 -1.13742 586.179C-7.82714 566.923 -17.233 548.469 -24.6964 528.428C-32.7156 506.803 -41.3492 484.802 -44.8639 462.012C-47.8364 442.613 -46.3279 421.878 -36.8341 404.945C-35.1151 401.846 -33.1318 398.901 -30.9062 396.142C-17.1023 379.01 4.31806 370.908 26.2373 365.785C33.1562 364.17 40.082 362.85 46.9616 361.612C64.8371 358.371 83.1284 354.814 100.36 349.839C128.326 341.754 151.887 327.963 171.218 307.487C179.705 298.495 187.795 287.275 191.307 274.379C196.327 256.015 194.457 238.216 196.093 222.041C196.229 220.765 196.375 219.489 196.552 218.215C199.169 198.976 206.89 181.44 220.088 167.465C234.194 152.577 255.529 141.873 278.72 143.805" stroke="#F7FBFF" stroke-miterlimit="10" />
    </g>
    <g style="mix-blend-mode:multiply">
      <path d="M-71.0611 770.2C-53.8522 759.446 -38.2656 746.305 -24.7689 731.171C-18.6436 724.583 -13.2607 717.346 -8.71634 709.587C0.136641 693.905 3.52581 676.345 4.12977 659.057C4.29896 654.25 4.27741 649.465 4.08452 644.734C3.1521 624.587 -0.316709 604.634 -6.24018 585.344C-12.0614 566.226 -20.5636 547.837 -27.6208 528.122C-35.5908 505.922 -44.5537 483.546 -48.3079 460.261C-51.4719 440.464 -50.1073 419.218 -40.5728 401.866C-38.8402 398.684 -36.8318 395.659 -34.5706 392.826C-20.5454 375.243 1.32343 366.995 23.7258 361.665C30.7951 359.984 37.9133 358.6 44.8918 357.272C63.1244 353.818 81.7805 349.891 99.3624 344.418C127.906 335.458 151.975 320.725 171.041 298.944C178.932 289.87 186.366 278.902 189.905 266.511C194.976 248.824 194.228 231.606 196.953 216C197.172 214.76 197.41 213.541 197.669 212.314C201.578 193.811 210.572 177.4 224.473 164.785C239.257 151.351 260.339 142.37 282.735 145.009" stroke="#F7FBFF" stroke-miterlimit="10" />
    </g>
    <g style="mix-blend-mode:multiply">
      <path d="M-78.4117 766.012C-61.5923 755.528 -46.4354 742.601 -33.4404 727.655C-27.5634 721.124 -22.3707 714.01 -17.9432 706.424C-9.29672 691.079 -5.39846 674.101 -4.12841 657.204C-3.77456 652.501 -3.59844 647.768 -3.58561 643.142C-3.65734 623.325 -6.24481 603.593 -11.2862 584.418C-16.2281 565.428 -23.7585 547.003 -30.4582 527.747C-38.3679 504.961 -47.6917 482.211 -51.6643 458.432C-55.0328 438.288 -53.7993 416.479 -44.1921 398.7C-42.4398 395.444 -40.4069 392.347 -38.1164 389.443C-23.8694 371.398 -1.54106 362.995 21.3439 357.468C28.5531 355.72 35.8217 354.27 42.93 352.865C61.5308 349.188 80.5622 344.89 98.4945 338.909C127.603 329.136 152.25 313.54 170.994 290.323C178.293 281.273 185.054 270.472 188.622 258.598C193.722 241.607 194.116 224.95 197.93 209.935C198.23 208.751 198.551 207.568 198.902 206.397C203.941 188.822 214.45 173.305 228.911 162.088C244.382 150.107 265.306 142.854 286.824 146.207" stroke="#F7FBFF" stroke-miterlimit="10" />
    </g>
    <g style="mix-blend-mode:multiply">
      <path d="M-85.7731 761.834C-69.3369 751.617 -54.6081 738.895 -42.1212 724.128C-36.4965 717.661 -31.5039 710.672 -27.2114 703.257C-18.7654 688.344 -14.3115 671.857 -12.4069 655.349C-11.8579 650.75 -11.5086 646.141 -11.2975 641.557C-10.543 622.077 -12.2777 602.576 -16.46 583.527C-20.5437 564.663 -27.0919 546.203 -33.4421 527.354C-41.2711 503.994 -50.9559 480.869 -55.1679 456.594C-58.7258 436.011 -57.6279 413.733 -48.0009 395.535C-46.235 392.195 -44.1769 389.017 -41.8508 386.039C-27.3925 367.532 -4.60548 358.994 18.7511 353.281C26.1102 351.478 33.5301 349.941 40.7683 348.458C59.7264 344.567 79.1225 339.899 97.4172 333.379C127.111 322.794 152.474 306.319 170.739 281.671C177.888 272.282 183.431 261.777 187.144 250.58C192.285 234.264 193.811 218.179 198.713 203.753C199.105 202.616 199.508 201.49 199.931 200.365C206.356 183.498 217.99 169.112 233.154 159.285C249.293 148.747 270.03 143.146 290.645 147.286" stroke="#F7FBFF" stroke-miterlimit="10" />
    </g>
    <g style="mix-blend-mode:multiply">
      <path d="M-93.1337 757.646C-77.0752 747.707 -62.7698 735.195 -50.7917 720.613C-45.412 714.203 -40.602 707.338 -36.4161 700.095C-28.1575 685.562 -23.2025 669.605 -20.6325 653.498C-19.8948 648.992 -19.3257 644.485 -18.9251 639.977C-17.3268 620.837 -18.1948 601.569 -21.5076 582.643C-24.7121 563.907 -30.2513 545.508 -36.2806 527C-44.0279 503.045 -54.0849 479.566 -58.5254 454.786C-62.2852 433.804 -61.3208 411.015 -51.5689 392.403C-49.7832 388.983 -47.7004 385.726 -45.3444 382.669C-30.6648 363.712 -7.41877 355.028 16.4325 349.087C23.8999 347.216 31.4908 345.625 38.8809 344.044C58.1961 339.94 78.0095 334.904 96.5685 327.913C126.827 316.517 152.904 299.204 170.712 273.083C177.147 263.691 182.252 253.456 185.882 242.668C191.063 227.048 193.711 211.513 199.711 197.699C200.185 196.608 200.681 195.518 201.196 194.45C209.011 178.293 221.77 165.035 237.634 156.59C254.45 147.505 274.978 143.597 294.818 148.477" stroke="#F7FBFF" stroke-miterlimit="10" />
    </g>
    <g style="mix-blend-mode:multiply">
      <path d="M-100.494 753.458C-84.8149 743.791 -70.9356 731.485 -59.4717 717.086C-54.3328 710.747 -49.7114 704.007 -45.6518 696.93C-37.7329 682.803 -32.0838 667.522 -28.9101 651.643C-27.9947 647.237 -27.2435 642.816 -26.6568 638.381C-24.1965 619.59 -24.1729 600.559 -26.5865 581.757C-28.9224 563.148 -33.5242 544.763 -39.1711 526.632C-46.8046 502.074 -57.2556 478.249 -61.956 452.963C-65.9072 431.582 -65.0653 408.273 -55.2511 389.233C-53.4499 385.732 -51.3385 382.398 -48.9421 379.273C-34.0517 359.863 -10.3465 351.035 13.9774 344.886C21.6267 342.951 29.337 341.281 36.8564 339.634C56.5379 335.348 76.7392 329.9 95.648 322.412C126.483 310.193 153.441 292.062 170.624 264.46C176.35 255.066 181.024 245.073 184.562 234.658C189.773 219.723 193.583 204.782 200.651 191.536C201.207 190.512 201.804 189.49 202.391 188.468C211.589 173.032 225.456 160.907 242.002 153.835C259.506 146.194 279.835 143.98 298.827 149.606" stroke="#F7FBFF" stroke-miterlimit="10" />
    </g>
    <g style="mix-blend-mode:multiply">
      <path d="M-107.845 749.27C-72.1502 727.608 -47.4454 690.222 -37.1353 649.791C-26.8253 609.36 -30.1373 566.249 -42.0937 526.264C-49.6045 501.134 -60.4689 476.931 -65.3781 451.172C-70.2874 425.413 -68.4302 396.792 -52.5534 375.929C-32.6922 349.805 2.80307 342.516 34.8405 335.256C87.5455 323.349 143.985 302.848 170.523 255.879C183.74 232.487 188.124 204.559 203.571 182.57C224.992 152.087 267.655 138.422 302.894 150.823" stroke="#F7FBFF" stroke-miterlimit="10" />
    </g>
  </g>
  <g style="mix-blend-mode:multiply">
    <g style="mix-blend-mode:multiply">
      <path d="M34.2608 975.427C69.7824 981.608 101.689 947.896 108.931 912.67C116.173 877.445 106.458 841.265 100.82 805.728C95.1817 770.192 94.6547 730.482 116.799 702.132C145.109 665.877 201.265 659.938 228.021 622.482C248.877 593.311 244.968 553.823 232.028 522.246C224.704 504.392 211.694 488.874 202.945 471.727C163.232 393.939 74.8669 384.452 64.7573 319.554C53.8124 249.265 89.6252 213.191 113.844 201.227C144.861 185.941 224.581 161.73 275.727 233.145C296.503 262.156 318.758 290.882 346.9 312.867C389.033 345.771 455.72 348.858 493.659 311.312C519.669 285.582 530.696 244.635 563.247 227.901C585.135 216.641 612.496 219.686 634.183 231.355C655.871 243.023 672.552 262.37 685.868 283.096" stroke="#F7FBFF" stroke-miterlimit="10" />
    </g>
    <g style="mix-blend-mode:multiply">
      <path d="M32.5599 973.746C69.1994 978.606 102.631 945.168 110.713 908.922C118.604 873.57 108.929 836.772 102.576 801.2C96.2462 766.029 94.4749 727.214 114.722 698.896C140.639 662.669 194.056 654.766 220.483 617.387C241.432 587.601 239.67 548.829 228.583 516.607C222.218 498.096 210.056 481.379 201.198 463.428C163.657 387.345 78.2176 377.014 68.2198 313.509C57.4949 245.206 91.4904 209.253 115.346 196.756C145.61 180.917 222.387 157.896 273.044 225.481C293.95 253.352 316.715 281.095 344.675 302.734C385.822 334.675 450.122 338.127 487.639 302.779C513.599 278.328 525.595 238.911 557.733 222.23C579.715 210.775 606.732 212.878 628.651 223.233C650.767 233.672 668.507 251.6 682.86 271.599" stroke="#F7FBFF" stroke-miterlimit="10" />
    </g>
    <g style="mix-blend-mode:multiply">
      <path d="M30.8543 972.063C68.5584 975.609 103.568 942.439 112.479 905.172C120.98 869.629 111.499 832.294 104.317 796.66C97.3042 761.885 94.2752 724.028 112.638 695.669C136.152 659.471 186.912 649.66 212.929 612.25C234.034 581.882 234.399 543.762 225.133 510.936C219.738 491.747 208.392 473.841 199.383 455.084C163.915 380.795 81.5019 369.531 71.6574 307.432C61.1636 241.106 93.3099 205.271 116.812 192.231C146.278 175.901 220.21 154 270.451 217.791C291.495 244.523 314.731 271.259 342.549 292.555C382.699 323.553 444.623 327.361 481.698 294.177C507.629 270.986 520.583 233.12 552.317 216.502C574.384 204.831 601.067 206.003 623.198 215.034C645.784 224.245 664.559 240.815 680.022 260.081" stroke="#F7FBFF" stroke-miterlimit="10" />
    </g>
    <g style="mix-blend-mode:multiply">
      <path d="M29.1486 970.381C67.9488 972.615 104.484 939.709 114.245 901.422C123.343 865.73 114.027 827.825 106.068 792.131C98.3838 757.733 94.0779 720.79 110.545 692.432C131.666 656.273 179.728 644.51 205.376 607.113C226.604 576.142 229.141 538.665 221.672 505.255C217.227 485.378 206.696 466.313 197.684 446.756C164.183 374.258 84.8919 362.044 75.1161 301.357C64.8324 237.007 95.1605 201.303 118.32 187.72C146.999 170.899 218.118 150.109 267.784 210.088C288.998 235.704 312.719 261.349 340.36 282.384C379.604 312.308 439.091 316.604 475.702 285.636C501.614 263.716 515.543 227.465 546.826 210.825C569.015 199.012 595.367 199.179 617.689 206.895C640.745 214.868 660.544 230.091 677.076 248.621" stroke="#F7FBFF" stroke-miterlimit="10" />
    </g>
    <g style="mix-blend-mode:multiply">
      <path d="M27.4536 968.7C67.3395 969.62 105.4 936.989 116.012 897.672C125.687 861.819 116.557 823.324 107.809 787.601C99.4757 753.55 93.8821 717.531 108.461 689.206C127.19 653.076 172.523 639.359 197.812 601.976C219.163 570.443 223.926 533.548 218.222 499.585C214.76 478.988 205.042 458.797 195.89 438.413C164.28 367.785 88.1976 354.563 78.5441 295.269C68.491 232.907 96.9678 197.363 119.776 183.206C147.689 165.894 216.036 146.208 265.106 202.394C286.502 226.884 310.726 251.492 338.139 272.232C376.419 301.172 433.559 305.868 469.675 277.083C495.599 256.425 510.465 221.744 541.314 205.135C563.618 193.139 589.659 192.334 612.159 198.755C635.698 205.469 656.468 219.342 674.12 237.15" stroke="#F7FBFF" stroke-miterlimit="10" />
    </g>
    <g style="mix-blend-mode:multiply">
      <path d="M25.7478 967.018C66.7303 966.616 106.348 934.261 117.778 893.922C128.019 857.909 119.106 818.835 109.549 783.072C100.575 749.431 93.6212 714.301 106.368 685.97C122.63 649.843 165.328 634.219 190.259 596.839C211.725 564.66 218.743 528.403 214.762 493.904C212.304 472.589 203.365 451.291 194.16 430.074C164.355 361.321 91.5665 347.075 82.0239 289.195C72.1923 228.788 98.8504 193.386 121.308 178.654C148.452 160.884 214.105 142.242 262.493 194.662C284.1 218.058 308.765 241.606 336.005 262.011C373.311 289.968 428.177 295.077 463.735 268.461C489.672 249.076 505.453 215.943 535.879 199.386C558.287 187.196 584.049 185.399 606.706 190.535C630.759 195.992 652.562 208.57 671.251 225.609" stroke="#F7FBFF" stroke-miterlimit="10" />
    </g>
    <g style="mix-blend-mode:multiply">
      <path d="M23.9894 965.333C66.0681 963.618 107.138 931.525 119.492 890.159C130.289 853.983 121.604 814.343 111.248 778.53C101.623 745.266 93.3609 711.06 104.285 682.733C118.134 646.624 158.123 629.047 182.705 591.692C204.307 558.899 213.594 523.237 211.312 488.223C209.87 466.17 201.669 443.762 192.398 421.732C164.33 354.968 94.8936 339.584 85.4728 283.108C75.8614 224.688 100.69 189.437 122.783 174.161C149.16 155.933 212.192 138.349 259.836 186.99C282.768 210.496 307.499 232.185 333.804 251.86C370.144 278.886 422.675 284.363 457.739 259.909C483.72 241.788 500.395 210.223 530.398 193.698C552.911 181.313 578.395 178.514 601.208 182.386C625.776 186.565 648.56 197.793 668.339 214.087" stroke="#F7FBFF" stroke-miterlimit="10" />
    </g>
    <g style="mix-blend-mode:multiply">
      <path d="M22.3367 963.654C65.5115 960.626 108.076 928.785 121.311 886.422C132.653 850.073 124.219 809.825 113.042 774.014C102.798 741.129 93.2047 707.856 102.202 679.507C113.635 643.457 150.908 623.895 175.173 586.556C196.804 553.155 208.496 518.085 207.883 482.554C207.477 459.764 199.993 436.277 190.668 413.372C164.296 348.594 98.2647 332.064 88.9547 277.002C79.5633 220.569 102.572 185.48 124.304 169.629C149.924 150.922 210.399 134.368 257.223 179.268C280.662 201.648 305.526 222.492 331.659 241.67C367.016 267.659 417.29 273.624 451.777 251.307C477.813 234.47 495.351 204.441 524.951 187.98C546.517 176.142 571.26 171.326 595.722 174.206C620.87 177.078 644.622 187.02 665.446 202.63" stroke="#F7FBFF" stroke-miterlimit="10" />
    </g>
    <g style="mix-blend-mode:multiply">
      <path d="M20.6414 961.972C64.9024 957.621 108.939 926.052 123.066 882.671C134.954 846.16 126.798 805.389 114.835 769.486C103.972 736.981 93.0601 704.62 100.162 676.251C109.192 640.229 143.746 618.704 167.652 581.389C189.44 547.375 203.443 512.882 204.456 476.853C205.118 453.316 198.349 428.761 188.959 405.033C164.175 342.267 101.654 324.597 92.4543 270.959C83.294 216.503 104.472 181.587 125.853 165.151C150.703 146.037 208.66 130.347 254.617 171.609C276.921 191.687 302.699 212.051 329.458 231.529C363.83 256.545 411.882 262.935 445.759 242.764C471.88 227.235 490.273 198.709 519.45 182.28C540.975 170.203 565.537 164.567 590.204 166.045C616.125 167.747 641.112 176.418 662.512 191.138" stroke="#F7FBFF" stroke-miterlimit="10" />
    </g>
    <g style="mix-blend-mode:multiply">
      <path d="M18.9774 960.292C64.3348 954.628 109.846 923.311 124.875 878.913C137.298 842.239 129.411 800.902 116.575 764.967C105.092 732.861 92.8409 701.402 98.066 673.055C104.682 637.072 136.508 613.572 160.078 576.25C181.981 541.59 198.378 507.709 200.975 471.169C202.705 446.897 196.557 421.269 187.155 396.699C163.926 335.965 104.939 317.103 95.852 264.847C86.9123 212.368 106.28 177.625 127.29 160.592C151.412 141.064 206.996 126.318 251.921 163.871C274.626 182.864 300.748 202.216 327.293 221.326C360.689 245.378 406.558 252.25 439.799 234.161C466.016 219.898 485.23 192.926 513.993 176.571C535.506 164.237 559.905 157.785 584.73 157.864C611.209 158.143 637.112 165.674 659.612 179.636" stroke="#F7FBFF" stroke-miterlimit="10" />
    </g>
    <g style="mix-blend-mode:multiply">
      <path d="M17.2301 958.608C63.6735 951.631 110.658 920.565 126.622 875.161C139.57 838.313 131.984 796.403 118.297 760.425C106.217 728.668 92.6227 698.183 95.9523 669.816C100.175 633.872 129.263 608.386 152.503 571.143C174.498 535.887 193.322 502.589 197.514 465.528C200.344 440.522 194.806 413.82 185.434 388.389C163.645 329.714 108.255 309.662 99.2918 258.758C90.5721 208.266 108.119 173.706 128.757 156.076C152.11 136.132 205.4 122.208 249.255 156.176C272.31 174.03 298.714 192.365 325.095 211.152C357.484 234.261 401.222 241.637 433.762 225.615C460.107 212.662 480.133 187.202 508.473 170.889C531.383 157.713 555.859 150.723 579.191 149.731C606.22 148.581 633.045 154.966 656.659 168.172" stroke="#F7FBFF" stroke-miterlimit="10" />
    </g>
    <g style="mix-blend-mode:multiply">
      <path d="M15.5348 956.926C63.0647 948.625 111.502 917.82 128.368 871.409C141.83 834.387 134.556 791.913 120.017 755.893C107.351 724.497 92.4056 694.932 93.8486 666.577C95.6663 630.682 122.016 603.222 144.928 566.004C167.017 530.122 188.278 497.427 194.044 459.845C197.984 434.105 193.034 406.349 183.61 380.043C163.353 323.451 111.594 302.159 102.74 252.712C94.2406 204.196 109.987 169.83 130.244 151.593C152.859 131.233 203.91 118.071 246.599 148.502C270.024 165.229 296.7 182.515 322.906 201.009C354.322 223.125 395.928 231.026 427.801 217.042C454.292 205.42 475.09 181.428 503.006 165.178C526.01 151.807 550.244 143.732 573.686 141.558C601.255 138.968 629.007 144.21 653.738 156.678" stroke="#F7FBFF" stroke-miterlimit="10" />
    </g>
    <g style="mix-blend-mode:multiply">
      <path d="M13.8293 955.244C62.4556 945.631 112.336 915.065 130.135 867.659C144.099 830.503 137.171 787.416 121.769 751.364C108.517 720.337 92.2087 691.704 91.7552 663.35C91.1903 627.484 114.781 598.047 137.375 560.866C159.558 524.358 183.297 492.279 190.585 454.162C195.656 427.7 191.253 398.867 181.858 371.732C163.006 317.238 114.836 294.725 106.188 246.665C97.8244 200.143 111.854 165.997 131.731 147.11C153.617 126.346 202.511 113.813 243.952 140.839C267.836 156.39 294.681 172.781 320.727 190.888C351.146 212.05 390.671 220.511 421.807 208.498C448.474 198.252 470.025 175.695 497.548 159.509C520.636 145.932 544.618 136.752 568.211 133.429C596.32 129.389 625.011 133.481 650.88 145.219" stroke="#F7FBFF" stroke-miterlimit="10" />
    </g>
    <g style="mix-blend-mode:multiply">
      <path d="M12.124 953.541C61.8469 942.615 113.161 912.277 131.903 863.887C146.352 826.503 139.787 782.887 123.513 746.78C109.684 716.125 92.0123 688.455 89.6742 660.07C86.7046 624.254 107.547 592.82 129.813 555.685C152.079 518.55 178.327 487.1 187.137 448.448C193.339 421.264 189.461 391.373 180.1 363.325C162.61 310.948 118.178 287.159 109.641 240.513C101.498 195.957 113.738 161.995 133.234 142.511C154.391 121.364 201.212 109.433 241.311 133.06C265.664 147.415 292.662 162.836 318.545 180.62C347.977 200.829 385.429 209.891 415.828 199.85C442.671 190.979 464.965 169.846 492.075 153.724C515.257 139.93 538.987 129.644 562.721 125.182C591.338 119.685 620.951 122.609 647.956 133.599" stroke="#F7FBFF" stroke-miterlimit="10" />
    </g>
    <g style="mix-blend-mode:multiply">
      <path d="M10.4176 951.88C61.2357 939.673 113.983 909.552 133.668 860.2C148.642 822.641 142.411 778.442 125.251 742.334C110.857 712.039 91.8228 685.3 87.577 656.927C82.2242 621.15 100.307 587.729 122.213 550.629C144.575 512.836 173.32 482.045 183.642 442.858C190.985 414.962 187.538 384 178.304 355.064C162.167 304.783 121.473 279.717 113.056 234.506C105.134 191.937 115.583 158.192 134.677 138.078C155.116 116.537 199.903 105.073 238.611 125.446C263.488 138.534 290.602 153.088 316.323 170.528C344.747 189.804 380.167 199.491 409.789 191.357C436.838 183.925 459.845 164.162 486.552 148.104C509.84 134.106 533.298 122.691 557.181 117.09C586.309 110.16 616.85 111.95 644.988 122.238" stroke="#F7FBFF" stroke-miterlimit="10" />
    </g>
    <g style="mix-blend-mode:multiply">
      <path d="M8.72134 950.219C60.6276 936.657 114.795 906.816 135.479 856.43C150.999 818.688 145.091 773.905 127.047 737.785C112.036 707.817 91.6385 682.031 85.444 653.644C77.6868 617.906 93.009 582.53 114.651 545.448C137.084 507.049 168.35 476.886 180.174 437.132C188.678 408.537 185.726 376.516 176.535 346.678C161.707 298.521 124.802 272.224 116.498 228.385C108.807 187.793 117.475 154.264 136.158 133.52C155.899 111.598 198.699 100.477 235.969 117.699C261.384 129.467 288.569 143.226 314.149 160.312C341.566 178.634 374.93 189.019 403.809 182.74C431.071 176.791 454.784 158.345 481.077 142.35C504.45 128.135 527.677 115.605 551.689 108.886C581.317 100.497 612.792 101.13 642.081 110.702" stroke="#F7FBFF" stroke-miterlimit="10" />
    </g>
    <g style="mix-blend-mode:multiply">
      <path d="M7.01725 948.516C60.0203 933.641 115.59 904.027 137.206 852.656C153.158 814.714 147.698 769.365 128.749 733.231C113.224 703.637 91.4519 678.823 83.4037 650.419C73.2847 614.711 85.8171 577.326 107.151 540.312C129.657 501.285 163.462 471.784 176.779 431.463C186.444 402.157 183.89 369.083 174.827 338.347C161.245 292.312 128.205 264.734 120.002 222.308C112.542 183.694 119.439 150.393 137.7 129.007C156.743 106.714 197.594 95.8119 233.367 110.005C259.369 120.321 286.586 133.408 312.005 150.139C338.424 167.529 369.793 178.646 397.86 174.156C425.33 169.773 449.755 152.539 475.643 136.65C499.11 122.219 522.025 108.549 546.238 100.714C576.358 90.876 608.766 90.3518 639.215 99.21" stroke="#F7FBFF" stroke-miterlimit="10" />
    </g>
    <g style="mix-blend-mode:multiply">
      <path d="M5.31154 946.834C59.4324 930.647 116.393 901.259 138.974 848.905C155.407 810.819 150.41 764.84 130.491 728.7C114.423 699.448 91.321 675.546 81.3213 647.182C68.8835 611.485 78.5602 572.139 99.597 535.174C122.166 495.509 158.531 466.68 173.372 425.782C184.218 395.83 182.012 361.658 173.13 330.006C160.803 286.115 131.682 257.237 123.506 216.221C116.35 179.577 121.414 146.522 139.243 124.484C157.597 101.82 196.506 91.011 230.764 102.312C258.632 111.454 285.219 124.108 309.882 139.967C335.282 156.424 364.622 168.334 391.888 165.581C419.566 162.806 444.691 146.785 470.187 130.939C493.737 116.333 516.361 101.492 540.744 92.5407C571.351 81.2497 604.698 79.5662 636.317 87.7159" stroke="#F7FBFF" stroke-miterlimit="10" />
    </g>
    <g style="mix-blend-mode:multiply">
      <path d="M3.61635 945.153C58.7925 927.64 117.187 898.481 140.742 845.155C157.661 806.829 153.017 760.3 132.244 724.17C115.622 695.258 91.125 672.307 79.2174 643.953C64.3861 608.286 71.3455 566.955 92.0241 529.993C114.666 489.69 153.591 461.545 169.862 420.065C181.881 389.392 179.966 354.194 171.308 321.617C160.196 279.857 134.961 249.699 126.906 210.088C119.972 175.42 123.274 142.624 140.682 119.914C158.349 96.8793 195.28 86.0247 228.06 94.5511C256.249 102.089 283.096 113.96 307.635 129.737C332.027 145.261 359.314 158.005 385.877 156.952C413.749 155.847 439.6 140.945 464.692 125.174C488.328 110.319 510.669 94.3704 535.232 84.3242C566.312 71.5697 600.597 68.7209 633.39 76.168" stroke="#F7FBFF" stroke-miterlimit="10" />
    </g>
    <g style="mix-blend-mode:multiply">
      <path d="M1.92109 943.471C58.1941 924.646 118.033 895.704 142.51 841.404C159.924 802.881 155.688 755.762 133.997 719.64C116.832 691.058 90.939 669.079 77.1561 640.717C59.9097 605.087 63.9853 561.722 84.489 524.898C107.112 483.899 148.688 456.516 166.422 414.424C179.632 383.085 177.958 346.837 169.566 313.327C159.669 273.687 138.31 242.259 130.365 204.061C123.652 171.37 125.226 138.783 142.18 115.451C159.134 92.1184 194.075 81.0077 225.413 86.908C253.233 92.1299 280.437 103.987 305.467 119.616C328.839 134.227 354.041 147.835 379.945 148.431C407.965 149.069 434.548 135.169 459.265 119.527C482.967 104.402 505.076 87.3589 529.788 76.2054C561.335 62.007 596.551 57.9944 630.522 64.7277" stroke="#F7FBFF" stroke-miterlimit="10" />
    </g>
    <g style="mix-blend-mode:multiply">
      <path d="M0.204728 941.788C57.5747 921.65 118.67 892.886 144.268 837.652C162.093 798.908 158.359 751.214 135.73 715.108C118.03 686.899 90.6899 665.847 75.0531 637.467C55.434 601.868 56.7491 556.536 76.9252 519.738C99.6407 478.144 143.713 451.451 162.962 408.751C177.354 376.734 175.847 339.432 167.806 304.982C159.08 267.471 141.692 234.768 133.817 197.971C127.334 167.268 127.179 134.921 143.669 110.935C160.013 87.1622 192.784 75.8284 222.77 79.2017C251.13 82.3897 278.421 94.1982 303.29 109.462C325.642 123.182 348.714 137.694 373.908 139.884C402.052 142.326 429.451 129.434 453.745 113.844C477.542 98.5132 499.273 80.3471 524.251 68.0606C556.26 52.4083 592.413 47.23 627.57 53.2619" stroke="#F7FBFF" stroke-miterlimit="10" />
    </g>
    <g style="mix-blend-mode:multiply">
      <path d="M-1.50044 940.107C56.9669 918.645 119.526 890.132 146.039 833.849C164.399 794.952 161.073 746.658 137.526 710.57C119.286 682.629 90.5792 662.602 73.0128 634.243C50.989 598.682 49.6174 551.378 69.4129 514.612C92.2232 472.371 138.875 446.384 159.546 403.06C175.139 370.387 173.725 332.038 166.089 296.63C158.452 261.223 145.034 227.254 137.312 191.884C131.047 163.189 129.186 131.052 145.203 106.401C160.89 82.2698 191.331 70.5369 220.168 71.4984C249.006 72.46 276.448 84.4126 301.149 99.2472C322.48 112.055 343.379 127.5 367.971 131.27C396.214 135.598 424.432 123.629 448.313 108.102C472.193 92.5761 493.614 73.2067 518.801 59.858C551.266 42.753 588.356 36.4033 624.707 41.7276" stroke="#F7FBFF" stroke-miterlimit="10" />
    </g>
  </g>
  <g style="mix-blend-mode:multiply">
    <g style="mix-blend-mode:multiply">
      <path d="M-194.133 513.534C-176.701 545.004 -130.36 548.734 -98.3039 532.36C-66.2474 515.986 -44.1257 485.797 -19.9239 459.189C4.27801 432.582 34.9298 407.354 70.9479 406.843C117.006 406.187 156.852 446.13 202.877 443.539C238.715 441.517 267.087 413.781 283.653 383.979C293.003 367.135 296.949 347.323 304.848 329.787C340.655 250.29 292.639 175.666 336.959 127.229C384.958 74.7712 435.571 80.067 460.1 91.4084C491.508 105.937 560.37 152.81 536.707 237.216C527.094 271.511 518.616 306.724 519.117 342.381C519.86 395.713 559.273 449.443 612.365 455.512C648.749 459.643 687.627 442.618 721.104 457.459C743.615 467.43 758.404 490.605 762.892 514.763C767.38 538.922 762.772 563.944 754.922 587.22" stroke="#F7FBFF" stroke-miterlimit="10" />
    </g>
    <g style="mix-blend-mode:multiply">
      <path d="M-193.879 511.147C-174.712 542.651 -127.637 547.751 -94.2754 531.378C-61.7116 515.397 -39.0503 484.931 -15.3028 457.701C8.16589 430.795 37.3204 405.178 72.1573 403.179C116.682 400.682 156.354 437.265 202.106 434.43C238.485 432.097 267.671 406.493 285.829 377.726C296.28 361.199 301.714 341.293 310.167 323.185C346.01 246.443 300.541 173.563 343.783 126.093C390.376 75.0472 439.749 78.9891 464.497 89.7213C495.823 103.332 561.96 148.641 540.997 230.322C532.351 264.003 524.976 299.029 525.633 334.304C526.495 386.265 564.121 438.404 615.238 445.479C650.605 450.379 688.885 435.058 722.071 449.612C744.753 459.527 760.088 481.847 765.755 505.36C771.474 529.085 768.605 554.088 762 577.74" stroke="#F7FBFF" stroke-miterlimit="10" />
    </g>
    <g style="mix-blend-mode:multiply">
      <path d="M-193.636 508.761C-172.764 540.265 -124.936 546.768 -90.2481 530.398C-57.176 514.789 -33.9764 484.075 -10.6723 456.215C12.0758 428.968 39.72 403.014 73.3648 399.538C116.357 395.2 155.859 428.528 201.364 425.354C238.335 422.778 268.273 399.238 288.087 371.499C299.671 355.26 306.54 335.298 315.568 316.62C351.322 242.574 308.421 171.482 350.687 125.014C395.864 75.3904 443.997 77.9785 468.911 88.1095C500.144 100.801 563.597 144.58 545.305 223.493C537.634 256.581 531.335 291.355 532.155 326.302C533.147 376.882 568.998 427.409 618.128 435.5C652.49 441.17 690.161 427.564 723.044 441.829C745.981 451.694 761.8 473.165 768.635 496.021C775.606 519.335 774.444 544.297 769.095 568.337" stroke="#F7FBFF" stroke-miterlimit="10" />
    </g>
    <g style="mix-blend-mode:multiply">
      <path d="M-193.374 506.386C-170.79 537.974 -122.193 545.776 -86.1896 529.419C-52.6302 514.18 -28.8719 483.232 -6.03217 454.739C16.0113 427.258 42.1312 400.819 74.6034 395.898C116.064 389.708 155.379 419.706 200.655 416.259C238.133 413.413 268.981 391.957 290.366 365.263C303.102 349.374 311.388 329.283 320.98 310.034C356.563 238.659 316.363 169.392 357.617 123.852C401.389 75.6299 448.314 76.845 473.393 86.3956C504.512 98.178 565.32 140.47 549.658 216.581C542.974 249.077 537.856 283.594 538.745 318.198C540.003 367.415 573.952 416.334 621.086 425.44C654.463 431.881 691.469 420.049 724.075 433.954C747.211 443.829 763.599 464.414 771.572 486.59C779.805 509.494 780.351 534.403 776.246 558.841" stroke="#F7FBFF" stroke-miterlimit="10" />
    </g>
    <g style="mix-blend-mode:multiply">
      <path d="M-193.152 503.998C-168.852 535.587 -119.522 544.77 -82.1811 528.394C-48.1354 513.548 -23.7775 482.388 -1.42413 453.283C19.9162 425.536 44.5094 398.664 75.789 392.276C115.717 384.245 154.899 410.895 199.902 407.203C237.952 404.06 269.678 384.717 292.602 359.055C306.513 343.456 316.182 323.275 326.36 303.456C361.658 234.726 324.274 167.311 364.491 122.739C406.869 75.9299 452.487 75.851 477.819 84.7416C508.824 95.6146 567.061 136.435 553.978 209.71C548.278 241.655 544.27 275.869 545.28 310.153C546.709 358.002 578.871 405.331 623.988 415.43C656.358 422.672 692.746 412.522 725.06 426.15C748.409 435.972 765.364 455.724 774.465 477.22C783.989 499.757 786.213 524.581 783.363 549.395" stroke="#F7FBFF" stroke-miterlimit="10" />
    </g>
    <g style="mix-blend-mode:multiply">
      <path d="M-192.909 501.611C-166.895 533.221 -116.819 543.755 -78.1453 527.456C-43.6188 512.896 -18.7147 481.542 3.20778 451.764C23.824 423.75 46.9356 396.385 76.999 388.581C115.377 378.635 154.357 402.049 199.164 398.063C237.743 394.642 270.44 377.417 294.863 352.765C309.967 337.529 320.977 317.278 331.763 296.849C366.703 230.717 332.207 165.2 371.398 121.596C412.36 76.1993 456.717 74.7866 482.268 83.047C513.16 92.9792 568.862 132.434 558.32 202.808C553.646 234.226 550.695 268.125 551.848 302.058C553.428 348.527 583.811 394.339 626.872 405.377C658.266 413.421 694.013 404.974 726.027 418.282C749.588 428.073 767.142 446.971 777.327 467.807C788.157 489.903 792.035 514.704 790.44 539.906" stroke="#F7FBFF" stroke-miterlimit="10" />
    </g>
    <g style="mix-blend-mode:multiply">
      <path d="M-192.667 499.235C-164.939 530.877 -114.138 542.739 -74.1185 526.485C-39.1137 512.264 -13.622 480.729 7.82708 450.287C27.7607 422.019 49.2724 394.207 78.2062 384.94C115.054 373.1 153.866 393.227 198.432 388.988C237.563 385.258 271.229 370.203 297.118 346.579C313.43 331.624 325.77 311.292 337.162 290.314C371.662 226.756 340.137 163.162 378.302 120.527C417.858 76.5426 460.942 73.7956 486.724 81.4264C517.487 90.5327 570.775 128.544 562.658 195.99C558.688 228.512 557.265 261.297 558.402 294.047C560.142 339.147 588.766 383.443 629.835 395.412C660.263 404.27 695.361 397.504 727.073 410.503C750.816 420.25 769.02 438.318 780.291 458.472C792.445 480.182 797.968 504.916 797.618 530.506" stroke="#F7FBFF" stroke-miterlimit="10" />
    </g>
    <g style="mix-blend-mode:multiply">
      <path d="M-192.415 496.859C-162.982 528.522 -111.413 541.704 -70.081 525.504C-34.6079 511.611 -8.51856 479.907 12.4567 448.811C31.7287 420.289 51.6623 392.021 79.4139 381.288C114.728 367.639 153.366 384.384 197.702 379.892C237.373 375.873 272.05 362.991 299.378 340.3C316.924 325.742 330.546 305.231 342.565 283.686C376.564 222.667 348.061 161.019 385.231 119.365C423.393 76.7826 465.203 72.7327 491.205 79.7228C521.842 87.9507 581.299 125.941 566.99 189.067C560.29 218.851 563.532 252.688 564.97 285.942C566.861 329.673 593.725 372.473 632.813 385.342C662.285 395.047 696.714 389.918 728.123 402.66C750.848 412.036 770.088 428.248 783.165 449.038C796.654 470.341 803.791 495.019 804.696 520.996" stroke="#F7FBFF" stroke-miterlimit="10" />
    </g>
    <g style="mix-blend-mode:multiply">
      <path d="M-192.173 494.472C-161.067 526.165 -108.771 540.622 -66.054 524.523C-30.1115 510.937 -3.40513 479.094 17.0868 447.323C35.6337 418.556 54.052 389.835 80.621 377.645C114.393 362.144 152.865 375.54 196.972 370.784C237.184 366.466 272.881 355.779 301.637 334.041C320.418 319.838 335.321 299.191 347.957 277.077C381.402 218.574 355.993 158.918 392.106 118.221C428.832 77.0488 469.399 71.6872 495.622 78.0262C526.122 85.3962 584.037 121.944 571.332 182.165C565.148 211.512 569.957 244.943 571.538 277.857C573.568 320.218 598.691 361.587 635.696 375.299C664.22 385.871 697.982 382.359 729.091 394.771C752.014 403.954 771.816 419.522 786.133 439.619C801.059 460.831 809.956 485.675 811.878 511.512" stroke="#F7FBFF" stroke-miterlimit="10" />
    </g>
    <g style="mix-blend-mode:multiply">
      <path d="M-191.931 492.096C-159.079 523.812 -106.09 539.617 -62.0165 523.543C-25.5842 510.275 1.70775 478.293 21.7378 445.838C39.6221 416.838 56.4727 387.661 81.8602 373.995C114.098 356.674 152.397 366.699 196.262 361.71C237.025 357.083 273.741 348.631 303.926 327.815C323.962 314 340.105 293.184 353.388 270.513C386.219 214.491 363.955 156.851 399.043 117.122C434.384 77.3633 473.646 70.6973 500.111 76.3758C530.461 82.9082 586.713 117.945 575.703 175.308C570.094 204.294 576.4 237.241 578.124 269.816C580.295 310.807 603.696 350.767 638.651 365.271C666.227 376.731 699.322 374.815 730.13 386.939C753.248 395.958 773.586 410.894 789.098 430.242C805.485 450.998 815.849 475.841 819.058 502.059" stroke="#F7FBFF" stroke-miterlimit="10" />
    </g>
    <g style="mix-blend-mode:multiply">
      <path d="M-191.689 489.709C-157.123 521.457 -103.417 538.558 -57.9907 522.582C-21.1201 509.609 6.82991 477.513 26.3346 444.38C43.5358 415.137 58.8298 385.494 83.0457 370.362C113.742 351.179 151.864 357.864 195.488 352.643C236.782 347.695 274.589 341.504 306.141 321.596C327.432 308.168 344.804 287.171 358.747 263.945C390.911 210.381 371.834 154.779 405.885 116.018C439.831 77.6719 477.808 69.7025 504.504 74.7304C534.758 80.428 589.232 113.906 579.99 168.456C575.122 197.131 582.76 229.535 584.637 261.77C586.937 301.392 608.603 339.995 641.52 355.291C668.129 367.607 700.599 367.288 731.104 379.124C755.75 388.684 776.55 403.35 791.959 420.86C809.805 441.151 821.639 465.998 826.133 492.612" stroke="#F7FBFF" stroke-miterlimit="10" />
    </g>
    <g style="mix-blend-mode:multiply">
      <path d="M-191.448 487.333C-155.167 519.103 -100.755 537.489 -53.9631 521.581C-16.6226 508.904 11.9646 476.693 30.9655 442.873C47.5141 413.408 61.2093 383.298 84.2536 366.7C113.407 345.675 151.365 349 194.768 343.537C236.626 338.25 275.48 334.369 308.41 315.349C330.966 302.32 349.537 281.12 364.159 257.349C395.616 206.219 379.734 152.677 412.812 114.887C445.354 77.9433 482.034 68.7015 508.984 73.0485C539.047 77.9065 581.333 109.353 584.342 161.566C586 190.249 589.185 221.792 591.214 253.708C593.654 291.95 613.573 329.226 644.476 345.263C670.151 358.584 701.918 359.754 732.11 371.311C756.969 380.819 778.474 394.616 794.872 411.492C814.179 431.307 827.49 456.158 833.27 483.179" stroke="#F7FBFF" stroke-miterlimit="10" />
    </g>
    <g style="mix-blend-mode:multiply">
      <path d="M-191.205 484.945C-153.21 516.737 -98.0807 536.408 -49.9259 520.609C-12.1356 508.207 17.1087 475.902 35.5848 441.395C51.4913 411.709 63.6094 381.122 85.4616 363.046C113.082 340.181 150.856 340.114 194.038 334.44C236.416 328.852 276.359 327.253 310.669 309.099C334.5 296.481 354.241 275.044 369.529 250.76C400.302 202.034 387.607 150.509 419.698 113.753C450.753 78.154 486.228 67.7074 513.411 71.3724C543.335 75.4039 583.745 105.591 588.662 154.672C591.509 182.962 595.567 214.054 597.76 245.632C600.318 282.534 618.457 318.514 647.38 335.221C672.155 349.526 703.228 352.196 733.119 363.455C758.202 372.911 780.402 385.818 797.787 402.08C818.555 421.4 833.344 446.253 840.4 473.692" stroke="#F7FBFF" stroke-miterlimit="10" />
    </g>
    <g style="mix-blend-mode:multiply">
      <path d="M-190.953 482.569C-151.253 514.382 -95.4167 535.318 -45.8988 519.628C-7.6482 507.501 22.2632 475.113 40.2149 439.907C55.4693 409.99 65.9988 378.946 86.6695 359.394C112.768 334.699 150.357 331.249 193.298 325.343C236.238 319.436 277.248 320.17 312.926 302.883C338.03 290.715 358.921 269.009 374.949 244.205C404.881 197.865 395.558 148.451 426.623 112.664C456.274 78.4769 490.462 66.7584 517.879 69.7309C547.652 72.9563 586.312 101.88 593.064 147.837C597.14 175.735 602.032 206.364 604.378 237.603C607.055 273.113 623.474 307.894 650.365 325.236C674.123 340.563 704.587 344.726 734.168 355.644C759.474 365.048 782.38 377.065 800.742 392.714C822.962 411.538 839.23 436.394 847.569 464.26" stroke="#F7FBFF" stroke-miterlimit="10" />
    </g>
    <g style="mix-blend-mode:multiply">
      <path d="M-190.71 480.182C-149.296 512.027 -92.7526 534.227 -41.8611 518.647C-3.16119 506.805 27.4278 474.335 44.8447 438.431C59.4575 408.282 68.3984 376.782 87.8775 355.741C112.443 329.216 149.859 322.374 192.568 316.246C236.03 309.988 278.124 313.118 315.186 296.613C341.564 284.887 363.584 262.89 380.353 237.587C409.475 193.613 403.492 146.329 433.521 111.499C461.777 78.7357 494.678 65.7663 522.339 68.0258C551.961 70.4557 588.988 98.0907 597.365 140.922C602.744 168.434 608.384 198.605 610.905 229.506C613.69 263.645 628.334 297.235 653.26 315.173C676.008 331.553 705.891 337.085 735.134 347.797C760.664 357.149 784.277 368.255 803.615 383.312C827.291 401.622 845.044 426.485 854.655 454.792" stroke="#F7FBFF" stroke-miterlimit="10" />
    </g>
    <g style="mix-blend-mode:multiply">
      <path d="M-190.469 477.806C-147.351 509.671 -90.0989 533.114 -37.8348 517.666C1.32596 506.088 32.602 473.558 49.4636 436.943C63.4548 406.585 70.787 374.606 89.0846 352.089C112.127 323.733 149.349 313.499 191.837 307.16C235.861 300.593 279.012 306.034 317.444 290.375C345.093 279.132 368.224 256.791 385.753 231C414.078 189.372 411.423 144.238 440.427 110.377C467.277 79.0256 498.881 64.8048 526.768 66.3085C556.249 67.9434 591.739 94.2625 601.677 133.988C608.454 161.095 614.726 190.825 617.463 221.389C620.356 254.157 633.182 286.607 656.175 305.101C677.902 322.576 707.172 329.475 736.133 339.921C761.887 349.199 786.208 359.384 806.521 373.869C831.644 391.656 850.884 416.52 861.775 445.274" stroke="#F7FBFF" stroke-miterlimit="10" />
    </g>
    <g style="mix-blend-mode:multiply">
      <path d="M-190.228 475.44C-145.394 507.316 -87.4337 532.003 -33.8496 516.682C5.76158 505.368 37.7457 472.779 54.0415 435.453C67.4112 404.886 73.1343 372.439 90.2398 348.444C111.76 318.259 148.789 304.611 191.044 298.061C235.59 291.152 279.847 298.991 319.65 284.135C348.593 273.334 372.783 250.667 391.092 224.41C418.516 185.102 419.271 142.154 447.281 109.252C472.736 79.3244 503.041 63.8627 531.182 64.6854C560.521 65.5462 594.637 90.4839 605.984 127.158C614.235 153.833 621.095 183.162 623.933 213.374C626.924 244.78 637.908 276.109 659.013 295.13C679.665 313.728 708.407 321.957 737.054 332.135C763.032 341.351 788.061 350.615 809.349 364.538C835.917 381.793 856.647 406.658 868.817 435.867" stroke="#F7FBFF" stroke-miterlimit="10" />
    </g>
    <g style="mix-blend-mode:multiply">
      <path d="M-189.986 473.043C-143.438 504.962 -84.7801 530.891 -29.7709 515.704C10.2907 504.654 42.9718 472.015 58.7228 433.98C71.4714 403.193 75.6369 370.301 91.4994 344.795C111.559 312.814 148.342 295.739 190.365 288.979C235.474 281.75 280.752 291.972 321.96 277.9C352.164 267.582 377.414 244.526 396.545 217.827C423.079 180.807 427.357 140.124 454.228 108.133C478.339 79.6623 507.316 62.9267 535.693 63.0149C564.879 63.1117 597.717 86.5993 610.377 120.291C620.711 147.674 627.504 176.257 630.592 205.347C633.67 235.382 642.77 265.63 662.03 285.137C681.562 304.909 709.809 314.437 738.154 324.338C764.357 333.492 790.093 341.824 812.366 355.186C840.365 371.911 862.586 396.773 876.049 426.439" stroke="#F7FBFF" stroke-miterlimit="10" />
    </g>
    <g style="mix-blend-mode:multiply">
      <path d="M-189.743 470.656C-141.481 502.607 -82.0613 529.761 -25.7435 514.723C14.7793 503.927 48.1686 471.228 63.3428 432.492C75.4908 401.497 78.0292 368.072 92.7181 341.143C111.192 307.319 147.835 286.843 189.636 279.882C235.268 272.281 281.638 284.952 324.219 271.652C355.696 261.785 381.955 238.338 401.958 211.24C427.582 176.498 435.29 138.033 461.146 106.991C483.852 79.9319 511.54 61.9874 540.194 61.3329C569.249 60.6666 600.878 82.5813 614.774 113.35C626.565 139.971 634.132 168.257 637.206 197.191C640.381 225.865 647.543 255.029 665.033 275.027C683.359 295.99 711.201 306.727 739.23 316.413C765.657 325.493 792.123 332.884 815.348 345.705C844.779 361.894 868.492 386.757 883.245 416.893" stroke="#F7FBFF" stroke-miterlimit="10" />
    </g>
    <g style="mix-blend-mode:multiply">
      <path d="M-189.502 468.279C-139.525 500.252 -79.459 528.625 -21.7071 513.752C19.2686 503.168 53.3849 470.453 67.9738 430.973C79.5218 399.759 80.4285 365.897 93.9275 337.449C110.922 301.786 147.332 277.832 188.907 270.754C235.076 262.706 282.514 277.9 326.479 265.372C359.215 256.04 386.456 232.085 407.308 204.609C432.034 172.123 443.171 135.898 468 105.845C489.301 80.1983 515.711 61.0453 544.549 59.6328C573.387 58.2203 603.961 78.4437 619.009 106.485C632.367 131.374 640.2 159.952 643.677 189.144C646.928 216.455 652.1 244.544 667.851 265.013C684.919 287.196 712.437 299.178 740.142 308.595C766.795 317.56 793.926 324.049 818.156 336.331C849.018 351.973 874.228 376.838 890.267 407.454" stroke="#F7FBFF" stroke-miterlimit="10" />
    </g>
    <g style="mix-blend-mode:multiply">
      <path d="M-189.301 465.89C-137.62 497.862 -76.8828 527.393 -17.7324 512.768C23.6852 502.405 58.5601 469.674 72.6021 429.527C83.5916 398.107 82.8272 363.753 95.1126 333.836C110.606 296.335 146.788 269.017 188.142 261.729C234.863 253.372 283.343 270.971 328.712 259.216C362.719 250.389 390.88 225.901 412.716 198.106C436.492 167.843 451.109 133.891 474.903 104.806C494.809 80.572 519.95 60.2216 549.015 58.0323C577.805 55.8714 607.183 74.239 623.358 99.6667C638.652 123.706 646.547 152.297 650.24 181.153C653.568 207.092 656.698 234.103 670.783 255.056C686.497 278.454 713.755 291.684 741.21 300.826C768.087 309.74 795.917 315.254 821.131 327.007C853.407 342.093 880.114 366.942 897.457 398.023" stroke="#F7FBFF" stroke-miterlimit="10" />
    </g>
    <g style="mix-blend-mode:multiply">
      <path d="M-189.008 463.516C-135.625 495.573 -74.1365 526.327 -13.643 511.79C28.2339 501.722 63.839 468.912 77.2222 428.018C87.5906 396.378 85.2172 361.556 96.3406 330.195C110.281 290.841 146.31 260.164 187.455 252.614C234.718 243.927 284.249 263.952 331.014 252.939C366.28 244.625 395.322 219.55 418.192 191.491C441.062 163.432 459.117 131.762 481.895 103.646C500.386 80.8131 524.267 59.2974 553.548 56.3412C582.215 53.4492 610.461 69.7645 627.784 92.7796C645.106 115.795 652.961 144.573 656.892 173.073C660.275 197.648 661.321 223.548 673.792 245.01C688.1 269.641 715.15 284.122 742.25 292.983C769.35 301.845 797.87 306.374 824.078 317.598C857.758 332.147 885.945 357.005 904.564 388.577" stroke="#F7FBFF" stroke-miterlimit="10" />
    </g>
  </g>
</svg>
  