<svg width="1044" height="1156" viewBox="0 0 1044 1156" fill="none" xmlns="http://www.w3.org/2000/svg">
  <g opacity="0.09">
    <g style="mix-blend-mode:multiply">
      <path d="M976.465 296.993C951.131 308.733 926.524 321.978 902.776 336.657C892.225 343.176 881.619 350.198 874.171 360.11C855.122 385.455 861.885 421.464 873.335 451.03C883.898 478.284 897.668 504.188 914.354 528.196C930.848 551.91 950.435 574.2 960.955 601.156C971.475 628.112 970.7 662.161 949.828 682.199C937.406 694.123 919.613 699.306 902.388 699.237C885.162 699.168 868.298 694.301 852.12 688.378C833.593 681.584 814.515 673.207 794.944 675.68C774.68 678.244 756.591 693.481 750.649 712.994C742.199 740.753 757.122 769.481 768.063 796.369C781.954 830.537 789.845 868.637 780.763 904.363C771.682 940.09 742.49 972.332 705.817 976.473" stroke="white" stroke-miterlimit="10" />
    </g>
    <g style="mix-blend-mode:multiply">
      <path d="M983.161 302.175C958.252 313.689 934.106 326.781 910.87 341.37C900.541 347.847 890.195 354.801 882.866 364.544C868.138 384.112 868.702 410.03 874.712 434.327C876.358 440.875 878.348 447.332 880.674 453.671C890.456 480.484 903.406 506.036 919.25 529.787C934.925 553.3 953.739 575.322 963.751 601.913C969.361 616.823 971.911 633.698 969.912 649.448C968.157 663.158 962.86 676.075 953.002 685.767C951.246 687.505 949.37 689.115 947.386 690.588C935.234 699.675 919.52 703.59 904.149 703.624C899.245 703.633 894.344 703.322 889.48 702.691C876.794 701.092 864.298 697.68 852.195 693.84C833.009 687.796 813.443 680.886 793.768 684.121C774.092 687.355 756.681 701.91 750.78 720.938C742.388 748.013 756.271 776.026 766.218 802.176C766.998 804.232 767.763 806.317 768.496 808.395C779.612 839.961 784.927 874.267 775.973 906.348C766.428 940.54 737.663 971.131 701.923 974.661" stroke="white" stroke-miterlimit="10" />
    </g>
    <g style="mix-blend-mode:multiply">
      <path d="M989.849 307.345C965.376 318.647 941.692 331.582 918.959 346.062C908.866 352.488 898.773 359.406 891.565 368.968C877.13 388.186 877.202 413.495 882.618 437.313C884.106 443.737 885.921 450.081 888.056 456.32C897.079 482.68 909.214 507.873 924.203 531.367C938.988 554.611 957.09 576.432 966.597 602.7C972.181 618.129 974.91 635.467 973.068 651.729C971.403 665.862 966.221 679.294 956.215 689.471C954.429 691.282 952.518 692.965 950.494 694.506C938.056 704.02 921.868 708.004 906.055 708.219C900.999 708.266 895.944 708.003 890.919 707.431C877.852 705.973 864.917 702.893 852.415 699.511C832.513 694.173 812.535 688.735 792.716 692.766C773.897 696.615 756.907 710.545 751.046 729.089C742.722 755.481 755.556 782.767 764.511 808.179C765.217 810.178 765.898 812.193 766.555 814.224C776.502 844.857 780.705 877.878 771.313 908.515C761.302 941.183 732.985 970.127 698.17 973.033" stroke="white" stroke-miterlimit="10" />
    </g>
    <g style="mix-blend-mode:multiply">
      <path d="M996.545 312.529C972.478 323.602 949.237 336.384 927.001 350.777C917.194 357.162 907.297 364.01 900.205 373.413C885.979 392.275 885.663 416.985 890.466 440.321C891.798 446.624 893.452 452.855 895.423 458.988C903.666 484.914 914.987 509.761 929.146 532.999C943.135 556.036 960.404 577.567 969.438 603.454C975.025 619.419 977.905 637.193 976.229 653.989C974.75 668.544 969.569 682.522 959.436 693.081C957.62 694.982 955.67 696.75 953.601 698.372C940.879 708.301 924.225 712.366 907.874 712.712C902.671 712.804 897.467 712.598 892.287 712.094C878.821 710.815 865.475 707.976 852.545 705.09C832.007 700.495 811.57 696.488 791.586 701.321C773.512 705.689 757.075 719.094 751.233 737.149C742.957 762.855 754.763 789.418 762.725 814.092C763.354 816.043 763.963 817.991 764.534 819.963C773.31 849.674 776.412 881.412 766.579 910.615C756.104 941.759 728.216 969.041 694.347 971.327" stroke="white" stroke-miterlimit="10" />
    </g>
    <g style="mix-blend-mode:multiply">
      <path d="M1003.25 317.681C979.624 328.536 956.858 341.165 935.146 355.458C925.52 361.792 915.92 368.602 908.951 377.815C894.985 396.331 894.269 420.45 898.421 443.274C899.569 449.52 901.088 455.677 902.803 461.595C910.244 487.07 920.717 511.563 933.997 534.549C947.151 557.306 963.607 578.723 972.199 604.182C977.769 620.679 980.807 638.911 979.265 656.225C977.93 671.204 972.808 685.707 962.533 696.666C960.693 698.636 958.713 700.47 956.607 702.153C943.605 712.478 926.47 716.653 909.622 717.127C904.266 717.262 898.907 717.104 893.568 716.654C879.716 715.546 865.927 713.06 852.606 710.59C831.33 706.709 810.555 704.113 790.387 709.787C773.051 714.662 757.121 727.555 751.402 745.141C743.173 770.161 753.941 795.998 760.91 819.934C761.456 821.816 761.988 823.717 762.493 825.591C770.085 854.388 772.087 884.832 761.815 912.601C750.878 942.2 723.436 967.846 690.49 969.519" stroke="white" stroke-miterlimit="10" />
    </g>
    <g style="mix-blend-mode:multiply">
      <path d="M1009.94 322.894C986.742 333.525 964.436 345.998 943.238 360.193C933.835 366.484 924.482 373.235 917.64 382.29C903.917 400.436 902.74 423.951 906.382 446.313C907.339 452.437 908.687 458.476 910.218 464.293C916.886 489.323 926.539 513.464 938.97 536.196C951.272 558.704 966.928 579.934 975.06 605.004C980.613 622.032 983.831 640.717 982.466 658.557C981.263 673.957 976.201 688.985 965.803 700.359C963.938 702.404 961.922 704.307 959.773 706.051C946.479 716.832 928.874 721.055 911.528 721.669C906.022 721.838 900.511 721.733 895.016 721.352C880.768 720.404 866.548 718.209 852.816 716.205C830.868 713.028 809.734 711.849 789.336 718.378C772.744 723.728 757.347 736.135 751.615 753.238C743.446 777.562 753.174 802.685 759.152 825.873C759.622 827.708 760.071 829.539 760.495 831.386C766.885 859.255 767.802 888.441 757.106 914.748C745.694 942.821 718.687 966.828 686.688 967.87" stroke="white" stroke-miterlimit="10" />
    </g>
    <g style="mix-blend-mode:multiply">
      <path d="M1016.62 328.076C993.853 338.487 972.008 350.808 951.322 364.906C942.156 371.136 933.059 377.84 926.336 386.725C912.863 404.523 911.256 427.432 914.284 449.31C915.094 455.309 916.263 461.228 917.599 466.943C923.483 491.526 932.313 515.311 943.9 537.784C955.359 560.053 970.151 581.094 977.88 605.755C983.391 623.331 986.843 642.468 985.583 660.82C984.519 676.664 979.509 692.195 968.98 703.971C967.087 706.098 965.031 708.076 962.832 709.886C949.275 721.087 931.194 725.389 913.33 726.138C907.638 726.374 901.959 726.27 896.359 725.978C881.737 725.193 867.073 723.297 852.942 721.751C830.302 719.275 808.797 719.458 788.199 726.911C772.351 732.629 757.477 744.656 751.788 761.263C743.684 784.915 752.366 809.301 757.349 831.761C757.746 833.529 758.119 835.313 758.46 837.091C763.708 864.053 763.499 891.919 752.348 916.811C740.462 943.401 713.955 965.717 682.808 966.121" stroke="white" stroke-miterlimit="10" />
    </g>
    <g style="mix-blend-mode:multiply">
      <path d="M1023.32 333.248C1000.98 343.445 979.594 355.614 959.419 369.61C950.476 375.798 941.634 382.454 935.032 391.16C921.809 408.61 919.774 430.911 922.199 452.309C922.841 458.179 923.816 463.985 924.979 469.603C930.084 493.725 938.09 517.143 948.824 539.348C959.444 561.358 973.391 582.225 980.711 606.507C986.182 624.622 989.775 644.191 988.725 663.066C987.808 679.313 982.872 695.403 972.189 707.588C970.268 709.792 968.177 711.841 965.935 713.718C952.093 725.346 933.538 729.716 915.168 730.645C909.317 730.925 903.49 730.868 897.74 730.632C882.721 730.016 867.623 728.432 853.082 727.341C829.766 725.59 807.911 727.086 787.08 735.467C771.975 741.553 757.634 753.212 751.984 769.336C743.941 792.293 751.531 815.953 755.575 837.675C755.892 839.392 756.185 841.11 756.452 842.831C760.517 868.87 759.207 895.451 747.629 918.902C735.287 943.916 709.156 964.625 679.017 964.475" stroke="white" stroke-miterlimit="10" />
    </g>
    <g style="mix-blend-mode:multiply">
      <path d="M1030.01 338.43C1008.09 348.404 987.155 360.421 967.493 374.322C958.805 380.462 950.197 387.025 943.717 395.593C930.766 412.689 928.331 434.345 930.101 455.307C930.586 461.05 931.361 466.732 932.349 472.251C936.662 495.942 943.842 519.023 953.733 540.984C963.501 562.744 976.582 583.444 983.523 607.299C988.944 625.95 992.73 645.963 991.846 665.362C991.062 682.031 986.185 698.646 975.371 711.233C973.419 713.513 971.292 715.638 969.009 717.588C954.893 729.633 935.822 734.075 916.992 735.107C910.983 735.432 904.996 735.429 899.105 735.252C883.692 734.795 868.154 733.543 853.221 732.878C829.209 731.849 807.007 734.636 785.958 743.98C771.575 750.378 757.778 761.714 752.169 777.353C744.182 799.636 750.785 822.581 753.785 843.555C754.022 845.206 754.237 846.863 754.429 848.527C757.324 873.643 754.918 898.911 742.884 920.956C730.081 944.426 704.396 963.498 675.189 962.683" stroke="white" stroke-miterlimit="10" />
    </g>
    <g style="mix-blend-mode:multiply">
      <path d="M1036.72 343.614C1015.22 353.367 994.74 365.229 975.589 379.026C967.116 385.111 958.776 391.672 952.423 400.029C939.691 416.772 936.848 437.878 938.015 458.305C938.341 463.922 938.934 469.493 939.73 474.901C943.267 498.144 949.624 520.871 958.661 542.581C967.598 564.094 979.801 584.624 986.352 608.062C991.725 627.291 995.711 647.707 994.981 667.639C994.34 684.731 989.519 701.891 978.578 714.861C976.599 717.218 974.436 719.415 972.11 721.431C957.698 733.9 938.206 738.409 918.823 739.591C912.677 739.964 906.52 740.003 900.48 739.883C884.68 739.597 868.711 738.636 853.374 738.45C828.676 738.143 806.112 742.144 784.843 752.516C771.177 759.191 757.928 770.248 752.37 785.404C744.441 806.992 749.995 829.22 752.014 849.448C752.175 851.052 752.315 852.652 752.424 854.246C754.166 878.454 750.595 902.437 738.166 923.037C724.89 944.97 699.641 962.393 671.38 960.958" stroke="white" stroke-miterlimit="10" />
    </g>
    <g style="mix-blend-mode:multiply">
      <path d="M1043.4 348.796C1022.35 358.334 1002.35 370.046 983.737 383.741C975.487 389.784 967.383 396.283 961.159 404.473C948.687 420.869 945.447 441.374 945.979 461.315C946.128 466.8 946.551 472.254 947.115 477.584C949.868 500.377 955.402 522.749 963.595 544.201C971.681 565.464 982.991 585.843 989.185 608.858C994.489 628.609 998.687 649.483 998.123 669.939C997.617 687.442 992.857 705.117 981.778 718.52C979.769 720.954 977.568 723.222 975.194 725.303C960.507 738.2 940.535 742.809 920.658 744.109C914.355 744.516 908.051 744.601 901.858 744.548C885.664 744.421 869.26 743.771 853.516 744.031C828.128 744.468 805.204 749.661 783.721 761.083C770.771 767.993 758.086 778.795 752.566 793.476C744.687 814.421 749.212 835.873 750.227 855.371C750.315 856.908 750.37 858.448 750.405 859.985C750.955 883.267 746.334 905.977 733.416 925.176C719.684 945.587 694.861 961.37 667.535 959.313" stroke="white" stroke-miterlimit="10" />
    </g>
    <g style="mix-blend-mode:multiply">
      <path d="M1050.1 353.979C1029.44 363.289 1009.88 374.847 991.769 388.443C983.753 394.435 975.916 400.89 969.802 408.898C957.581 424.936 953.877 444.848 953.829 464.302C953.864 469.658 954.053 475.045 954.489 480.211C956.454 502.559 961.161 524.581 968.503 545.784C975.75 566.788 986.17 587.005 991.996 609.596C997.242 629.87 1001.66 651.215 1001.24 672.181C1000.87 690.116 996.187 708.32 984.967 722.123C982.926 724.638 980.681 726.98 978.255 729.127C963.284 742.44 942.847 747.13 922.451 748.565C916.002 749.008 909.485 749.137 903.201 749.119C886.628 749.122 869.793 748.817 853.641 749.522C827.567 750.682 804.249 756.976 782.586 769.55C770.314 776.666 758.207 787.302 752.738 801.447C744.925 821.666 748.402 842.444 748.434 861.207C748.437 862.684 748.42 864.157 748.38 865.637C747.751 887.984 742.047 909.425 728.696 927.096C714.491 945.971 690.167 960.116 663.724 957.428" stroke="white" stroke-miterlimit="10" />
    </g>
    <g style="mix-blend-mode:multiply">
      <path d="M1056.79 359.152C1036.57 368.249 1017.46 379.657 999.865 393.148C992.066 399.128 984.492 405.494 978.497 413.332C966.516 429.021 962.393 448.328 961.742 467.301C961.563 472.541 961.615 477.751 961.867 482.871C963.069 504.772 966.971 526.442 973.482 547.391C979.888 568.147 989.385 588.206 994.874 610.379C1000.03 631.245 1004.69 652.937 1004.43 674.468C1004.19 692.824 999.566 711.553 988.213 725.769C986.159 728.364 983.898 730.789 981.453 733.021C966.208 746.751 945.286 751.518 924.392 753.092C917.784 753.579 911.165 753.742 904.676 753.835C887.713 754.029 870.441 754.046 853.876 755.174C827.129 757.102 803.385 764.437 781.562 778.168C769.975 785.458 758.467 795.878 752.988 809.573C745.233 829.107 747.664 849.201 746.718 867.207C746.636 868.625 746.542 870.051 746.425 871.43C744.622 892.866 737.801 912.999 724.013 929.279C709.344 946.62 685.406 959.106 659.96 955.808" stroke="white" stroke-miterlimit="10" />
    </g>
    <g style="mix-blend-mode:multiply">
      <path d="M1063.48 364.334C1043.67 373.214 1025.03 384.473 1007.95 397.861C1000.38 403.747 993.058 410.098 987.192 417.768C975.46 433.109 970.961 451.819 969.644 470.299C969.298 475.41 969.178 480.512 969.237 485.52C969.649 506.969 972.719 528.286 978.379 548.983C983.943 569.491 992.528 589.395 997.67 611.147C1002.74 632.564 1007.63 654.728 1007.53 676.74C1007.44 695.509 1002.87 714.773 991.388 729.392C989.298 732.058 986.989 734.546 984.485 736.83C968.963 750.945 947.596 755.851 926.165 757.545C919.399 758.076 912.627 758.306 905.991 758.445C888.633 758.798 870.922 759.147 853.964 760.701C826.518 763.361 802.329 771.722 780.379 786.669C769.436 794.117 758.55 804.368 753.153 817.586C745.468 836.428 746.836 855.759 744.914 873.052C744.758 874.413 744.581 875.769 744.381 877.132C741.407 897.646 733.474 916.493 719.258 931.332C704.114 947.147 680.624 957.986 656.1 954.075" stroke="white" stroke-miterlimit="10" />
    </g>
    <g style="mix-blend-mode:multiply">
      <path d="M1070.17 369.516C1050.79 378.18 1032.6 389.291 1016.04 402.576C1008.71 408.422 1001.62 414.764 995.885 422.214C984.417 437.188 979.412 455.297 977.556 473.298C977.04 478.291 976.701 483.254 976.617 488.17C976.233 509.166 978.469 530.129 983.275 550.574C987.988 570.831 995.648 590.589 1000.47 611.904C1005.42 633.888 1010.57 656.464 1010.64 679.011C1010.67 698.202 1006.17 717.991 994.553 733.012C992.432 735.755 990.087 738.318 987.543 740.675C971.727 755.257 949.863 760.184 927.954 762.021C921.041 762.598 914.11 762.873 907.322 763.078C889.579 763.592 871.44 764.222 854.066 766.263C825.945 769.648 801.255 778.993 779.233 795.199C768.929 802.834 758.669 812.896 753.322 825.631C745.693 843.799 746.045 862.399 743.112 878.939C742.86 880.239 742.607 881.549 742.356 882.848C738.208 902.449 729.176 920.003 714.51 933.407C698.892 947.685 675.849 956.878 652.252 952.386" stroke="white" stroke-miterlimit="10" />
    </g>
    <g style="mix-blend-mode:multiply">
      <path d="M1076.87 374.7C1057.9 383.146 1040.16 394.108 1024.12 407.289C1017.02 413.094 1010.19 419.336 1004.57 426.669C993.335 441.292 987.93 458.756 985.464 476.318C984.779 481.182 984.289 486.041 983.99 490.851C982.812 511.391 984.222 531.999 988.187 552.19C992.059 572.199 998.732 591.797 1003.26 612.692C1008.11 635.232 1013.51 658.233 1013.74 681.292C1013.92 700.917 1009.47 721.231 997.67 736.654C995.529 739.479 993.148 742.115 990.554 744.532C974.462 759.542 952.125 764.538 929.719 766.514C922.646 767.136 915.609 767.464 908.629 767.718C890.49 768.401 871.895 769.339 854.145 771.831C825.338 775.885 800.073 786.21 778.039 803.75C768.364 811.454 758.766 821.419 753.456 833.691C745.876 851.162 745.189 869.046 741.267 884.829C740.951 886.073 740.625 887.315 740.268 888.551C734.939 907.228 724.806 923.499 709.763 935.47C693.692 948.216 671.069 955.8 648.41 950.612" stroke="white" stroke-miterlimit="10" />
    </g>
    <g style="mix-blend-mode:multiply">
      <path d="M1083.56 379.884C1065.01 388.1 1047.72 398.908 1032.22 411.984C1025.22 417.641 1018.87 424.046 1013.27 431.085C1002.28 445.36 996.426 462.266 993.366 479.295C992.514 484.031 991.854 488.771 991.371 493.482C989.423 513.559 990.011 533.803 993.121 553.737C996.154 573.486 1001.94 592.892 1006.11 613.408C1010.83 636.511 1016.51 659.929 1016.91 683.512C1017.21 703.558 1012.84 724.399 1000.94 740.231C998.77 743.137 996.353 745.848 993.713 748.333C977.338 763.759 954.536 768.836 931.621 770.949C924.39 771.614 917.154 771.979 910.063 772.308C891.54 773.152 872.53 774.405 854.362 777.34C824.857 782.179 798.955 793.365 776.997 812.236C767.901 820.105 758.986 829.913 753.721 841.679C746.186 858.474 744.473 875.625 739.555 890.69C739.162 891.888 738.753 893.06 738.321 894.239C731.82 912.004 720.588 926.981 705.043 937.507C688.509 948.719 666.38 954.632 644.606 948.856" stroke="white" stroke-miterlimit="10" />
    </g>
    <g style="mix-blend-mode:multiply">
      <path d="M1090.24 385.067C1072.11 393.07 1055.28 403.728 1040.3 416.688C1033.56 422.325 1027.41 428.635 1021.95 435.519C1011.21 449.49 1004.94 465.747 1001.27 482.296C1000.25 486.903 999.407 491.564 998.735 496.141C995.983 515.771 995.731 535.671 997.985 555.367C1000.17 574.866 1004.99 594.17 1008.87 614.18C1013.45 637.855 1019.43 661.695 1019.97 685.799C1020.43 706.217 1016.11 727.634 1004.07 743.878C1001.88 746.854 999.424 749.634 996.745 752.186C980.084 768.037 956.804 773.203 933.384 775.443C926.005 776.154 918.61 776.563 911.379 776.951C892.459 777.964 873.025 779.53 854.438 782.919C824.258 788.483 797.66 800.443 775.814 820.78C767.307 828.709 759.081 838.447 753.861 849.698C746.396 865.8 743.634 882.234 737.723 896.561C737.258 897.691 736.772 898.817 736.257 899.926C728.77 916.615 716.167 930.492 700.267 939.555C683.259 949.231 661.532 953.456 640.729 947.097" stroke="white" stroke-miterlimit="10" />
    </g>
    <g style="mix-blend-mode:multiply">
      <path d="M1096.94 390.24C1079.22 398.034 1062.84 408.549 1048.39 421.404C1041.91 427.012 1035.97 433.226 1030.67 439.961C1020.19 453.532 1013.44 469.226 1009.21 485.3C1008.01 489.776 1007 494.29 1006.14 498.798C1002.62 517.978 1001.56 537.529 1002.98 556.979C1004.33 576.231 1008.18 595.432 1011.78 614.991C1016.19 639.223 1022.48 663.485 1023.18 688.113C1023.77 708.994 1019.51 730.894 1007.4 747.551C1005.17 750.608 1002.69 753.463 999.961 756.083C983.025 772.363 959.272 777.598 935.357 779.955C927.822 780.701 920.265 781.175 912.895 781.62C893.59 782.795 873.742 784.677 854.719 788.548C823.843 794.833 796.411 807.561 774.835 829.384C766.427 837.669 759.448 847.287 754.181 857.848C746.772 873.275 742.971 888.984 736.068 902.573C735.518 903.644 734.96 904.702 734.381 905.756C725.624 921.547 712.067 934.146 695.67 941.734C678.207 949.887 656.899 952.503 637.1 945.493" stroke="white" stroke-miterlimit="10" />
    </g>
    <g style="mix-blend-mode:multiply">
      <path d="M1103.63 395.424C1086.33 402.996 1070.4 413.363 1056.47 426.108C1050.24 431.694 1044.5 437.811 1039.33 444.391C1029.09 457.613 1021.92 472.711 1017.08 488.294C1015.71 492.651 1014.51 497.033 1013.47 501.439C1009.16 520.163 1007.27 539.362 1007.85 558.567C1008.36 577.569 1011.21 596.567 1014.54 615.742C1018.79 640.552 1025.39 665.219 1026.25 690.379C1026.98 711.683 1022.78 734.108 1010.49 751.157C1008.23 754.291 1005.71 757.221 1002.94 759.915C985.724 776.61 961.495 781.924 937.058 784.437C929.406 785.234 921.671 785.738 914.137 786.259C894.448 787.594 874.134 789.781 854.782 794.081C823.23 801.091 794.973 814.547 773.638 837.893C765.935 846.282 759.428 855.694 754.301 865.862C746.952 880.595 742.12 895.601 734.217 908.43C733.593 909.443 732.948 910.452 732.286 911.437C722.254 926.329 707.746 937.652 690.852 943.773C672.926 950.392 652.066 951.362 633.138 943.728" stroke="white" stroke-miterlimit="10" />
    </g>
    <g style="mix-blend-mode:multiply">
      <path d="M1110.32 400.609C1093.43 407.965 1077.95 418.188 1064.56 430.824C1058.58 436.374 1053.05 442.395 1048.02 448.827C1038.18 461.696 1030.41 476.027 1025.01 491.299C1023.48 495.532 1022.11 499.802 1020.89 504.111C1015.78 522.367 1013.05 541.205 1012.76 560.161C1012.42 578.915 1014.35 597.766 1017.35 616.514C1021.4 641.906 1028.35 666.97 1029.39 692.669C1030.26 714.394 1026.1 737.353 1013.68 754.817C1011.4 758.029 1008.84 761.031 1006.02 763.787C988.532 780.9 963.827 786.293 938.893 788.944C931.051 789.78 923.187 790.344 915.515 790.913C895.438 792.376 874.68 794.916 854.911 799.659C822.672 807.402 793.425 821.544 772.497 846.445C765.495 854.936 759.448 864.17 754.465 873.981C747.183 888.032 741.287 902.286 732.409 914.401C731.714 915.337 730.977 916.264 730.251 917.193C718.955 931.176 703.511 941.222 686.139 945.887C667.737 950.98 647.313 950.3 629.33 942.047" stroke="white" stroke-miterlimit="10" />
    </g>
    <g style="mix-blend-mode:multiply">
      <path d="M1117 405.79C1078.61 422.195 1048.85 455.72 1032.89 494.293C1016.93 532.866 1014.07 576.016 1020.2 617.292C1024.05 643.233 1031.35 668.729 1032.53 694.925C1033.72 721.122 1027.8 749.195 1009.13 767.609C985.761 790.668 949.613 792.871 916.89 795.534C863.062 799.878 804.316 812.204 771.375 854.957C754.97 876.249 746.655 903.281 728.244 922.869C702.714 950.024 658.568 957.526 625.478 940.272" stroke="white" stroke-miterlimit="10" />
    </g>
  </g>
  <g opacity="0.09">
    <g style="mix-blend-mode:multiply">
      <path d="M1008.43 161.631C974.173 150.494 937.807 179.367 925.624 213.222C913.44 247.077 917.897 284.272 918.412 320.254C918.927 356.237 913.791 395.629 887.845 420.571C854.674 452.47 798.275 450.419 766.469 483.727C741.681 509.664 739.922 549.314 748.225 582.407C752.927 601.12 763.586 618.322 769.798 636.535C798.003 719.164 884.068 741.039 884.823 806.724C885.637 877.865 845.069 908.525 819.406 916.95C786.544 927.705 704.23 940.417 663.807 862.483C647.387 830.825 629.464 799.239 604.756 773.497C567.763 734.966 502.231 722.491 459.351 754.308C429.954 776.111 413.212 815.096 378.626 827.068C355.369 835.125 328.735 828.245 308.943 813.629C289.151 799.013 275.405 777.501 265.184 755.098" stroke="white" stroke-miterlimit="10" />
    </g>
    <g style="mix-blend-mode:multiply">
      <path d="M1009.88 163.536C974.322 153.55 936.486 181.935 923.327 216.682C910.484 250.57 914.813 288.372 916.029 324.49C917.28 360.208 913.503 398.89 889.439 424.069C858.639 456.277 804.669 456.558 773.202 489.835C748.233 516.369 744.453 555.007 750.831 588.477C754.49 607.704 764.14 625.973 770.345 644.998C796.644 725.632 879.693 747.928 880.536 812.218C881.415 881.361 842.662 912.158 817.283 921.163C785.088 932.571 705.855 944.522 665.371 870.449C648.661 839.9 630.092 809.216 605.516 783.842C569.361 746.404 506.243 733.905 464.094 763.606C434.929 784.149 417.446 821.482 383.277 833.46C359.899 841.697 333.472 835.799 313.263 822.45C292.872 808.991 277.877 788.734 266.527 766.905" stroke="white" stroke-miterlimit="10" />
    </g>
    <g style="mix-blend-mode:multiply">
      <path d="M1011.33 165.444C974.532 156.608 935.172 184.506 921.048 220.147C907.575 254.138 911.635 292.443 913.663 328.74C915.646 364.161 913.249 402.073 891.043 427.558C862.624 460.078 811.012 462.623 779.945 495.989C754.741 523.076 748.948 560.768 753.439 594.578C756.042 614.339 764.715 633.671 770.954 653.516C795.458 732.08 875.381 754.873 876.272 817.749C877.204 884.902 840.298 915.843 815.19 925.435C783.714 937.442 707.457 948.685 666.844 878.428C649.834 848.987 630.657 819.234 606.172 794.22C570.869 757.857 510.154 745.341 468.749 772.961C439.793 792.26 421.584 827.923 387.823 839.895C364.33 848.334 338.101 843.405 317.495 831.338C296.464 819.028 280.251 799.97 267.699 778.71" stroke="white" stroke-miterlimit="10" />
    </g>
    <g style="mix-blend-mode:multiply">
      <path d="M1012.77 167.352C974.71 159.66 933.879 187.081 918.769 223.611C904.683 257.666 908.499 296.512 911.287 332.978C913.988 368.121 912.985 405.307 892.655 431.059C866.61 463.878 817.388 468.737 786.688 502.142C761.275 529.809 753.427 566.558 756.055 600.693C757.621 621.002 765.323 641.365 771.452 662.002C794.264 738.516 870.962 761.807 871.987 823.276C872.993 888.443 837.904 919.511 813.058 929.688C782.291 942.293 708.975 952.833 668.388 886.432C651.051 858.073 631.239 829.331 606.891 804.6C572.333 769.429 514.097 756.773 473.468 782.264C444.712 800.308 425.767 834.235 392.45 846.292C368.816 854.854 342.771 850.966 321.789 840.174C300.116 829.024 282.699 811.155 268.986 790.473" stroke="white" stroke-miterlimit="10" />
    </g>
    <g style="mix-blend-mode:multiply">
      <path d="M1014.21 169.258C974.888 162.713 932.588 189.646 916.489 227.077C901.811 261.208 905.358 300.613 908.922 337.218C912.315 372.11 912.717 408.563 894.259 434.549C870.585 467.677 823.784 474.856 793.441 508.298C767.828 536.504 757.86 572.361 758.663 606.795C759.154 627.677 765.891 649.041 772.04 670.516C793.248 744.912 866.629 768.748 867.731 828.82C868.791 891.986 835.557 923.156 810.977 933.953C780.898 947.151 710.481 956.989 669.944 894.428C652.267 867.159 631.81 839.372 607.646 814.965C573.901 780.904 518.044 768.185 478.216 791.585C449.627 808.377 429.98 840.616 397.096 852.704C373.323 861.432 347.448 858.551 326.105 849.016C303.775 839.043 285.205 822.374 270.28 802.249" stroke="white" stroke-miterlimit="10" />
    </g>
    <g style="mix-blend-mode:multiply">
      <path d="M1015.66 171.165C975.065 165.776 931.264 192.215 914.21 230.541C898.948 264.753 902.198 304.699 906.557 341.458C910.643 376.035 912.517 411.799 895.871 438.051C874.636 471.523 830.172 480.962 800.184 514.452C774.365 543.281 762.256 578.189 761.28 612.909C760.675 634.36 766.483 656.711 772.567 679.018C792.256 751.301 862.231 775.687 863.425 834.343C864.545 895.541 833.13 926.829 808.816 938.244C779.431 952.004 711.829 961.189 671.429 902.453C653.389 876.236 632.344 849.438 608.304 825.387C575.382 792.438 521.834 779.63 482.867 800.961C454.447 816.491 434.116 847.068 401.658 859.164C377.754 868.069 352.013 866.209 330.332 857.925C307.315 849.125 287.539 833.591 271.478 814.081" stroke="white" stroke-miterlimit="10" />
    </g>
    <g style="mix-blend-mode:multiply">
      <path d="M1017.17 173.084C975.295 168.839 930.095 194.815 911.981 234.027C896.146 268.32 899.09 308.796 904.232 345.717C909.014 380.012 912.315 415.046 897.473 441.551C878.628 475.347 836.565 487.102 806.926 520.616C780.885 550.034 766.617 584.032 763.886 619.022C762.171 641.061 767.091 664.405 773.124 687.527C791.378 757.596 857.875 782.635 859.149 839.883C860.334 899.083 830.751 930.479 806.718 942.483C778.028 956.806 713.17 965.314 672.969 910.425C653.632 883.913 632.257 858.945 609.038 835.749C576.94 803.858 525.755 791.016 487.584 810.276C459.3 824.549 438.308 853.447 406.274 865.571C382.239 874.654 356.63 873.825 334.614 866.77C310.906 859.163 289.967 844.828 272.722 825.901" stroke="white" stroke-miterlimit="10" />
    </g>
    <g style="mix-blend-mode:multiply">
      <path d="M1018.56 174.981C975.423 171.881 928.78 197.396 909.653 237.471C893.253 271.858 895.863 312.9 901.818 349.936C907.266 383.943 912.016 418.242 899.077 445.04C882.63 479.119 842.972 493.222 813.649 526.766C787.492 556.782 770.929 589.854 766.474 625.12C763.628 647.742 767.686 672.054 773.647 696.049C790.507 763.912 853.472 789.604 854.837 845.437C856.087 902.638 828.328 934.13 804.572 946.755C776.562 961.659 714.38 969.509 674.457 918.439C654.459 892.97 632.832 868.821 609.712 846.141C578.438 815.415 529.556 802.41 492.261 819.635C464.106 832.628 442.479 859.884 410.852 872.001C387.832 880.677 362.669 881.95 338.881 875.644C314.413 869.248 292.333 856.051 273.957 837.654" stroke="white" stroke-miterlimit="10" />
    </g>
    <g style="mix-blend-mode:multiply">
      <path d="M1020 176.887C975.599 174.944 927.539 199.982 907.384 240.938C890.422 275.409 892.682 316.929 899.401 354.167C905.516 387.885 911.7 421.467 900.634 448.553C886.569 482.943 849.32 499.375 820.355 532.945C793.956 563.545 775.19 595.72 769.055 631.25C765.047 654.46 768.244 679.728 774.153 704.548C789.728 770.193 849.058 796.519 850.517 850.926C851.82 906.137 825.896 937.717 802.404 950.971C775.098 966.386 715.53 973.735 675.947 926.391C656.743 903.362 634.144 879.557 610.448 856.493C580.01 826.87 533.387 813.757 497 828.943C468.949 840.63 446.69 866.276 415.486 878.422C392.472 887.339 367.372 889.451 343.182 884.504C317.782 879.157 294.3 867.043 275.227 849.447" stroke="white" stroke-miterlimit="10" />
    </g>
    <g style="mix-blend-mode:multiply">
      <path d="M1021.41 178.787C975.736 177.988 926.254 202.569 905.061 244.405C887.547 278.962 889.46 321.003 897.038 358.396C903.823 391.806 911.46 424.685 902.253 452.013C890.582 486.706 855.751 505.478 827.118 539.102C800.513 570.326 779.466 601.556 771.691 637.368C766.522 661.156 768.952 687.399 774.753 713.054C789.078 776.467 844.742 803.474 846.287 856.496C847.654 909.718 823.545 941.383 800.335 955.28C773.69 971.208 716.605 977.958 677.514 934.432C657.76 912.419 634.677 889.57 611.14 866.9C581.53 838.369 537.135 825.087 501.675 838.303C473.708 848.722 450.859 872.713 420.076 884.845C397.038 894.018 371.983 896.96 347.437 893.376C321.283 889.36 296.732 878.245 276.463 861.244" stroke="white" stroke-miterlimit="10" />
    </g>
    <g style="mix-blend-mode:multiply">
      <path d="M1022.9 180.704C975.966 181.052 925.062 205.175 902.802 247.875C884.744 282.53 886.277 325.097 894.691 362.652C902.116 395.8 911.221 427.904 903.886 455.52C894.588 490.513 862.182 511.638 833.887 545.231C807.107 577.031 783.742 607.341 774.315 643.443C767.953 667.802 769.627 695.023 775.274 721.525C788.469 782.698 840.405 810.374 842.019 862.039C843.451 913.263 821.17 945.004 798.243 959.544C772.3 975.993 717.601 982.253 679.059 942.428C658.796 921.494 635.29 899.611 611.869 877.285C583.122 849.829 540.906 836.349 506.434 847.617C478.529 856.721 455.091 879.101 424.733 891.251C400.193 901.06 374.985 904.524 351.763 902.211C324.862 899.533 299.236 889.422 277.758 873.012" stroke="white" stroke-miterlimit="10" />
    </g>
    <g style="mix-blend-mode:multiply">
      <path d="M1024.34 182.61C976.143 184.115 923.839 207.775 900.544 251.345C881.952 286.1 883.096 329.18 892.347 366.897C900.403 399.771 910.975 431.154 905.508 459.025C898.596 494.308 868.618 517.775 840.651 551.389C813.689 583.796 788 613.165 776.942 649.56C769.377 674.489 770.319 702.67 775.893 730.046C787.869 788.939 836.036 817.33 837.75 867.539C839.246 916.774 818.773 948.576 796.136 963.772C770.865 980.737 718.489 986.558 680.597 950.4C659.807 930.53 635.883 909.647 612.594 887.635C584.668 861.302 544.637 847.603 511.116 856.947C483.255 864.712 459.263 885.529 429.333 897.676C404.673 907.666 379.55 912.238 356.051 911.08C328.41 909.751 301.705 900.641 279.017 884.803" stroke="white" stroke-miterlimit="10" />
    </g>
    <g style="mix-blend-mode:multiply">
      <path d="M1025.79 184.517C976.321 187.168 922.624 210.387 898.264 254.809C879.157 289.625 879.872 333.264 889.971 371.135C898.66 403.725 910.712 434.378 907.122 462.516C902.571 498.106 875.041 523.92 847.394 557.543C820.249 590.556 792.197 618.965 779.557 655.675C770.771 681.159 771.018 710.328 776.445 738.522C787.33 795.139 831.773 824.231 833.48 873.037C835.125 920.28 816.383 952.107 794.029 967.999C769.421 985.467 719.27 990.97 682.127 958.359C660.717 939.589 636.497 919.569 613.312 897.962C586.236 872.713 548.344 858.755 515.833 866.251C487.994 872.629 463.462 891.92 433.93 904.058C409.157 914.24 384.127 919.943 360.315 919.901C331.934 919.931 304.136 911.827 280.219 896.551" stroke="white" stroke-miterlimit="10" />
    </g>
    <g style="mix-blend-mode:multiply">
      <path d="M1027.24 186.445C976.496 190.241 921.415 213.032 895.981 258.295C876.362 293.268 876.642 337.38 887.596 375.427C896.908 407.732 910.447 437.624 908.716 466.057C906.551 501.939 881.455 530.117 854.14 563.74C826.824 597.363 796.378 624.795 782.157 661.819C772.149 687.858 771.726 718 776.99 747.093C786.829 801.421 827.392 831.249 829.191 878.64C830.898 923.904 813.952 955.801 791.89 972.339C767.95 990.288 719.935 995.489 683.635 966.433C661.591 948.781 637.082 929.699 614.012 908.436C587.777 884.27 552.021 870.008 520.521 875.657C492.704 880.649 467.64 898.424 438.526 910.558C413.629 920.941 388.69 927.774 364.578 928.84C335.486 930.241 306.61 923.164 281.463 908.469" stroke="white" stroke-miterlimit="10" />
    </g>
    <g style="mix-blend-mode:multiply">
      <path d="M1028.69 188.333C976.684 193.242 920.216 215.615 893.713 261.698C873.55 296.77 873.417 341.411 885.246 379.585C895.169 411.612 910.187 440.774 910.345 469.467C910.543 505.645 887.894 536.181 860.939 569.82C833.435 604.08 800.614 630.507 784.821 667.847C773.583 694.43 772.581 725.572 777.593 755.525C786.392 807.588 823.075 838.152 824.959 884.104C826.731 927.37 811.588 959.305 789.834 976.523C766.548 994.964 720.612 999.989 685.226 974.351C662.482 957.88 637.735 939.64 614.777 918.741C589.406 895.641 555.749 881.048 525.289 884.918C497.475 888.456 471.9 904.774 443.195 916.901C418.165 927.472 393.334 935.46 368.911 937.633C339.11 940.381 309.155 934.295 282.788 920.135" stroke="white" stroke-miterlimit="10" />
    </g>
    <g style="mix-blend-mode:multiply">
      <path d="M1030.13 190.218C976.858 196.316 919.026 218.21 891.388 265.176C870.658 300.353 870.122 345.526 882.825 383.836C893.404 415.627 909.907 444.039 911.99 473.019C914.572 509.498 894.375 542.36 867.684 576.018C840.023 610.868 804.799 636.316 787.439 674.006C774.953 701.117 773.312 733.238 778.152 764.078C785.959 813.852 818.718 845.1 820.686 889.678C822.511 930.954 809.159 962.926 787.724 980.826C765.073 999.742 721.152 1004.71 686.74 982.394C663.276 967.153 638.346 949.691 615.477 929.162C590.967 907.149 559.444 892.156 529.983 894.294C502.168 896.334 476.084 911.248 447.797 923.371C422.652 934.144 397.891 943.269 373.182 946.531C342.68 950.652 311.636 945.581 284.027 931.966" stroke="white" stroke-miterlimit="10" />
    </g>
    <g style="mix-blend-mode:multiply">
      <path d="M1031.58 192.147C977.032 199.389 917.846 220.862 889.145 268.671C867.96 303.983 866.9 349.654 880.496 388.106C891.637 419.599 909.638 447.241 913.552 476.501C918.474 513.284 900.751 548.529 874.375 582.162C846.553 617.624 808.911 642.058 789.994 680.099C776.258 707.75 774.072 740.856 778.658 772.567C785.535 820.064 814.288 852.035 816.358 895.198C818.236 934.484 806.668 966.481 785.559 985.075C763.547 1004.46 721.584 1009.48 688.221 990.378C663.97 976.492 638.913 959.691 616.153 939.536C592.498 918.587 563.052 903.15 534.651 903.632C506.853 904.092 480.238 917.705 452.367 929.781C427.098 940.755 402.484 951.053 377.417 955.39C346.222 960.877 314.09 956.819 285.233 943.749" stroke="white" stroke-miterlimit="10" />
    </g>
    <g style="mix-blend-mode:multiply">
      <path d="M1033.03 194.055C977.191 202.438 916.661 223.49 886.866 272.136C865.184 307.524 863.577 353.752 878.131 392.347C889.857 423.579 909.304 450.506 915.154 480.001C922.371 517.1 907.194 554.689 881.119 588.317C853.144 624.402 813.066 647.808 792.559 686.205C777.563 714.328 774.877 748.472 779.153 781.065C785.093 826.262 809.784 858.966 812.028 900.73C813.885 938.021 804.167 970.034 783.392 989.335C762.008 1009.18 721.981 1014.39 689.704 998.361C663.441 985.375 638.945 969.091 616.81 949.906C594.029 930.025 566.704 914.09 539.342 912.965C511.568 911.803 484.433 924.117 456.956 936.205C431.581 947.34 407.088 958.839 381.694 964.258C349.81 971.114 316.585 968.072 286.47 955.537" stroke="white" stroke-miterlimit="10" />
    </g>
    <g style="mix-blend-mode:multiply">
      <path d="M1034.47 195.961C977.398 205.508 915.483 226.131 884.586 275.601C862.39 311.157 860.354 357.881 875.755 396.586C888.077 427.558 909.039 453.742 916.777 483.495C926.366 520.904 913.594 560.841 887.874 594.517C859.736 631.222 817.224 653.591 795.22 692.361C778.961 721.032 775.84 756.151 779.763 789.628C784.805 832.543 805.469 865.965 807.793 906.322C809.713 941.625 801.775 973.629 781.32 993.656C760.563 1013.97 722.487 1019.5 691.277 1006.43C664.468 994.982 639.604 979.437 617.579 960.351C595.663 941.537 570.488 925.065 544.064 922.357C516.337 919.514 488.643 930.618 461.576 942.688C436.08 954.058 411.71 966.693 385.983 973.171C353.423 981.409 319.103 979.388 287.727 967.383" stroke="white" stroke-miterlimit="10" />
    </g>
    <g style="mix-blend-mode:multiply">
      <path d="M1035.91 197.868C977.566 208.559 914.254 228.762 882.306 279.067C859.593 314.748 857.07 361.997 873.379 400.824C886.285 431.547 908.766 456.965 918.358 486.992C930.341 524.703 920.132 567.063 894.604 600.626C866.386 638.023 821.36 659.263 797.822 698.432C780.291 727.594 776.782 763.719 780.309 798.082C784.452 838.726 801.101 872.858 803.517 911.799C805.5 945.114 799.301 977.155 779.206 997.862C759.112 1018.57 722.967 1024.63 692.811 1014.37C666.037 1005.27 640.818 989.686 618.286 970.677C597.25 952.91 574.261 935.878 548.723 931.629C521.099 927.041 492.824 937.049 466.146 949.045C440.547 960.672 416.25 974.424 390.218 981.977C356.99 991.579 321.585 990.578 288.943 979.114" stroke="white" stroke-miterlimit="10" />
    </g>
    <g style="mix-blend-mode:multiply">
      <path d="M1037.37 199.777C977.754 211.613 913.225 231.464 880.037 282.534C856.885 318.376 853.784 366.124 871.023 405.067C884.512 435.496 908.555 460.2 919.978 490.506C934.312 528.523 926.553 573.219 901.354 606.803C872.959 644.775 825.564 664.979 800.44 704.537C781.643 734.204 777.819 771.348 780.865 806.591C784.152 844.962 796.691 879.797 799.238 917.34C801.277 948.654 796.822 980.701 777.093 1002.12C757.54 1023.35 723.51 1029.94 694.332 1022.37C666.734 1015.21 641.422 999.661 618.998 981.037C598.844 964.296 578.091 946.67 553.482 940.943C525.992 934.551 497.054 943.446 470.803 955.45C445.081 967.267 420.998 982.184 394.542 990.821C360.651 1001.8 324.152 1001.82 290.237 990.881" stroke="white" stroke-miterlimit="10" />
    </g>
    <g style="mix-blend-mode:multiply">
      <path d="M1038.82 201.685C977.931 214.676 911.99 234.071 877.747 286.051C854.045 321.968 850.454 370.252 868.604 409.308C882.664 439.547 908.206 463.429 921.541 493.988C938.258 532.306 932.875 579.334 908.057 612.938C879.477 651.538 829.631 670.679 803.012 710.654C782.934 740.8 778.869 778.968 781.378 815.102C783.887 851.237 792.319 886.763 794.919 922.872C797.026 952.167 794.289 984.248 774.934 1006.39C755.98 1028.07 724.199 1035.39 695.812 1030.36C667.426 1025.34 641.985 1009.63 619.666 991.451C600.392 975.758 581.921 957.514 558.134 950.31C530.815 942.036 501.198 949.901 475.366 961.9C449.533 973.9 425.586 990.052 398.771 999.711C364.223 1012.06 326.631 1013.11 291.435 1002.7" stroke="white" stroke-miterlimit="10" />
    </g>
  </g>
  <g opacity="0.09">
    <g style="mix-blend-mode:multiply">
      <path d="M1168.95 651.249C1156.18 617.616 1110.85 607.368 1076.79 619.05C1042.74 630.733 1016.54 657.502 988.801 680.431C961.06 703.359 927.131 724.009 891.413 719.421C845.737 713.556 811.992 668.361 766.074 664.417C730.317 661.351 698.288 684.808 677.649 711.979C665.996 727.339 659.27 746.402 648.955 762.652C602.195 836.321 639.087 917.018 588.327 958.72C533.352 1003.88 484.016 991.481 461.356 976.779C432.342 957.948 370.866 901.786 406.307 821.538C420.705 788.933 434.111 755.258 438.693 719.873C445.553 666.949 414.2 608.162 362.521 594.641C327.102 585.405 286.201 596.766 255.183 577.333C234.324 564.275 222.989 539.23 221.988 514.67C220.987 490.109 229.111 465.979 240.195 444.037" stroke="white" stroke-miterlimit="10" />
    </g>
    <g style="mix-blend-mode:multiply">
      <path d="M1168.36 653.576C1153.88 619.664 1108.02 607.955 1072.67 619.451C1038.16 630.673 1011.4 657.641 984.017 681.249C956.958 704.578 924.456 725.825 889.695 722.877C845.274 719.052 811.223 677.21 765.539 673.547C729.204 670.711 696.673 691.941 674.606 717.863C661.909 732.753 653.695 751.699 642.75 768.437C596.348 839.372 630.967 917.981 581.412 958.879C528.029 1002.84 479.728 991.956 456.764 977.827C427.7 959.916 368.699 905.688 401.079 827.758C414.433 795.624 426.72 761.978 431.094 726.949C437.642 675.366 407.83 618.407 358.249 604.169C323.945 594.314 283.878 604.073 253.108 584.965C232.073 571.937 220.074 547.663 217.815 523.575C215.534 499.269 221.935 474.912 231.84 452.422" stroke="white" stroke-miterlimit="10" />
    </g>
    <g style="mix-blend-mode:multiply">
      <path d="M1167.78 655.904C1151.61 621.751 1105.2 608.545 1068.54 619.851C1033.59 630.633 1006.25 657.769 979.223 682.065C952.829 705.833 921.774 727.627 887.982 726.311C844.815 724.526 810.468 685.932 764.981 682.639C728.026 679.961 695.044 699.039 671.484 723.709C657.706 738.154 648.066 756.952 636.47 774.173C590.54 842.451 622.873 918.927 574.425 958.97C522.647 1001.73 475.38 992.355 452.166 978.797C423.063 961.81 366.501 909.477 395.843 833.911C408.147 802.226 419.334 768.677 423.5 733.95C429.722 683.716 401.438 628.604 353.967 613.641C320.768 603.166 281.548 611.313 251.036 592.534C229.741 579.519 217.144 556.017 213.634 532.414C210.056 508.338 214.761 483.781 223.479 460.729" stroke="white" stroke-miterlimit="10" />
    </g>
    <g style="mix-blend-mode:multiply">
      <path d="M1167.18 658.217C1149.33 623.738 1102.35 609.137 1064.39 620.245C1029 630.59 1001.08 657.88 974.421 682.868C948.691 706.968 919.075 729.458 886.237 729.739C844.323 730.004 809.687 694.734 764.388 691.745C726.892 689.261 693.306 706.148 668.34 729.561C653.473 743.495 642.411 762.221 630.176 779.928C584.795 845.585 614.714 919.871 567.401 959.139C517.213 1000.71 470.946 992.865 447.486 979.859C418.367 963.788 364.21 913.301 390.55 840.138C401.793 808.9 411.774 775.439 415.823 741.042C421.588 692.12 394.957 638.869 349.607 623.183C317.492 612.084 279.183 618.567 248.894 600.184C227.403 587.132 214.116 564.426 209.383 541.336C204.498 517.488 207.505 492.741 215.049 469.119" stroke="white" stroke-miterlimit="10" />
    </g>
    <g style="mix-blend-mode:multiply">
      <path d="M1166.62 660.548C1147.07 625.826 1099.56 609.754 1060.27 620.69C1024.47 630.578 995.921 657.993 969.653 683.657C944.582 708.119 916.415 731.254 884.549 733.156C843.889 735.462 808.908 703.526 763.843 700.817C725.739 698.548 691.586 713.217 665.244 735.39C649.254 748.872 636.81 767.49 623.915 785.679C579.193 848.757 606.589 920.811 560.439 959.267C511.833 999.631 466.674 993.257 442.87 980.869C413.734 965.715 361.912 917.049 385.296 846.329C395.486 815.497 404.327 782.179 408.21 748.082C413.611 700.491 388.521 649.068 345.308 632.684C314.304 620.933 276.847 625.838 246.807 607.77C225.098 594.74 211.132 572.78 205.186 550.203C198.97 526.536 200.305 501.636 206.659 477.463" stroke="white" stroke-miterlimit="10" />
    </g>
    <g style="mix-blend-mode:multiply">
      <path d="M1166.05 662.877C1144.8 627.891 1096.74 610.375 1056.15 621.047C1019.9 630.584 990.791 658.114 964.853 684.504C940.46 709.333 913.69 733.166 882.825 736.642C843.427 741.064 808.185 712.362 763.273 709.971C724.605 707.903 689.792 720.337 662.11 741.298C644.992 754.251 631.212 772.75 617.627 791.458C573.629 852.012 598.437 921.778 553.44 959.42C506.436 998.587 462.336 993.712 438.225 981.916C409.066 967.71 359.559 920.755 380.016 852.549C389.116 822.094 396.864 788.938 400.556 755.168C405.611 708.922 382.067 659.253 341.022 642.23C311.098 629.822 274.517 633.132 244.729 615.424C222.805 602.394 208.125 581.195 201.012 559.119C193.441 535.703 193.135 510.592 198.303 485.857" stroke="white" stroke-miterlimit="10" />
    </g>
    <g style="mix-blend-mode:multiply">
      <path d="M1165.47 665.194C1142.53 629.933 1093.94 611 1052.02 621.437C1015.36 630.57 985.635 658.196 960.072 685.311C936.318 710.488 911.067 734.99 881.112 740.076C842.958 746.589 807.414 721.166 762.704 719.061C723.446 717.22 687.983 727.368 658.997 747.103C640.723 759.607 625.615 777.998 611.353 797.163C568.157 855.23 590.299 922.673 546.455 959.5C501.043 997.467 458.013 994.093 433.584 982.889C404.435 969.518 357.112 924.335 374.751 858.685C383.311 827.037 389.389 794.768 392.929 762.172C397.63 717.259 375.61 669.34 336.67 651.677C307.818 638.6 272.118 640.337 242.585 622.977C220.475 609.965 205.033 589.495 196.749 567.941C187.812 544.72 185.869 519.442 189.86 494.148" stroke="white" stroke-miterlimit="10" />
    </g>
    <g style="mix-blend-mode:multiply">
      <path d="M1164.88 667.509C1140.26 631.987 1091.1 611.638 1047.89 621.835C1010.8 630.577 980.468 658.287 955.28 686.117C932.145 711.638 908.391 736.815 879.397 743.52C842.504 752.043 806.65 729.993 762.131 728.171C722.298 726.54 686.144 734.393 655.866 753C636.428 764.937 620.025 783.323 605.061 802.962C562.723 858.585 582.151 923.672 539.432 959.669C495.599 996.444 453.644 994.541 428.906 983.94C399.757 971.458 346.325 925.422 369.477 864.926C380.35 836.376 381.961 802.406 385.273 769.268C389.63 725.69 369.139 679.5 332.288 661.226C304.503 647.446 269.698 647.655 240.428 630.593C219.274 618.092 202.541 599.315 192.56 576.875C182.244 553.868 178.696 528.418 181.5 502.562" stroke="white" stroke-miterlimit="10" />
    </g>
    <g style="mix-blend-mode:multiply">
      <path d="M1164.3 669.837C1138.03 634.048 1088.33 612.332 1043.76 622.235C1006.26 630.606 975.292 658.365 950.487 686.932C928.034 712.8 905.715 738.64 877.684 746.954C842.054 757.529 805.886 738.82 761.557 737.291C721.145 735.88 684.294 741.416 652.739 758.877C632.129 770.287 614.44 788.627 598.784 808.741C557.352 861.952 574.002 924.629 532.465 959.827C490.255 995.409 449.343 994.981 424.293 984.993C395.158 973.38 343.045 928.99 364.197 871.145C374.497 842.955 374.499 809.165 377.622 776.343C381.646 734.102 362.675 689.576 328.005 670.761C301.281 656.256 267.367 654.959 238.347 638.266C216.968 625.929 199.588 607.709 188.281 585.78C176.53 562.66 171.263 536.796 173.041 510.936" stroke="white" stroke-miterlimit="10" />
    </g>
    <g style="mix-blend-mode:multiply">
      <path d="M1163.72 672.155C1135.73 636.096 1085.54 612.948 1039.63 622.633C1001.68 630.62 970.118 658.434 945.672 687.744C923.842 713.936 903.009 740.449 875.938 750.393C841.565 762.987 805.09 747.641 760.967 746.377C719.965 745.194 682.425 748.371 649.586 764.717C627.789 775.566 608.849 793.899 592.473 814.472C552.002 865.312 565.826 925.549 525.443 959.933C484.803 994.311 444.998 995.359 419.614 985.992C390.508 975.229 339.827 932.571 358.893 877.317C368.572 849.402 367.024 815.879 369.957 783.374C373.647 742.469 356.179 699.582 323.65 680.273C297.991 665.022 264.964 662.239 236.202 645.874C214.607 633.67 196.606 616.001 184.009 594.644C170.748 571.77 164.029 545.699 164.588 519.279" stroke="white" stroke-miterlimit="10" />
    </g>
    <g style="mix-blend-mode:multiply">
      <path d="M1163.15 674.482C1133.46 638.149 1082.74 613.615 1035.51 623.012C997.171 630.645 964.938 658.479 940.916 688.535C919.727 715.065 900.369 742.259 874.248 753.821C841.136 768.478 804.359 756.464 760.442 755.464C718.869 754.523 680.571 755.307 646.509 770.561C623.525 780.847 603.342 799.186 586.235 820.217C546.773 868.717 557.735 926.484 518.515 960.056C479.457 993.232 440.737 995.753 415.032 986.997C385.902 977.074 336.758 936.212 353.674 883.494C362.576 855.782 359.632 822.608 362.366 790.417C365.733 750.851 349.788 709.554 319.389 689.748C294.81 673.787 262.629 669.509 234.124 653.472C211.094 640.517 192.598 623.05 179.842 603.528C165.07 580.907 156.897 554.625 156.24 527.631" stroke="white" stroke-miterlimit="10" />
    </g>
    <g style="mix-blend-mode:multiply">
      <path d="M1162.57 676.8C1131.19 640.203 1079.96 614.297 1031.38 623.433C992.62 630.706 959.74 658.565 936.118 689.372C915.544 716.213 897.701 744.097 872.531 757.276C840.684 773.975 803.591 765.312 759.857 764.583C717.678 763.899 678.673 762.246 643.373 776.426C619.194 786.139 597.795 804.509 579.939 825.983C541.524 872.172 549.616 927.447 511.497 960.195C474.029 992.181 436.411 996.146 410.358 988.028C381.298 978.964 343.926 941.838 348.386 889.701C350.829 861.059 352.17 829.368 354.708 797.471C357.74 759.251 343.335 719.515 315.035 699.26C291.522 682.436 260.25 676.783 232.015 661.066C208.767 648.133 189.449 631.426 175.624 612.392C159.338 590.037 149.704 563.541 147.832 535.962" stroke="white" stroke-miterlimit="10" />
    </g>
    <g style="mix-blend-mode:multiply">
      <path d="M1161.99 679.128C1128.91 642.267 1077.16 614.985 1027.25 623.821C988.081 630.758 954.537 658.616 931.337 690.179C911.366 717.33 895.017 745.909 870.815 760.72C840.223 779.459 802.829 774.183 759.284 773.693C716.548 773.233 676.789 769.166 640.248 782.292C614.865 791.419 592.275 809.858 573.686 831.746C536.291 875.651 541.516 928.478 504.521 960.342C468.715 991.206 432.119 996.534 405.738 989.059C376.698 980.833 341.004 945.219 343.128 895.913C344.34 867.492 344.752 836.124 347.079 804.539C349.804 767.63 336.976 729.429 310.731 708.791C288.249 691.118 257.877 684.079 229.898 668.7C206.421 655.786 186.288 639.863 171.398 621.297C153.596 599.225 142.499 572.518 139.425 544.345" stroke="white" stroke-miterlimit="10" />
    </g>
    <g style="mix-blend-mode:multiply">
      <path d="M1161.4 681.443C1126.64 644.32 1074.36 615.686 1023.12 624.221C983.54 630.821 949.324 658.666 926.543 690.995C907.185 718.467 892.343 747.724 869.101 764.164C839.754 784.931 802.061 783.03 758.722 782.805C715.384 782.581 674.902 776.053 637.129 788.128C610.551 796.627 586.784 815.17 567.388 837.468C531.165 879.13 533.354 929.389 497.512 960.438C463.298 990.103 427.793 996.873 401.083 990.05C372.077 982.644 337.935 948.529 337.797 902.058C337.737 873.85 337.258 842.824 339.386 811.553C341.794 776.004 330.499 739.234 306.354 718.255C285.025 699.714 255.468 691.282 227.747 676.284C204.042 663.391 183.083 648.249 167.139 630.152C147.83 608.366 135.27 581.447 130.986 552.669" stroke="white" stroke-miterlimit="10" />
    </g>
    <g style="mix-blend-mode:multiply">
      <path d="M1160.82 683.771C1124.37 646.374 1071.57 616.388 1018.99 624.619C979 630.873 944.102 658.704 921.751 691.801C902.995 719.593 889.66 749.526 867.385 767.609C839.295 790.406 801.29 791.888 758.149 791.916C714.243 791.966 673.029 782.912 634 794.015C606.224 801.897 581.298 820.568 561.098 843.257C526.013 882.689 525.199 930.366 490.519 960.614C457.889 989.066 423.479 997.257 396.425 991.106C367.455 984.509 334.746 951.901 332.556 908.295C331.151 880.287 329.866 849.607 331.773 818.647C333.879 784.441 324.17 749.101 302.056 727.809C281.875 708.368 253.089 698.662 225.673 683.916C201.739 671.043 179.951 656.703 162.956 639.055C142.133 617.571 128.104 590.436 122.624 561.04" stroke="white" stroke-miterlimit="10" />
    </g>
    <g style="mix-blend-mode:multiply">
      <path d="M1160.25 686.089C1122.11 648.429 1068.79 617.112 1014.86 625.019C974.458 630.946 938.871 658.74 916.969 692.619C898.798 720.706 886.987 751.341 865.671 771.054C838.827 795.878 800.531 800.748 757.579 801.016C713.073 801.293 671.142 789.799 630.877 799.872C601.912 807.096 575.837 825.95 554.815 849.014C520.853 886.236 517.052 931.313 483.525 960.746C452.486 987.999 419.183 997.612 391.798 992.178C362.854 986.388 331.478 955.301 327.301 914.551C324.454 886.745 322.482 856.413 324.126 825.755C325.93 792.892 317.859 758.939 297.736 737.37C278.722 716.989 250.737 706.016 223.563 691.573C199.396 678.74 176.776 665.212 158.736 647.993C136.405 626.822 120.905 599.475 114.221 569.457" stroke="white" stroke-miterlimit="10" />
    </g>
    <g style="mix-blend-mode:multiply">
      <path d="M1159.67 688.396C1119.84 650.483 1065.99 617.833 1010.78 625.427C969.966 631.029 933.67 658.781 912.226 693.444C894.641 721.827 884.355 753.153 864.008 774.498C838.411 801.35 799.82 809.629 757.068 810.138C711.997 810.679 669.313 796.655 627.805 805.738C597.621 812.341 570.453 831.368 548.593 854.783C515.853 889.835 508.988 932.264 476.582 960.888C447.126 986.928 414.931 997.955 387.197 993.159C358.283 988.156 328.072 958.632 322.065 920.704C317.698 893.117 315.087 863.099 316.581 832.776C318.094 801.247 311.685 768.665 293.507 746.841C275.717 725.499 248.444 713.284 221.541 699.151C197.144 686.348 173.693 673.632 154.608 656.832C130.771 635.984 113.796 608.425 105.911 577.774" stroke="white" stroke-miterlimit="10" />
    </g>
    <g style="mix-blend-mode:multiply">
      <path d="M1159.09 690.734C1117.57 652.536 1063.21 618.558 1006.6 625.817C965.382 631.094 928.389 658.797 907.383 694.24C890.381 722.928 881.574 754.916 862.242 777.933C837.835 806.769 798.999 818.477 756.446 819.228C710.772 820.006 667.417 803.477 624.631 811.584C593.268 817.531 564.994 836.794 542.258 860.531C510.725 893.442 500.696 933.13 469.546 961.013C441.628 985.8 410.566 998.276 382.495 994.174C353.624 989.949 324.47 962.042 316.739 926.882C310.412 898.3 307.76 869.03 308.847 839.782C310.078 809.6 305.381 778.354 289.097 756.31C272.583 733.964 245.984 720.531 219.341 706.716C194.713 693.943 170.429 682.05 150.289 665.665C124.96 645.14 106.51 617.373 97.4112 586.086" stroke="white" stroke-miterlimit="10" />
    </g>
    <g style="mix-blend-mode:multiply">
      <path d="M1158.51 693.062C1115.3 654.59 1060.36 619.29 1002.48 626.217C960.837 631.178 923.135 658.839 902.6 695.058C886.163 724.037 878.89 756.782 860.517 781.375C837.415 812.262 798.235 827.358 755.873 828.338C709.629 829.412 665.541 810.302 621.505 817.451C588.947 822.77 559.62 842.278 535.964 866.286C505.655 897.071 492.548 934.076 462.537 961.164C436.211 984.751 406.253 998.606 377.801 995.201C348.951 991.751 320.769 965.572 311.399 933.132C303.522 905.098 300.06 876.013 301.14 846.921C302.081 818.074 299.147 788.175 284.686 765.896C269.534 742.54 243.509 727.968 217.148 714.41C192.287 701.678 167.147 690.614 145.987 674.631C119.166 654.433 99.2378 626.454 88.9296 594.52" stroke="white" stroke-miterlimit="10" />
    </g>
    <g style="mix-blend-mode:multiply">
      <path d="M1157.94 695.379C1113.03 656.643 1057.62 620.044 998.347 626.605C956.286 631.291 917.862 658.867 897.8 695.904C881.926 725.185 876.205 758.594 858.794 784.86C836.895 817.777 797.449 836.351 755.294 837.479C708.455 838.919 663.669 817.16 618.374 823.348C584.646 827.959 554.274 847.832 529.723 872.094C500.626 900.771 484.444 935.073 455.59 961.326C430.856 983.713 401.991 998.947 373.249 996.266C344.507 993.585 317.129 969.231 306.229 939.33C296.554 912.789 292.872 883.377 293.589 853.973C294.261 826.463 293.143 797.912 280.47 775.412C266.738 751.027 241.21 735.267 215.131 722.021C190.03 709.37 164.103 699.106 141.872 683.514C113.557 663.656 92.1478 635.463 80.6352 602.871" stroke="white" stroke-miterlimit="10" />
    </g>
    <g style="mix-blend-mode:multiply">
      <path d="M1157.4 697.715C1110.8 658.737 1054.9 620.898 994.274 627.015C951.807 631.419 912.63 658.902 893.014 696.679C877.663 726.243 873.526 760.376 857.107 788.268C836.432 823.218 796.731 845.155 754.766 846.523C707.336 848.191 661.863 823.902 615.287 829.126C580.374 833.058 549.015 853.328 523.445 877.767C495.603 904.377 476.301 935.935 448.611 961.376C425.458 982.561 397.678 999.16 368.601 997.217C339.8 995.284 313.34 972.936 300.954 945.464C289.241 919.492 285.5 890.058 285.955 860.955C286.356 834.795 287.106 807.6 276.15 784.855C263.931 759.458 238.838 742.499 212.968 729.56C187.638 716.93 160.88 707.531 137.6 692.324C107.805 672.817 84.9131 644.428 72.1753 611.191" stroke="white" stroke-miterlimit="10" />
    </g>
    <g style="mix-blend-mode:multiply">
      <path d="M1156.77 700.022C1108.5 660.721 1052.03 621.562 990.088 627.403C947.209 631.449 907.297 658.908 888.227 697.517C873.459 727.387 870.849 762.211 855.373 791.698C835.971 828.703 795.945 853.989 754.148 855.646C706.135 857.564 659.966 830.724 612.115 835.016C576.028 838.26 543.714 858.986 517.083 883.541C490.452 908.096 468.073 936.909 441.525 961.533C419.973 981.531 393.273 999.462 363.873 998.248C335.09 997.056 309.459 976.902 295.593 951.656C281.727 926.411 278.052 896.798 278.221 868.014C278.373 843.196 281.026 817.397 271.741 794.376C261.089 767.957 236.38 749.788 210.821 737.178C185.263 724.567 157.682 716.047 133.343 701.223C102.082 682.048 77.7263 653.441 63.7963 619.537" stroke="white" stroke-miterlimit="10" />
    </g>
  </g>
</svg>
  