<svg width="955" height="1220" viewBox="0 0 955 1220" fill="none" xmlns="http://www.w3.org/2000/svg">
  <g style="mix-blend-mode:multiply">
    <path d="M-302.859 421.799C-280.225 437.909 -256.628 452.668 -232.196 465.998C-221.342 471.922 -210.022 477.65 -197.712 479.269C-166.234 483.417 -138.011 460.237 -117.715 436.137C-99.0096 413.914 -83.0501 389.586 -70.173 363.666C-57.4594 338.054 -47.5011 310.47 -29.0355 288.428C-10.5698 266.385 19.6134 250.629 47.335 258.903C63.8329 263.828 77.0481 276.619 85.39 291.456C93.7319 306.293 97.6969 323.134 100.404 339.894C103.493 359.093 105.465 379.529 117.176 395.156C129.305 411.335 151.467 419.532 171.446 415.227C199.868 409.1 217.737 382.419 235.937 360.049C259.071 331.631 288.575 306.474 324.279 297.047C359.982 287.621 402.446 297.158 423.958 326.678" stroke="white" stroke-opacity="0.04" stroke-miterlimit="10" />
  </g>
  <g style="mix-blend-mode:multiply">
    <path d="M-301.605 413.495C-279.375 429.352 -256.135 443.793 -232.028 456.729C-221.32 462.484 -210.185 468.023 -198.081 469.624C-173.767 472.845 -151.353 459.859 -133.016 442.974C-128.087 438.4 -123.406 433.575 -118.991 428.519C-100.291 407.177 -84.2401 383.72 -71.1783 358.645C-58.2424 333.83 -48.1419 307.035 -29.7491 285.603C-19.4335 273.589 -5.90497 263.257 8.85713 257.379C21.7147 252.275 35.607 250.597 48.9005 254.397C51.2776 255.068 53.603 255.904 55.8594 256.899C69.7429 262.961 80.8363 274.581 88.3636 287.777C90.7649 291.988 92.8825 296.351 94.7028 300.836C99.4926 312.512 102.601 324.9 105.144 337.155C109.213 356.563 112.709 376.714 125.139 392.067C137.569 407.42 158.803 415.365 178.34 411.26C206.135 405.415 223.885 379.969 241.923 358.805C243.342 357.143 244.794 355.48 246.256 353.848C268.465 329.066 295.904 307.951 328.355 300.174C362.943 291.886 403.755 301.857 424.28 330.876" stroke="white" stroke-opacity="0.04" stroke-miterlimit="10" />
  </g>
  <g style="mix-blend-mode:multiply">
    <path d="M-300.374 405.22C-278.537 420.816 -255.656 434.944 -231.887 447.509C-221.336 453.09 -210.355 458.432 -198.466 460.018C-174.599 463.161 -152.477 450.89 -134.27 434.741C-129.372 430.363 -124.704 425.742 -120.284 420.896C-101.612 400.419 -85.4793 377.83 -72.2267 353.605C-59.0931 329.676 -48.8247 303.581 -30.4685 282.733C-19.6864 270.487 -5.83996 259.776 9.29392 253.515C22.4795 248.128 36.7671 246.106 50.5589 249.801C53.0157 250.463 55.4217 251.296 57.7586 252.292C72.1567 258.399 83.5441 270.4 91.4488 283.895C93.9574 288.221 96.1936 292.695 98.145 297.293C103.245 309.234 106.861 321.844 110.002 334.228C115.041 353.918 120.029 373.723 133.229 388.823C145.783 403.151 166.268 411.042 185.362 407.137C212.528 401.564 230.152 377.363 248.028 357.403C249.433 355.832 250.864 354.274 252.323 352.729C274.285 329.396 301.141 309.852 332.544 303.149C366.028 295.998 405.184 306.388 424.717 334.928" stroke="white" stroke-opacity="0.04" stroke-miterlimit="10" />
  </g>
  <g style="mix-blend-mode:multiply">
    <path d="M-299.139 396.93C-277.696 412.296 -255.161 426.126 -231.706 438.315C-221.329 443.673 -210.502 448.884 -198.809 450.449C-175.351 453.589 -153.565 441.939 -135.481 426.546C-130.613 422.359 -125.965 417.93 -121.558 413.274C-102.885 393.672 -86.6597 371.942 -73.2275 348.547C-59.8889 325.395 -49.4695 300.146 -31.2164 279.882C-19.9674 267.372 -5.81334 256.318 9.70908 249.656C23.1731 243.906 37.9391 241.62 52.1292 245.244C54.6797 245.889 57.1796 246.714 59.6097 247.711C74.5127 253.867 86.2009 266.236 94.4861 280.139C97.1066 284.571 99.4661 289.149 101.553 293.849C107.007 306.052 111.037 318.906 114.822 331.424C120.825 351.313 127.294 370.832 141.28 385.695C153.927 399.139 173.686 406.815 192.344 403.13C218.888 397.848 236.379 374.873 254.094 356.117C255.495 354.634 256.903 353.17 258.35 351.727C280.077 329.84 306.347 311.858 336.713 306.227C369.091 300.214 406.59 311.046 425.124 339.086" stroke="white" stroke-opacity="0.04" stroke-miterlimit="10" />
  </g>
  <g style="mix-blend-mode:multiply">
    <path d="M-297.935 388.647C-276.895 403.745 -254.722 417.249 -231.607 429.043C-221.361 434.272 -210.712 439.25 -199.243 440.804C-176.213 443.891 -154.748 432.868 -136.793 418.279C-131.885 414.277 -127.236 409.998 -122.893 405.666C-104.224 386.967 -87.8946 366.131 -74.2562 343.606C-60.7556 321.3 -50.0413 296.798 -31.9476 277.116C-20.2251 264.36 -5.74658 252.946 10.1643 245.918C23.9298 239.839 39.1278 237.249 53.7395 240.806C56.3627 241.439 58.9354 242.259 61.4376 243.259C76.8253 249.47 88.8477 262.206 97.4902 276.481C100.224 281.026 102.702 285.716 104.915 290.53C110.71 302.989 115.266 316.059 119.608 328.719C126.6 348.907 134.471 368.044 149.288 382.668C162.02 395.239 181.087 402.732 199.276 399.168C225.198 394.178 242.56 372.439 260.113 354.889C261.494 353.51 262.898 352.135 264.292 350.796C285.796 330.364 311.471 313.949 340.799 309.39C372.053 304.522 407.905 315.769 425.457 343.325" stroke="white" stroke-opacity="0.04" stroke-miterlimit="10" />
  </g>
  <g style="mix-blend-mode:multiply">
    <path d="M-296.673 380.337C-276.035 395.185 -254.219 408.376 -231.437 419.782C-221.336 424.843 -210.857 429.64 -199.587 431.162C-176.998 434.223 -155.834 423.887 -138.035 409.958C-133.141 406.178 -128.513 402.101 -124.167 397.975C-105.511 380.152 -89.0902 360.186 -75.2592 338.508C-61.5631 317.05 -50.6234 293.319 -32.6456 274.215C-20.4495 261.214 -5.66303 249.425 10.623 241.989C24.6935 235.592 40.3233 232.699 55.3601 236.164C58.0616 236.783 60.712 237.601 63.289 238.611C79.2217 244.856 91.5182 257.98 100.528 272.623C103.366 277.283 105.965 282.081 108.317 286.997C114.445 299.726 119.47 313.032 124.423 325.827C132.362 346.262 141.653 365.033 157.332 379.45C170.121 391.157 188.504 398.43 206.278 395.112C231.564 390.407 248.808 369.903 266.189 353.563C267.566 352.273 268.95 351.002 270.36 349.745C291.638 330.791 316.742 315.914 344.999 312.429C375.152 308.709 409.362 320.381 425.904 347.437" stroke="white" stroke-opacity="0.04" stroke-miterlimit="10" />
  </g>
  <g style="mix-blend-mode:multiply">
    <path d="M-295.439 372.045C-275.198 386.639 -253.736 399.514 -231.286 410.532C-221.352 415.422 -211.038 420.024 -199.974 421.528C-177.808 424.545 -156.966 414.87 -139.29 401.7C-134.433 398.106 -129.822 394.242 -125.471 390.332C-106.822 373.396 -90.3115 354.305 -76.2968 333.474C-62.3981 312.851 -51.2029 289.948 -33.3872 271.384C-20.6909 258.151 -5.62294 245.94 11.0615 238.166C25.4535 231.434 41.4986 228.254 56.9538 231.641C59.7414 232.246 62.4772 233.062 65.1367 234.083C81.5677 240.356 94.1684 253.859 103.552 268.89C106.54 273.68 109.224 278.624 111.705 283.59C118.161 296.567 123.666 310.117 129.216 323.039C138.11 343.741 148.778 362.182 165.367 376.332C178.117 387.227 195.915 394.236 213.235 391.122C237.903 386.686 255.012 367.435 272.242 352.299C273.595 351.103 274.975 349.921 276.365 348.769C297.409 331.232 321.908 317.96 349.15 315.552C378.239 312.957 410.729 325.024 426.301 351.665" stroke="white" stroke-opacity="0.04" stroke-miterlimit="10" />
  </g>
  <g style="mix-blend-mode:multiply">
    <path d="M-294.219 363.742C-274.372 378.078 -253.265 390.637 -231.15 401.27C-221.361 405.991 -211.212 410.398 -200.363 411.886C-178.621 414.86 -158.1 405.847 -140.549 393.426C-135.723 390.038 -131.116 386.394 -126.766 382.68C-108.14 366.633 -91.5481 348.426 -77.3523 328.454C-63.2707 308.673 -51.8162 286.576 -34.1326 268.543C-20.9458 255.082 -5.56675 242.537 11.473 234.329C26.1467 227.276 42.647 223.762 58.5372 227.087C61.4054 227.679 64.2219 228.492 66.961 229.518C83.9069 235.836 96.8018 249.72 106.593 265.107C109.698 270.014 112.495 275.065 115.1 280.135C121.9 293.378 127.892 307.157 134.043 320.217C143.905 341.16 155.896 359.276 173.415 373.185C186.127 383.267 203.344 390 220.222 387.085C244.254 382.935 261.261 364.97 278.305 350.996C279.652 349.894 281.014 348.812 282.39 347.751C303.202 331.675 327.117 319.971 353.308 318.629C381.242 317.19 412.146 329.716 426.744 355.768" stroke="white" stroke-opacity="0.04" stroke-miterlimit="10" />
  </g>
  <g style="mix-blend-mode:multiply">
    <path d="M-292.987 355.443C-273.537 369.53 -252.782 381.776 -230.999 392.019C-221.375 396.545 -211.42 400.8 -200.75 402.25C-179.449 405.162 -159.296 396.805 -141.807 385.157C-137.015 381.966 -132.419 378.554 -128.069 375.037C-109.433 359.878 -92.7333 342.542 -78.3384 323.409C-64.0603 304.478 -52.3297 283.204 -34.8345 265.699C-21.154 252.02 -5.48015 239.091 11.9382 230.486C26.9168 223.114 43.8491 219.296 60.1576 222.543C63.1085 223.126 66.0087 223.934 68.8323 224.96C86.2798 231.316 99.4921 245.617 109.601 261.355C112.822 266.38 115.747 271.545 118.472 276.709C125.606 290.22 132.105 304.223 138.824 317.421C149.661 338.624 162.955 356.422 181.427 370.061C194.06 379.374 210.731 385.797 227.166 383.082C250.582 379.211 267.446 362.437 284.345 349.723C285.674 348.721 287.02 347.735 288.383 346.766C308.96 332.143 332.261 322.016 357.448 321.748C384.257 321.455 413.514 334.395 427.078 359.973" stroke="white" stroke-opacity="0.04" stroke-miterlimit="10" />
  </g>
  <g style="mix-blend-mode:multiply">
    <path d="M-291.763 347.12C-272.71 360.956 -252.311 372.89 -230.866 382.747C-221.394 387.117 -211.571 391.143 -201.146 392.587C-180.259 395.485 -160.387 387.744 -143.071 376.873C-138.312 373.878 -133.723 370.676 -129.377 367.378C-110.754 353.102 -93.9609 336.643 -79.3688 318.364C-64.9005 300.264 -52.8902 279.824 -35.57 262.854C-21.3588 248.933 -5.43029 235.635 12.38 226.639C27.6602 218.938 45.0444 214.809 61.7514 217.984C64.783 218.553 67.7642 219.357 70.6669 220.39C88.6327 226.8 102.113 241.436 112.625 257.586C115.957 262.708 119.002 268 121.85 273.268C129.325 287.035 136.292 301.274 143.629 314.594C155.437 336.047 169.973 353.579 189.456 366.917C201.983 375.481 218.144 381.571 234.133 379.046C256.914 375.46 273.663 359.935 290.388 348.424C291.714 347.51 293.047 346.617 294.389 345.753C314.736 332.559 337.483 324.058 361.598 324.831C387.296 325.691 414.899 339.056 427.461 364.128" stroke="white" stroke-opacity="0.04" stroke-miterlimit="10" />
  </g>
  <g style="mix-blend-mode:multiply">
    <path d="M-290.532 338.815C-271.883 352.375 -251.846 363.974 -230.751 373.421C-221.424 377.622 -211.769 381.475 -201.553 382.89C-181.094 385.733 -161.553 378.625 -144.351 368.535C-139.62 365.757 -135.052 362.758 -130.66 359.696C-112.046 346.312 -95.1621 330.731 -80.383 313.3C-65.7177 296.053 -53.4041 276.451 -36.2787 259.99C-21.5769 245.873 -5.3501 232.169 12.8388 222.775C28.4139 214.758 46.2202 210.329 63.3755 213.415C66.4893 213.973 69.5525 214.777 72.5353 215.82C91.0128 222.265 104.817 237.272 115.677 253.796C119.116 259.039 122.274 264.438 125.256 269.807C133.065 283.843 140.52 298.312 148.447 311.772C161.247 333.469 177.006 350.741 197.515 363.762C209.9 371.599 225.564 377.329 241.12 375.001C263.315 371.683 279.887 357.417 296.466 347.124C297.768 346.306 299.09 345.514 300.419 344.742C320.538 333.022 342.685 326.041 365.816 327.915C390.406 329.906 416.368 343.703 427.932 368.276" stroke="white" stroke-opacity="0.04" stroke-miterlimit="10" />
  </g>
  <g style="mix-blend-mode:multiply">
    <path d="M-289.307 330.498C-271.05 343.828 -251.359 355.129 -230.591 364.197C-221.422 368.221 -211.936 371.869 -201.932 373.278C-181.908 376.079 -162.658 369.658 -145.598 360.302C-140.924 357.685 -136.3 354.92 -131.988 352.048C-113.379 339.556 -96.3952 324.855 -81.4186 308.275C-66.5694 291.874 -53.9623 273.113 -37.0282 257.172C-21.839 242.85 -5.30734 228.726 13.2568 218.958C29.147 210.618 47.3787 205.865 64.9558 208.882C68.1566 209.43 71.3063 210.236 74.373 211.293C93.3555 217.785 107.461 233.16 118.695 250.073C122.237 255.425 125.539 260.988 128.598 266.422C136.708 280.726 144.676 295.405 153.195 309.006C166.966 330.953 183.886 348.041 205.495 360.666C217.73 367.821 232.967 373.134 248.031 371.023C269.559 368 286.054 354.962 302.47 345.87C303.762 345.154 305.061 344.457 306.376 343.777C326.255 333.526 347.821 328.092 369.828 331.08C393.307 334.224 417.594 348.387 428.175 372.511" stroke="white" stroke-opacity="0.04" stroke-miterlimit="10" />
  </g>
  <g style="mix-blend-mode:multiply">
    <path d="M-288.091 322.18C-270.227 335.251 -250.888 346.234 -230.463 354.911C-221.409 358.756 -212.127 362.221 -202.329 363.61C-182.727 366.376 -163.801 360.608 -146.866 352.005C-142.189 349.627 -137.652 347.065 -133.29 344.374C-114.699 332.756 -97.6289 318.918 -82.4679 303.175C-67.4246 287.616 -54.5037 269.725 -37.7709 254.273C-22.0175 239.743 -5.3009 225.24 13.682 215.06C29.8771 206.401 48.5408 201.343 66.5465 204.279C69.8243 204.798 73.0543 205.579 76.2048 206.612C95.6891 213.142 110.102 228.905 121.704 246.185C125.363 251.655 128.745 257.292 132.001 262.85C140.471 277.403 148.938 292.308 158.03 306.067C172.807 328.231 190.849 345.189 213.552 357.398C225.607 363.882 240.363 368.784 255.038 366.899C275.941 364.158 292.349 352.351 308.582 344.469C309.863 343.855 311.158 343.247 312.423 342.681C332.079 333.882 353.048 330.046 374.054 334.086C396.418 338.374 419.066 353.011 428.629 376.577" stroke="white" stroke-opacity="0.04" stroke-miterlimit="10" />
  </g>
  <g style="mix-blend-mode:multiply">
    <path d="M-286.864 313.868C-269.393 326.684 -250.405 337.35 -230.322 345.63C-221.463 349.322 -212.317 352.58 -202.728 353.94C-183.55 356.661 -164.962 351.507 -148.132 343.715C-143.485 341.545 -138.958 339.183 -134.601 336.712C-116.016 325.993 -98.8489 313.041 -83.4914 298.153C-68.2537 283.438 -55.0222 266.406 -38.4872 251.455C-22.2095 236.73 -5.19116 221.797 14.1338 211.242C30.6206 202.257 49.7264 196.891 68.1505 199.748C71.5089 200.264 74.8179 201.056 78.043 202.116C98.0024 208.703 112.756 224.788 124.729 242.479C128.505 248.067 132.021 253.804 135.39 259.469C144.195 274.291 153.169 289.419 162.829 303.316C178.591 325.736 197.752 342.588 221.586 354.325C233.464 360.178 247.77 364.628 261.988 362.902C282.252 360.437 298.514 349.914 314.6 343.219C315.868 342.697 317.143 342.194 318.435 341.708C337.856 334.365 358.246 332.11 378.2 337.219C399.463 342.658 420.453 357.71 429.029 380.782" stroke="white" stroke-opacity="0.04" stroke-miterlimit="10" />
  </g>
  <g style="mix-blend-mode:multiply">
    <path d="M-285.639 305.544C-268.562 318.105 -249.925 328.454 -230.185 336.336C-221.475 339.848 -212.451 342.906 -203.118 344.263C-184.388 346.935 -166.077 342.508 -149.402 335.412C-144.776 333.446 -140.262 331.34 -135.915 329.037C-117.337 319.223 -100.071 307.161 -84.5156 293.129C-69.08 279.268 -55.5244 263.104 -39.2137 248.64C-22.385 233.733 -5.12829 218.38 14.5854 207.424C31.3774 198.12 50.9152 192.449 69.7579 195.226C73.1989 195.733 76.5917 196.521 79.9014 197.58C100.416 204.198 115.434 220.707 127.768 238.747C131.657 244.441 135.29 250.296 138.793 256.062C147.928 271.142 157.36 286.51 167.652 300.534C184.382 323.194 204.652 340.009 229.627 351.204C241.358 356.417 255.194 360.419 268.966 358.884C288.613 356.697 304.732 347.404 320.656 341.945C321.917 341.535 323.188 341.121 324.45 340.71C343.648 334.821 363.444 334.142 382.364 340.336C402.515 346.93 421.846 362.396 429.463 384.954" stroke="white" stroke-opacity="0.04" stroke-miterlimit="10" />
  </g>
  <g style="mix-blend-mode:multiply">
    <path d="M-284.419 297.208C-267.734 309.518 -249.446 319.553 -230.049 327.04C-221.488 330.372 -212.675 333.259 -203.501 334.57C-185.189 337.216 -167.246 333.447 -150.655 327.091C-146.059 325.332 -141.563 323.407 -137.203 321.341C-118.634 312.433 -101.273 301.254 -85.5283 288.069C-69.8981 275.053 -55.9982 259.814 -39.9117 245.805C-22.5418 230.72 -5.03988 214.933 15.0461 203.591C32.15 193.955 52.1203 187.979 71.4083 190.724C74.9313 191.209 78.4057 191.993 81.7929 193.067C102.82 199.719 118.132 216.609 130.834 235.018C134.841 240.83 138.574 246.753 142.214 252.662C151.693 268.008 161.619 283.626 172.493 297.761C190.148 320.698 211.562 337.543 237.714 348.107C249.199 352.746 262.627 356.225 275.977 354.883C294.991 352.991 310.994 344.941 326.738 340.703C327.983 340.374 329.231 340.056 330.488 339.767C349.457 335.346 368.671 336.24 386.522 343.454C405.556 351.183 423.275 367.07 429.824 389.16" stroke="white" stroke-opacity="0.04" stroke-miterlimit="10" />
  </g>
  <g style="mix-blend-mode:multiply">
    <path d="M-283.205 288.853C-266.923 300.92 -248.989 310.64 -229.941 317.723C-221.56 321.037 -212.837 323.435 -203.928 324.873C-186.041 327.474 -168.365 324.362 -151.948 318.776C-147.382 317.224 -142.906 315.504 -138.543 313.644C-120.001 305.624 -102.555 295.33 -86.6163 283.006C-70.801 270.837 -56.6364 256.453 -40.7071 242.93C-22.7791 227.683 -5.04509 211.456 15.4202 199.715C32.8296 189.758 53.2293 183.468 72.9266 186.104C76.5337 186.573 80.0925 187.352 83.5626 188.433C105.095 195.133 120.71 212.392 133.783 231.181C137.907 237.111 141.77 243.191 145.531 249.162C155.342 264.768 165.749 280.597 177.218 294.885C195.906 318.053 218.39 335.04 245.675 344.902C257.023 348.962 269.981 351.928 282.868 350.793C301.27 349.189 317.133 342.379 332.739 339.35C333.98 339.11 335.208 338.897 336.452 338.7C355.198 335.734 373.819 338.205 390.653 346.556C408.572 355.431 424.589 371.704 430.192 393.32" stroke="white" stroke-opacity="0.04" stroke-miterlimit="10" />
  </g>
  <g style="mix-blend-mode:multiply">
    <path d="M-281.988 280.508C-266.096 292.316 -248.514 301.72 -229.821 308.41C-221.58 311.517 -213.04 313.784 -204.334 315.177C-186.835 317.709 -169.519 315.275 -153.226 310.443C-148.691 309.098 -144.191 307.579 -139.852 305.946C-121.307 298.837 -103.749 289.434 -87.5987 277.963C-71.5848 266.649 -57.0352 253.146 -41.4066 240.114C-22.907 224.711 -4.9506 208.014 15.9006 195.893C33.5623 185.623 54.4448 179.011 74.5714 181.565C78.2548 182.026 81.8909 182.803 85.4387 183.886C107.488 190.631 123.417 208.267 136.852 227.438C141.09 233.476 145.07 239.673 148.951 245.739C159.107 261.611 170 277.661 182.073 292.097C201.731 315.508 225.238 332.728 253.756 341.789C264.87 345.313 277.431 347.719 289.845 346.794C307.608 345.465 323.359 339.909 338.806 338.095C340.024 337.951 341.248 337.827 342.472 337.736C360.76 336.143 379.092 340.334 394.82 349.703C411.628 359.734 425.973 376.481 430.593 397.546" stroke="white" stroke-opacity="0.04" stroke-miterlimit="10" />
  </g>
  <g style="mix-blend-mode:multiply">
    <path d="M-280.782 272.156C-265.276 283.709 -248.037 292.795 -229.693 299.083C-221.602 301.98 -213.251 304.109 -204.752 305.439C-187.728 307.941 -170.669 306.196 -154.51 302.088C-150.002 300.96 -145.556 299.645 -141.183 298.21C-122.654 291.983 -105.004 283.449 -88.6599 272.814C-72.4538 262.336 -57.5158 249.725 -42.141 237.158C-23.0731 221.622 -4.89436 204.454 16.3363 191.935C34.3435 181.331 55.6188 174.427 76.1481 176.853C79.9155 177.297 83.6361 178.069 87.2668 179.159C109.828 185.939 126.053 203.956 139.836 223.504C144.181 229.662 148.299 235.971 152.3 242.131C162.787 258.263 174.161 274.523 186.874 289.108C207.508 312.779 232.101 330.355 261.792 338.468C273.171 341.736 285.017 343.123 296.85 342.573C313.997 341.523 329.623 337.216 344.912 336.617C346.119 336.576 347.319 336.547 348.527 336.538C366.653 336.478 384.333 342.114 399.015 352.63C414.715 363.795 427.447 380.963 431.006 401.479" stroke="white" stroke-opacity="0.04" stroke-miterlimit="10" />
  </g>
  <g style="mix-blend-mode:multiply">
    <path d="M-279.568 263.802C-264.456 275.109 -247.565 283.882 -229.574 289.768C-221.624 292.461 -213.453 294.466 -205.153 295.759C-188.55 298.225 -171.805 297.132 -155.78 293.781C-151.291 292.861 -146.861 291.785 -142.491 290.553C-123.974 285.226 -106.227 277.574 -89.6833 267.785C-73.2782 258.163 -58.0317 246.503 -42.8605 234.352C-23.204 218.677 -4.82618 201.036 16.7973 188.123C35.107 177.19 56.8151 169.98 77.7803 172.376C81.6305 172.811 85.4352 173.578 89.1505 174.668C112.218 181.495 128.748 199.892 142.925 219.822C147.374 226.058 151.606 232.507 155.755 238.775C166.573 255.167 178.445 271.687 191.697 286.353C213.301 310.266 238.94 328.211 269.851 335.382C280.978 337.991 292.413 339.071 303.835 338.59C320.346 337.825 335.863 334.75 350.977 335.384C352.17 335.435 353.371 335.505 354.558 335.602C372.523 337.081 389.555 344.159 403.197 355.818C417.782 368.129 428.854 385.711 431.442 405.781" stroke="white" stroke-opacity="0.04" stroke-miterlimit="10" />
  </g>
  <g style="mix-blend-mode:multiply">
    <path d="M-278.353 255.447C-263.631 266.504 -247.084 274.959 -229.448 280.438C-221.65 282.935 -213.663 284.81 -205.563 286.047C-189.461 288.345 -173.097 288.135 -157.067 285.423C-152.606 284.703 -148.191 283.826 -143.821 282.791C-125.319 278.385 -107.47 271.641 -90.7162 262.725C-74.1154 253.95 -58.5432 243.16 -43.5858 231.494C-23.3206 215.707 -4.76034 197.575 17.2461 184.24C35.8615 172.987 58.0159 165.478 79.4072 167.781C83.3398 168.202 87.2269 168.968 91.0221 170.072C114.593 176.937 131.427 195.712 145.973 216.011C150.549 222.394 154.898 228.928 159.157 235.294C170.28 251.964 182.681 268.702 196.527 283.519C219.115 307.679 245.843 326.154 277.922 332.225C288.795 334.179 299.85 334.947 310.89 334.515C326.772 334.022 342.154 332.232 357.122 334.057C358.282 334.207 359.456 334.396 360.626 334.575C378.417 337.589 394.789 346.098 407.393 358.879C420.876 372.343 430.291 390.349 431.873 409.906" stroke="white" stroke-opacity="0.04" stroke-miterlimit="10" />
  </g>
  <g style="mix-blend-mode:multiply">
    <path d="M-277.136 247.102C-243.937 272.405 -199.966 281.956 -158.338 277.114C-116.711 272.272 -77.4897 253.881 -44.3219 228.608C-23.4747 212.728 -4.70844 194.077 17.6676 180.379C40.0436 166.681 67.5465 158.222 92.8399 165.484C124.503 174.561 144.156 204.79 162.533 231.833C192.729 276.333 232.332 321.232 285.948 329.071C312.652 332.975 340.418 327.099 366.611 333.563C402.925 342.532 431.143 377.122 432.243 414.116" stroke="white" stroke-opacity="0.04" stroke-miterlimit="10" />
  </g>
  <g style="mix-blend-mode:multiply">
    <path d="M-161.596 799.007C-137.129 825.132 -91.1849 817.326 -63.9257 793.593C-36.6665 769.86 -22.307 735.246 -5.09826 703.578C12.1105 671.91 35.9298 639.969 70.8397 630.608C115.477 618.63 163.747 647.417 207.882 633.555C242.269 622.771 263.264 588.988 272.25 556.115C277.326 537.523 276.454 517.399 279.965 498.521C295.873 412.864 231.411 352.565 262.986 294.844C297.188 232.33 347.679 224.975 374.237 229.902C408.226 236.24 486.384 264.54 483.457 351.945C482.267 387.451 482.425 423.612 491.38 457.919C504.793 509.273 555.927 551.535 609.007 544.276C645.392 539.308 679.152 513.278 715.245 519.378C739.519 523.475 759.413 542.231 769.533 564.469C779.653 586.706 781.106 612.071 779.042 636.527" stroke="white" stroke-opacity="0.04" stroke-miterlimit="10" />
  </g>
  <g style="mix-blend-mode:multiply">
    <path d="M-161.911 796.651C-135.75 822.388 -88.764 815.711 -60.216 791.668C-32.3656 768.223 -17.5971 733.143 -0.935539 701.022C15.4997 669.233 37.7825 637.264 71.162 626.795C113.877 613.412 161.165 638.998 204.988 625.001C239.823 613.782 262.086 581.852 272.939 549.573C279.178 531.032 279.712 510.46 283.628 490.878C300.221 407.88 238.606 348.661 269.418 292.118C302.582 231.321 351.551 222.977 378.143 227.261C411.87 232.709 486.956 260.196 485.976 344.255C485.583 378.928 486.748 414.609 495.768 448.529C508.983 498.525 557.992 539.649 609.392 533.888C644.953 529.909 678.548 505.677 714.278 511.572C738.745 515.569 758.939 533.368 770.043 554.697C781.253 576.209 784.414 601.074 783.617 625.568" stroke="white" stroke-opacity="0.04" stroke-miterlimit="10" />
  </g>
  <g style="mix-blend-mode:multiply">
    <path d="M-162.249 794.274C-134.441 819.6 -86.3654 814.077 -56.5361 789.716C-28.0853 766.484 -12.8346 731.092 3.20537 698.427C18.855 666.548 39.5531 634.592 71.459 622.966C112.245 608.171 158.584 630.651 202.098 616.385C237.41 604.796 260.967 574.655 273.635 542.983C281.059 524.482 282.968 503.451 287.256 483.136C304.402 402.807 245.764 344.653 275.84 289.323C307.98 230.239 355.406 220.885 382.048 224.526C415.438 229.106 487.576 255.787 488.58 336.572C488.993 370.421 491.146 405.58 500.262 439.141C513.259 487.789 560.16 527.777 609.886 523.476C644.654 520.482 678.063 498.057 713.433 503.762C738.098 507.636 758.593 524.494 770.674 544.893C783.007 565.708 787.818 590.109 788.351 614.68" stroke="white" stroke-opacity="0.04" stroke-miterlimit="10" />
  </g>
  <g style="mix-blend-mode:multiply">
    <path d="M-162.588 791.898C-133.109 816.831 -83.9829 812.429 -52.8563 787.764C-23.8403 764.769 -8.11123 729.023 7.34728 695.848C22.233 663.869 41.3577 631.879 71.7547 619.123C110.613 602.931 155.998 622.246 199.209 607.77C234.987 595.774 259.876 567.442 274.33 536.379C282.929 517.896 286.193 496.429 290.965 475.476C308.584 397.749 253.009 340.704 282.278 286.54C313.377 229.157 359.277 218.823 385.977 221.827C419.04 225.546 488.261 251.431 491.134 328.835C492.363 361.895 495.567 396.474 504.701 429.721C517.633 476.97 562.297 515.892 610.299 513.078C644.275 511.085 677.473 490.528 712.496 495.946C737.344 499.781 758.189 515.64 771.224 535.105C784.686 555.214 791.133 579.152 792.964 603.774" stroke="white" stroke-opacity="0.04" stroke-miterlimit="10" />
  </g>
  <g style="mix-blend-mode:multiply">
    <path d="M-162.918 789.527C-131.775 814.062 -81.6068 810.789 -49.1761 785.811C-19.6043 763.033 -3.36704 726.929 11.4816 693.261C25.64 661.172 43.1764 629.151 72.0524 615.294C108.99 597.698 153.396 613.827 196.313 599.148C232.529 586.778 258.832 560.239 275.027 529.789C284.846 511.321 289.443 489.442 294.61 467.748C312.59 392.64 260.183 336.709 288.698 283.73C318.768 228.069 363.096 216.757 389.866 219.093C422.619 221.964 488.961 247.073 493.674 321.099C495.734 353.369 499.97 387.421 509.102 420.296C521.867 466.186 564.421 504.024 610.696 502.653C643.91 501.672 676.893 482.924 711.551 488.107C736.601 491.864 757.792 506.763 771.757 525.303C786.37 544.696 794.413 568.138 797.575 592.853" stroke="white" stroke-opacity="0.04" stroke-miterlimit="10" />
  </g>
  <g style="mix-blend-mode:multiply">
    <path d="M-163.256 787.151C-130.436 811.286 -79.2006 809.161 -45.4968 783.859C-15.3772 761.291 1.38543 724.857 15.6151 690.676C29.0133 658.53 44.9257 626.406 72.3481 611.451C107.322 592.387 150.795 605.423 193.424 590.534C230.125 577.718 257.832 553.033 275.722 523.185C286.776 504.745 292.67 482.45 298.302 460.061C316.572 387.526 267.411 332.747 295.151 280.961C324.202 226.991 366.997 214.706 393.838 216.375C426.259 218.422 489.82 242.754 496.288 313.372C499.183 344.896 504.417 378.366 513.615 410.87C526.205 455.394 566.697 492.202 611.203 492.225C643.65 492.265 676.415 475.297 710.703 480.269C735.954 483.932 757.527 497.875 772.401 515.484C788.189 534.183 797.842 557.209 802.298 581.93" stroke="white" stroke-opacity="0.04" stroke-miterlimit="10" />
  </g>
  <g style="mix-blend-mode:multiply">
    <path d="M-163.635 784.741C-129.144 808.483 -76.9151 807.433 -41.851 781.865C-11.1918 759.5 6.09752 722.751 19.723 688.054C32.3736 655.822 46.6818 623.654 72.6519 607.614C105.696 587.124 148.207 596.989 190.542 581.911C227.725 568.687 256.87 545.83 276.425 516.587C288.737 498.165 295.895 475.429 301.97 452.354C320.407 382.441 274.607 328.757 301.586 278.163C329.6 225.908 370.846 212.652 397.729 213.671C429.819 214.894 490.648 238.503 498.83 305.665C502.712 338.067 509.132 370.095 518.032 401.459C530.421 444.664 568.831 480.37 611.623 481.82C643.334 482.893 675.85 467.707 709.782 472.451C735.234 476.022 757.197 489 772.966 505.695C789.942 523.682 801.199 546.219 806.975 570.996" stroke="white" stroke-opacity="0.04" stroke-miterlimit="10" />
  </g>
  <g style="mix-blend-mode:multiply">
    <path d="M-163.933 782.398C-127.771 805.748 -74.5099 805.79 -38.1383 779.954C-6.94067 757.777 10.9185 720.695 23.8898 685.509C35.8168 653.211 48.4982 620.992 72.9493 603.786C104.037 581.902 145.598 588.565 187.671 573.31C225.246 559.62 255.941 538.67 277.138 510.011C290.723 491.621 299.108 468.453 305.676 444.65C324.247 377.332 281.855 324.771 308.059 275.37C335.034 224.83 374.735 210.617 401.68 210.962C433.459 211.352 491.625 234.254 501.438 297.946C506.409 329.752 513.45 361.186 522.516 392.05C534.757 433.842 571.073 468.589 612.102 471.395C643.069 473.523 675.335 460.076 708.906 464.63C733.271 468.071 755.874 478.999 773.559 495.888C791.792 513.18 804.603 535.269 811.627 560.124" stroke="white" stroke-opacity="0.04" stroke-miterlimit="10" />
  </g>
  <g style="mix-blend-mode:multiply">
    <path d="M-164.263 780.027C-126.431 802.971 -72.168 804.108 -34.4673 777.994C-2.73812 756.014 15.6607 718.682 28.0631 682.956C39.2667 650.591 50.3428 618.313 73.2992 599.96C102.458 576.665 143.056 580.142 184.827 564.692C222.9 550.607 255.079 531.496 277.871 503.411C292.76 485.065 302.366 461.473 309.384 436.976C327.989 372.211 289.085 320.837 314.507 272.638C340.459 223.811 378.598 208.643 405.62 208.312C437.034 207.919 492.67 230.006 504.013 290.282C509.487 319.577 517.546 351.173 526.926 382.648C538.977 423.075 573.266 456.834 612.499 460.985C642.735 464.205 674.761 452.464 707.975 456.791C732.452 460.017 755.412 470.184 774.114 486.078C793.676 502.899 808.242 524.712 816.267 549.201" stroke="white" stroke-opacity="0.04" stroke-miterlimit="10" />
  </g>
  <g style="mix-blend-mode:multiply">
    <path d="M-164.569 777.678C-125.067 800.229 -69.7888 802.445 -30.7514 776.059C1.50103 754.269 20.4584 716.65 32.1869 680.378C42.6534 647.964 52.1152 615.604 73.5656 596.151C100.782 571.446 140.414 571.722 181.92 556.067C220.477 541.536 254.184 524.341 278.545 496.796C294.732 478.502 305.486 454.427 313.007 429.253C331.61 367.036 296.244 316.825 320.91 269.795C345.831 222.675 382.424 206.565 409.514 205.538C440.601 204.38 493.772 225.801 506.557 282.505C513.01 311.174 521.96 342.168 531.393 373.221C543.256 412.298 575.514 445.135 612.969 450.563C642.508 454.848 674.236 444.834 707.075 448.972C731.697 451.986 755.024 461.405 774.704 476.279C795.577 492.298 811.566 513.749 820.927 538.29" stroke="white" stroke-opacity="0.04" stroke-miterlimit="10" />
  </g>
  <g style="mix-blend-mode:multiply">
    <path d="M-164.939 775.274C-123.776 797.426 -67.4825 800.72 -27.0913 774.092C5.6829 752.477 25.2297 714.582 36.3072 677.77C46.0868 645.279 53.8869 612.895 73.8425 592.296C99.1315 566.195 137.798 563.256 178.992 547.466C217.983 532.517 253.261 517.234 279.207 490.226C296.715 472.004 308.609 447.439 316.68 421.6C335.17 361.882 303.391 312.873 327.331 266.995C351.213 221.59 386.246 204.541 413.403 202.816C444.131 200.867 494.974 221.572 509.095 274.78C516.521 302.75 526.313 333.101 535.814 363.797C547.45 401.52 577.705 433.485 613.339 440.141C642.178 445.544 673.627 437.219 706.102 441.137C732.347 444.313 756.062 453.349 775.209 466.479C797.388 481.688 814.808 502.775 825.514 527.377" stroke="white" stroke-opacity="0.04" stroke-miterlimit="10" />
  </g>
  <g style="mix-blend-mode:multiply">
    <path d="M-165.269 772.904C-122.438 794.648 -65.1529 799.016 -23.4323 772.125C9.85555 750.678 29.993 712.522 40.4197 675.17C49.5136 642.617 55.678 610.163 74.1267 588.448C97.474 560.952 135.167 554.807 176.083 538.842C215.53 523.45 252.373 510.101 279.887 483.618C298.724 465.475 311.728 440.423 320.292 413.856C338.728 356.714 310.593 308.887 333.73 264.235C356.581 220.537 390.062 202.569 417.287 200.132C447.679 197.412 496.275 217.386 511.626 267.08C520.033 294.372 530.681 324.048 540.219 354.406C551.687 390.754 579.925 421.863 613.784 429.743C641.925 436.293 673.091 429.597 705.188 433.311C731.625 436.388 755.808 444.415 775.762 456.668C799.248 471.052 818.101 491.78 830.144 516.46" stroke="white" stroke-opacity="0.04" stroke-miterlimit="10" />
  </g>
  <g style="mix-blend-mode:multiply">
    <path d="M-165.608 770.528C-121.107 791.879 -62.825 797.296 -19.7577 770.171C14.0085 748.918 34.7946 710.481 44.5556 672.591C52.9573 639.984 57.4713 607.46 74.4119 584.615C95.8474 555.723 132.552 546.357 173.191 530.232C213.092 514.397 251.527 503.017 280.575 477.018C300.751 458.974 314.846 433.392 323.938 406.185C342.211 351.553 317.674 304.897 340.128 261.475C361.87 219.447 393.851 200.629 421.169 197.449C451.228 193.972 497.722 213.158 514.158 259.394C523.645 286.022 534.973 315.085 544.619 345.037C555.875 380.03 582.116 410.342 614.184 419.35C641.624 427.099 672.511 421.994 704.255 425.525C730.883 428.487 755.539 435.483 776.312 446.91C801.11 460.46 821.409 480.832 834.8 505.608" stroke="white" stroke-opacity="0.04" stroke-miterlimit="10" />
  </g>
  <g style="mix-blend-mode:multiply">
    <path d="M-165.933 768.135C-119.763 789.093 -60.4854 795.546 -16.0705 768.2C18.2191 747.055 39.6155 708.415 48.7166 669.964C56.434 637.31 59.2774 604.74 74.7386 580.748C94.2329 550.462 129.97 537.868 170.318 521.584C210.665 505.3 250.708 495.916 281.29 470.4C302.804 452.456 317.961 426.347 327.637 398.433C345.7 346.303 324.915 300.862 346.594 258.634C367.311 218.305 397.756 198.568 425.133 194.684C454.844 190.466 499.322 208.894 516.764 251.621C527.352 277.574 539.392 305.954 549.104 335.55C560.157 369.193 584.382 398.746 614.659 408.883C641.398 417.831 672.004 414.303 703.379 417.637C730.212 420.483 755.341 426.447 776.919 437.05C803.009 449.742 824.751 469.732 839.5 494.588" stroke="white" stroke-opacity="0.04" stroke-miterlimit="10" />
  </g>
  <g style="mix-blend-mode:multiply">
    <path d="M-166.285 765.775C-118.467 786.364 -58.1865 793.844 -12.4377 766.294C22.3733 745.324 44.3899 706.42 52.789 667.441C59.8372 634.739 61.0307 602.1 74.9693 576.98C92.5454 545.305 127.301 529.484 167.34 513.013C208.162 496.262 249.784 488.893 281.892 463.852C304.745 446.023 320.898 419.318 331.217 390.776C349.075 341.122 332.041 296.898 352.939 255.886C372.618 217.272 401.508 196.639 428.948 192.014C458.327 187.055 500.9 204.639 519.22 243.943C530.998 269.199 543.657 296.956 553.45 326.179C564.269 358.477 586.497 387.314 614.991 398.504C641.013 408.719 671.348 406.708 702.361 409.851C729.402 412.596 755.002 417.499 777.392 427.284C804.76 439.138 827.929 458.778 844.005 483.749" stroke="white" stroke-opacity="0.04" stroke-miterlimit="10" />
  </g>
  <g style="mix-blend-mode:multiply">
    <path d="M-166.628 763.421C-117.123 783.578 -55.8894 792.126 -8.71904 764.349C26.6362 743.559 49.2648 704.386 56.9689 664.871C63.3281 632.063 62.8582 599.371 75.256 573.08C90.8981 540.004 124.652 520.979 164.467 504.366C205.714 487.175 248.952 481.808 282.598 457.213C306.8 439.52 323.99 412.268 334.894 383.035C352.495 335.856 339.224 292.913 359.375 253.062C378.03 216.162 405.372 194.64 432.868 189.267C461.923 183.588 502.707 200.259 521.804 236.194C534.813 260.719 548.012 287.883 557.908 316.739C568.508 347.675 588.674 375.838 615.445 388.062C640.73 399.583 670.82 399.04 701.464 401.987C728.702 404.609 754.797 408.486 777.97 417.456C806.623 428.446 831.239 447.72 848.664 472.807" stroke="white" stroke-opacity="0.04" stroke-miterlimit="10" />
  </g>
  <g style="mix-blend-mode:multiply">
    <path d="M-166.953 761.029C-115.779 780.793 -53.5749 790.355 -5.06539 762.351C30.7524 741.66 54.0826 702.305 61.0758 662.242C66.7993 629.426 64.6446 596.691 75.5809 569.281C89.3282 534.822 122.09 512.535 161.616 495.792C203.302 478.145 248.15 474.819 283.327 450.662C308.883 433.097 327.032 405.246 338.584 375.374C355.881 330.63 346.463 288.975 365.83 250.311C383.463 215.124 409.258 192.728 436.809 186.593C465.534 180.202 504.633 195.883 524.387 228.512C538.747 252.229 552.38 278.876 562.362 307.352C572.737 336.949 590.871 364.503 615.903 377.664C640.396 390.556 670.31 391.402 700.565 394.191C728.009 396.696 754.549 399.478 778.56 407.679C808.486 417.808 834.547 436.716 853.328 461.924" stroke="white" stroke-opacity="0.04" stroke-miterlimit="10" />
  </g>
  <g style="mix-blend-mode:multiply">
    <path d="M-167.291 758.652C-114.433 778.037 -51.2664 788.606 -1.3938 760.396C34.8926 739.877 58.9733 700.298 65.2007 659.654C70.2848 626.788 66.5185 593.987 75.8803 565.447C87.7789 529.616 119.467 504.066 158.726 487.184C200.848 469.067 247.316 467.802 284.053 444.095C310.94 426.72 330.034 398.204 342.289 367.712C359.275 325.425 353.764 285.075 372.292 247.551C388.964 214.115 413.151 190.822 440.755 183.91C469.159 176.813 506.655 191.408 526.969 220.83C543.524 244.723 556.92 270.648 566.832 297.977C576.966 326.222 593.002 353.196 616.337 367.262C640.012 381.556 669.74 383.783 699.656 386.372C727.27 388.787 754.292 390.462 779.118 397.876C810.315 407.137 837.826 425.68 857.966 451.02" stroke="white" stroke-opacity="0.04" stroke-miterlimit="10" />
  </g>
  <g style="mix-blend-mode:multiply">
    <path d="M-167.621 756.283C-113.121 775.239 -48.9596 786.843 2.27719 758.44C39.0934 738.021 63.7896 698.216 69.3329 657.073C73.7697 624.149 68.3165 591.275 76.1567 561.608C86.1369 524.374 116.876 495.626 155.846 478.533C198.413 459.951 246.494 460.755 284.72 437.438C312.976 420.189 332.927 391.031 345.924 359.939C362.574 320.073 360.932 281.024 378.699 244.691C394.341 212.962 416.969 188.826 444.648 181.128C472.729 173.326 508.679 186.704 529.51 213.034C547.298 235.841 561.376 261.295 571.239 288.483C581.14 315.382 595.036 341.795 616.773 356.793C639.58 372.531 669.201 376.081 698.749 378.487C726.581 380.755 754.051 381.379 779.686 388.027C812.149 396.405 841.114 414.578 862.613 440.056" stroke="white" stroke-opacity="0.04" stroke-miterlimit="10" />
  </g>
  <g style="mix-blend-mode:multiply">
    <path d="M-167.952 753.913C-111.784 772.476 -46.6131 785.112 5.9475 756.483C43.2743 736.203 68.6534 696.173 73.4645 654.491C77.269 621.508 70.1155 588.578 76.4719 557.787C84.5113 519.146 114.201 487.059 152.945 469.972C195.919 450.826 245.637 453.815 285.395 430.884C315.002 413.815 335.785 383.966 349.562 352.291C365.883 314.839 368.094 277.091 385.086 241.952C399.697 211.929 420.825 186.93 448.521 178.466C476.217 170.001 510.74 181.988 532.026 205.366C550.931 226.107 565.3 251.761 575.642 279.123C585.288 304.686 596.999 330.541 617.205 346.458C639.066 363.669 668.653 368.453 697.823 370.737C725.87 372.829 753.823 372.443 780.249 378.297C813.962 385.803 844.373 403.603 867.241 429.213" stroke="white" stroke-opacity="0.04" stroke-miterlimit="10" />
  </g>
  <g style="mix-blend-mode:multiply">
    <path d="M-168.298 751.53C-110.462 769.699 -44.4069 783.223 9.60958 754.52C47.3962 734.308 73.5237 694.122 77.5798 651.895C80.7329 618.893 71.8665 585.84 76.7622 553.931C82.8998 513.902 111.595 478.606 150.062 461.344C193.469 441.779 244.745 446.805 286.075 424.293C317.032 407.389 338.589 376.801 353.218 344.589C369.171 309.532 375.314 273.138 391.506 239.157C405.087 210.855 424.694 185.017 452.419 175.756C479.897 166.577 512.831 177.091 534.582 197.649C555.156 217.092 569.622 242.759 580.057 269.731C589.435 293.974 598.902 319.278 617.571 336.04C638.428 354.759 668.047 360.83 696.846 362.903C725.092 364.886 753.427 363.381 780.754 368.491C815.717 375.113 847.581 392.543 871.817 418.3" stroke="white" stroke-opacity="0.04" stroke-miterlimit="10" />
  </g>
  <g style="mix-blend-mode:multiply">
    <path d="M-168.637 749.154C-109.127 766.921 -42.0671 781.515 13.3125 752.523C51.6145 732.509 78.4315 692.09 81.7489 649.332C84.3105 616.223 73.7345 583.174 77.0864 550.132C81.2918 508.703 109.056 470.237 147.198 452.774C191.073 432.751 243.963 439.874 286.8 417.713C319.109 401.003 341.378 369.639 356.912 336.907C372.446 304.175 382.513 269.142 397.956 236.389C410.486 209.817 428.61 183.13 456.363 173.057C483.536 163.201 514.861 172.007 537.169 189.96C559.478 207.914 573.974 233.783 584.536 260.312C593.66 283.22 600.83 307.969 618.056 325.627C637.839 345.905 667.543 353.199 695.973 355.075C724.402 356.951 753.224 354.303 781.363 358.691C817.571 364.428 850.891 381.481 876.503 407.385" stroke="white" stroke-opacity="0.04" stroke-miterlimit="10" />
  </g>
  <g style="mix-blend-mode:multiply">
    <path d="M-292.951 524.863C-275.717 556.515 -229.498 560.052 -197.431 543.385C-165.365 526.717 -143.141 496.166 -118.86 469.216C-94.5793 442.266 -63.8697 416.676 -27.9298 415.987C18.028 415.103 57.5846 455.192 103.519 452.356C139.287 450.144 167.735 422.035 184.413 391.902C193.827 374.87 197.863 354.871 205.833 337.148C241.958 256.804 194.423 181.781 238.887 132.72C287.041 79.5856 337.514 84.6816 361.932 96.0005C393.196 110.501 461.669 157.438 437.636 242.673C427.872 277.305 419.237 312.857 419.558 348.813C420.032 402.593 459.087 456.587 512.03 462.452C548.311 466.441 587.188 449.084 620.515 463.89C642.926 473.835 657.566 497.135 661.922 521.477C666.279 545.818 661.557 571.075 653.608 594.585" stroke="white" stroke-opacity="0.04" stroke-miterlimit="10" />
  </g>
  <g style="mix-blend-mode:multiply">
    <path d="M-292.698 522.492C-273.732 554.171 -226.788 559.087 -193.418 542.414C-160.847 526.139 -138.083 495.303 -114.252 467.727C-90.7003 440.478 -61.4822 414.501 -26.7128 412.317C17.7259 409.584 57.1255 446.287 102.79 443.206C139.1 440.678 168.349 414.714 186.611 385.615C197.122 368.896 202.644 348.794 211.169 330.491C247.316 252.921 202.314 179.64 245.698 131.556C292.443 79.8497 341.687 83.5866 366.326 94.2907C397.514 107.866 463.277 153.242 441.951 235.72C433.155 269.73 425.621 305.09 426.099 340.663C426.699 393.063 463.98 445.464 514.948 452.353C550.212 457.123 588.483 441.487 621.522 456.004C644.104 465.895 659.294 488.331 664.83 512.016C670.418 535.916 667.429 561.146 660.721 585.032" stroke="white" stroke-opacity="0.04" stroke-miterlimit="10" />
  </g>
  <g style="mix-blend-mode:multiply">
    <path d="M-292.452 520.115C-271.784 551.788 -224.094 558.115 -189.401 541.438C-156.323 525.535 -133.021 494.446 -109.629 466.235C-86.7945 438.644 -59.0813 412.334 -25.4935 408.666C17.4258 404.083 56.6732 437.505 102.094 434.084C138.995 431.307 168.985 407.421 188.894 379.349C200.535 362.914 207.488 342.748 216.59 323.866C252.636 249.013 210.186 177.519 252.592 130.448C297.918 80.1813 345.932 82.559 370.74 92.6563C401.84 105.306 464.933 149.153 446.286 228.83C438.466 262.239 432.007 297.341 432.65 332.584C433.386 383.593 468.904 434.38 517.885 442.303C552.143 447.855 589.798 433.95 622.538 448.179C645.375 458.017 661.051 479.596 667.756 502.615C674.595 526.095 673.31 551.276 667.852 575.548" stroke="white" stroke-opacity="0.04" stroke-miterlimit="10" />
  </g>
  <g style="mix-blend-mode:multiply">
    <path d="M-292.185 517.752C-269.809 549.503 -221.358 557.137 -185.352 540.465C-151.79 524.933 -127.929 493.603 -104.996 464.755C-82.8635 436.93 -56.6685 410.137 -24.243 405.017C17.1576 398.573 56.2357 428.639 101.43 424.943C138.839 421.892 169.728 400.102 191.199 373.074C203.987 356.987 212.355 336.683 222.023 317.222C257.886 245.06 218.121 175.39 259.512 129.258C303.43 80.4095 350.246 81.4082 375.222 90.9199C406.213 102.653 466.676 145.016 450.667 221.858C443.835 254.666 438.555 289.506 439.268 324.403C440.277 374.038 473.906 423.215 520.891 432.172C554.162 438.506 591.146 426.394 623.611 440.261C646.647 450.109 662.895 470.792 670.74 493.121C678.84 516.182 679.26 541.304 675.041 565.972" stroke="white" stroke-opacity="0.04" stroke-miterlimit="10" />
  </g>
  <g style="mix-blend-mode:multiply">
    <path d="M-291.96 515.378C-267.871 547.123 -218.695 556.147 -181.353 539.449C-147.307 524.309 -122.846 492.761 -100.396 463.296C-78.9629 435.205 -54.2886 407.982 -23.0453 401.387C16.8359 393.094 55.7984 419.785 100.722 415.843C138.705 412.489 170.458 392.825 193.461 366.83C207.42 351.028 217.17 330.626 227.425 310.587C262.99 241.089 226.026 173.271 266.378 128.118C308.898 80.6987 354.418 80.3986 379.649 89.2437C410.532 100.061 468.437 140.954 455.015 214.927C449.168 247.177 444.997 281.707 445.833 316.283C447.019 364.54 478.874 412.123 523.842 422.092C556.104 429.24 592.464 418.827 624.639 432.416C647.889 442.211 664.707 462.051 673.68 483.69C683.071 506.376 685.165 531.404 682.197 556.448" stroke="white" stroke-opacity="0.04" stroke-miterlimit="10" />
  </g>
  <g style="mix-blend-mode:multiply">
    <path d="M-291.713 513.006C-265.913 544.766 -215.999 555.149 -177.327 538.521C-142.802 523.667 -117.795 491.92 -95.7707 461.776C-75.0587 433.418 -51.86 405.703 -21.8226 397.686C16.5221 387.468 55.2999 410.897 100.03 406.66C138.542 403.022 171.255 385.489 195.749 360.504C210.897 345.062 221.984 324.581 232.849 303.921C268.046 237.044 233.953 171.122 273.278 126.949C314.378 80.958 358.646 79.3185 384.1 87.5274C414.876 97.397 470.26 136.927 459.387 207.965C454.566 239.68 451.451 273.889 452.431 308.112C453.775 354.979 483.862 401.043 526.775 411.969C558.06 419.932 593.773 411.239 625.65 424.508C649.112 434.27 666.532 453.248 676.591 474.216C687.287 496.453 691.032 521.451 689.315 546.881" stroke="white" stroke-opacity="0.04" stroke-miterlimit="10" />
  </g>
  <g style="mix-blend-mode:multiply">
    <path d="M-291.467 510.646C-263.956 542.432 -213.324 554.152 -173.309 537.563C-138.308 523.047 -112.713 491.113 -91.1576 460.3C-71.1251 431.687 -49.5202 403.527 -20.6021 394.038C16.226 381.917 54.8533 402.033 99.3451 397.541C138.41 393.589 172.08 378.239 198.031 354.283C214.384 339.117 226.799 318.547 238.271 297.33C273.016 233.047 241.877 169.048 280.174 125.854C319.866 81.2915 362.871 78.3122 388.559 85.8853C419.211 94.9228 472.193 133.01 463.755 201.088C459.631 233.915 458.047 266.994 459.017 300.026C460.527 345.514 488.868 390.06 529.788 401.935C560.106 410.724 595.163 403.729 626.742 416.688C650.385 426.406 668.459 444.546 679.604 464.822C691.623 486.664 697.011 511.588 696.533 537.404" stroke="white" stroke-opacity="0.04" stroke-miterlimit="10" />
  </g>
  <g style="mix-blend-mode:multiply">
    <path d="M-291.21 508.287C-261.998 540.088 -210.606 553.136 -169.281 536.594C-133.814 522.407 -107.621 490.296 -86.5346 458.824C-67.1607 429.957 -47.128 401.343 -19.3817 390.38C15.9253 376.44 54.3966 393.147 98.6608 388.4C138.267 384.154 172.935 370.991 200.318 347.967C217.9 333.195 231.596 312.438 243.697 290.644C277.929 228.922 249.796 166.868 287.096 124.666C325.39 81.5224 367.131 77.2345 393.042 84.1607C423.573 92.3131 482.712 130.352 468.117 194.105C461.282 224.184 464.347 258.304 465.616 291.844C467.284 335.953 493.876 379.001 532.816 391.795C562.176 401.443 596.557 396.102 627.836 408.805C650.465 418.154 669.582 434.416 682.527 455.327C695.881 476.753 702.879 501.614 703.652 527.816" stroke="white" stroke-opacity="0.04" stroke-miterlimit="10" />
  </g>
  <g style="mix-blend-mode:multiply">
    <path d="M-290.964 505.917C-260.083 537.741 -207.97 552.074 -165.262 535.625C-129.328 521.744 -102.519 489.49 -81.9108 457.337C-63.259 428.225 -44.7357 399.159 -18.1619 386.733C15.6158 370.931 53.94 384.26 97.977 379.248C138.125 374.697 173.8 363.742 202.604 341.672C221.417 327.252 236.391 306.35 249.112 283.978C282.779 224.793 257.723 164.73 293.964 123.496C330.818 81.7807 371.326 76.1753 397.462 82.4439C427.86 89.7318 485.47 126.325 472.489 187.143C466.171 216.78 470.802 250.485 472.215 283.684C474.029 326.412 498.891 368.027 535.748 381.682C564.159 392.21 597.867 388.503 628.848 400.875C651.676 410.029 671.358 425.64 685.544 445.846C700.332 467.174 709.086 492.196 710.874 518.253" stroke="white" stroke-opacity="0.04" stroke-miterlimit="10" />
  </g>
  <g style="mix-blend-mode:multiply">
    <path d="M-290.717 503.556C-258.093 535.398 -205.295 551.087 -161.233 534.656C-124.811 521.094 -97.4161 488.694 -77.2655 455.851C-59.2734 426.506 -42.312 396.987 -16.9094 383.075C15.3475 365.444 53.5151 375.373 97.3129 370.128C138.014 365.262 174.695 356.557 204.921 335.409C224.984 321.373 241.197 300.293 254.566 277.356C287.609 220.674 265.681 162.626 300.894 122.372C336.36 82.0867 375.572 75.1712 401.953 80.7725C432.207 87.2166 488.164 122.295 476.89 180.224C471.148 209.496 477.276 242.708 478.832 275.565C480.793 316.913 503.944 357.117 538.754 371.582C566.214 383.011 599.249 380.917 629.931 393C652.955 401.989 673.176 416.96 688.558 436.406C704.807 457.268 715.024 482.283 718.095 508.721" stroke="white" stroke-opacity="0.04" stroke-miterlimit="10" />
  </g>
  <g style="mix-blend-mode:multiply">
    <path d="M-290.47 501.185C-256.136 533.052 -202.628 550.047 -157.216 533.708C-120.358 520.44 -92.305 487.92 -72.6749 454.395C-55.363 424.805 -39.9523 394.822 -15.7112 379.437C15.0168 359.932 53.0262 366.493 96.5847 361.014C137.818 355.823 175.576 349.393 207.162 329.153C228.476 315.502 245.917 294.232 259.947 270.729C292.313 216.528 273.554 160.518 307.728 121.244C341.796 82.3887 379.733 74.164 406.349 79.108C436.511 84.7105 490.703 118.226 481.207 173.311C476.205 202.269 483.665 234.927 485.376 267.443C487.472 307.41 508.9 346.255 541.672 361.53C568.162 373.827 600.567 373.349 630.949 385.143C655.495 394.671 676.178 409.368 691.467 426.961C709.174 447.349 720.859 472.362 725.209 499.193" stroke="white" stroke-opacity="0.04" stroke-miterlimit="10" />
  </g>
  <g style="mix-blend-mode:multiply">
    <path d="M-290.224 498.825C-254.178 530.707 -199.971 548.996 -153.197 532.718C-115.87 519.746 -87.1809 487.105 -68.0499 452.887C-51.388 423.076 -37.5701 392.627 -14.4905 375.768C14.7074 354.412 52.5701 357.583 95.9108 351.861C137.709 346.323 176.5 342.22 209.458 322.868C232.033 309.612 250.671 288.13 265.381 264.074C297.03 212.329 281.45 158.38 314.648 120.088C347.308 82.6527 383.958 73.15 410.83 77.406C440.806 82.1625 482.847 113.689 485.588 166.359C487.099 195.294 490.119 227.107 491.984 259.302C494.227 297.878 513.918 335.395 544.676 351.428C570.231 364.745 601.926 365.772 631.998 377.288C656.757 386.761 678.148 400.58 694.427 417.529C713.595 437.429 726.754 462.44 732.386 489.678" stroke="white" stroke-opacity="0.04" stroke-miterlimit="10" />
  </g>
  <g style="mix-blend-mode:multiply">
    <path d="M-289.977 496.454C-252.219 528.35 -197.303 547.934 -149.168 531.759C-111.394 519.061 -82.0478 486.321 -63.4368 451.41C-47.4143 421.378 -35.1678 390.454 -13.27 372.108C14.4081 348.901 52.1049 348.65 95.2262 342.716C137.544 336.873 177.413 335.066 211.743 316.581C235.588 303.732 255.396 282.005 270.774 257.426C301.728 208.108 289.318 156.176 321.526 118.931C352.697 82.858 388.151 72.1448 415.259 75.7117C445.101 79.6351 485.276 109.902 489.937 159.405C492.636 187.939 496.53 219.294 498.56 251.149C500.927 288.374 518.849 324.594 547.628 341.312C572.28 355.628 603.276 358.172 633.049 369.389C658.032 378.809 680.122 391.726 697.39 408.052C718.018 427.448 732.652 452.455 739.555 480.109" stroke="white" stroke-opacity="0.04" stroke-miterlimit="10" />
  </g>
  <g style="mix-blend-mode:multiply">
    <path d="M-289.72 494.094C-250.261 526.005 -194.644 546.862 -145.149 530.79C-106.916 518.367 -76.904 485.538 -58.8125 449.924C-43.4394 419.659 -32.7758 388.28 -12.0495 368.449C14.1189 343.402 51.649 339.739 94.531 333.571C137.413 327.403 178.335 327.945 214.026 310.327C239.14 297.927 260.097 275.922 276.217 250.813C306.32 203.905 297.264 154.084 328.444 117.819C358.206 83.176 392.383 71.185 419.728 74.052C449.424 77.163 487.86 106.165 494.368 152.509C498.296 180.643 503.024 211.528 505.208 243.041C507.702 278.863 523.912 313.883 550.662 331.253C574.293 346.605 604.674 350.659 634.14 361.534C659.347 370.901 682.146 382.917 700.392 398.621C722.472 417.509 738.582 442.514 746.764 470.594" stroke="white" stroke-opacity="0.04" stroke-miterlimit="10" />
  </g>
  <g style="mix-blend-mode:multiply">
    <path d="M-289.473 491.722C-248.303 523.659 -191.986 545.79 -141.12 529.821C-102.44 517.682 -71.7501 484.766 -54.1887 448.448C-39.4544 417.951 -30.3739 386.118 -10.8289 364.79C13.8191 337.902 51.1937 330.817 93.8462 324.426C137.252 317.899 179.244 320.855 216.313 304.019C242.695 292.058 264.781 269.752 281.642 244.135C310.926 199.616 305.192 151.927 335.335 116.631C363.697 83.4302 396.597 70.1824 424.19 72.3289C453.739 74.6379 490.552 102.348 498.698 145.533C503.928 173.271 509.405 203.693 511.765 234.865C514.374 269.304 528.819 303.132 553.605 321.115C576.224 337.535 606.018 342.974 635.148 353.643C660.579 362.957 684.088 374.051 703.312 389.152C726.847 407.517 744.439 432.522 753.889 461.043" stroke="white" stroke-opacity="0.04" stroke-miterlimit="10" />
  </g>
  <g style="mix-blend-mode:multiply">
    <path d="M-289.227 489.361C-246.356 521.312 -189.338 544.695 -137.102 528.851C-97.9624 516.977 -66.5867 483.995 -49.5756 446.96C-35.4605 416.254 -27.9828 383.944 -9.60939 361.131C13.5287 332.402 50.7268 321.893 93.1598 315.291C137.128 308.45 180.164 313.733 218.596 297.743C246.246 286.262 269.442 263.603 287.065 237.489C315.542 195.339 313.118 149.802 342.233 115.487C369.186 83.7167 400.797 69.2117 428.62 70.5943C458.033 72.1017 493.32 98.4924 503.038 138.536C509.666 165.861 515.776 195.836 518.353 226.669C521.077 259.725 533.713 292.413 556.568 310.966C578.163 328.498 607.338 335.319 636.188 345.721C661.844 354.961 686.064 365.122 706.264 379.642C731.247 397.473 750.323 422.473 761.048 451.44" stroke="white" stroke-opacity="0.04" stroke-miterlimit="10" />
  </g>
  <g style="mix-blend-mode:multiply">
    <path d="M-288.981 487.01C-244.397 518.966 -186.678 543.601 -133.125 527.879C-93.5367 516.269 -61.4535 483.222 -45.0034 445.471C-31.5074 414.555 -25.6331 381.779 -8.44172 357.48C13.1865 326.91 50.2091 312.956 92.412 306.141C136.903 298.952 181.031 306.65 220.828 291.464C249.768 280.423 274.022 257.428 292.426 230.839C319.992 191.033 320.961 147.683 349.079 114.341C374.633 84.0118 404.955 68.26 433.035 68.9542C462.311 69.6811 496.232 94.6852 507.373 131.645C515.474 158.528 522.173 188.095 524.853 218.574C527.68 250.258 538.486 281.824 559.453 300.919C579.97 319.591 608.612 327.756 637.151 337.89C663.031 347.067 687.962 356.295 709.137 370.244C735.565 387.531 756.129 412.526 768.128 441.948" stroke="white" stroke-opacity="0.04" stroke-miterlimit="10" />
  </g>
  <g style="mix-blend-mode:multiply">
    <path d="M-288.734 484.629C-242.439 516.62 -184.029 542.508 -129.054 526.913C-89.0171 515.566 -56.2377 482.464 -40.3275 443.998C-27.4501 412.862 -23.1281 379.643 -7.16942 353.823C13.01 321.447 49.8054 304.035 91.7782 297.008C136.833 289.494 181.969 299.592 223.165 285.189C253.36 274.629 278.676 251.236 297.902 224.195C324.569 186.702 329.042 145.619 356.019 113.199C380.225 84.3463 409.228 67.3145 437.547 67.2663C466.674 67.2228 499.329 90.7706 511.794 124.715C521.97 152.304 528.606 181.121 531.542 210.467C534.464 240.767 543.393 271.253 562.517 290.849C581.911 310.711 610.054 320.191 638.292 330.047C664.396 339.159 690.039 347.445 712.2 360.824C740.06 377.569 762.111 402.556 775.399 432.434" stroke="white" stroke-opacity="0.04" stroke-miterlimit="10" />
  </g>
  <g style="mix-blend-mode:multiply">
    <path d="M-288.486 482.257C-240.481 514.274 -181.316 541.395 -125.035 525.943C-84.5384 514.85 -51.0517 481.684 -35.7135 442.511C-23.4342 411.167 -20.7333 377.417 -5.93854 350.164C12.6686 315.934 49.3403 295.089 91.0931 287.861C136.672 279.967 182.887 292.533 225.449 278.902C256.914 268.791 283.237 244.997 303.336 217.548C329.083 182.357 336.969 143.495 362.93 112.036C385.726 84.6137 413.449 66.3671 442.049 65.5679C471.049 64.7548 502.506 86.7219 516.219 117.711C527.853 144.525 535.264 173.04 538.186 202.23C541.211 231.157 548.213 260.56 565.567 280.66C583.752 301.731 611.484 312.434 639.409 322.075C665.738 331.113 692.114 338.445 715.228 351.273C744.519 367.472 768.061 392.453 782.633 422.8" stroke="white" stroke-opacity="0.04" stroke-miterlimit="10" />
  </g>
  <g style="mix-blend-mode:multiply">
    <path d="M-288.24 479.895C-238.523 511.927 -178.718 540.276 -121.006 524.984C-80.0585 514.102 -45.8458 480.914 -31.0878 440.992C-19.4062 409.428 -18.3314 375.244 -4.71656 346.462C12.423 310.382 48.8807 286.026 90.4088 278.681C136.527 270.334 183.795 285.441 227.735 272.582C260.453 263.004 287.76 238.692 308.709 210.856C333.548 177.945 344.845 141.326 369.776 110.869C391.164 84.8784 417.617 65.4173 446.405 63.8521C475.192 62.2868 505.604 82.5526 520.482 110.785C533.689 135.844 541.363 164.652 544.686 194.103C547.794 221.655 552.815 249.983 568.432 270.568C585.355 292.877 612.759 304.839 640.362 314.211C666.917 323.132 693.961 329.55 718.082 341.831C748.804 357.47 773.839 382.447 789.693 413.274" stroke="white" stroke-opacity="0.04" stroke-miterlimit="10" />
  </g>
  <g style="mix-blend-mode:multiply">
    <path d="M-288.035 477.522C-236.615 509.547 -176.146 539.062 -117.039 524.013C-75.6513 513.351 -40.681 480.143 -26.4653 439.548C-15.34 407.778 -15.9305 373.103 -3.51929 342.844C12.1317 304.913 48.3797 277.162 89.6882 269.605C136.359 260.943 184.655 278.474 229.994 266.388C263.977 257.313 292.206 232.457 314.139 204.294C338.02 173.63 352.778 139.286 376.671 109.811C396.659 85.2518 421.852 64.5874 450.871 62.2368C479.615 59.9162 508.844 78.3154 524.859 103.905C540.002 128.098 547.738 156.921 551.279 186.032C554.471 212.2 557.458 239.451 571.411 260.534C586.977 284.077 614.115 297.301 641.47 306.396C668.249 315.264 695.997 320.696 721.101 332.438C753.238 347.511 779.768 372.465 796.921 403.756" stroke="white" stroke-opacity="0.04" stroke-miterlimit="10" />
  </g>
  <g style="mix-blend-mode:multiply">
    <path d="M-287.736 475.162C-234.618 507.265 -173.405 538.014 -112.957 523.046C-71.1122 512.68 -35.4125 479.387 -21.8504 438.04C-11.3437 406.049 -13.5378 370.908 -2.27899 339.196C11.8316 299.401 47.9432 268.259 89.0453 260.438C136.259 251.439 185.593 271.415 232.322 260.071C267.56 251.508 296.671 226.054 319.637 197.618C342.602 169.182 360.78 137.124 383.655 108.631C402.224 85.4923 426.166 63.6569 455.404 60.531C484.03 57.4729 512.138 73.8064 529.312 96.9561C546.485 120.106 554.179 149.119 557.96 177.871C561.213 202.663 562.127 228.803 574.466 250.409C588.622 275.205 615.547 289.692 642.549 298.506C669.552 307.321 697.993 311.755 724.093 322.959C757.634 337.483 785.641 362.441 804.065 394.222" stroke="white" stroke-opacity="0.04" stroke-miterlimit="10" />
  </g>
</svg>
  