<svg width="1079" height="1557" viewBox="0 0 1079 1557" fill="none" xmlns="http://www.w3.org/2000/svg">
  <g style="mix-blend-mode:multiply">
    <path d="M-88.5968 1163.01C-64.1291 1189.13 -18.1852 1181.33 9.07399 1157.59C36.3332 1133.86 50.6926 1099.25 67.9014 1067.58C85.1102 1035.91 108.929 1003.97 143.839 994.607C188.476 982.629 236.747 1011.42 280.882 997.554C315.269 986.77 336.264 952.987 345.25 920.114C350.325 901.523 349.454 881.399 352.965 862.52C368.872 776.864 304.41 716.565 335.986 658.844C370.188 596.33 420.679 588.975 447.236 593.901C481.226 600.24 559.384 628.539 556.456 715.944C555.266 751.45 555.425 787.612 564.38 821.919C577.793 873.273 628.927 915.534 682.006 908.276C718.391 903.308 752.151 877.278 788.245 883.378C812.519 887.475 832.413 906.231 842.533 928.468C852.653 950.706 854.105 976.071 852.042 1000.53" stroke="white" stroke-opacity="0.04" stroke-miterlimit="10" />
  </g>
  <g style="mix-blend-mode:multiply">
    <path d="M-88.9111 1160.65C-62.7501 1186.39 -15.7643 1179.71 12.7837 1155.67C40.6341 1132.22 55.4026 1097.14 72.0642 1065.02C88.4994 1033.23 110.782 1001.26 144.162 990.795C186.876 977.411 234.165 1003 277.988 989C312.822 977.782 335.086 945.851 345.939 913.573C352.177 895.032 352.712 874.46 356.627 854.877C373.221 771.879 311.605 712.66 342.418 656.118C375.581 595.321 424.551 586.976 451.143 591.26C484.869 596.709 559.956 624.196 558.976 708.255C558.583 742.928 559.748 778.609 568.767 812.529C581.982 862.525 630.992 903.649 682.392 897.888C717.953 893.909 751.548 869.677 787.278 875.572C811.744 879.569 831.938 897.367 843.043 918.696C854.253 940.209 857.413 965.074 856.617 989.568" stroke="white" stroke-opacity="0.04" stroke-miterlimit="10" />
  </g>
  <g style="mix-blend-mode:multiply">
    <path d="M-89.2497 1158.27C-61.4415 1183.6 -13.3657 1178.08 16.4636 1153.72C44.9144 1130.48 60.1651 1095.09 76.2051 1062.43C91.8547 1030.55 112.553 998.591 144.459 986.966C185.244 972.171 231.584 994.651 275.098 980.385C310.41 968.796 333.967 938.655 346.635 906.983C354.058 888.482 355.968 867.45 360.256 847.136C377.402 766.806 318.764 708.652 348.84 653.322C380.979 594.239 428.405 584.885 455.047 588.526C488.438 593.106 560.576 619.786 561.579 700.572C561.993 734.42 564.146 769.579 573.262 803.141C586.259 851.789 633.16 891.776 682.886 887.475C717.654 884.482 751.063 862.057 786.432 867.762C811.097 871.636 831.593 888.493 843.674 908.893C856.007 929.707 860.818 954.109 861.351 978.68" stroke="white" stroke-opacity="0.04" stroke-miterlimit="10" />
  </g>
  <g style="mix-blend-mode:multiply">
    <path d="M-89.5882 1155.9C-60.1088 1180.83 -10.9833 1176.43 20.1434 1151.76C49.1594 1128.77 64.8885 1093.02 80.347 1059.85C95.2327 1027.87 114.357 995.879 144.754 983.122C183.613 966.931 228.997 986.245 272.209 971.769C307.986 959.774 332.876 931.442 347.33 900.378C355.929 881.896 359.193 860.428 363.965 839.476C381.583 761.748 326.009 704.703 355.277 650.54C386.377 593.157 432.276 582.822 458.976 585.826C492.04 589.545 561.26 615.43 564.134 692.835C565.363 725.895 568.567 760.473 577.701 793.72C590.632 840.97 635.297 879.892 683.299 877.078C717.275 875.085 750.473 854.528 785.496 859.945C810.344 863.78 831.189 879.639 844.223 899.104C857.685 919.213 864.133 943.152 865.964 967.774" stroke="white" stroke-opacity="0.04" stroke-miterlimit="10" />
  </g>
  <g style="mix-blend-mode:multiply">
    <path d="M-89.918 1153.53C-58.7755 1178.06 -8.60711 1174.79 23.8236 1149.81C53.3954 1127.03 69.6327 1090.93 84.4813 1057.26C98.6397 1025.17 116.176 993.15 145.052 979.294C181.989 961.697 226.396 977.826 269.313 963.148C305.529 950.777 331.832 924.239 348.027 893.788C357.845 875.32 362.443 853.441 367.61 831.748C385.589 756.64 333.183 700.709 361.698 647.729C391.767 592.068 436.095 580.757 462.866 583.093C495.618 585.964 561.96 611.073 566.674 685.099C568.734 717.369 572.97 751.421 582.102 784.296C594.867 830.186 637.42 868.023 683.695 866.652C716.91 865.672 749.893 846.924 784.551 852.107C809.601 855.864 830.791 870.763 844.757 889.302C859.37 908.696 867.413 932.138 870.575 956.853" stroke="white" stroke-opacity="0.04" stroke-miterlimit="10" />
  </g>
  <g style="mix-blend-mode:multiply">
    <path d="M-90.2565 1151.15C-57.4362 1175.29 -6.20088 1173.16 27.5029 1147.86C57.6225 1125.29 74.3851 1088.86 88.6148 1054.68C102.013 1022.53 117.925 990.406 145.348 975.451C180.322 956.387 223.795 969.423 266.424 954.533C303.125 941.717 330.832 917.033 348.722 887.184C359.776 868.744 365.67 846.45 371.302 824.061C389.571 751.526 340.411 696.746 368.15 644.961C397.202 590.99 439.997 578.706 466.838 580.375C499.259 582.422 562.819 606.753 569.288 677.371C572.183 708.896 577.417 742.365 586.615 774.869C599.205 819.393 639.697 856.201 684.203 856.225C716.65 856.265 749.414 839.297 783.703 844.268C808.954 847.932 830.527 861.874 845.401 879.484C861.189 898.182 870.842 921.208 875.298 945.93" stroke="white" stroke-opacity="0.04" stroke-miterlimit="10" />
  </g>
  <g style="mix-blend-mode:multiply">
    <path d="M-90.6353 1148.74C-56.1441 1172.48 -3.91536 1171.43 31.1487 1145.86C61.8079 1123.5 79.0972 1086.75 92.7227 1052.05C105.373 1019.82 119.681 987.653 145.652 971.614C178.696 951.124 221.207 960.989 263.542 945.91C300.724 932.687 329.869 909.83 349.425 880.587C361.737 862.165 368.894 839.428 374.969 816.353C393.406 746.44 347.607 692.757 374.586 642.163C402.599 589.908 443.846 576.652 470.729 577.671C502.818 578.894 563.647 602.503 571.83 669.665C575.712 702.067 582.132 734.095 591.032 765.459C603.421 808.664 641.83 844.37 684.623 845.82C716.333 846.892 748.85 831.707 782.782 836.451C808.233 840.021 830.196 852.999 845.966 869.694C862.942 887.682 874.198 910.218 879.975 934.996" stroke="white" stroke-opacity="0.04" stroke-miterlimit="10" />
  </g>
  <g style="mix-blend-mode:multiply">
    <path d="M-90.933 1146.4C-54.771 1169.75 -1.51018 1169.79 34.8614 1143.95C66.059 1121.78 83.9182 1084.69 96.8895 1049.51C108.817 1017.21 121.498 984.992 145.949 967.786C177.037 945.902 218.597 952.565 260.67 937.31C298.246 923.619 328.941 902.67 350.137 874.011C363.723 855.621 372.108 832.453 378.675 808.65C397.247 741.332 354.855 688.77 381.059 639.37C408.034 588.829 447.734 574.617 474.68 574.961C506.459 575.352 564.625 598.254 574.438 661.946C579.409 693.752 586.45 725.186 595.516 756.05C607.756 797.842 644.073 832.588 685.101 835.395C716.069 837.523 748.334 824.075 781.905 828.629C806.27 832.07 828.874 842.999 846.558 859.888C864.792 877.18 877.603 899.269 884.627 924.124" stroke="white" stroke-opacity="0.04" stroke-miterlimit="10" />
  </g>
  <g style="mix-blend-mode:multiply">
    <path d="M-91.263 1144.03C-53.4315 1166.97 0.831656 1168.11 38.5324 1141.99C70.2616 1120.01 88.6604 1082.68 101.063 1046.96C112.266 1014.59 123.343 982.312 146.299 963.96C175.458 940.664 216.056 944.141 257.827 928.692C295.9 914.606 328.078 895.495 350.87 867.411C365.76 849.064 375.366 825.473 382.383 800.976C400.989 736.21 362.085 684.837 387.507 636.637C413.458 587.81 451.597 572.643 478.62 572.312C510.034 571.919 565.67 594.005 577.013 654.281C582.487 683.576 590.546 715.173 599.926 746.648C611.977 787.075 646.265 820.833 685.499 824.985C715.735 828.204 747.761 816.464 780.975 820.79C805.452 824.017 828.412 834.184 847.113 850.077C866.676 866.899 881.242 888.711 889.267 913.201" stroke="white" stroke-opacity="0.04" stroke-miterlimit="10" />
  </g>
  <g style="mix-blend-mode:multiply">
    <path d="M-91.5691 1141.68C-52.0675 1164.23 3.21091 1166.44 42.2483 1140.06C74.5007 1118.27 93.4581 1080.65 105.187 1044.38C115.653 1011.96 125.115 979.604 146.565 960.15C173.781 935.446 213.414 935.722 254.92 920.067C293.477 905.536 327.183 888.341 351.545 860.795C367.732 842.501 378.485 818.426 386.007 793.253C404.609 731.036 369.244 680.824 393.91 633.794C418.83 586.675 455.424 570.565 482.514 569.537C513.601 568.38 566.772 589.8 579.557 646.504C586.01 675.174 594.96 706.167 604.393 737.22C616.256 776.297 648.514 809.134 685.969 814.562C715.508 818.847 747.236 808.834 780.074 812.971C804.697 815.986 828.024 825.405 847.704 840.278C868.576 856.298 884.565 877.749 893.926 902.29" stroke="white" stroke-opacity="0.04" stroke-miterlimit="10" />
  </g>
  <g style="mix-blend-mode:multiply">
    <path d="M-91.9393 1139.27C-50.7761 1161.43 5.51723 1164.72 45.9084 1138.09C78.6826 1116.48 98.2294 1078.58 109.307 1041.77C119.087 1009.28 126.887 976.895 146.842 956.295C172.131 930.195 210.798 927.256 251.992 911.466C290.983 896.517 326.261 881.233 352.207 854.226C369.715 836.004 381.609 811.439 389.68 785.6C408.17 725.882 376.39 676.872 400.33 630.995C424.212 585.59 459.245 568.54 486.403 566.816C517.131 564.867 567.974 585.571 582.095 638.78C589.52 666.75 599.313 697.1 608.813 727.797C620.449 765.52 650.704 797.485 686.339 804.141C715.177 809.544 746.627 801.219 779.102 805.136C805.347 808.313 829.062 817.349 848.208 830.479C870.388 845.687 887.808 866.775 898.514 891.377" stroke="white" stroke-opacity="0.04" stroke-miterlimit="10" />
  </g>
  <g style="mix-blend-mode:multiply">
    <path d="M-92.2697 1136.9C-49.4382 1158.65 7.84676 1163.02 49.5674 1136.12C82.8552 1114.68 102.993 1076.52 113.419 1039.17C122.513 1006.62 128.678 974.162 147.126 952.447C170.474 924.952 208.167 918.807 249.083 902.842C288.529 887.45 325.373 874.101 352.887 847.618C371.724 829.474 384.728 804.422 393.291 777.856C411.727 720.714 383.592 672.886 406.73 628.234C429.58 584.537 463.062 566.568 490.286 564.132C520.679 561.412 569.275 581.386 584.626 631.079C593.033 658.371 603.681 688.048 613.219 718.405C624.687 754.753 652.925 785.863 686.784 793.743C714.924 800.292 746.091 793.597 778.188 797.311C804.625 800.388 828.808 808.415 848.762 820.668C872.248 835.051 891.1 855.779 903.143 880.46" stroke="white" stroke-opacity="0.04" stroke-miterlimit="10" />
  </g>
  <g style="mix-blend-mode:multiply">
    <path d="M-92.6081 1134.53C-48.1074 1155.88 10.1747 1161.3 53.242 1134.17C87.0082 1112.92 107.794 1074.48 117.555 1036.59C125.957 1003.98 130.471 971.459 147.412 948.614C168.847 919.722 205.552 910.357 246.191 894.232C286.092 878.397 324.526 867.017 353.575 841.017C373.75 822.974 387.845 797.392 396.938 770.184C415.21 715.553 390.674 668.897 413.128 625.474C434.87 583.447 466.851 564.629 494.169 561.449C524.227 557.972 570.722 577.158 587.158 623.394C596.645 650.021 607.973 679.084 617.619 709.037C628.875 744.03 655.116 774.341 687.184 783.349C714.624 791.098 745.51 785.994 777.254 789.525C803.882 792.487 828.538 799.482 849.312 810.91C874.11 824.46 894.409 844.831 907.8 869.608" stroke="white" stroke-opacity="0.04" stroke-miterlimit="10" />
  </g>
  <g style="mix-blend-mode:multiply">
    <path d="M-92.9332 1132.13C-46.7635 1153.09 12.5143 1159.55 56.9292 1132.2C91.2188 1111.05 112.615 1072.41 121.716 1033.96C129.434 1001.31 132.277 968.74 147.738 944.748C167.233 914.462 202.97 901.867 243.318 885.583C283.665 869.299 323.708 859.916 354.29 834.399C375.804 816.456 390.961 790.346 400.637 762.433C418.7 710.302 397.914 664.862 419.593 622.633C440.31 582.304 470.756 562.567 498.133 558.683C527.844 554.466 572.322 572.893 589.763 615.62C600.352 641.573 612.392 669.953 622.104 699.549C633.157 733.193 657.382 762.746 687.659 772.882C714.398 781.83 745.004 778.303 776.378 781.636C803.212 784.482 828.341 790.446 849.919 801.049C876.009 813.741 897.751 833.732 912.5 858.587" stroke="white" stroke-opacity="0.04" stroke-miterlimit="10" />
  </g>
  <g style="mix-blend-mode:multiply">
    <path d="M-93.2848 1129.77C-45.4668 1150.36 14.8132 1157.84 60.562 1130.29C95.373 1109.32 117.39 1070.42 125.789 1031.44C132.837 998.739 134.03 966.1 147.969 940.979C165.545 909.305 200.301 893.483 240.339 877.012C281.162 860.261 322.784 852.892 354.892 827.851C377.745 810.023 393.898 783.318 404.217 754.775C422.075 705.122 405.041 660.898 425.939 619.886C445.618 581.271 474.507 560.638 501.948 556.014C531.327 551.055 573.9 568.638 592.22 607.942C603.997 633.198 616.657 660.955 626.449 690.179C637.269 722.477 659.496 751.313 687.991 762.503C714.013 772.719 744.348 770.707 775.361 773.851C802.402 776.595 828.001 781.498 850.391 791.283C877.76 803.138 900.929 822.778 917.005 847.749" stroke="white" stroke-opacity="0.04" stroke-miterlimit="10" />
  </g>
  <g style="mix-blend-mode:multiply">
    <path d="M-93.6285 1127.42C-44.1228 1147.58 17.1103 1156.13 64.2807 1128.35C99.6358 1107.56 122.264 1068.39 129.969 1028.87C136.328 996.063 135.858 963.371 148.256 937.079C163.898 904.003 197.652 884.979 237.467 868.365C278.714 851.174 321.951 845.808 355.598 821.213C379.799 803.52 396.99 776.268 407.893 747.034C425.495 699.855 412.224 656.913 432.374 617.062C451.03 580.161 478.371 558.639 505.868 553.267C534.923 547.588 575.706 564.258 594.804 600.193C607.813 624.718 621.012 651.883 630.907 680.739C641.507 711.675 661.674 739.838 688.445 752.061C713.729 763.583 743.82 763.04 774.464 765.987C801.702 768.608 827.797 772.485 850.97 781.455C879.622 792.446 904.238 811.719 921.664 836.806" stroke="white" stroke-opacity="0.04" stroke-miterlimit="10" />
  </g>
  <g style="mix-blend-mode:multiply">
    <path d="M-93.9532 1125.03C-42.7792 1144.79 19.4248 1154.35 67.9343 1126.35C103.752 1105.66 127.082 1066.3 134.076 1026.24C139.799 993.426 137.644 960.69 148.581 933.28C162.328 898.822 195.09 876.534 234.616 859.791C276.301 842.144 321.15 838.818 356.326 814.661C381.882 797.096 400.031 769.245 411.584 739.374C428.881 694.63 419.463 652.975 438.83 614.311C456.463 579.123 482.257 556.727 509.808 550.593C538.534 544.201 577.632 559.882 597.386 592.512C611.746 616.228 625.38 642.876 635.362 671.351C645.737 700.948 663.871 728.503 688.902 741.664C713.396 754.556 743.309 755.402 773.565 758.19C801.008 760.696 827.549 763.477 851.56 771.679C881.486 781.808 907.547 800.715 926.327 825.923" stroke="white" stroke-opacity="0.04" stroke-miterlimit="10" />
  </g>
  <g style="mix-blend-mode:multiply">
    <path d="M-94.2916 1122.65C-41.4334 1142.04 21.7333 1152.61 71.6059 1124.4C107.892 1103.88 131.973 1064.3 138.2 1023.65C143.284 990.787 139.518 957.987 148.88 929.446C160.779 893.616 192.467 868.066 231.725 851.184C273.847 833.066 320.316 831.801 357.053 808.095C383.939 790.719 403.033 762.203 415.289 731.712C432.275 689.425 426.764 649.075 445.292 611.55C461.964 578.115 486.151 554.821 513.755 547.909C542.158 540.813 579.654 555.408 599.968 584.83C616.524 608.722 629.92 634.648 639.832 661.977C649.966 690.222 666.002 717.196 689.337 731.261C713.012 745.555 742.74 747.783 772.656 750.372C800.27 752.787 827.292 754.462 852.118 761.875C883.314 771.137 910.826 789.68 930.966 815.02" stroke="white" stroke-opacity="0.04" stroke-miterlimit="10" />
  </g>
  <g style="mix-blend-mode:multiply">
    <path d="M-94.6218 1120.28C-40.1212 1139.24 24.0401 1150.84 75.2769 1122.44C112.093 1102.02 136.789 1062.22 142.333 1021.07C146.769 988.149 141.316 955.275 149.156 925.607C159.137 888.374 189.876 859.625 228.846 842.532C271.413 823.951 319.494 824.755 357.72 801.438C385.975 784.189 405.927 755.031 418.924 723.938C435.574 684.073 433.932 645.024 451.699 608.691C467.341 576.962 489.969 552.826 517.648 545.128C545.729 537.326 581.679 550.703 602.51 577.034C620.298 599.84 634.376 625.295 644.239 652.483C654.14 679.382 668.035 705.794 689.772 720.792C712.58 736.53 742.201 740.08 771.748 742.487C799.58 744.755 827.051 745.379 852.686 752.027C885.149 760.404 914.114 778.577 935.613 804.056" stroke="white" stroke-opacity="0.04" stroke-miterlimit="10" />
  </g>
  <g style="mix-blend-mode:multiply">
    <path d="M-94.9523 1117.91C-38.784 1136.48 26.3866 1149.11 78.9472 1120.48C116.274 1100.2 141.653 1060.17 146.464 1018.49C150.269 985.508 143.115 952.578 149.472 921.786C157.511 883.146 187.2 851.059 225.945 833.972C268.919 814.826 318.637 817.815 358.395 794.884C388.002 777.815 408.784 747.965 422.562 716.29C438.883 678.838 441.094 641.091 458.086 605.951C472.697 575.929 493.825 550.929 521.521 542.465C549.216 534.001 583.74 545.987 605.025 569.365C623.931 590.106 638.3 615.761 648.642 643.122C658.288 668.685 669.999 694.54 690.205 710.457C712.066 727.669 741.653 732.452 770.823 734.737C798.87 736.828 826.823 736.443 853.249 742.297C886.961 749.802 917.373 767.602 940.24 793.213" stroke="white" stroke-opacity="0.04" stroke-miterlimit="10" />
  </g>
  <g style="mix-blend-mode:multiply">
    <path d="M-95.2983 1115.53C-37.4627 1133.7 28.5928 1147.22 82.6093 1118.52C120.396 1098.31 146.523 1058.12 150.58 1015.9C153.733 982.893 144.866 949.84 149.762 917.931C155.9 877.902 184.595 842.605 223.061 825.343C266.469 805.779 317.744 810.804 359.075 788.293C390.032 771.389 411.589 740.801 426.218 708.589C442.171 673.532 448.313 637.138 464.506 603.156C478.087 574.854 497.694 549.017 525.419 539.755C552.897 530.576 585.831 541.09 607.581 561.649C628.155 581.092 642.621 606.758 653.057 633.731C662.435 657.974 671.902 683.278 690.57 700.039C711.428 718.759 741.046 724.83 769.845 726.903C798.091 728.886 826.427 727.381 853.754 732.491C888.717 739.113 920.581 756.542 944.816 782.3" stroke="white" stroke-opacity="0.04" stroke-miterlimit="10" />
  </g>
  <g style="mix-blend-mode:multiply">
    <path d="M-95.637 1113.15C-36.1273 1130.92 30.9326 1145.51 86.3122 1116.52C124.614 1096.51 151.431 1056.09 154.749 1013.33C157.31 980.222 146.734 947.173 150.086 914.132C154.291 872.703 182.056 834.236 220.198 816.774C264.073 796.751 316.962 803.874 359.8 781.713C392.109 765.003 414.377 733.639 429.912 700.907C445.446 668.174 455.513 633.142 470.956 600.388C483.485 573.816 501.609 547.129 529.362 537.057C556.536 527.201 587.86 536.006 610.169 553.96C632.477 571.913 646.974 597.783 657.536 624.312C666.66 647.22 673.83 671.969 691.055 689.627C710.838 709.905 740.543 717.198 768.972 719.075C797.402 720.951 826.224 718.303 854.363 722.691C890.571 728.427 923.891 745.481 949.503 771.384" stroke="white" stroke-opacity="0.04" stroke-miterlimit="10" />
  </g>
  <g style="mix-blend-mode:multiply">
    <path d="M-16.5967 393.048C7.87095 366.923 53.8148 374.729 81.0741 398.462C108.333 422.195 122.693 456.809 139.902 488.476C157.11 520.144 180.93 552.085 215.84 561.447C260.477 573.425 308.747 544.638 352.882 558.5C387.269 569.284 408.264 603.067 417.25 635.94C422.326 654.531 421.454 674.656 424.965 693.534C440.872 779.191 376.41 839.489 407.986 897.211C442.188 959.725 492.679 967.08 519.237 962.153C553.226 955.815 631.384 927.515 628.456 840.11C627.266 804.604 627.425 768.443 636.38 734.136C649.793 682.782 700.927 640.52 754.006 647.779C790.391 652.747 824.151 678.777 860.245 672.677C884.519 668.58 904.413 649.824 914.533 627.586C924.653 605.349 926.105 579.984 924.042 555.528" stroke="white" stroke-opacity="0.04" stroke-miterlimit="10" />
  </g>
  <g style="mix-blend-mode:multiply">
    <path d="M-16.911 395.404C9.24997 369.666 56.2357 376.344 84.7837 400.387C112.634 423.831 127.403 458.912 144.064 491.033C160.499 522.822 182.782 554.791 216.162 565.26C258.877 578.643 306.165 553.057 349.988 567.054C384.822 578.273 407.086 610.203 417.939 642.481C424.177 661.023 424.712 681.594 428.627 701.177C445.221 784.175 383.606 843.394 414.418 899.937C447.581 960.734 496.551 969.078 523.143 964.794C556.869 959.346 631.956 931.858 630.976 847.8C630.583 813.127 631.748 777.446 640.767 743.525C653.983 693.53 702.992 652.405 754.392 658.166C789.953 662.146 823.548 686.378 859.278 680.483C883.744 676.486 903.938 658.687 915.043 637.358C926.253 615.846 929.413 590.98 928.617 566.487" stroke="white" stroke-opacity="0.04" stroke-miterlimit="10" />
  </g>
  <g style="mix-blend-mode:multiply">
    <path d="M-17.2497 397.78C10.5586 372.455 58.6343 377.978 88.4637 402.339C116.914 425.571 132.165 460.963 148.205 493.627C163.855 525.506 184.553 557.463 216.459 569.089C257.245 583.883 303.584 561.404 347.098 575.67C382.41 587.259 405.967 617.399 418.635 649.071C426.058 667.573 427.968 688.604 432.256 708.919C449.402 789.248 390.764 847.402 420.84 902.732C452.98 961.816 500.405 971.169 527.047 967.529C560.438 962.948 632.576 936.268 633.58 855.483C633.993 821.634 636.146 786.475 645.262 752.914C658.259 704.266 705.16 664.278 754.886 668.579C789.654 671.573 823.063 693.998 858.432 688.293C883.097 684.418 903.593 667.561 915.674 647.162C928.007 626.347 932.818 601.946 933.351 577.374" stroke="white" stroke-opacity="0.04" stroke-miterlimit="10" />
  </g>
  <g style="mix-blend-mode:multiply">
    <path d="M-17.5882 400.157C11.8912 375.224 61.0168 379.626 92.1435 404.291C121.159 427.285 136.889 463.032 152.347 496.207C167.233 528.186 186.357 560.176 216.755 572.932C255.613 589.124 300.997 569.809 344.209 584.285C379.986 596.281 404.876 624.613 419.33 655.676C427.929 674.159 431.193 695.626 435.965 716.578C453.583 794.306 398.009 851.351 427.277 905.514C458.377 962.897 504.276 973.232 530.976 970.228C564.04 966.509 633.26 940.624 636.134 863.22C637.363 830.16 640.567 795.581 649.701 762.334C662.632 715.085 707.297 676.163 755.299 678.977C789.275 680.969 822.473 701.526 857.496 696.109C882.344 692.274 903.189 676.415 916.223 656.95C929.685 636.841 936.133 612.903 937.964 588.281" stroke="white" stroke-opacity="0.04" stroke-miterlimit="10" />
  </g>
  <g style="mix-blend-mode:multiply">
    <path d="M-17.9179 402.527C13.2245 377.993 63.393 381.266 95.8237 406.244C125.395 429.022 141.633 465.126 156.481 498.793C170.64 530.883 188.176 562.904 217.052 576.761C253.99 594.357 298.396 578.228 341.313 592.907C377.529 605.277 403.832 631.816 420.027 662.266C429.846 680.734 434.443 702.613 439.61 724.306C457.589 799.415 405.183 855.346 433.698 908.325C463.767 963.986 508.096 975.298 534.866 972.961C567.618 970.091 633.96 944.982 638.674 870.956C640.734 838.686 644.97 804.634 654.102 771.759C666.867 725.869 709.42 688.031 755.695 689.402C788.91 690.383 821.893 709.13 856.551 703.948C881.601 700.191 902.792 685.292 916.757 666.752C931.37 647.359 939.413 623.916 942.575 599.202" stroke="white" stroke-opacity="0.04" stroke-miterlimit="10" />
  </g>
  <g style="mix-blend-mode:multiply">
    <path d="M-18.2565 404.904C14.5638 380.769 65.7992 382.893 99.503 408.196C129.623 430.764 146.385 467.198 160.615 501.379C174.013 533.525 189.926 565.648 217.348 580.604C252.322 599.668 295.795 586.631 338.424 601.521C375.125 614.337 402.832 639.022 420.722 668.87C431.776 687.31 437.67 709.605 443.302 731.994C461.571 804.528 412.411 859.308 440.15 911.094C469.202 965.064 511.997 977.349 538.838 975.68C571.259 973.632 634.819 949.301 641.288 878.683C644.183 847.159 649.417 813.689 658.615 781.185C671.205 736.661 711.697 699.853 756.203 699.83C788.65 699.79 821.415 716.758 855.703 711.786C880.954 708.123 902.527 694.18 917.401 676.571C933.189 657.872 942.842 634.846 947.298 610.125" stroke="white" stroke-opacity="0.04" stroke-miterlimit="10" />
  </g>
  <g style="mix-blend-mode:multiply">
    <path d="M-18.6352 407.314C15.856 383.572 68.0847 384.622 103.149 410.19C133.808 432.555 151.097 469.304 164.723 504.001C177.373 536.232 191.682 568.401 217.652 584.44C250.696 604.931 293.207 595.066 335.542 610.144C372.724 623.368 401.869 646.224 421.425 675.468C433.737 693.89 440.894 716.626 446.97 739.701C465.406 809.614 419.607 863.298 446.586 913.891C474.599 966.147 515.846 979.403 542.729 978.384C574.818 977.16 635.647 953.552 643.83 886.389C647.712 853.988 654.132 821.96 663.032 790.596C675.421 747.391 713.83 711.685 756.623 710.235C788.333 709.162 820.85 724.348 854.782 719.604C880.234 716.033 902.196 703.055 917.966 686.36C934.942 668.373 946.199 645.836 951.975 621.059" stroke="white" stroke-opacity="0.04" stroke-miterlimit="10" />
  </g>
  <g style="mix-blend-mode:multiply">
    <path d="M-18.933 409.657C17.2291 386.307 70.4899 386.265 106.861 412.101C138.059 434.278 155.918 471.36 168.89 506.545C180.817 538.844 193.498 571.063 217.949 588.269C249.037 610.153 290.597 603.49 332.67 618.745C370.246 632.435 400.941 653.385 422.137 682.044C435.723 700.434 444.108 723.602 450.675 747.404C469.247 814.722 426.855 867.284 453.059 916.685C480.034 967.225 519.734 981.438 546.68 981.093C578.459 980.703 636.625 957.801 646.438 894.108C651.409 862.302 658.45 830.869 667.516 800.004C679.757 758.213 716.073 723.466 757.102 720.659C788.069 718.531 820.334 731.979 853.905 727.425C878.27 723.984 900.874 713.056 918.558 696.166C936.792 678.874 949.603 656.786 956.627 631.931" stroke="white" stroke-opacity="0.04" stroke-miterlimit="10" />
  </g>
  <g style="mix-blend-mode:multiply">
    <path d="M-19.263 412.027C18.5685 389.084 72.8317 387.947 110.532 414.061C142.262 436.041 160.66 473.373 173.063 509.099C184.266 541.464 195.343 573.742 218.299 592.095C247.458 615.39 288.056 611.913 329.827 627.363C367.9 641.448 400.079 660.559 422.87 688.644C437.76 706.99 447.366 730.582 454.383 755.078C472.989 819.844 434.085 871.218 459.507 919.417C485.459 968.244 523.597 983.412 550.62 983.743C582.034 984.136 637.67 962.049 649.013 901.773C654.487 872.478 662.546 840.882 671.926 809.407C683.977 768.98 718.265 735.221 757.499 731.069C787.735 727.85 819.761 739.591 852.975 735.264C877.452 732.038 900.412 721.871 919.114 705.977C938.676 689.155 953.242 667.343 961.267 642.854" stroke="white" stroke-opacity="0.04" stroke-miterlimit="10" />
  </g>
  <g style="mix-blend-mode:multiply">
    <path d="M-19.5691 414.377C19.9325 391.826 75.211 389.61 114.248 415.995C146.501 437.785 165.458 475.405 177.187 511.677C187.653 544.091 197.115 576.45 218.565 595.904C245.781 620.609 285.414 620.332 326.92 635.988C365.477 650.519 399.183 667.714 423.545 695.259C439.732 713.553 450.485 737.628 458.007 762.802C476.609 825.019 441.244 875.23 465.91 922.26C490.831 969.38 527.424 985.489 554.514 986.517C585.601 987.675 638.772 966.254 651.557 909.55C658.01 880.881 666.96 849.887 676.393 818.834C688.256 779.757 720.514 746.92 757.969 741.492C787.508 737.207 819.236 747.22 852.074 743.083C876.697 740.069 900.024 730.65 919.704 715.776C940.576 699.756 956.565 678.305 965.926 653.765" stroke="white" stroke-opacity="0.04" stroke-miterlimit="10" />
  </g>
  <g style="mix-blend-mode:multiply">
    <path d="M-19.9392 416.78C21.224 394.629 77.5173 391.335 117.908 417.963C150.683 439.578 170.229 477.473 181.307 514.285C191.087 546.776 198.887 579.159 218.842 599.759C244.131 625.86 282.798 628.799 323.992 644.589C362.983 659.538 398.261 674.821 424.207 701.829C441.715 720.051 453.609 744.616 461.68 770.455C480.17 830.173 448.391 879.182 472.33 925.06C496.212 970.464 531.245 987.514 558.403 989.239C589.131 991.188 639.974 970.483 654.095 917.274C661.52 889.304 671.313 858.954 680.813 828.258C692.449 790.535 722.704 758.569 758.339 751.914C787.177 746.511 818.627 754.836 851.102 750.918C877.347 747.741 901.062 738.706 920.208 725.575C942.388 710.367 959.808 689.28 970.514 664.678" stroke="white" stroke-opacity="0.04" stroke-miterlimit="10" />
  </g>
  <g style="mix-blend-mode:multiply">
    <path d="M-20.2696 419.151C22.5618 397.407 79.8468 393.039 121.567 419.93C154.855 441.377 174.993 479.533 185.419 516.885C194.513 549.438 200.678 581.892 219.126 603.607C242.474 631.102 280.167 637.248 321.083 653.213C360.529 668.605 397.373 681.954 424.887 708.437C443.724 726.58 456.728 751.632 465.291 778.198C483.727 835.341 455.592 883.168 478.73 927.82C501.58 971.518 535.062 989.486 562.286 991.922C592.679 994.643 641.275 974.668 656.626 924.975C665.033 897.683 675.681 868.007 685.219 837.649C696.687 801.301 724.925 770.191 758.784 762.312C786.925 755.762 818.091 762.458 850.188 758.744C876.625 755.667 900.808 747.64 920.762 735.386C944.248 721.003 963.1 700.275 975.144 675.595" stroke="white" stroke-opacity="0.04" stroke-miterlimit="10" />
  </g>
  <g style="mix-blend-mode:multiply">
    <path d="M-20.608 421.527C23.8927 400.176 82.1748 394.758 125.242 421.884C159.008 443.137 179.794 481.574 189.555 519.464C197.957 552.071 202.471 584.595 219.412 607.44C240.847 636.332 277.552 645.698 318.191 661.823C358.092 677.657 396.526 689.037 425.575 715.037C445.75 733.081 459.845 758.663 468.938 785.87C487.21 840.501 462.674 887.158 485.128 930.58C506.87 972.608 538.851 991.425 566.169 994.606C596.227 998.083 642.722 978.897 659.158 932.66C668.645 906.033 679.973 876.97 689.619 847.018C700.875 812.025 727.116 781.713 759.184 772.705C786.624 764.956 817.51 770.06 849.254 766.53C875.883 763.568 900.538 756.572 921.312 745.145C946.11 731.595 966.409 711.223 979.8 686.447" stroke="white" stroke-opacity="0.04" stroke-miterlimit="10" />
  </g>
  <g style="mix-blend-mode:multiply">
    <path d="M-20.9331 423.92C25.2366 402.961 84.5143 396.509 128.929 423.855C163.219 445 184.615 483.64 193.716 522.091C201.434 554.745 204.277 587.315 219.738 611.307C239.233 641.593 274.97 654.187 315.318 670.471C355.665 686.755 395.708 696.138 426.29 721.655C447.804 739.599 462.961 765.708 472.637 793.621C490.7 845.752 469.914 891.192 491.593 933.421C512.31 973.75 542.756 993.487 570.133 997.371C599.844 1001.59 644.322 983.161 661.763 940.434C672.352 914.481 684.392 886.101 694.104 856.505C705.157 822.861 729.382 793.309 759.659 783.172C786.398 774.224 817.004 777.752 848.378 774.418C875.212 771.572 900.341 765.608 921.919 755.005C948.009 742.313 969.751 722.323 984.5 697.467" stroke="white" stroke-opacity="0.04" stroke-miterlimit="10" />
  </g>
  <g style="mix-blend-mode:multiply">
    <path d="M-21.2848 426.28C26.5333 405.69 86.8133 398.211 132.562 425.761C167.373 446.731 189.39 485.634 197.789 524.614C204.837 557.316 206.03 589.955 219.969 615.075C237.545 646.75 272.301 662.571 312.339 679.042C353.162 695.793 394.784 703.162 426.892 728.203C449.745 746.032 465.898 772.736 476.217 801.279C494.075 850.933 477.041 895.157 497.939 936.169C517.618 974.783 546.507 995.416 573.948 1000.04C603.327 1005 645.9 987.416 664.22 948.112C675.997 922.856 688.657 895.099 698.449 865.876C709.269 833.578 731.496 804.741 759.991 793.551C786.013 783.336 816.348 785.347 847.361 782.204C874.402 779.459 900.001 774.556 922.391 764.771C949.76 752.917 972.929 733.277 989.005 708.306" stroke="white" stroke-opacity="0.04" stroke-miterlimit="10" />
  </g>
  <g style="mix-blend-mode:multiply">
    <path d="M-21.6284 428.634C27.8772 408.476 89.1104 399.929 136.281 427.706C171.636 448.495 194.265 487.669 201.969 527.184C208.328 559.992 207.858 592.684 220.256 618.975C235.898 652.051 269.652 671.076 309.467 687.689C350.714 704.88 393.951 710.246 427.598 734.842C451.799 752.535 468.99 779.787 479.893 809.02C497.495 856.199 484.224 899.142 504.374 938.993C523.03 975.893 550.371 997.415 577.868 1002.79C606.923 1008.47 647.706 991.796 666.804 955.861C679.813 931.336 693.012 904.172 702.907 875.316C713.507 844.38 733.674 816.217 760.445 803.993C785.729 792.472 815.82 793.014 846.464 790.068C873.702 787.446 899.797 783.569 922.97 774.599C951.622 763.609 976.238 744.335 993.664 719.248" stroke="white" stroke-opacity="0.04" stroke-miterlimit="10" />
  </g>
  <g style="mix-blend-mode:multiply">
    <path d="M-21.9532 431.026C29.2208 411.262 91.4249 401.7 139.934 429.703C175.752 450.394 199.082 489.75 206.076 529.813C211.799 562.628 209.644 595.364 220.581 622.774C234.328 657.233 267.09 679.52 306.616 696.263C348.301 713.91 393.15 717.236 428.326 741.393C453.882 758.958 472.031 786.809 483.584 816.68C500.881 861.425 491.463 903.08 510.83 941.744C528.463 976.931 554.257 999.327 581.808 1005.46C610.534 1011.85 649.632 996.172 669.386 963.542C683.746 939.826 697.38 913.178 707.362 884.703C717.737 855.106 735.871 827.552 760.902 814.39C785.396 801.499 815.309 800.653 845.565 797.864C873.008 795.359 899.549 792.577 923.56 784.376C953.486 774.247 979.547 755.339 998.328 730.131" stroke="white" stroke-opacity="0.04" stroke-miterlimit="10" />
  </g>
  <g style="mix-blend-mode:multiply">
    <path d="M-22.2915 433.402C30.5666 414.018 93.7333 403.449 143.606 431.659C179.892 452.178 203.973 491.757 210.2 532.401C215.285 565.267 211.518 598.068 220.88 626.608C232.779 662.439 264.467 687.989 303.725 704.87C345.847 722.988 392.316 724.253 429.053 747.96C455.939 765.335 475.033 793.851 487.289 824.342C504.275 866.63 498.764 906.98 517.292 944.504C533.964 977.94 558.151 1001.23 585.755 1008.14C614.158 1015.24 651.654 1000.65 671.968 971.224C688.524 947.332 701.92 921.407 711.832 894.077C721.966 865.833 738.002 838.859 761.337 824.793C785.012 810.499 814.74 808.271 844.656 805.683C872.27 803.268 899.292 801.592 924.118 794.179C955.315 784.917 982.826 766.375 1002.97 741.035" stroke="white" stroke-opacity="0.04" stroke-miterlimit="10" />
  </g>
  <g style="mix-blend-mode:multiply">
    <path d="M-22.6217 435.772C31.8789 416.816 96.0402 405.212 147.277 433.615C184.093 454.034 208.789 493.839 214.333 534.982C218.769 567.906 213.316 600.779 221.156 630.447C231.137 667.68 261.876 696.429 300.846 713.522C343.413 732.104 391.494 731.3 429.72 754.616C457.975 771.865 477.927 801.024 490.924 832.116C507.574 871.981 505.932 911.031 523.699 947.363C539.341 979.093 561.969 1003.23 589.648 1010.93C617.729 1018.73 653.679 1005.35 674.51 979.021C692.298 956.214 706.376 930.759 716.239 903.572C726.14 876.673 740.035 850.26 761.772 835.262C784.58 819.524 814.201 815.974 843.748 813.567C871.58 811.3 899.051 810.676 924.686 804.028C957.149 795.65 986.114 777.477 1007.61 751.998" stroke="white" stroke-opacity="0.04" stroke-miterlimit="10" />
  </g>
  <g style="mix-blend-mode:multiply">
    <path d="M-22.9522 438.142C33.216 419.579 98.3866 406.943 150.947 435.571C188.274 455.852 213.653 495.882 218.464 537.564C222.269 570.546 215.115 603.477 221.472 634.268C229.511 672.909 259.201 704.996 297.945 722.083C340.919 741.229 390.637 738.24 430.395 761.17C460.002 778.24 480.784 808.089 494.562 839.764C510.883 877.216 513.094 914.964 530.086 950.103C544.697 980.126 565.825 1005.13 593.521 1013.59C621.216 1022.05 655.74 1010.07 677.025 986.689C695.931 965.948 710.3 940.294 720.642 912.932C730.288 887.369 741.999 861.514 762.205 845.597C784.066 828.386 813.653 823.602 842.823 821.317C870.87 819.226 898.823 819.612 925.249 813.758C958.961 806.252 989.373 788.452 1012.24 762.842" stroke="white" stroke-opacity="0.04" stroke-miterlimit="10" />
  </g>
  <g style="mix-blend-mode:multiply">
    <path d="M-23.2983 440.525C34.5374 422.356 100.593 408.832 154.609 437.535C192.396 457.747 218.523 497.933 222.58 540.159C225.733 573.162 216.866 606.215 221.762 638.124C227.9 678.153 256.595 713.449 295.062 730.711C338.469 750.276 389.744 745.25 431.075 767.762C462.032 784.666 483.589 815.253 498.218 847.466C514.171 882.523 520.313 918.917 536.506 952.898C550.087 981.2 569.694 1007.04 597.419 1016.3C624.897 1025.48 657.831 1014.96 679.581 994.406C700.155 974.963 714.621 949.296 725.057 922.324C734.435 898.08 743.902 872.777 762.571 856.015C783.428 837.296 813.046 831.225 841.845 829.152C870.091 827.168 898.427 828.673 925.754 823.564C960.717 816.941 992.581 799.512 1016.82 773.755" stroke="white" stroke-opacity="0.04" stroke-miterlimit="10" />
  </g>
  <g style="mix-blend-mode:multiply">
    <path d="M-23.6369 442.901C35.8727 425.134 102.933 410.54 158.312 439.532C196.614 459.546 223.431 499.965 226.749 542.722C229.31 575.832 218.734 608.881 222.086 641.923C226.292 683.352 254.056 721.818 292.198 739.28C336.073 759.304 388.963 752.181 431.8 774.342C464.109 791.051 486.378 822.416 501.912 855.148C517.446 887.88 527.513 922.913 542.956 955.666C555.485 982.238 573.609 1008.93 601.362 1019C628.536 1028.85 659.86 1020.05 682.169 1002.09C704.477 984.141 718.974 958.271 729.536 931.742C738.66 908.835 745.83 884.086 763.056 866.428C782.838 846.15 812.543 838.856 840.972 836.98C869.402 835.104 898.224 837.752 926.363 833.364C962.571 827.627 995.891 810.574 1021.5 784.67" stroke="white" stroke-opacity="0.04" stroke-miterlimit="10" />
  </g>
</svg>
  