<svg width="1110" height="1940" viewBox="0 0 1110 1940" fill="none" xmlns="http://www.w3.org/2000/svg">
  <g style="mix-blend-mode:multiply">
    <path d="M1583.37 1034.14C1574.47 1068.81 1530.43 1084.05 1495.12 1076.34C1459.81 1068.63 1430.58 1045.18 1400.26 1025.68C1369.95 1006.18 1333.71 989.619 1298.6 998.189C1253.7 1009.14 1225.21 1057.59 1179.84 1066.64C1144.51 1073.71 1109.86 1054.18 1086.18 1029.67C1072.79 1015.81 1063.88 997.744 1051.73 982.877C996.608 915.409 1024.15 831.549 968.721 796.109C908.681 757.729 860.869 775.548 839.949 792.633C813.189 814.528 758.254 876.912 802.832 952.151C820.942 982.714 838.184 1014.5 846.82 1048.89C859.742 1100.37 835.215 1162.01 785.18 1181.15C750.886 1194.29 708.77 1187.69 680.051 1210.38C660.734 1225.64 652.304 1251.65 654.118 1276.02C655.932 1300.38 666.85 1323.32 680.414 1343.78" stroke="white" stroke-opacity="0.04" stroke-miterlimit="10" />
  </g>
  <g style="mix-blend-mode:multiply">
    <path d="M1582.51 1031.92C1571.94 1067.07 1527.53 1083.8 1490.94 1076.43C1455.25 1069.26 1425.44 1045.6 1395.39 1025.44C1365.69 1005.46 1330.79 988.137 1296.49 995.001C1252.6 1003.8 1223.43 1048.96 1178.27 1057.75C1142.33 1064.66 1107.46 1047.36 1082.43 1024.27C1068.05 1011.01 1057.69 993.226 1044.84 977.935C990.399 913.129 1015.97 831.583 961.769 796.811C903.466 759.437 856.513 775.657 835.254 792.195C808.297 813.183 755.665 873.378 796.927 946.618C813.937 976.835 830.065 1008.68 838.46 1042.76C850.902 1092.96 827.691 1152.58 779.849 1172.23C746.753 1185.83 705.646 1180.73 677.147 1203.07C657.613 1218.34 648.46 1243.65 648.974 1267.69C649.483 1291.95 658.664 1315.27 671.135 1336.37" stroke="white" stroke-opacity="0.04" stroke-miterlimit="10" />
  </g>
  <g style="mix-blend-mode:multiply">
    <path d="M1581.67 1029.68C1569.45 1065.25 1524.64 1083.52 1486.77 1076.49C1450.66 1069.79 1420.27 1046.09 1390.51 1025.15C1361.46 1004.72 1327.95 986.645 1294.38 991.786C1251.51 998.416 1221.68 1040.4 1176.66 1048.81C1140.13 1055.62 1104.98 1040.51 1078.65 1018.82C1063.25 1006.17 1051.46 988.643 1037.94 972.89C984.294 910.69 1007.76 831.509 954.794 797.446C898.212 761.083 852.128 775.676 830.516 791.674C803.436 811.739 753.001 869.809 790.951 941.133C806.858 971.014 821.869 1002.88 830.006 1036.69C841.992 1085.6 820.084 1143.21 774.411 1163.34C742.484 1177.42 702.408 1173.82 674.135 1195.82C654.368 1211.07 644.497 1235.71 643.708 1259.4C642.898 1283.58 650.408 1307.29 661.75 1329.09" stroke="white" stroke-opacity="0.04" stroke-miterlimit="10" />
  </g>
  <g style="mix-blend-mode:multiply">
    <path d="M1580.82 1027.43C1566.95 1063.46 1521.76 1083.22 1482.61 1076.55C1446.11 1070.33 1415.14 1046.54 1385.64 1024.88C1357.21 1003.99 1325.07 985.134 1292.28 988.558C1250.42 993.037 1219.91 1031.79 1175.05 1039.86C1137.92 1046.54 1102.47 1033.66 1074.87 1013.37C1058.44 1001.29 1045.26 984.036 1031.01 967.956C978.196 908.264 999.512 831.529 947.812 798.1C892.959 762.729 847.742 775.727 825.772 791.195C798.566 810.348 750.308 866.318 784.992 935.576C799.804 965.157 813.615 997.02 821.586 1030.56C832.957 1078.21 812.498 1133.81 769.051 1154.42C738.299 1169 699.307 1166.93 671.199 1188.51C651.252 1203.82 640.596 1227.75 638.522 1251.08C636.382 1275.19 642.234 1299.28 652.463 1321.75" stroke="white" stroke-opacity="0.04" stroke-miterlimit="10" />
  </g>
  <g style="mix-blend-mode:multiply">
    <path d="M1579.97 1025.19C1564.45 1061.68 1518.89 1082.92 1478.44 1076.6C1441.56 1070.84 1409.97 1046.99 1380.77 1024.6C1352.93 1003.27 1322.16 983.615 1290.18 985.344C1249.33 987.667 1218.14 1023.15 1173.45 1030.91C1135.75 1037.47 1099.92 1026.84 1071.09 1007.92C1053.6 996.447 1039.05 979.471 1024.1 962.931C972.228 905.71 991.3 831.474 940.831 798.722C887.709 764.365 843.4 775.752 821.048 790.668C793.707 808.928 747.599 862.833 779.047 930.013C792.751 959.301 805.403 991.198 813.196 1024.42C824.06 1070.79 804.931 1124.43 763.693 1145.47C734.095 1160.57 696.161 1159.98 668.26 1181.19C648.099 1196.52 636.678 1219.77 633.342 1242.74C629.85 1266.77 634.064 1291.2 643.17 1314.39" stroke="white" stroke-opacity="0.04" stroke-miterlimit="10" />
  </g>
  <g style="mix-blend-mode:multiply">
    <path d="M1579.12 1022.95C1561.94 1059.88 1515.99 1082.65 1474.28 1076.66C1437.02 1071.35 1404.81 1047.45 1375.9 1024.32C1348.7 1002.57 1319.31 982.05 1288.07 982.116C1248.24 982.209 1216.38 1014.54 1171.84 1021.97C1133.5 1028.37 1097.34 1020.04 1067.3 1002.47C1048.75 991.609 1032.86 974.891 1017.16 957.965C966.278 903.14 983.058 831.474 933.842 799.395C882.425 766.032 838.993 775.829 816.258 790.193C788.812 807.571 744.77 859.458 773.04 924.493C785.653 953.529 797.151 985.394 804.708 1018.32C815.068 1063.41 797.252 1115.15 758.235 1136.57C729.802 1152.2 692.914 1153.07 665.236 1173.91C644.854 1189.26 632.638 1211.85 628.058 1234.44C623.201 1258.43 625.804 1283.26 633.779 1307.08" stroke="white" stroke-opacity="0.04" stroke-miterlimit="10" />
  </g>
  <g style="mix-blend-mode:multiply">
    <path d="M1578.3 1020.65C1559.46 1058.05 1513.16 1082.23 1470.12 1076.66C1432.49 1071.79 1399.66 1047.87 1371.04 1024C1344.45 1001.81 1316.44 980.48 1285.96 978.897C1247.13 976.812 1214.6 1005.9 1170.23 1013.02C1131.26 1019.3 1094.72 1013.26 1063.52 997.018C1043.87 986.781 1026.66 970.284 1010.24 952.969C960.471 900.523 974.83 831.434 926.854 800.035C877.172 767.676 834.631 775.877 811.546 789.692C783.995 806.189 742.001 856.129 767.107 918.957C779.277 949.237 789.041 980.408 796.312 1012.19C806.214 1056.03 789.694 1105.8 752.866 1127.64C725.574 1143.83 689.761 1146.14 662.286 1166.61C641.683 1181.97 628.662 1203.91 622.858 1226.13C616.617 1250.06 617.578 1275.23 624.422 1299.74" stroke="white" stroke-opacity="0.04" stroke-miterlimit="10" />
  </g>
  <g style="mix-blend-mode:multiply">
    <path d="M1577.43 1018.45C1556.95 1056.31 1510.26 1081.95 1465.95 1076.77C1427.93 1072.32 1394.45 1048.39 1366.16 1023.77C1340.18 1001.18 1313.57 979.019 1283.86 975.683C1246.08 971.435 1212.84 997.254 1168.61 1004.1C1129.08 1010.15 1092.09 1006.54 1059.73 991.594C1038.98 981.998 1020.49 965.712 1003.29 947.995C954.648 897.89 966.558 831.422 919.835 800.697C871.888 769.343 830.243 775.962 806.78 789.215C779.1 804.832 739.101 852.873 761.11 913.442C772.038 943.722 780.973 974.671 787.857 1006.09C797.211 1048.63 782.065 1096.55 747.436 1118.73C721.303 1135.48 686.545 1139.2 659.295 1159.33C639.583 1174.06 625.015 1194.5 617.625 1217.81C609.947 1241.74 609.33 1267.27 615.117 1292.44" stroke="white" stroke-opacity="0.04" stroke-miterlimit="10" />
  </g>
  <g style="mix-blend-mode:multiply">
    <path d="M1576.58 1016.22C1554.44 1054.52 1507.4 1081.6 1461.79 1076.82C1423.4 1072.79 1389.32 1048.9 1361.27 1023.53C1335.89 1000.54 1310.66 977.556 1281.71 972.496C1244.95 966.084 1211.02 988.646 1166.96 995.175C1126.8 1001.12 1089.4 999.831 1055.92 986.159C1034.04 977.227 1014.28 961.156 996.35 943.048C948.904 895.197 958.327 831.448 912.868 801.4C866.641 771.057 825.906 776.087 802.051 788.786C774.315 803.54 736.143 849.65 755.167 907.958C764.448 936.279 772.568 967.859 779.471 999.969C788.335 1041.21 774.493 1087.3 742.084 1109.79C717.117 1127.15 683.39 1132.25 656.343 1152.01C636.43 1166.6 621.183 1186.55 612.422 1209.48C603.354 1233.63 601.064 1259.76 605.798 1285.09" stroke="white" stroke-opacity="0.04" stroke-miterlimit="10" />
  </g>
  <g style="mix-blend-mode:multiply">
    <path d="M1575.72 1014.01C1551.92 1052.77 1504.51 1081.28 1457.6 1076.91C1418.84 1073.3 1384.14 1049.43 1356.42 1023.26C1331.66 999.861 1307.81 976.033 1279.65 969.284C1243.91 960.701 1209.29 979.993 1165.36 986.215C1124.57 992.005 1086.75 993.127 1052.14 980.682C1029.16 972.42 1008.16 956.477 989.46 938.017C943.243 892.399 950.121 831.37 905.886 801.985C861.385 772.643 821.552 776.105 797.303 788.224C769.486 802.151 733.156 846.492 749.199 902.361C757.32 930.603 764.369 962.084 771.022 993.849C779.402 1033.82 766.898 1078.12 736.662 1100.88C712.819 1118.84 680.183 1125.31 653.375 1144.72C633.232 1159.2 617.304 1178.67 607.195 1201.17C596.592 1225.25 592.881 1251.75 596.468 1277.76" stroke="white" stroke-opacity="0.04" stroke-miterlimit="10" />
  </g>
  <g style="mix-blend-mode:multiply">
    <path d="M1574.89 1011.72C1549.44 1050.93 1501.66 1080.88 1453.44 1076.94C1414.31 1073.74 1378.96 1049.91 1351.55 1022.95C1327.36 999.157 1304.95 974.509 1277.55 966.036C1242.83 955.304 1207.51 971.312 1163.8 977.265C1122.42 982.897 1084.14 986.451 1048.41 975.239C1024.29 967.675 1002.06 951.851 982.561 933.071C937.643 889.591 941.954 831.34 898.91 802.616C856.144 774.279 817.228 776.166 792.584 787.707C764.702 800.767 730.069 843.361 743.26 896.808C750.193 924.904 756.193 956.226 762.617 987.71C770.545 1026.38 759.378 1068.96 731.329 1091.92C708.636 1110.52 677.056 1118.33 650.462 1137.38C628.974 1152.78 612.521 1172.1 602.043 1192.82C589.903 1216.82 584.763 1243.68 587.199 1270.4" stroke="white" stroke-opacity="0.04" stroke-miterlimit="10" />
  </g>
  <g style="mix-blend-mode:multiply">
    <path d="M1574.04 1009.49C1546.93 1049.14 1498.8 1080.5 1449.29 1076.98C1409.79 1074.17 1373.79 1050.39 1346.7 1022.65C1323.07 998.47 1302.07 972.974 1275.45 962.799C1241.76 949.91 1205.76 962.638 1162.2 968.304C1120.22 973.767 1081.49 979.77 1044.63 969.771C1019.39 962.915 995.95 947.197 975.672 928.017C932.039 886.769 933.723 831.306 891.972 803.271C850.931 775.935 812.933 776.271 787.889 787.22C759.93 799.443 726.916 840.316 737.34 891.271C743.085 919.245 748.012 950.386 754.239 981.592C761.654 1018.98 751.844 1059.83 725.941 1083.02C704.412 1102.28 673.863 1111.39 647.502 1130.08C625.798 1145.48 608.45 1164.14 596.842 1184.48C583.16 1208.38 576.591 1235.62 577.893 1263.05" stroke="white" stroke-opacity="0.04" stroke-miterlimit="10" />
  </g>
  <g style="mix-blend-mode:multiply">
    <path d="M1573.2 1007.24C1544.44 1047.35 1495.93 1080.11 1445.13 1077.03C1405.3 1074.62 1368.6 1050.91 1341.83 1022.37C1318.79 997.816 1299.2 971.465 1273.36 959.575C1240.68 944.542 1203.99 953.971 1160.6 959.364C1118 964.657 1078.83 973.151 1040.86 964.314C1014.49 958.189 989.837 942.53 968.786 923.042C926.505 883.918 925.596 831.211 885.034 803.926C845.768 777.521 808.678 776.392 783.195 786.733C755.165 798.132 723.615 837.304 731.425 885.749C735.905 913.659 739.94 944.589 745.878 975.491C752.827 1011.59 744.385 1050.78 720.594 1074.09C700.256 1094.08 670.718 1104.45 644.578 1122.8C622.651 1138.2 604.393 1156.18 591.669 1176.19C576.436 1199.99 568.427 1227.61 568.593 1255.77" stroke="white" stroke-opacity="0.04" stroke-miterlimit="10" />
  </g>
  <g style="mix-blend-mode:multiply">
    <path d="M1572.33 1004.98C1541.92 1045.55 1493.04 1079.7 1440.95 1077.07C1400.71 1075.01 1363.38 1051.41 1336.92 1022.07C1314.45 997.142 1296.31 969.949 1271.22 956.341C1239.56 939.153 1202.17 945.286 1158.96 950.399C1115.76 955.512 1076.13 966.531 1037.05 958.854C1009.56 953.46 983.719 937.85 961.817 918.023C920.921 880.991 917.307 831.153 877.999 804.542C840.448 779.135 804.263 776.461 778.389 786.214C750.308 796.796 720.162 834.333 725.404 880.184C728.593 908.032 731.676 938.706 737.385 969.327C743.864 1004.14 736.825 1041.7 715.147 1065.14C696 1085.84 667.465 1097.46 641.555 1115.46C619.392 1130.86 600.223 1148.16 586.397 1167.83C569.619 1191.5 560.161 1219.48 559.175 1248.37" stroke="white" stroke-opacity="0.04" stroke-miterlimit="10" />
  </g>
  <g style="mix-blend-mode:multiply">
    <path d="M1571.51 1002.75C1539.47 1043.78 1490.2 1079.32 1436.85 1077.15C1396.24 1075.49 1358.23 1051.96 1332.13 1021.81C1310.23 996.524 1293.5 968.476 1269.2 953.147C1238.57 933.82 1200.48 936.651 1157.46 941.452C1113.61 946.384 1073.57 959.927 1033.37 953.402C1004.77 948.752 977.765 933.098 954.997 913.028C915.471 878.07 909.153 831.102 871.114 805.183C835.297 780.78 800.047 776.572 773.761 785.706C745.615 795.478 716.733 831.361 719.56 874.632C721.371 902.44 723.611 932.866 729.07 963.199C735.107 996.722 729.475 1032.69 709.866 1056.2C691.958 1077.67 664.39 1090.48 638.705 1108.15C616.312 1123.55 596.22 1140.15 581.289 1159.5C562.987 1183.05 552.109 1211.41 550.015 1241.03" stroke="white" stroke-opacity="0.04" stroke-miterlimit="10" />
  </g>
  <g style="mix-blend-mode:multiply">
    <path d="M1570.68 1000.52C1536.95 1041.99 1487.36 1078.91 1432.65 1077.23C1391.65 1075.99 1352.98 1052.52 1327.23 1021.57C1305.89 995.855 1290.59 966.962 1267.08 949.865C1237.46 928.379 1198.72 927.92 1155.82 932.488C1111.39 937.239 1070.89 953.315 1029.56 947.919C999.838 944.037 971.665 928.402 948.052 908.007C909.941 875.096 900.938 831.06 864.114 805.8C830.018 782.408 795.697 776.677 769.003 785.182C740.794 794.167 713.044 828.388 713.569 869.079C713.95 896.838 715.431 927.003 720.624 957.064C726.198 989.287 722.05 1023.68 704.45 1047.26C687.815 1069.52 661.167 1083.51 635.712 1100.82C613.086 1116.21 592.067 1132.15 576.058 1151.16C556.214 1174.57 543.892 1203.3 540.67 1233.67" stroke="white" stroke-opacity="0.04" stroke-miterlimit="10" />
  </g>
  <g style="mix-blend-mode:multiply">
    <path d="M1569.81 998.262C1534.44 1040.19 1484.48 1078.47 1428.49 1077.23C1387.13 1076.3 1347.76 1053.01 1322.37 1021.24C1301.58 995.212 1287.73 965.47 1264.97 946.69C1236.35 923.08 1196.91 919.283 1154.2 923.599C1109.16 928.161 1068.24 946.8 1025.78 942.524C994.924 939.405 965.622 923.705 941.134 903.064C904.46 872.14 892.697 831.086 857.13 806.49C824.755 784.109 791.371 776.868 764.262 784.731C736.001 792.933 709.252 825.476 707.612 863.585C706.419 891.284 707.272 921.204 712.205 950.973C717.333 981.913 714.676 1014.79 699.051 1038.37C683.769 1061.44 657.944 1076.56 632.753 1093.55C609.891 1108.94 587.955 1124.13 570.841 1142.87C549.467 1166.13 535.702 1195.24 531.349 1226.37" stroke="white" stroke-opacity="0.04" stroke-miterlimit="10" />
  </g>
  <g style="mix-blend-mode:multiply">
    <path d="M1568.97 996.016C1531.93 1038.42 1481.62 1078.05 1424.33 1077.28C1382.64 1076.73 1342.5 1053.6 1317.51 1020.95C1297.25 994.573 1284.79 963.999 1262.86 943.472C1235.2 917.77 1195.14 910.597 1152.6 914.662C1106.95 919.021 1065.59 940.246 1021.98 937.115C990.055 934.802 959.605 918.973 934.203 898.126C898.982 869.208 884.42 831.175 850.137 807.175C819.446 785.869 787.04 777.068 759.512 784.275C731.193 791.704 705.328 822.524 701.656 858.089C698.622 886.998 699.336 916.171 703.78 944.901C708.469 974.54 707.372 1005.9 693.67 1029.45C679.78 1053.37 654.781 1069.61 629.792 1086.26C606.737 1101.65 583.847 1116.1 565.64 1134.54C542.735 1157.65 527.522 1187.14 522.041 1219.04" stroke="white" stroke-opacity="0.04" stroke-miterlimit="10" />
  </g>
  <g style="mix-blend-mode:multiply">
    <path d="M1568.12 993.779C1529.44 1036.6 1478.75 1077.61 1420.17 1077.33C1378.07 1077.12 1337.28 1054.09 1312.64 1020.67C1292.93 993.934 1281.91 962.486 1260.77 940.238C1234.13 912.385 1193.35 901.95 1150.96 905.691C1104.7 909.857 1062.93 933.672 1018.2 931.599C985.131 930.054 953.621 914.074 927.279 893.056C893.517 866.1 876.188 831.068 843.144 807.748C814.177 787.442 782.733 777.153 754.761 783.706C726.386 790.362 701.291 819.372 695.68 852.474C691.044 881.023 690.933 910.111 695.352 938.693C699.599 967.04 700.109 996.881 688.256 1020.48C675.82 1045.24 651.552 1062.59 626.798 1078.91C603.482 1094.27 579.693 1108.02 560.408 1126.17C535.968 1149.12 519.303 1178.98 512.696 1211.66" stroke="white" stroke-opacity="0.04" stroke-miterlimit="10" />
  </g>
  <g style="mix-blend-mode:multiply">
    <path d="M1567.27 991.542C1526.93 1034.82 1475.86 1077.22 1416.01 1077.38C1373.53 1077.54 1332.03 1054.63 1307.78 1020.39C1288.59 993.301 1279.03 960.985 1258.66 937.039C1233.04 907.019 1191.58 893.152 1149.39 896.79C1102.51 900.656 1060.34 927.174 1014.46 926.176C980.29 925.438 947.719 909.252 920.412 888.098C888.099 863.101 868.017 831.062 836.226 808.415C808.984 789.11 778.44 777.343 750.085 783.233C721.73 789.122 697.217 816.227 689.788 846.959C683.179 874.233 682.91 903.637 686.992 932.601C690.82 959.654 692.978 987.956 682.909 1011.63C672.012 1037.23 648.365 1055.64 623.884 1071.67C600.295 1086.98 575.597 1100.08 555.237 1117.91C529.282 1140.7 511.17 1170.92 503.426 1204.37" stroke="white" stroke-opacity="0.04" stroke-miterlimit="10" />
  </g>
  <g style="mix-blend-mode:multiply">
    <path d="M1566.42 989.286C1524.44 1033.02 1473.02 1076.63 1411.85 1077.42C1369 1077.86 1326.78 1055.18 1302.92 1020.1C1284.29 992.672 1276.18 959.426 1256.55 933.797C1231.93 901.646 1189.8 884.486 1147.77 887.838C1100.3 891.545 1057.76 920.598 1010.69 920.723C975.421 920.779 941.816 904.317 913.505 883.101C882.665 860.027 859.786 831.065 829.253 809.05C803.741 790.759 774.128 777.526 745.364 782.731C716.857 787.888 693.03 812.938 683.838 841.421C675.142 868.359 674.793 897.819 678.606 926.488C682.035 952.255 685.895 978.994 677.581 1002.67C668.289 1029.11 645.234 1048.67 620.976 1064.33C597.16 1079.64 571.589 1091.94 550.082 1109.56C522.605 1132.17 503.04 1162.77 494.168 1197" stroke="white" stroke-opacity="0.04" stroke-miterlimit="10" />
  </g>
  <g style="mix-blend-mode:multiply">
    <path d="M1565.58 987.04C1521.93 1031.22 1470.14 1076.25 1407.65 1077.45C1364.44 1078.31 1321.49 1055.75 1298.03 1019.85C1279.87 992.05 1273.26 957.986 1254.44 930.622C1230.84 896.313 1188.01 875.927 1146.17 878.947C1098.07 882.477 1055.11 914.144 1006.89 915.301C970.531 916.178 935.928 899.377 906.573 878.14C877.218 856.904 851.552 831.022 822.267 809.722C798.508 792.444 769.787 777.753 740.609 782.259C712.043 786.677 688.807 809.455 677.873 835.922C666.94 862.388 666.662 892.041 670.151 920.381C673.161 944.854 678.769 970.004 672.151 993.768C664.55 1021.06 642.007 1041.73 617.979 1057.04C593.95 1072.35 567.404 1083.88 544.837 1101.26C515.843 1123.69 494.821 1154.66 484.812 1189.68" stroke="white" stroke-opacity="0.04" stroke-miterlimit="10" />
  </g>
  <g style="mix-blend-mode:multiply">
    <path d="M1150.15 393.561C1116.14 382.412 1079.6 411.34 1067.1 445.254C1054.61 479.168 1058.65 516.423 1058.78 552.464C1058.91 588.506 1053.38 627.964 1027.26 652.953C993.879 684.911 937.713 682.868 905.674 716.238C880.703 742.223 878.53 781.939 886.45 815.085C890.935 833.827 901.372 851.056 907.367 869.298C934.589 952.057 1020.1 973.95 1020.15 1039.74C1020.21 1111 979.468 1141.72 953.811 1150.16C920.959 1160.94 838.819 1173.69 799.375 1095.64C783.353 1063.93 765.832 1032.3 741.49 1006.52C705.045 967.932 639.892 955.451 596.834 987.328C567.316 1009.17 550.223 1048.23 515.64 1060.22C492.384 1068.3 465.924 1061.41 446.361 1046.78C426.798 1032.14 413.333 1010.6 403.388 988.16" stroke="white" stroke-opacity="0.04" stroke-miterlimit="10" />
  </g>
  <g style="mix-blend-mode:multiply">
    <path d="M1151.56 395.476C1116.25 385.481 1078.25 413.92 1064.78 448.725C1051.62 482.67 1055.53 520.531 1056.36 556.707C1057.23 592.483 1053.05 631.227 1028.81 656.451C997.79 688.718 944.024 689.01 912.323 722.348C887.168 748.929 882.993 787.63 888.99 821.152C892.431 840.41 901.85 858.706 907.829 877.76C933.171 958.518 1015.67 980.832 1015.82 1045.23C1015.96 1114.48 977.033 1145.33 951.655 1154.36C919.461 1165.79 840.405 1177.78 800.862 1103.59C784.54 1073 766.368 1042.27 742.156 1016.86C706.537 979.371 643.793 966.865 601.489 996.622C572.218 1017.2 554.406 1054.6 520.24 1066.61C496.864 1074.86 470.6 1068.96 450.611 1055.59C430.441 1042.12 415.718 1021.83 404.643 999.969" stroke="white" stroke-opacity="0.04" stroke-miterlimit="10" />
  </g>
  <g style="mix-blend-mode:multiply">
    <path d="M1153 397.397C1116.44 388.555 1076.93 416.506 1062.49 452.206C1048.7 486.253 1052.34 524.619 1053.98 560.972C1055.58 596.45 1052.79 634.421 1030.39 659.951C1001.74 692.529 950.3 695.089 918.998 728.514C893.603 755.649 887.433 793.403 891.547 827.266C893.93 847.058 902.364 866.418 908.369 886.293C931.943 964.976 1011.32 987.788 1011.54 1050.76C1011.75 1118.02 974.658 1149.02 949.545 1158.63C918.063 1170.67 841.981 1181.94 802.271 1111.58C785.639 1082.1 766.852 1052.3 742.727 1027.25C707.947 990.841 647.599 978.319 606.061 1005.99C577.011 1025.33 558.493 1061.05 524.735 1073.05C501.244 1081.51 475.169 1076.57 454.77 1064.49C433.95 1052.17 418.003 1033.08 405.725 1011.79" stroke="white" stroke-opacity="0.04" stroke-miterlimit="10" />
  </g>
  <g style="mix-blend-mode:multiply">
    <path d="M1154.44 399.319C1116.6 391.624 1075.64 419.096 1060.2 455.686C1045.81 489.797 1049.19 528.703 1051.58 565.225C1053.9 600.423 1052.51 637.667 1031.98 663.464C1005.69 696.34 956.608 701.217 925.673 734.68C900.065 762.396 891.856 799.204 894.112 833.391C895.455 853.732 902.912 874.125 908.797 894.793C930.707 971.421 1006.86 994.733 1007.23 1056.3C1007.54 1121.57 972.255 1152.69 947.397 1162.89C916.616 1175.52 843.474 1186.09 803.75 1119.6C786.782 1091.2 767.352 1062.41 743.363 1037.65C709.312 1002.43 651.437 989.767 610.696 1015.31C581.86 1033.39 562.629 1067.37 529.313 1079.45C505.68 1088.03 479.778 1084.14 458.993 1073.34C437.522 1062.18 420.363 1044.28 406.922 1023.57" stroke="white" stroke-opacity="0.04" stroke-miterlimit="10" />
  </g>
  <g style="mix-blend-mode:multiply">
    <path d="M1155.86 401.239C1116.76 394.693 1074.34 421.676 1057.91 459.168C1042.93 493.355 1046.04 532.82 1049.2 569.48C1052.21 604.425 1052.22 640.934 1033.56 666.964C1009.63 700.149 962.936 707.349 932.357 740.849C906.544 769.104 896.234 805.019 896.668 839.505C896.935 860.419 903.419 881.815 909.316 903.321C929.65 977.827 1002.49 1001.68 1002.95 1061.85C1003.33 1125.11 969.899 1156.34 945.3 1167.15C915.2 1180.38 844.955 1190.25 805.241 1127.6C787.924 1100.29 767.842 1072.47 744.033 1048.03C710.782 1013.92 655.28 1001.2 615.36 1024.64C586.704 1041.46 566.793 1073.76 533.909 1085.87C510.137 1094.62 484.394 1091.74 463.236 1082.19C441.1 1072.21 422.78 1055.52 408.128 1035.37" stroke="white" stroke-opacity="0.04" stroke-miterlimit="10" />
  </g>
  <g style="mix-blend-mode:multiply">
    <path d="M1157.3 403.16C1116.92 397.771 1073.01 424.26 1055.62 462.648C1040.06 496.915 1042.87 536.921 1046.82 573.735C1050.52 608.363 1052.01 644.181 1035.15 670.476C1013.64 704.004 969.255 713.468 939.03 747.014C913.006 775.893 900.575 810.857 899.233 845.63C898.403 867.114 903.95 889.497 909.773 911.837C928.616 984.225 998.055 1008.63 998.621 1067.38C999.086 1128.67 967.463 1160.01 943.124 1171.45C913.71 1185.24 846.278 1194.45 806.663 1135.63C788.972 1109.38 768.295 1082.55 744.606 1058.46C712.165 1025.47 658.966 1012.66 619.927 1034.03C591.454 1049.59 570.878 1080.22 538.421 1092.34C514.517 1101.26 488.898 1099.4 467.391 1091.11C444.558 1082.3 425.026 1066.75 409.236 1047.21" stroke="white" stroke-opacity="0.04" stroke-miterlimit="10" />
  </g>
  <g style="mix-blend-mode:multiply">
    <path d="M1158.79 405.091C1117.14 400.85 1071.84 426.874 1053.38 466.149C1037.25 500.497 1039.75 541.033 1044.48 578.008C1048.88 612.353 1051.79 647.439 1036.73 673.987C1017.6 707.838 975.579 719.62 945.702 753.191C919.452 782.659 904.881 816.71 901.788 851.754C899.846 873.826 904.498 897.204 910.262 920.359C927.698 990.528 993.663 1015.59 994.323 1072.92C994.874 1132.21 965.075 1163.66 941.012 1175.69C912.284 1190.04 847.595 1198.57 808.138 1143.61C789.16 1117.06 768.136 1092.06 745.256 1068.84C713.625 1036.91 662.782 1024.06 624.559 1043.35C596.237 1057.66 575.021 1086.6 542.986 1098.75C518.951 1107.85 493.453 1107.03 471.601 1099.97C448.068 1092.35 427.365 1078 410.39 1059.05" stroke="white" stroke-opacity="0.04" stroke-miterlimit="10" />
  </g>
  <g style="mix-blend-mode:multiply">
    <path d="M1160.18 407.003C1117.25 403.908 1070.52 429.471 1051.05 469.609C1034.35 504.051 1036.51 545.153 1042.05 582.242C1047.11 616.298 1051.48 650.646 1038.31 677.487C1021.56 711.62 981.916 725.753 952.354 759.352C925.984 789.419 909.137 822.543 904.324 857.862C901.25 880.519 905.033 904.865 910.714 928.895C926.785 996.853 989.223 1022.57 989.989 1078.48C990.626 1135.77 962.644 1167.31 938.849 1179.96C910.794 1194.9 848.78 1202.77 809.561 1151.63C789.914 1126.13 768.632 1101.95 745.846 1079.25C715.025 1048.48 666.478 1035.47 629.15 1052.73C600.972 1065.74 579.141 1093.04 547.514 1105.19C524.494 1113.88 499.42 1115.16 475.794 1108.85C451.494 1102.45 429.643 1089.24 411.537 1070.82" stroke="white" stroke-opacity="0.04" stroke-miterlimit="10" />
  </g>
  <g style="mix-blend-mode:multiply">
    <path d="M1161.61 408.923C1117.41 406.987 1069.28 432.072 1048.77 473.092C1031.51 507.618 1033.32 549.197 1039.61 586.487C1045.35 620.253 1051.15 653.883 1039.84 681.01C1025.47 715.454 988.193 731.918 958.989 765.543C932.373 796.194 913.341 828.42 906.854 864.003C902.615 887.247 905.531 912.552 911.151 937.407C925.965 1003.14 984.773 1029.49 985.648 1083.98C986.359 1139.27 960.205 1170.9 936.668 1184.18C909.309 1199.62 849.905 1207 810.987 1159.59C792.106 1136.54 769.852 1112.7 746.498 1089.61C716.499 1059.95 670.205 1046.83 633.805 1062.05C605.744 1073.76 583.303 1099.44 552.097 1111.61C529.082 1120.55 504.062 1122.67 480.023 1117.72C454.783 1112.37 431.526 1100.25 412.718 1082.63" stroke="white" stroke-opacity="0.04" stroke-miterlimit="10" />
  </g>
  <g style="mix-blend-mode:multiply">
    <path d="M1163.01 410.836C1117.53 410.047 1067.99 434.674 1046.44 476.575C1028.63 511.185 1030.09 553.285 1037.24 590.73C1043.64 624.185 1050.9 657.109 1041.44 684.479C1029.44 719.224 994.557 738.031 965.685 771.709C938.857 802.984 917.565 834.264 909.442 870.128C904.04 893.95 906.182 920.231 911.686 945.921C925.278 1009.42 980.424 1036.45 981.399 1089.55C982.194 1142.85 957.848 1174.56 934.586 1188.49C907.882 1204.44 850.96 1211.22 812.494 1167.64C793.056 1145.6 770.31 1122.72 747.112 1100.02C717.928 1071.46 673.857 1058.17 638.403 1071.41C610.441 1081.85 587.43 1105.88 556.645 1118.04C533.605 1127.23 508.622 1130.18 484.215 1126.6C458.212 1122.58 433.881 1111.46 413.876 1094.44" stroke="white" stroke-opacity="0.04" stroke-miterlimit="10" />
  </g>
  <g style="mix-blend-mode:multiply">
    <path d="M1164.49 412.766C1117.74 413.126 1066.8 437.294 1044.18 480.059C1025.82 514.766 1026.9 557.392 1034.88 594.997C1041.92 628.19 1050.64 660.336 1043.05 687.992C1033.41 723.036 1000.92 744.198 972.386 777.844C945.38 809.695 921.79 840.053 912.019 876.207C905.424 900.602 906.802 927.859 912.143 954.397C924.633 1015.65 976.057 1043.35 977.115 1095.09C977.996 1146.39 955.47 1178.18 932.484 1192.74C906.476 1209.22 851.939 1215.5 813.981 1175.63C794.026 1154.67 770.851 1132.76 747.766 1110.41C719.43 1082.93 677.535 1069.44 643.088 1080.73C615.202 1089.85 591.625 1112.27 561.264 1124.44C536.723 1134.27 511.584 1137.75 488.483 1135.43C461.723 1132.76 436.312 1122.64 415.099 1106.21" stroke="white" stroke-opacity="0.04" stroke-miterlimit="10" />
  </g>
  <g style="mix-blend-mode:multiply">
    <path d="M1165.92 414.685C1117.91 416.205 1065.57 439.909 1041.91 483.543C1023.03 518.35 1023.71 561.488 1032.52 599.254C1040.19 632.171 1050.39 663.594 1044.65 691.504C1037.39 726.836 1007.29 750.343 979.082 784.009C951.889 816.466 925.997 845.881 914.599 882.328C906.801 907.293 907.439 935.512 912.698 962.924C923.997 1021.89 971.657 1050.31 972.83 1100.59C973.795 1149.89 953.071 1181.74 930.369 1196.96C905.025 1213.96 852.809 1219.8 815.463 1183.6C794.973 1163.71 771.372 1142.8 748.416 1120.77C720.889 1094.4 681.174 1080.7 647.695 1090.06C619.87 1097.84 595.759 1118.69 565.827 1130.86C541.165 1140.87 516.101 1145.46 492.713 1144.3C465.204 1142.98 438.71 1133.86 416.286 1118.01" stroke="white" stroke-opacity="0.04" stroke-miterlimit="10" />
  </g>
  <g style="mix-blend-mode:multiply">
    <path d="M1167.36 416.606C1118.07 419.273 1064.36 442.535 1039.63 487.023C1020.23 521.889 1020.48 565.586 1030.13 603.504C1038.44 636.136 1050.11 666.826 1046.24 695.002C1041.33 730.64 1013.64 756.495 985.757 790.169C958.378 823.232 930.144 851.685 917.168 888.447C908.148 913.967 908.084 943.175 913.188 971.404C923.423 1028.09 967.365 1057.21 968.546 1106.08C969.681 1153.39 950.681 1185.26 928.254 1201.18C903.566 1218.68 853.573 1224.2 816.937 1191.56C795.819 1172.77 771.916 1152.72 749.061 1131.1C722.371 1105.82 684.791 1091.85 652.34 1099.37C624.553 1105.76 599.922 1125.08 570.388 1137.24C545.614 1147.44 520.63 1153.16 496.921 1153.12C468.663 1153.16 441.071 1145.05 417.419 1129.76" stroke="white" stroke-opacity="0.04" stroke-miterlimit="10" />
  </g>
  <g style="mix-blend-mode:multiply">
    <path d="M1168.79 418.548C1118.23 422.361 1063.15 445.195 1037.34 490.523C1017.44 525.547 1017.25 569.715 1027.75 607.808C1036.68 640.152 1049.84 670.079 1047.81 698.549C1045.27 734.478 1019.99 762.699 992.433 796.372C964.879 830.044 934.275 857.519 919.722 894.594C909.481 920.67 908.739 950.851 913.67 979.979C922.887 1034.38 962.955 1064.23 964.242 1111.68C965.459 1157.01 948.247 1188.95 926.107 1205.51C902.08 1223.49 854.22 1228.71 818.388 1199.62C796.629 1181.96 772.43 1162.86 749.688 1141.57C723.825 1117.38 688.377 1103.11 656.955 1108.77C629.206 1113.78 604.063 1131.58 574.948 1143.74C550.049 1154.14 525.146 1160.99 501.128 1162.06C472.149 1163.47 443.475 1156.39 418.595 1141.69" stroke="white" stroke-opacity="0.04" stroke-miterlimit="10" />
  </g>
  <g style="mix-blend-mode:multiply">
    <path d="M1170.23 420.449C1118.4 425.378 1061.95 447.793 1035.07 493.941C1014.63 529.061 1014.02 573.759 1025.39 611.977C1034.93 644.042 1049.57 673.237 1049.42 701.965C1049.23 738.188 1026.36 768.768 999.164 802.456C971.418 836.766 938.461 863.234 922.341 900.626C910.87 927.244 909.541 958.426 914.212 988.415C922.417 1040.54 958.611 1071.13 959.998 1117.14C961.301 1160.46 945.885 1192.44 924.045 1209.69C900.666 1228.16 854.881 1233.2 819.925 1207.54C797.458 1191.05 773.015 1172.8 750.381 1151.88C725.37 1128.75 692.018 1114.15 661.652 1118.03C633.923 1121.58 608.289 1137.93 579.582 1150.08C554.55 1160.67 529.745 1168.67 505.408 1170.85C475.71 1173.61 445.953 1167.53 419.854 1153.36" stroke="white" stroke-opacity="0.04" stroke-miterlimit="10" />
  </g>
  <g style="mix-blend-mode:multiply">
    <path d="M1171.67 422.348C1118.57 428.467 1060.76 450.403 1032.75 497.433C1011.74 532.658 1010.72 577.886 1022.96 616.24C1033.15 648.066 1049.28 676.508 1051.04 705.522C1053.22 742.046 1032.77 774.952 1005.84 808.658C977.932 843.558 942.596 869.046 924.913 906.787C912.195 933.934 910.219 966.094 914.708 996.97C921.95 1046.8 954.228 1078.08 955.712 1122.71C957.089 1164.04 943.457 1196.05 921.927 1213.98C899.178 1232.92 855.402 1237.91 821.383 1215.58C798.188 1200.32 773.556 1182.85 751.009 1162.3C726.845 1140.26 695.624 1125.26 666.273 1127.41C638.563 1129.46 612.437 1144.4 584.149 1156.54C559.003 1167.34 534.256 1176.48 509.624 1179.75C479.216 1183.88 448.366 1178.82 421.028 1165.19" stroke="white" stroke-opacity="0.04" stroke-miterlimit="10" />
  </g>
  <g style="mix-blend-mode:multiply">
    <path d="M1173.1 424.29C1118.73 431.555 1059.58 453.068 1030.5 500.941C1009.04 536.301 1007.5 582.026 1020.62 620.52C1031.38 652.047 1049 679.717 1052.58 709.01C1057.09 745.835 1039.07 781.126 1012.46 814.806C984.388 850.317 946.659 874.79 927.423 912.882C913.455 940.568 910.927 973.714 915.154 1005.46C921.493 1053.01 949.772 1085.01 951.373 1128.23C952.824 1167.56 940.968 1199.6 919.757 1218.22C897.64 1237.63 855.817 1242.67 822.811 1223.55C798.819 1209.66 774.055 1192.84 751.615 1172.67C728.292 1151.7 699.146 1136.26 670.869 1136.75C643.194 1137.21 616.556 1150.85 588.685 1162.95C563.414 1173.94 538.804 1184.26 513.806 1188.61C482.695 1194.11 450.754 1190.06 422.169 1176.98" stroke="white" stroke-opacity="0.04" stroke-miterlimit="10" />
  </g>
  <g style="mix-blend-mode:multiply">
    <path d="M1174.54 426.211C1118.87 434.619 1058.4 455.712 1028.22 504.421C1006.27 539.855 1004.17 586.137 1018.25 624.772C1029.59 656.036 1048.66 682.989 1054.16 712.516C1060.95 749.655 1045.44 787.291 1019.13 820.965C990.903 857.098 950.763 880.543 929.942 918.989C914.717 947.149 911.679 981.332 915.588 1013.96C921.018 1059.21 945.245 1091.94 947.034 1133.75C948.484 1171.09 938.47 1203.14 917.586 1222.47C896.09 1242.34 856.194 1247.57 824.239 1231.53C798.237 1218.54 774.029 1202.24 752.201 1183.04C729.739 1163.14 702.711 1147.2 675.488 1146.08C647.857 1144.92 620.717 1157.26 593.239 1169.37C567.863 1180.52 543.362 1192.04 518.029 1197.47C486.221 1204.35 453.183 1201.31 423.342 1188.77" stroke="white" stroke-opacity="0.04" stroke-miterlimit="10" />
  </g>
  <g style="mix-blend-mode:multiply">
    <path d="M1175.97 428.13C1119.06 437.703 1057.22 458.367 1025.95 507.901C1003.48 543.502 1000.95 590.278 1015.87 629.021C1027.8 660.025 1048.38 686.231 1055.77 716.015C1064.91 753.463 1051.77 793.448 1025.82 827.168C997.42 863.922 954.87 886.327 932.557 925.147C916.07 953.854 912.589 989.013 916.136 1022.52C920.697 1065.49 940.906 1098.94 942.789 1139.34C944.324 1174.68 936.082 1206.72 915.51 1226.78C894.635 1247.12 856.68 1252.67 825.757 1239.59C799.197 1228.14 774.617 1212.58 752.9 1193.48C731.289 1174.65 706.409 1158.17 680.138 1155.47C652.573 1152.63 624.892 1163.75 597.825 1175.84C572.329 1187.23 547.94 1199.89 522.265 1206.38C489.771 1214.64 455.636 1212.62 424.537 1200.62" stroke="white" stroke-opacity="0.04" stroke-miterlimit="10" />
  </g>
  <g style="mix-blend-mode:multiply">
    <path d="M1177.4 430.05C1119.22 440.769 1056 461.012 1023.67 511.38C1000.68 547.106 997.668 594.407 1013.48 633.271C1026 664.022 1048.1 689.461 1057.33 719.517C1068.85 757.266 1058.24 799.674 1032.47 833.28C1003.99 870.725 958.958 892.001 935.115 931.219C917.357 960.417 913.479 996.582 916.622 1030.98C920.311 1071.67 936.516 1105.83 938.505 1144.81C940.123 1178.16 933.612 1210.24 913.393 1230.97C893.175 1251.71 857.139 1257.79 827.237 1247.52C800.69 1238.42 775.759 1222.83 753.538 1203.81C732.792 1186.03 710.096 1168.98 684.727 1164.74C657.284 1160.15 629.039 1170.18 602.362 1182.2C576.761 1193.84 552.435 1207.62 526.447 1215.18C493.277 1224.81 458.053 1223.82 425.691 1212.35" stroke="white" stroke-opacity="0.04" stroke-miterlimit="10" />
  </g>
  <g style="mix-blend-mode:multiply">
    <path d="M1178.85 431.973C1119.4 443.839 1054.97 463.729 1021.4 514.862C997.979 550.748 994.383 598.547 1011.12 637.525C1024.22 667.981 1047.88 692.703 1058.93 723.038C1072.78 761.09 1064.59 805.834 1039.15 839.461C1010.49 877.481 963.11 897.719 937.687 937.326C918.665 967.029 914.464 1004.21 917.118 1039.49C919.979 1077.9 932.085 1112.77 934.219 1150.35C935.913 1181.7 931.138 1213.78 911.277 1235.22C891.593 1256.48 857.66 1263.09 828.705 1255.52C801.318 1248.36 776.296 1232.8 754.181 1214.17C734.304 1197.41 713.841 1179.78 689.413 1174.05C662.126 1167.66 633.235 1176.57 606.984 1188.6C581.262 1200.43 557.137 1215.37 530.718 1224.03C496.876 1235.02 460.556 1235.06 426.923 1224.12" stroke="white" stroke-opacity="0.04" stroke-miterlimit="10" />
  </g>
  <g style="mix-blend-mode:multiply">
    <path d="M1180.29 433.894C1119.56 446.917 1053.74 466.351 1019.11 518.393C995.144 554.354 991.056 602.688 1008.7 641.776C1022.37 672.042 1047.52 695.94 1060.47 726.525C1076.69 764.876 1070.83 811.953 1045.78 845.599C1016.93 884.246 967.127 903.421 940.214 943.444C919.913 973.626 915.461 1011.83 917.571 1048C919.682 1084.17 927.692 1119.73 929.893 1155.88C931.678 1185.2 928.612 1217.31 909.116 1239.49C890.025 1261.19 858.323 1268.52 830.132 1263.5C801.94 1258.48 776.793 1242.76 754.78 1224.58C735.769 1208.88 717.585 1190.62 693.993 1183.41C666.898 1175.14 637.345 1183.02 611.512 1195.04C585.68 1207.06 561.679 1223.24 534.894 1232.91C500.386 1245.29 462.97 1246.35 428.06 1235.94" stroke="white" stroke-opacity="0.04" stroke-miterlimit="10" />
  </g>
</svg>
  