<svg width="30" height="29" viewBox="0 0 30 29" fill="none" xmlns="http://www.w3.org/2000/svg">
  <path d="M29.5744 12.3971C29.5744 12.0855 29.4547 11.8668 29.1914 11.6754C27.9824 10.8116 26.7794 9.93689 25.5585 9.08402C25.2592 8.87627 25.1336 8.65212 25.1336 8.30222C25.1455 6.02243 25.1395 3.74811 25.1395 1.46832C25.1395 1.30977 25.1755 1.13482 25.0498 0.992676C20.0044 0.992676 14.9531 0.992676 9.90778 0.992676C9.77611 1.05828 9.65641 1.13482 9.54868 1.23323C7.93872 2.71482 6.33475 4.18548 4.72479 5.65067C4.51531 5.83655 4.42554 6.03883 4.43152 6.30672C4.44349 7.01745 4.43152 7.72817 4.43751 8.4389C4.44349 8.66852 4.3597 8.838 4.15621 8.97468C3.8809 9.15509 3.61757 9.35191 3.35423 9.54326C2.34875 10.2595 1.34926 10.9866 0.337797 11.6973C0.0924129 11.8723 -0.0213016 12.0691 0.00263826 12.3479C0.0205932 12.5666 0.00862324 12.7853 0.00862324 13.0039C0.00862324 18.1758 0.00862324 23.3477 0.00862324 28.5251C0.00862324 28.6837 -0.0332716 28.8531 0.0924129 29.0008C9.88982 29.0008 19.6812 29.0008 29.4787 29.0008C29.5924 28.875 29.5684 28.7274 29.5684 28.5798C29.5684 23.1837 29.5684 17.7931 29.5744 12.3971ZM25.0498 10.91C25.7201 11.3911 26.3485 11.8449 26.9829 12.2932C27.0667 12.3534 27.0787 12.3916 26.9889 12.4572C26.3545 12.9055 25.7261 13.3648 25.0558 13.8459C25.0498 12.8509 25.0498 11.9051 25.0498 10.91ZM10.0574 3.28887C10.0574 4.01053 10.0634 4.75406 10.0574 5.49759C10.0574 5.73267 10.1711 6.03883 10.0035 6.17551C9.85391 6.29032 9.53072 6.21378 9.27936 6.21378C8.47737 6.21378 7.6694 6.21378 6.86741 6.21378C6.85544 6.19191 6.84945 6.17004 6.83748 6.15364C7.90879 5.19689 8.98011 4.24562 10.0574 3.28887ZM6.58013 7.84845C8.23797 7.85392 9.88982 7.84845 11.5477 7.85938C11.793 7.85938 11.8589 7.80471 11.8589 7.57509C11.8469 6.0279 11.8589 4.47523 11.8469 2.92804C11.8469 2.71482 11.8768 2.63828 12.1402 2.63828C15.7431 2.64921 19.3401 2.64921 22.9431 2.63828C23.1884 2.63828 23.2303 2.70389 23.2303 2.91164C23.2244 4.91807 23.2244 6.91904 23.2244 8.92547C23.2244 10.91 23.2184 12.8946 23.2303 14.8846C23.2303 15.0815 23.1645 15.1963 22.9969 15.3165C20.3097 17.2355 17.6284 19.1545 14.9531 21.0789C14.8095 21.1828 14.7257 21.1882 14.5761 21.0789C11.8768 19.1381 9.16564 17.2027 6.46043 15.2673C6.34672 15.1853 6.30482 15.1033 6.30482 14.9721C6.31081 12.6759 6.31081 10.3797 6.30482 8.08354C6.30482 7.87032 6.38861 7.84845 6.58013 7.84845ZM2.57019 12.2768C3.2046 11.8285 3.83901 11.3747 4.50334 10.8991C4.50334 11.8887 4.50334 12.8454 4.50334 13.8404C3.84499 13.3702 3.21657 12.9219 2.58815 12.4736C2.49239 12.4135 2.43852 12.3698 2.57019 12.2768ZM27.6592 27.0818C27.6592 27.3169 27.5874 27.3606 27.348 27.3606C18.9631 27.3552 10.5721 27.3552 2.18716 27.3606C1.94177 27.3606 1.88192 27.3114 1.88192 27.0818C1.88791 22.8338 1.88791 18.5913 1.88791 14.3434C1.88791 14.2669 1.88791 14.1848 1.88791 14.0591C6.1133 17.0879 10.2848 20.0729 14.4504 23.0689C14.6958 23.2493 14.8394 23.2493 15.0908 23.0689C19.1785 20.1276 23.2722 17.1972 27.366 14.2669C27.4438 14.2122 27.5216 14.1575 27.5994 14.1028C27.6891 14.1903 27.6473 14.2887 27.6473 14.3707C27.6532 18.6078 27.6532 22.8448 27.6592 27.0818Z" fill="black" />
  <path d="M14.7497 11.6479C13.5048 11.6479 12.2539 11.6424 11.009 11.6533C10.7996 11.6533 10.7337 11.6041 10.7457 11.4127C10.7637 11.0298 10.7637 10.6469 10.7457 10.264C10.7337 10.0671 10.7876 10.0015 11.021 10.0015C11.9666 10.0124 12.9182 10.0069 13.8639 10.0069C15.408 10.0069 16.9521 10.0124 18.5022 10.0015C18.7237 10.0015 18.7895 10.0507 18.7775 10.2531C18.7596 10.636 18.7536 11.0188 18.7775 11.4017C18.7895 11.6151 18.7057 11.6533 18.4903 11.6533C17.2454 11.6479 16.0005 11.6479 14.7497 11.6479Z" fill="black" />
  <path d="M14.7673 14.9296C13.5224 14.9296 12.2716 14.9241 11.0267 14.9351C10.8052 14.9351 10.7334 14.8913 10.7454 14.678C10.7634 14.2896 10.7574 13.8958 10.7454 13.502C10.7394 13.3379 10.7813 13.2832 10.9728 13.2832C13.5045 13.2887 16.0361 13.2887 18.5738 13.2832C18.7294 13.2832 18.7772 13.316 18.7772 13.4637C18.7653 13.8739 18.7593 14.2842 18.7772 14.6944C18.7832 14.8913 18.7114 14.9351 18.5079 14.9296C17.263 14.9296 16.0122 14.9296 14.7673 14.9296Z" fill="black" />
</svg>
  