<svg width="27" height="26" viewBox="0 0 27 26" fill="none" xmlns="http://www.w3.org/2000/svg">
  <path d="M26.4311 12.0903C26.4159 13.6943 26.1041 15.0952 25.473 16.4353C25.3969 16.5909 25.3437 16.618 25.1688 16.5435C24.8038 16.3879 24.4312 16.239 24.051 16.1104C23.8533 16.0427 23.8229 15.9818 23.9065 15.8059C24.4692 14.6147 24.7354 13.3694 24.7202 12.0768C24.6669 8.35449 21.9599 4.96382 17.9982 3.6644C17.0477 3.35308 16.0668 3.17035 15.0555 3.11621C14.8882 3.10944 14.8274 3.0756 14.8426 2.91318C14.873 2.53418 14.8958 2.15518 14.8958 1.76942C14.8958 1.58668 14.9795 1.57315 15.1467 1.57992C17.7017 1.74234 19.9981 2.50711 21.9827 3.94865C24.5073 5.78949 25.952 8.17176 26.3626 11.0481C26.4083 11.4474 26.4463 11.8467 26.4311 12.0903Z" fill="black" />
  <path d="M22.1271 12.446C22.0891 13.292 21.8914 14.0973 21.5416 14.8824C21.458 15.0719 21.3819 15.0719 21.1994 14.9974C20.8421 14.8418 20.4771 14.6996 20.1045 14.5778C19.8992 14.5102 19.8916 14.4425 19.9676 14.2733C20.7128 12.5611 20.5683 10.903 19.4581 9.35995C18.4316 7.93873 16.9412 7.14692 15.0554 6.95065C14.6752 6.91005 14.6676 6.91681 14.6828 6.57166C14.698 6.23328 14.7209 5.89489 14.7285 5.55651C14.7285 5.42116 14.7741 5.39409 14.9262 5.40085C18.4924 5.62419 21.3667 7.9049 22.0207 11.0654C22.1119 11.5188 22.1423 11.9858 22.1271 12.446Z" fill="black" />
  <path d="M17.8472 12.291C17.832 12.6362 17.7636 13.0288 17.5963 13.4012C17.5431 13.523 17.5051 13.5772 17.3378 13.5095C16.9348 13.3402 16.5241 13.1845 16.1135 13.0356C15.9767 12.9882 15.9614 12.9408 16.0071 12.8122C16.3873 11.8374 15.817 10.9642 14.6764 10.7543C14.5395 10.7272 14.4863 10.6934 14.4939 10.558C14.5243 10.1518 14.5395 9.74565 14.5471 9.33948C14.5471 9.19732 14.6231 9.20409 14.7448 9.21763C16.5013 9.36656 17.832 10.6595 17.8472 12.291Z" fill="black" />
  <path d="M23.2837 21.117C22.356 19.7161 21.3979 18.3219 20.4246 16.9481C19.6566 15.8652 18.113 15.5674 16.8735 16.2239C16.4325 16.454 15.9915 16.6909 15.558 16.9345C15.4364 17.0022 15.3223 17.0225 15.1854 16.9887C14.6608 16.8668 14.1893 16.6638 13.7635 16.3728C12.045 15.2087 10.9576 13.6454 10.2353 11.8722C9.9235 11.121 9.79423 10.3359 9.94631 9.53057C9.98433 9.32754 10.0604 9.17865 10.2809 9.07036C10.6915 8.87409 11.0793 8.65076 11.4747 8.42742C12.7674 7.70327 13.1476 6.34294 12.3644 5.18565C11.4519 3.8321 10.5166 2.49208 9.59652 1.14529C9.28476 0.691847 8.85133 0.360225 8.28864 0.170728C8.09094 0.10305 7.87803 0.062443 7.67272 0.00830078C7.4446 0.00830078 7.21648 0.00830078 6.98836 0.00830078C6.40285 0.0286041 5.9238 0.272244 5.45996 0.563259C5.1558 0.752757 4.85925 0.942255 4.56269 1.14529C2.87461 2.30258 1.60474 3.74412 0.81393 5.50374C0.10676 7.0671 -0.106152 8.69813 0.045928 10.3765C0.175196 11.7639 0.524979 13.0972 1.05726 14.3966C1.65797 15.8517 2.4792 17.1985 3.39168 18.5114C4.62352 20.271 6.03786 21.8953 7.84761 23.2286C9.49767 24.44 11.3302 25.3401 13.4213 25.7935C13.908 25.9018 14.4098 25.9221 14.9041 25.9898C14.9801 25.9898 15.0562 25.9898 15.1322 25.9898C15.1626 25.9018 15.2387 25.9492 15.2995 25.9492C15.3375 25.9492 15.3755 25.9492 15.4136 25.9492C15.4744 25.9424 15.5428 25.9289 15.5885 25.9966C15.8546 25.9966 16.1207 25.9966 16.3869 25.9966C16.4477 25.9357 16.5009 25.9221 16.5618 25.9966C16.6606 25.9966 16.7519 25.9966 16.8507 25.9966C16.8659 25.956 16.8963 25.9492 16.9344 25.9492C18.9038 25.8071 20.6983 25.2115 22.3712 24.2979C23.6335 23.6008 24.0365 22.2405 23.2837 21.117ZM5.9238 2.20106C6.21275 2.03864 6.4865 1.86267 6.77545 1.69348C7.28491 1.3957 7.81719 1.49721 8.14416 1.96419C8.93498 3.11471 9.72579 4.26524 10.5166 5.41576C10.6459 5.60526 10.7751 5.78799 10.9044 5.97748C10.9957 6.11284 11.0489 6.2482 11.0413 6.34971C11.0337 6.70841 10.8892 6.94528 10.6079 7.1077C10.2885 7.28367 9.95391 7.45286 9.64215 7.64236C9.46726 7.75064 9.39882 7.70327 9.30757 7.56115C8.36468 6.17375 7.41418 4.79312 6.46369 3.4125C6.25838 3.11471 6.06828 2.81693 5.84776 2.53268C5.7185 2.37026 5.75652 2.28904 5.9238 2.20106ZM18.4399 24.1693C16.1207 24.7242 13.8852 24.4941 11.7332 23.5873C9.59652 22.6871 7.87803 21.3133 6.45608 19.6552C4.66154 17.5639 3.17116 15.3238 2.34233 12.7723C1.98494 11.676 1.78724 10.566 1.78724 9.34107C1.80245 7.20922 2.56284 5.23303 4.23572 3.56139C4.3878 3.4125 4.44863 3.39219 4.5779 3.58169C5.77172 5.34131 6.98076 7.10094 8.18979 8.85379C8.25822 8.94854 8.31906 9.03652 8.28864 9.15834C8.0225 10.3292 8.2202 11.4662 8.69165 12.5625C9.50528 14.4711 10.7067 16.1495 12.5241 17.4421C13.1476 17.8888 13.8548 18.2204 14.6304 18.4167C14.752 18.4505 14.8205 18.5046 14.8889 18.5926C16.1131 20.3793 17.3374 22.166 18.5692 23.9459C18.6605 24.1016 18.6072 24.1287 18.4399 24.1693ZM21.5272 22.9646C21.1774 23.1541 20.8124 23.3098 20.4626 23.4993C20.2877 23.594 20.2421 23.4925 20.1737 23.391C19.2384 22.0307 18.3031 20.6703 17.3678 19.31C17.1473 18.9852 16.9344 18.6535 16.6986 18.3422C16.5922 18.1933 16.6302 18.1324 16.7899 18.058C17.1169 17.8955 17.421 17.7196 17.7404 17.5504C18.227 17.3 18.7289 17.3947 19.0255 17.8211C19.9607 19.1679 20.8884 20.5282 21.8161 21.8818C21.8998 22.0104 21.9454 22.1457 21.9454 22.2946C21.9302 22.5721 21.8009 22.809 21.5272 22.9646Z" fill="black" />
</svg>
  