<svg width="22" height="21" viewBox="0 0 22 21" fill="none" xmlns="http://www.w3.org/2000/svg">
  <path d="M15.869 0.888977C13.773 0.888977 11.982 2.38298 10.998 3.41298C10.014 2.38298 8.227 0.888977 6.132 0.888977C2.521 0.888977 0 3.40598 0 7.00898C0 10.979 3.131 13.545 6.16 16.027C7.59 17.2 9.07 18.412 10.205 19.756C10.396 19.981 10.676 20.111 10.97 20.111H11.028C11.323 20.111 11.602 19.98 11.792 19.756C12.929 18.412 14.408 17.199 15.839 16.027C18.867 13.546 22 10.98 22 7.00898C22 3.40598 19.479 0.888977 15.869 0.888977Z" fill="#B5B6BA" />
</svg>
  