<svg width="85" height="213" viewBox="0 0 85 213" fill="none" xmlns="http://www.w3.org/2000/svg">
  <path d="M53.0122 193.381L52.3534 210.292L37.0076 211.863" stroke="white" stroke-linecap="round" />
  <path d="M6.9105 40.7011L6.44221 40.5257L6.43975 40.5325L6.9105 40.7011ZM33.9115 129.639L33.6998 130.092L33.9115 129.639ZM67.4246 107.088L67.6211 106.629L67.4246 107.088ZM68.1786 3.67919C68.4426 3.75996 68.7222 3.61137 68.8029 3.34731C68.8837 3.08324 68.7351 2.8037 68.4711 2.72292L68.1786 3.67919ZM66.9694 2.28786C66.7031 2.215 66.4281 2.37187 66.3552 2.63823C66.2824 2.90459 66.4392 3.17958 66.7056 3.25243L66.9694 2.28786ZM63.7603 2.54351C64.0306 2.59964 64.2953 2.42596 64.3515 2.15558C64.4076 1.8852 64.2339 1.62052 63.9635 1.56439L63.7603 2.54351ZM60.915 1.0355C60.6415 0.997463 60.3889 1.18835 60.3509 1.46186C60.3128 1.73536 60.5037 1.98793 60.7772 2.02597L60.915 1.0355ZM57.7674 1.71378C58.0429 1.73252 58.2814 1.52437 58.3002 1.24886C58.3189 0.973354 58.1108 0.734821 57.8353 0.71608L57.7674 1.71378ZM54.739 0.618775C54.4629 0.620303 54.2402 0.845397 54.2418 1.12154C54.2433 1.39767 54.4684 1.62029 54.7445 1.61876L54.739 0.618775ZM51.7245 1.74945C51.9997 1.72704 52.2047 1.48575 52.1823 1.21052C52.1598 0.935285 51.9186 0.730337 51.6433 0.752751L51.7245 1.74945ZM48.5668 1.12269C48.2941 1.16618 48.1083 1.42251 48.1518 1.69521C48.1953 1.9679 48.4516 2.1537 48.7243 2.1102L48.5668 1.12269ZM45.7612 2.70072C46.0297 2.63638 46.1953 2.36653 46.1309 2.09798C46.0666 1.82944 45.7968 1.6639 45.5282 1.72824L45.7612 2.70072ZM42.5449 2.56424C42.282 2.64874 42.1374 2.93037 42.2219 3.19326C42.3064 3.45616 42.5881 3.60077 42.851 3.51626L42.5449 2.56424ZM40.0056 4.54898C40.2615 4.4453 40.3849 4.15378 40.2813 3.89784C40.1776 3.64189 39.8861 3.51846 39.6301 3.62213L40.0056 4.54898ZM36.8019 4.88712C36.5539 5.00866 36.4515 5.3082 36.573 5.55616C36.6945 5.80411 36.9941 5.90659 37.242 5.78504L36.8019 4.88712ZM34.5695 7.20977C34.8087 7.0718 34.8908 6.76604 34.7528 6.52683C34.6149 6.28763 34.3091 6.20556 34.0699 6.34353L34.5695 7.20977ZM31.441 7.97462C31.211 8.12752 31.1486 8.43788 31.3015 8.66783C31.4544 8.89777 31.7647 8.96023 31.9947 8.80733L31.441 7.97462ZM29.5219 10.5616C29.7423 10.3952 29.7861 10.0817 29.6197 9.8613C29.4533 9.6409 29.1398 9.5971 28.9194 9.76347L29.5219 10.5616ZM26.5056 11.6952C26.2948 11.8737 26.2687 12.1892 26.4471 12.3999C26.6256 12.6107 26.9411 12.6368 27.1518 12.4584L26.5056 11.6952ZM24.887 14.482C25.088 14.2927 25.0976 13.9763 24.9083 13.7752C24.7191 13.5741 24.4026 13.5646 24.2015 13.7538L24.887 14.482ZM22.0067 15.9254C21.8152 16.1243 21.8213 16.4409 22.0202 16.6324C22.2192 16.8239 22.5357 16.8178 22.7272 16.6189L22.0067 15.9254ZM20.672 18.8567C20.854 18.649 20.8333 18.3331 20.6257 18.1511C20.4181 17.969 20.1022 17.9897 19.9201 18.1973L20.672 18.8567ZM17.9375 20.5621C17.7647 20.7775 17.7993 21.0922 18.0147 21.265C18.2302 21.4377 18.5448 21.4031 18.7176 21.1877L17.9375 20.5621ZM16.8639 23.6024C17.0274 23.3799 16.9796 23.0669 16.7571 22.9034C16.5346 22.7398 16.2217 22.7876 16.0581 23.0101L16.8639 23.6024ZM14.2835 25.5303C14.1291 25.7593 14.1895 26.07 14.4184 26.2244C14.6474 26.3788 14.9581 26.3184 15.1125 26.0895L14.2835 25.5303ZM13.4624 28.6441C13.6076 28.4093 13.535 28.1011 13.3001 27.9559C13.0652 27.8107 12.7571 27.8834 12.6119 28.1182L13.4624 28.6441ZM11.04 30.7763C10.9042 31.0167 10.9889 31.3217 11.2294 31.4576C11.4698 31.5934 11.7748 31.5086 11.9106 31.2682L11.04 30.7763ZM10.4699 33.9413C10.596 33.6956 10.499 33.3942 10.2533 33.2682C10.0077 33.1421 9.7063 33.239 9.58021 33.4847L10.4699 33.9413ZM8.22603 36.2651C8.11048 36.5159 8.22013 36.8129 8.47093 36.9284C8.72174 37.044 9.01872 36.9343 9.13428 36.6835L8.22603 36.2651ZM7.92835 39.4671C8.03202 39.2111 7.90857 38.9196 7.65263 38.8159C7.39669 38.7123 7.10516 38.8357 7.00149 39.0917L7.92835 39.4671ZM5.9488 41.9483C5.86086 42.21 6.00177 42.4935 6.26353 42.5815C6.5253 42.6694 6.80879 42.5285 6.89673 42.2667L5.9488 41.9483ZM5.99313 45.1291C6.07161 44.8644 5.92061 44.5861 5.65585 44.5076C5.3911 44.4291 5.11285 44.5801 5.03437 44.8449L5.99313 45.1291ZM4.22395 47.7527C4.15407 48.0199 4.31398 48.2931 4.58114 48.363C4.84829 48.4328 5.12151 48.2729 5.19139 48.0058L4.22395 47.7527ZM4.4794 50.9086C4.54113 50.6395 4.37298 50.3712 4.10383 50.3095C3.83467 50.2478 3.56644 50.4159 3.5047 50.6851L4.4794 50.9086ZM2.87269 53.6399C2.81888 53.9107 2.99482 54.1739 3.26567 54.2277C3.53652 54.2815 3.79971 54.1056 3.85352 53.8347L2.87269 53.6399ZM3.31262 56.779C3.3586 56.5067 3.17515 56.2487 2.90286 56.2028C2.63057 56.1568 2.37256 56.3402 2.32658 56.6125L3.31262 56.779ZM1.86615 59.5999C1.82802 59.8734 2.01882 60.126 2.29231 60.1641C2.56581 60.2023 2.81844 60.0115 2.85657 59.738L1.86615 59.5999ZM2.48612 62.7087C2.5163 62.4342 2.31825 62.1872 2.04376 62.157C1.76927 62.1269 1.52229 62.3249 1.49211 62.5994L2.48612 62.7087ZM1.20598 65.6088C1.18392 65.884 1.38918 66.1251 1.66444 66.1471C1.9397 66.1692 2.18072 65.9639 2.20278 65.6887L1.20598 65.6088ZM2.00878 68.6753C2.02248 68.3995 1.81 68.1649 1.53419 68.1512C1.25839 68.1375 1.02371 68.3499 1.01001 68.6257L2.00878 68.6753ZM0.907105 71.6478C0.902058 71.9239 1.12178 72.1518 1.39788 72.1568C1.67397 72.1619 1.90189 71.9421 1.90694 71.6661L0.907105 71.6478ZM1.90061 74.6579C1.89667 74.3818 1.66964 74.1611 1.39353 74.1651C1.11741 74.169 0.896771 74.396 0.900715 74.6721L1.90061 74.6579ZM0.994818 77.6957C1.00813 77.9715 1.24251 78.1843 1.51833 78.171C1.79415 78.1577 2.00696 77.9233 1.99366 77.6475L0.994818 77.6957ZM2.19033 80.6312C2.16725 80.3561 1.92545 80.1517 1.65028 80.1748C1.3751 80.1979 1.17074 80.4397 1.19384 80.7149L2.19033 80.6312ZM1.5026 83.7255C1.53592 83.9997 1.78516 84.1949 2.05928 84.1616C2.33341 84.1282 2.52861 83.879 2.49529 83.6049L1.5026 83.7255ZM2.91342 86.5636C2.86938 86.291 2.6127 86.1057 2.34009 86.1497C2.06748 86.1938 1.88218 86.4505 1.92621 86.7231L2.91342 86.5636ZM2.47005 89.7021C2.52527 89.9726 2.78937 90.1472 3.05994 90.092C3.3305 90.0368 3.50507 89.7726 3.44984 89.5021L2.47005 89.7021ZM4.10964 92.4137C4.04273 92.1458 3.77131 91.9829 3.5034 92.0498C3.23548 92.1167 3.07253 92.3881 3.13943 92.656L4.10964 92.4137ZM3.93971 95.5781C4.01875 95.8426 4.29733 95.9931 4.56191 95.914C4.8265 95.835 4.97691 95.5564 4.89787 95.2918L3.93971 95.5781ZM5.81934 98.1288C5.72773 97.8683 5.44228 97.7314 5.18178 97.823C4.92127 97.9146 4.78437 98.2001 4.87599 98.4606L5.81934 98.1288ZM5.95274 101.295C6.0573 101.55 6.34925 101.673 6.60483 101.568C6.86041 101.464 6.98284 101.172 6.87828 100.916L5.95274 101.295ZM8.07805 103.644C7.96027 103.394 7.66232 103.287 7.41255 103.405C7.16279 103.523 7.0558 103.821 7.17358 104.071L8.07805 103.644ZM8.54104 106.778C8.67221 107.021 8.97553 107.112 9.21853 106.981C9.46153 106.85 9.5522 106.546 9.42103 106.303L8.54104 106.778ZM10.9083 108.884C10.7637 108.649 10.4558 108.575 10.2205 108.72C9.98523 108.864 9.9117 109.172 10.0563 109.408L10.9083 108.884ZM11.7189 111.947C11.8767 112.174 12.1883 112.23 12.4149 112.072C12.6415 111.914 12.6972 111.602 12.5394 111.376L11.7189 111.947ZM14.3125 113.769C14.1417 113.552 13.8273 113.515 13.6104 113.686C13.3934 113.856 13.3559 114.171 13.5267 114.388L14.3125 113.769ZM15.4762 116.72C15.6595 116.926 15.9755 116.945 16.182 116.762C16.3886 116.579 16.4074 116.263 16.2242 116.056L15.4762 116.72ZM18.2636 118.222C18.0685 118.027 17.7519 118.027 17.5564 118.222C17.361 118.417 17.3608 118.734 17.5559 118.929L18.2636 118.222ZM19.7592 121.011C19.9653 121.195 20.2813 121.177 20.4651 120.97C20.6489 120.764 20.6307 120.448 20.4246 120.264L19.7592 121.011ZM22.7009 122.18C22.4846 122.008 22.1701 122.044 21.9984 122.26C21.8267 122.477 21.8629 122.791 22.0792 122.963L22.7009 122.18ZM24.5075 124.782C24.733 124.942 25.045 124.888 25.2044 124.663C25.3638 124.437 25.3103 124.125 25.0848 123.966L24.5075 124.782ZM27.5691 125.623C27.3353 125.476 27.0266 125.546 26.8796 125.78C26.7326 126.013 26.8029 126.322 27.0366 126.469L27.5691 125.623ZM29.646 128.018C29.887 128.152 30.1916 128.066 30.3264 127.825C30.4612 127.584 30.3751 127.28 30.1341 127.145L29.646 128.018ZM32.7621 128.53C32.5148 128.408 32.2148 128.509 32.0919 128.756C31.9691 129.003 32.07 129.303 32.3173 129.426L32.7621 128.53ZM35.1007 130.736C35.3523 130.85 35.6485 130.739 35.7624 130.487C35.8762 130.235 35.7646 129.939 35.513 129.825L35.1007 130.736ZM38.2372 131.018C37.9829 130.911 37.6895 131.03 37.5819 131.284C37.4744 131.538 37.5933 131.832 37.8476 131.939L38.2372 131.018ZM40.6642 133.086C40.9213 133.187 41.2114 133.06 41.312 132.803C41.4126 132.546 41.2857 132.256 41.0286 132.155L40.6642 133.086ZM43.8112 133.198C43.5512 133.105 43.265 133.24 43.1719 133.5C43.0788 133.76 43.2141 134.046 43.4741 134.14L43.8112 133.198ZM46.3331 135.113C46.5959 135.198 46.8776 135.053 46.9624 134.79C47.0471 134.528 46.9027 134.246 46.6399 134.161L46.3331 135.113ZM49.5127 135.032C49.2471 134.957 48.9706 135.111 48.8952 135.377C48.8198 135.643 48.9741 135.919 49.2397 135.994L49.5127 135.032ZM52.1577 136.763C52.426 136.828 52.6963 136.663 52.7613 136.394C52.8263 136.126 52.6614 135.856 52.393 135.791L52.1577 136.763ZM55.2878 136.427C55.0169 136.374 54.754 136.55 54.7007 136.821C54.6473 137.092 54.8237 137.355 55.0947 137.408L55.2878 136.427ZM58.0807 137.922C58.3539 137.962 58.6078 137.773 58.6478 137.5C58.6878 137.226 58.4988 136.972 58.2255 136.932L58.0807 137.922ZM61.1904 137.284C60.9153 137.259 60.6724 137.462 60.6478 137.737C60.6232 138.012 60.8262 138.255 61.1012 138.28L61.1904 137.284ZM64.135 138.455C64.4111 138.462 64.6404 138.244 64.6472 137.968C64.654 137.692 64.4358 137.462 64.1597 137.456L64.135 138.455ZM67.1235 137.42C66.8478 137.434 66.6356 137.669 66.6497 137.945C66.6637 138.22 66.8987 138.433 67.1745 138.419L67.1235 137.42ZM70.2019 138.131C70.4753 138.092 70.6654 137.839 70.6266 137.566C70.5878 137.292 70.3347 137.102 70.0613 137.141L70.2019 138.131ZM72.951 136.573C72.6835 136.642 72.5222 136.914 72.5908 137.182C72.6593 137.449 72.9317 137.611 73.1992 137.542L72.951 136.573ZM76.1297 136.581C76.3853 136.476 76.5077 136.184 76.4032 135.929C76.2987 135.673 76.0067 135.551 75.7511 135.655L76.1297 136.581ZM78.339 134.338C78.1051 134.485 78.0345 134.793 78.1813 135.027C78.328 135.261 78.6366 135.332 78.8705 135.185L78.339 134.338ZM81.3198 133.261C81.5162 133.066 81.518 132.75 81.3239 132.554C81.1298 132.357 80.8132 132.355 80.6168 132.549L81.3198 133.261ZM82.3735 130.294C82.2352 130.533 82.3167 130.839 82.5557 130.978C82.7946 131.116 83.1005 131.035 83.2389 130.796L82.3735 130.294ZM84.3971 127.878C84.4599 127.609 84.2927 127.34 84.0238 127.278C83.7549 127.215 83.486 127.382 83.4233 127.651L84.3971 127.878ZM83.6605 124.806C83.6765 125.082 83.9129 125.292 84.1885 125.276C84.4642 125.26 84.6748 125.024 84.6589 124.748L83.6605 124.806ZM84.0877 121.688C84.0052 121.424 83.7246 121.277 83.4611 121.36C83.1976 121.443 83.0509 121.723 83.1335 121.987L84.0877 121.688ZM81.986 119.327C82.1192 119.569 82.4232 119.657 82.6651 119.524C82.907 119.391 82.9951 119.087 82.8619 118.845L81.986 119.327ZM81.1548 116.275C80.9847 116.057 80.6705 116.019 80.4529 116.189C80.2354 116.359 80.1969 116.673 80.367 116.891L81.1548 116.275ZM78.4049 114.701C78.6018 114.895 78.9183 114.892 79.112 114.696C79.3057 114.499 79.3032 114.182 79.1064 113.988L78.4049 114.701ZM76.8206 111.974C76.6042 111.802 76.2897 111.838 76.1181 112.055C75.9465 112.271 75.9828 112.586 76.1991 112.757L76.8206 111.974ZM73.8006 111.03C74.0316 111.181 74.3415 111.116 74.4929 110.886C74.6443 110.655 74.5798 110.345 74.3489 110.193L73.8006 111.03ZM71.7407 108.628C71.4988 108.495 71.1948 108.583 71.0617 108.825C70.9286 109.067 71.0169 109.371 71.2589 109.504L71.7407 108.628ZM68.6092 108.164C68.8596 108.28 69.157 108.172 69.2734 107.921C69.3898 107.671 69.2812 107.374 69.0308 107.257L68.6092 108.164ZM66.1949 106.068C65.9351 105.974 65.6486 106.109 65.5552 106.369C65.4617 106.629 65.5965 106.915 65.8564 107.009L66.1949 106.068ZM63.066 106.19C63.3352 106.252 63.6032 106.083 63.6645 105.814C63.7259 105.545 63.5573 105.277 63.2881 105.215L63.066 106.19ZM60.2953 104.729C60.0205 104.702 59.7759 104.903 59.7489 105.178C59.722 105.453 59.9229 105.697 60.1977 105.724L60.2953 104.729ZM57.2935 105.625C57.5696 105.617 57.7867 105.387 57.7785 105.111C57.7703 104.835 57.5399 104.618 57.2639 104.626L57.2935 105.625ZM54.2444 104.906C53.9715 104.948 53.7848 105.204 53.8273 105.477C53.8698 105.75 54.1254 105.936 54.3983 105.894L54.2444 104.906ZM51.5542 106.515C51.82 106.44 51.975 106.164 51.9002 105.898C51.8255 105.632 51.5494 105.477 51.2836 105.552L51.5542 106.515ZM48.4202 106.535C48.1644 106.639 48.0413 106.931 48.1454 107.187C48.2494 107.442 48.5411 107.565 48.7969 107.461L48.4202 106.535ZM46.1535 108.703C46.3971 108.573 46.4891 108.27 46.3591 108.026C46.229 107.782 45.9261 107.69 45.6825 107.82L46.1535 108.703ZM43.0896 109.371C42.8596 109.524 42.797 109.835 42.9498 110.065C43.1026 110.295 43.413 110.357 43.643 110.204L43.0896 109.371ZM41.2775 111.934C41.4931 111.761 41.5279 111.447 41.3553 111.231C41.1828 111.016 40.8681 110.981 40.6525 111.153L41.2775 111.934ZM38.3773 113.135C38.1766 113.325 38.1676 113.641 38.3573 113.842C38.5469 114.043 38.8634 114.052 39.0641 113.862L38.3773 113.135ZM37.0073 115.962C37.193 115.757 37.1778 115.441 36.9734 115.255C36.769 115.07 36.4528 115.085 36.2671 115.289L37.0073 115.962ZM34.3286 117.584C34.1579 117.801 34.1955 118.115 34.4126 118.286C34.6296 118.456 34.944 118.419 35.1147 118.202L34.3286 117.584ZM33.3789 120.57C33.5347 120.342 33.4761 120.031 33.2481 119.875C33.0201 119.719 32.709 119.778 32.5532 120.006L33.3789 120.57ZM30.9391 122.539C30.7981 122.777 30.8763 123.083 31.1138 123.224C31.3512 123.365 31.658 123.287 31.799 123.05L30.9391 122.539ZM30.3737 125.627C30.5 125.381 30.4033 125.08 30.1577 124.953C29.9122 124.827 29.6107 124.924 29.4844 125.169L30.3737 125.627ZM28.1875 127.884C28.0757 128.137 28.1898 128.432 28.4424 128.544C28.6949 128.656 28.9902 128.542 29.1019 128.289L28.1875 127.884ZM27.9867 131.015C28.0841 130.756 27.9536 130.468 27.6952 130.371C27.4368 130.273 27.1483 130.404 27.051 130.662L27.9867 131.015ZM26.0717 133.492C25.9885 133.756 26.1346 134.037 26.3979 134.12C26.6612 134.203 26.9421 134.057 27.0253 133.794L26.0717 133.492ZM26.2127 136.626C26.2818 136.359 26.1211 136.086 25.8538 136.017C25.5864 135.948 25.3137 136.109 25.2446 136.376L26.2127 136.626ZM24.5684 139.305C24.5133 139.576 24.688 139.84 24.9586 139.895C25.2292 139.95 25.4932 139.775 25.5483 139.505L24.5684 139.305ZM25.0338 142.406C25.0751 142.133 24.8873 141.878 24.6143 141.837C24.3412 141.796 24.0864 141.984 24.0451 142.257L25.0338 142.406ZM23.671 145.226C23.6433 145.501 23.8436 145.746 24.1183 145.773C24.3931 145.801 24.6383 145.601 24.666 145.326L23.671 145.226ZM24.4419 148.27C24.4562 147.994 24.2441 147.759 23.9684 147.745C23.6926 147.731 23.4575 147.943 23.4433 148.219L24.4419 148.27ZM23.361 151.221C23.3601 151.497 23.5832 151.722 23.8594 151.723C24.1355 151.724 24.3601 151.501 24.361 151.225L23.361 151.221ZM24.4207 154.164C24.4086 153.888 24.1752 153.675 23.8993 153.687C23.6234 153.699 23.4096 153.932 23.4217 154.208L24.4207 154.164ZM23.623 157.201C23.6479 157.476 23.8911 157.678 24.1661 157.654C24.4411 157.629 24.6439 157.385 24.6189 157.11L23.623 157.201ZM24.9535 160.049C24.916 159.775 24.6638 159.584 24.3902 159.621C24.1166 159.659 23.9253 159.911 23.9628 160.184L24.9535 160.049ZM24.4345 163.132C24.4842 163.404 24.7447 163.583 25.0163 163.534C25.288 163.484 25.4679 163.224 25.4181 162.952L24.4345 163.132ZM26.0151 165.849C25.9534 165.58 25.6852 165.412 25.4161 165.474C25.1469 165.535 24.9787 165.804 25.0403 166.073L26.0151 165.849ZM25.7717 168.975C25.8449 169.241 26.1202 169.398 26.3864 169.324C26.6527 169.251 26.8091 168.976 26.7359 168.71L25.7717 168.975ZM27.5773 171.534C27.4929 171.271 27.2113 171.126 26.9484 171.21C26.6854 171.295 26.5407 171.576 26.6251 171.839L27.5773 171.534ZM27.6053 174.687C27.7006 174.946 27.9879 175.079 28.2471 174.984C28.5063 174.889 28.6392 174.601 28.5439 174.342L27.6053 174.687ZM29.6111 177.075C29.5056 176.82 29.2131 176.699 28.958 176.804C28.7028 176.91 28.5815 177.202 28.6871 177.457L29.6111 177.075ZM29.8905 180.21C30.006 180.461 30.303 180.571 30.5538 180.455C30.8046 180.34 30.9143 180.043 30.7987 179.792L29.8905 180.21ZM32.0819 182.442C31.9568 182.196 31.6559 182.098 31.4097 182.223C31.1634 182.348 31.0652 182.649 31.1902 182.895L32.0819 182.442ZM32.5957 185.539C32.7298 185.781 33.0342 185.868 33.2756 185.734C33.517 185.6 33.604 185.295 33.4699 185.054L32.5957 185.539ZM34.9518 187.611C34.8091 187.375 34.5018 187.299 34.2653 187.442C34.0289 187.584 33.953 187.892 34.0957 188.128L34.9518 187.611ZM35.6836 190.657C35.8345 190.888 36.1443 190.954 36.3756 190.803C36.6069 190.652 36.6721 190.342 36.5212 190.111L35.6836 190.657ZM38.1821 192.564C38.0234 192.338 37.7116 192.284 37.4856 192.442C37.2595 192.601 37.2049 192.913 37.3635 193.139L38.1821 192.564ZM39.1158 195.55C39.2817 195.771 39.5952 195.816 39.8159 195.65C40.0366 195.484 40.0811 195.17 39.9152 194.95L39.1158 195.55ZM41.7344 197.291C41.5615 197.076 41.2468 197.041 41.0315 197.214C40.8161 197.387 40.7816 197.702 40.9544 197.917L41.7344 197.291ZM42.8553 200.213C43.0346 200.423 43.3502 200.448 43.5603 200.269C43.7703 200.089 43.7952 199.774 43.6159 199.564L42.8553 200.213ZM45.5725 201.788C45.387 201.583 45.0708 201.568 44.8662 201.753C44.6616 201.938 44.646 202.255 44.8314 202.459L45.5725 201.788ZM68.4711 2.72292C67.9678 2.56899 67.4673 2.42402 66.9694 2.28786L66.7056 3.25243C67.1937 3.38594 67.6847 3.52814 68.1786 3.67919L68.4711 2.72292ZM63.9635 1.56439C62.9351 1.35089 61.9189 1.17513 60.915 1.0355L60.7772 2.02597C61.7589 2.16251 62.7532 2.33446 63.7603 2.54351L63.9635 1.56439ZM57.8353 0.71608C56.7888 0.644904 55.7567 0.613141 54.739 0.618775L54.7445 1.61876C55.7377 1.61326 56.7453 1.64425 57.7674 1.71378L57.8353 0.71608ZM51.6433 0.752751C50.6015 0.837598 49.5759 0.961711 48.5668 1.12269L48.7243 2.1102C49.7083 1.95324 50.7084 1.8322 51.7245 1.74945L51.6433 0.752751ZM45.5282 1.72824C44.5158 1.97079 43.5213 2.25036 42.5449 2.56424L42.851 3.51626C43.8037 3.20998 44.7738 2.93727 45.7612 2.70072L45.5282 1.72824ZM39.6301 3.62213C38.6683 4.01175 37.7255 4.43439 36.8019 4.88712L37.242 5.78504C38.145 5.34244 39.0662 4.92949 40.0056 4.54898L39.6301 3.62213ZM34.0699 6.34353C33.1738 6.8604 32.2974 7.40511 31.441 7.97462L31.9947 8.80733C32.834 8.24918 33.6924 7.7157 34.5695 7.20977L34.0699 6.34353ZM28.9194 9.76347C28.0944 10.3862 27.2898 11.0312 26.5056 11.6952L27.1518 12.4584C27.9223 11.8059 28.7123 11.1727 29.5219 10.5616L28.9194 9.76347ZM24.2015 13.7538C23.4489 14.4623 22.7173 15.1872 22.0067 15.9254L22.7272 16.6189C23.4267 15.8921 24.1467 15.1788 24.887 14.482L24.2015 13.7538ZM19.9201 18.1973C19.2371 18.9762 18.5762 19.7656 17.9375 20.5621L18.7176 21.1877C19.3474 20.4023 19.9989 19.6242 20.672 18.8567L19.9201 18.1973ZM16.0581 23.0101C15.4426 23.8475 14.851 24.6889 14.2835 25.5303L15.1125 26.0895C15.6727 25.2589 16.2565 24.4286 16.8639 23.6024L16.0581 23.0101ZM12.6119 28.1182C12.0605 29.01 11.5365 29.8975 11.04 30.7763L11.9106 31.2682C12.4008 30.4007 12.9181 29.5245 13.4624 28.6441L12.6119 28.1182ZM9.58021 33.4847C9.09503 34.4299 8.64357 35.3588 8.22603 36.2651L9.13428 36.6835C9.54586 35.7902 9.99112 34.874 10.4699 33.9413L9.58021 33.4847ZM7.00149 39.0917C6.80387 39.5796 6.61745 40.058 6.44226 40.5257L7.37873 40.8764C7.55075 40.4172 7.73396 39.947 7.92835 39.4671L7.00149 39.0917ZM6.43975 40.5325C6.27491 40.993 6.11113 41.4651 5.9488 41.9483L6.89673 42.2667C7.05702 41.7896 7.21865 41.3238 7.38124 40.8696L6.43975 40.5325ZM5.03437 44.8449C4.75638 45.7826 4.48547 46.7529 4.22395 47.7527L5.19139 48.0058C5.45023 47.0163 5.71824 46.0564 5.99313 45.1291L5.03437 44.8449ZM3.5047 50.6851C3.28378 51.6484 3.07252 52.634 2.87269 53.6399L3.85352 53.8347C4.05144 52.8385 4.26065 51.8624 4.4794 50.9086L3.5047 50.6851ZM2.32658 56.6125C2.161 57.593 2.00704 58.5894 1.86615 59.5999L2.85657 59.738C2.99612 58.7371 3.14862 57.7502 3.31262 56.779L2.32658 56.6125ZM1.49211 62.5994C1.38298 63.5919 1.28717 64.5955 1.20598 65.6088L2.20278 65.6887C2.28317 64.6854 2.37804 63.6916 2.48612 62.7087L1.49211 62.5994ZM1.01001 68.6257C0.960336 69.6261 0.925633 70.6339 0.907105 71.6478L1.90694 71.6661C1.92527 70.6629 1.95961 69.6655 2.00878 68.6753L1.01001 68.6257ZM0.900715 74.6721C0.915036 75.6761 0.946028 76.6845 0.994818 77.6957L1.99366 77.6475C1.94543 76.6479 1.91478 75.6508 1.90061 74.6579L0.900715 74.6721ZM1.19384 80.7149C1.27797 81.7174 1.38052 82.7214 1.5026 83.7255L2.49529 83.6049C2.37475 82.6134 2.27345 81.6217 2.19033 80.6312L1.19384 80.7149ZM1.92621 86.7231C2.08687 87.7177 2.2678 88.7112 2.47005 89.7021L3.44984 89.5021C3.25042 88.525 3.07195 87.5451 2.91342 86.5636L1.92621 86.7231ZM3.13943 92.656C3.38372 93.6343 3.65014 94.6088 3.93971 95.5781L4.89787 95.2918C4.61276 94.3375 4.35035 93.3777 4.10964 92.4137L3.13943 92.656ZM4.87599 98.4606C5.21066 99.4121 5.56924 100.357 5.95274 101.295L6.87828 100.916C6.50125 99.9944 6.14861 99.0649 5.81934 98.1288L4.87599 98.4606ZM7.17358 104.071C7.60361 104.983 8.0591 105.886 8.54104 106.778L9.42103 106.303C8.94786 105.427 8.50052 104.54 8.07805 103.644L7.17358 104.071ZM10.0563 109.408C10.5836 110.266 11.1374 111.113 11.7189 111.947L12.5394 111.376C11.9691 110.557 11.4257 109.726 10.9083 108.884L10.0563 109.408ZM13.5267 114.388C14.1491 115.178 14.7986 115.956 15.4762 116.72L16.2242 116.056C15.5598 115.307 14.9228 114.545 14.3125 113.769L13.5267 114.388ZM17.5559 118.929C18.2632 119.637 18.9974 120.332 19.7592 121.011L20.4246 120.264C19.6773 119.598 18.9572 118.917 18.2636 118.222L17.5559 118.929ZM22.0792 122.963C22.8624 123.584 23.6716 124.191 24.5075 124.782L25.0848 123.966C24.2639 123.385 23.4695 122.79 22.7009 122.18L22.0792 122.963ZM27.0366 126.469C27.8815 127.001 28.7511 127.517 29.646 128.018L30.1341 127.145C29.2541 126.653 28.3993 126.145 27.5691 125.623L27.0366 126.469ZM32.3173 129.426C32.7722 129.652 33.233 129.874 33.6998 130.092L34.1231 129.186C33.6634 128.971 33.2098 128.753 32.7621 128.53L32.3173 129.426ZM33.6998 130.092C34.1698 130.312 34.6368 130.526 35.1007 130.736L35.513 129.825C35.0528 129.617 34.5895 129.404 34.1231 129.186L33.6998 130.092ZM37.8476 131.939C38.8001 132.342 39.739 132.724 40.6642 133.086L41.0286 132.155C40.112 131.796 39.1815 131.418 38.2372 131.018L37.8476 131.939ZM43.4741 134.14C44.4432 134.487 45.3962 134.811 46.3331 135.113L46.6399 134.161C45.7134 133.862 44.7705 133.542 43.8112 133.198L43.4741 134.14ZM49.2397 135.994C50.2321 136.276 51.2048 136.532 52.1577 136.763L52.393 135.791C51.4531 135.563 50.4929 135.311 49.5127 135.032L49.2397 135.994ZM55.0947 137.408C56.115 137.609 57.1105 137.78 58.0807 137.922L58.2255 136.932C57.272 136.793 56.2927 136.625 55.2878 136.427L55.0947 137.408ZM61.1012 138.28C62.1455 138.373 63.1569 138.431 64.135 138.455L64.1597 137.456C63.2039 137.432 62.2141 137.375 61.1904 137.284L61.1012 138.28ZM67.1745 138.419C68.229 138.365 69.2384 138.268 70.2019 138.131L70.0613 137.141C69.129 137.274 68.1496 137.368 67.1235 137.42L67.1745 138.419ZM73.1992 137.542C74.2442 137.274 75.2214 136.952 76.1297 136.581L75.7511 135.655C74.888 136.008 73.9545 136.316 72.951 136.573L73.1992 137.542ZM78.8705 135.185C79.7932 134.606 80.6107 133.962 81.3198 133.261L80.6168 132.549C79.9631 133.196 79.2038 133.795 78.339 134.338L78.8705 135.185ZM83.2389 130.796C83.7725 129.874 84.1597 128.896 84.3971 127.878L83.4233 127.651C83.2085 128.572 82.8581 129.458 82.3735 130.294L83.2389 130.796ZM84.6589 124.748C84.6007 123.741 84.4103 122.717 84.0877 121.688L83.1335 121.987C83.433 122.942 83.6074 123.886 83.6605 124.806L84.6589 124.748ZM82.8619 118.845C82.3864 117.981 81.8174 117.122 81.1548 116.275L80.367 116.891C80.9988 117.699 81.5378 118.513 81.986 119.327L82.8619 118.845ZM79.1064 113.988C78.4103 113.303 77.6485 112.63 76.8206 111.974L76.1991 112.757C77.0005 113.393 77.7355 114.042 78.4049 114.701L79.1064 113.988ZM74.3489 110.193C73.5292 109.656 72.6599 109.133 71.7407 108.628L71.2589 109.504C72.1563 109.997 73.0033 110.507 73.8006 111.03L74.3489 110.193ZM69.0308 107.257C68.5713 107.044 68.1014 106.834 67.6211 106.629L67.228 107.548C67.6989 107.749 68.1593 107.955 68.6092 108.164L69.0308 107.257ZM67.6211 106.629C67.1467 106.426 66.6712 106.239 66.1949 106.068L65.8564 107.009C66.3141 107.173 66.7714 107.353 67.228 107.548L67.6211 106.629ZM63.2881 105.215C62.2902 104.988 61.2917 104.827 60.2953 104.729L60.1977 105.724C61.1522 105.818 62.1091 105.972 63.066 106.19L63.2881 105.215ZM57.2639 104.626C56.2511 104.656 55.2437 104.75 54.2444 104.906L54.3983 105.894C55.3572 105.744 56.3231 105.654 57.2935 105.625L57.2639 104.626ZM51.2836 105.552C50.3175 105.823 49.3622 106.152 48.4202 106.535L48.7969 107.461C49.7052 107.092 50.6252 106.776 51.5542 106.515L51.2836 105.552ZM45.6825 107.82C44.8028 108.29 43.9378 108.808 43.0896 109.371L43.643 110.204C44.4653 109.658 45.3029 109.157 46.1535 108.703L45.6825 107.82ZM40.6525 111.153C39.8762 111.775 39.1171 112.436 38.3773 113.135L39.0641 113.862C39.7846 113.181 40.523 112.538 41.2775 111.934L40.6525 111.153ZM36.2671 115.289C35.6014 116.022 34.9546 116.787 34.3286 117.584L35.1147 118.202C35.7264 117.424 36.3578 116.677 37.0073 115.962L36.2671 115.289ZM32.5532 120.006C31.9943 120.824 31.4557 121.669 30.9391 122.539L31.799 123.05C32.305 122.197 32.8321 121.37 33.3789 120.57L32.5532 120.006ZM29.4844 125.169C29.0302 126.053 28.5974 126.958 28.1875 127.884L29.1019 128.289C29.5041 127.38 29.9284 126.493 30.3737 125.627L29.4844 125.169ZM27.051 130.662C26.7021 131.588 26.3753 132.532 26.0717 133.492L27.0253 133.794C27.3234 132.85 27.6442 131.923 27.9867 131.015L27.051 130.662ZM25.2446 136.376C24.996 137.338 24.7702 138.315 24.5684 139.305L25.5483 139.505C25.7467 138.531 25.9685 137.571 26.2127 136.626L25.2446 136.376ZM24.0451 142.257C23.897 143.235 23.772 144.225 23.671 145.226L24.666 145.326C24.7653 144.342 24.8882 143.368 25.0338 142.406L24.0451 142.257ZM23.4433 148.219C23.3921 149.21 23.3644 150.211 23.361 151.221L24.361 151.225C24.3644 150.231 24.3916 149.246 24.4419 148.27L23.4433 148.219ZM23.4217 154.208C23.4651 155.198 23.532 156.196 23.623 157.201L24.6189 157.11C24.5293 156.121 24.4635 155.139 24.4207 154.164L23.4217 154.208ZM23.9628 160.184C24.0967 161.162 24.2538 162.144 24.4345 163.132L25.4181 162.952C25.2401 161.979 25.0855 161.011 24.9535 160.049L23.9628 160.184ZM25.0403 166.073C25.2611 167.036 25.5047 168.004 25.7717 168.975L26.7359 168.71C26.4727 167.753 26.2326 166.799 26.0151 165.849L25.0403 166.073ZM26.6251 171.839C26.9291 172.786 27.2556 173.736 27.6053 174.687L28.5439 174.342C28.199 173.404 27.877 172.467 27.5773 171.534L26.6251 171.839ZM28.6871 177.457C29.0662 178.374 29.4672 179.292 29.8905 180.21L30.7987 179.792C30.3809 178.885 29.9852 177.979 29.6111 177.075L28.6871 177.457ZM31.1902 182.895C31.6377 183.776 32.106 184.658 32.5957 185.539L33.4699 185.054C32.9862 184.183 32.5237 183.312 32.0819 182.442L31.1902 182.895ZM34.0957 188.128C34.605 188.972 35.1342 189.815 35.6836 190.657L36.5212 190.111C35.978 189.278 35.455 188.445 34.9518 187.611L34.0957 188.128ZM37.3635 193.139C37.9285 193.944 38.5125 194.748 39.1158 195.55L39.9152 194.95C39.3184 194.156 38.7408 193.36 38.1821 192.564L37.3635 193.139ZM40.9544 197.917C41.5699 198.684 42.2034 199.45 42.8553 200.213L43.6159 199.564C42.9705 198.808 42.3434 198.05 41.7344 197.291L40.9544 197.917ZM44.8314 202.459C45.1697 202.833 45.5125 203.206 45.8599 203.578L46.5911 202.896C46.247 202.527 45.9075 202.158 45.5725 201.788L44.8314 202.459Z" fill="white" />
</svg>
  