<svg width="117" height="32" viewBox="0 0 117 32" fill="none" xmlns="http://www.w3.org/2000/svg">
  <path d="M0.65483 31V0.454545H7.11293V25.6754H20.2081V31H0.65483ZM51.3651 15.7273C51.3651 19.0582 50.7337 21.892 49.4709 24.2287C48.218 26.5653 46.5078 28.3501 44.3402 29.5831C42.1825 30.8061 39.7564 31.4176 37.0618 31.4176C34.3473 31.4176 31.9112 30.8011 29.7536 29.5682C27.5959 28.3352 25.8906 26.5504 24.6378 24.2138C23.3849 21.8771 22.7585 19.0483 22.7585 15.7273C22.7585 12.3963 23.3849 9.5625 24.6378 7.22585C25.8906 4.8892 27.5959 3.10937 29.7536 1.88636C31.9112 0.653408 34.3473 0.0369307 37.0618 0.0369307C39.7564 0.0369307 42.1825 0.653408 44.3402 1.88636C46.5078 3.10937 48.218 4.8892 49.4709 7.22585C50.7337 9.5625 51.3651 12.3963 51.3651 15.7273ZM44.8175 15.7273C44.8175 13.5696 44.4943 11.75 43.848 10.2685C43.2116 8.78693 42.3118 7.66335 41.1484 6.89773C39.9851 6.1321 38.6229 5.74929 37.0618 5.74929C35.5007 5.74929 34.1385 6.1321 32.9751 6.89773C31.8118 7.66335 30.907 8.78693 30.2607 10.2685C29.6243 11.75 29.3061 13.5696 29.3061 15.7273C29.3061 17.8849 29.6243 19.7045 30.2607 21.1861C30.907 22.6676 31.8118 23.7912 32.9751 24.5568C34.1385 25.3224 35.5007 25.7053 37.0618 25.7053C38.6229 25.7053 39.9851 25.3224 41.1484 24.5568C42.3118 23.7912 43.2116 22.6676 43.848 21.1861C44.4943 19.7045 44.8175 17.8849 44.8175 15.7273ZM76.4032 10.3281C76.1944 9.60227 75.9011 8.96094 75.5233 8.40412C75.1454 7.83736 74.6831 7.36009 74.1362 6.9723C73.5993 6.57457 72.9828 6.27131 72.2868 6.0625C71.6007 5.85369 70.84 5.74929 70.0048 5.74929C68.4437 5.74929 67.0716 6.13707 65.8883 6.91264C64.715 7.68821 63.8002 8.81676 63.144 10.2983C62.4877 11.7699 62.1596 13.5696 62.1596 15.6974C62.1596 17.8253 62.4828 19.6349 63.1291 21.1264C63.7754 22.6179 64.6902 23.7564 65.8734 24.5419C67.0566 25.3175 68.4537 25.7053 70.0645 25.7053C71.5261 25.7053 72.774 25.4467 73.8081 24.9297C74.8521 24.4027 75.6476 23.6619 76.1944 22.7074C76.7512 21.7528 77.0297 20.6243 77.0297 19.3217L78.3422 19.5156H70.4672V14.6534H83.2491V18.5014C83.2491 21.1861 82.6824 23.4929 81.5488 25.4219C80.4153 27.3409 78.8542 28.8224 76.8656 29.8665C74.877 30.9006 72.6 31.4176 70.0346 31.4176C67.171 31.4176 64.6554 30.7862 62.4877 29.5234C60.3201 28.2507 58.6298 26.446 57.4167 24.1094C56.2136 21.7628 55.612 18.9787 55.612 15.7571C55.612 13.2812 55.97 11.0739 56.6859 9.13494C57.4118 7.18608 58.426 5.53551 59.7285 4.18324C61.0311 2.83096 62.5474 1.80185 64.2775 1.09588C66.0076 0.389914 67.8819 0.0369307 69.9004 0.0369307C71.6305 0.0369307 73.2413 0.290482 74.7328 0.797585C76.2243 1.29474 77.5467 2.00071 78.7001 2.91548C79.8635 3.83025 80.813 4.91903 81.5488 6.18182C82.2846 7.43466 82.7569 8.81676 82.9657 10.3281H76.4032ZM116.17 15.7273C116.17 19.0582 115.538 21.892 114.276 24.2287C113.023 26.5653 111.313 28.3501 109.145 29.5831C106.987 30.8061 104.561 31.4176 101.866 31.4176C99.152 31.4176 96.7159 30.8011 94.5582 29.5682C92.4006 28.3352 90.6953 26.5504 89.4425 24.2138C88.1896 21.8771 87.5632 19.0483 87.5632 15.7273C87.5632 12.3963 88.1896 9.5625 89.4425 7.22585C90.6953 4.8892 92.4006 3.10937 94.5582 1.88636C96.7159 0.653408 99.152 0.0369307 101.866 0.0369307C104.561 0.0369307 106.987 0.653408 109.145 1.88636C111.313 3.10937 113.023 4.8892 114.276 7.22585C115.538 9.5625 116.17 12.3963 116.17 15.7273ZM109.622 15.7273C109.622 13.5696 109.299 11.75 108.653 10.2685C108.016 8.78693 107.116 7.66335 105.953 6.89773C104.79 6.1321 103.428 5.74929 101.866 5.74929C100.305 5.74929 98.9432 6.1321 97.7798 6.89773C96.6165 7.66335 95.7116 8.78693 95.0653 10.2685C94.429 11.75 94.1108 13.5696 94.1108 15.7273C94.1108 17.8849 94.429 19.7045 95.0653 21.1861C95.7116 22.6676 96.6165 23.7912 97.7798 24.5568C98.9432 25.3224 100.305 25.7053 101.866 25.7053C103.428 25.7053 104.79 25.3224 105.953 24.5568C107.116 23.7912 108.016 22.6676 108.653 21.1861C109.299 19.7045 109.622 17.8849 109.622 15.7273Z" fill="#246DE7"/>
  </svg>
  