<svg width="19" height="20" viewBox="0 0 19 20" fill="none" xmlns="http://www.w3.org/2000/svg">
  <path d="M7.5 0.347629C7.62202 0.495895 7.69677 0.677344 7.71459 0.868532C7.73242 1.05972 7.6925 1.25186 7.6 1.42013C6.87732 2.74697 6.49992 4.23425 6.5025 5.74513C6.5025 10.7714 10.6 14.8414 15.65 14.8414C16.3088 14.8414 16.95 14.7726 17.5663 14.6414C17.7552 14.6005 17.9519 14.6161 18.132 14.6864C18.3121 14.7566 18.4675 14.8784 18.5787 15.0364C18.6962 15.2007 18.7561 15.3992 18.7491 15.6011C18.7421 15.803 18.6686 15.9969 18.54 16.1526C17.5596 17.3569 16.3228 18.3272 14.9198 18.9929C13.5168 19.6585 11.9829 20.0026 10.43 20.0001C4.6675 20.0001 0 15.3576 0 9.63763C0 5.33263 2.6425 1.64013 6.405 0.075129C6.59242 -0.0040812 6.80049 -0.0203387 6.99794 0.0287986C7.19539 0.0779358 7.37156 0.189815 7.5 0.347629V0.347629ZM6.0725 1.63888C4.62575 2.41492 3.4163 3.56843 2.57266 4.97683C1.72903 6.38523 1.28275 7.99589 1.28125 9.63763C1.28125 14.6626 5.38 18.7326 10.43 18.7326C11.6393 18.7347 12.837 18.4969 13.9538 18.0331C15.0706 17.5692 16.0843 16.8884 16.9362 16.0301C16.515 16.0826 16.0863 16.1089 15.65 16.1089C9.8875 16.1089 5.22125 11.4664 5.22125 5.74638C5.22125 4.28763 5.52375 2.89888 6.0725 1.63888V1.63888Z" fill="#246DE7" />
</svg>
  