<svg width="88" height="88" viewBox="0 0 88 88" fill="none" xmlns="http://www.w3.org/2000/svg">
  <circle cx="44" cy="44" r="44" fill="#246DE7" />
  <path fill-rule="evenodd" clip-rule="evenodd" d="M49.3073 26.0937C49.1912 26.1462 47.9354 27.3556 46.5165 28.7812C44.2898 31.0186 43.9303 31.4087 43.8896 31.6324C43.8152 32.0414 43.9685 32.3625 44.5107 32.9333L45.0079 33.4568L43.2105 35.2541L41.4131 37.0515L40.635 36.9378C39.6528 36.7942 37.9301 36.7907 36.9989 36.9304C35.1216 37.2121 33.4742 37.8409 31.9585 38.8545C31.1848 39.3718 30.0764 40.3005 29.8863 40.5906C29.6991 40.8764 29.6824 41.3297 29.8476 41.6471C29.9292 41.8041 31.0704 43.0002 32.4928 44.4197C33.8687 45.7928 34.9944 46.9379 34.9944 46.9645C34.9944 46.9912 33.0211 49.9981 30.6093 53.6466C28.1975 57.2951 26.1719 60.3815 26.1079 60.5053C25.6734 61.347 26.6366 62.3282 27.4728 61.8958C27.7134 61.7714 28.8453 61.0282 35.8607 56.3881C38.6776 54.5251 41.004 53.0007 41.0306 53.0007C41.0572 53.0007 42.1866 54.1105 43.5403 55.467C44.894 56.8234 46.1377 58.0142 46.304 58.1132C46.5461 58.2573 46.6688 58.2862 46.9185 58.2581C47.3361 58.2111 47.4851 58.1017 48.1166 57.3794C49.7258 55.5389 50.8136 53.1217 51.0992 50.7519C51.2065 49.8627 51.1864 48.2431 51.0574 47.3601L50.9437 46.582L52.7424 44.7833L54.5411 42.9846L55.0309 43.4574C55.6075 44.014 55.9184 44.1679 56.332 44.1015C56.5994 44.0585 56.8258 43.8517 59.2439 41.4417C62.0417 38.6533 62.0745 38.6125 61.9718 38.0441C61.9279 37.8012 61.333 37.1824 56.1426 31.9815C52.7805 28.6125 50.2676 26.1483 50.1359 26.0911C49.8546 25.9688 49.5814 25.9696 49.3073 26.0937ZM57.8176 39.9184L56.1646 41.5713L51.2945 36.7011L46.4242 31.8309L48.0764 30.1776L49.7285 28.5244L54.5995 33.3949L59.4705 38.2655L57.8176 39.9184ZM49.7984 38.2295L53.032 41.4637L50.9529 43.5573C49.6577 44.8615 48.8379 45.7408 48.7789 45.8893C48.7018 46.0835 48.7001 46.2139 48.7697 46.5927C49.0633 48.1896 49.0752 48.3194 49.0373 49.5192C49.0153 50.2169 48.9518 50.9346 48.8848 51.2424C48.5871 52.6117 47.8913 54.2049 47.1528 55.2089L46.7961 55.694L39.5621 48.4603C33.8617 42.7601 32.3447 41.2066 32.4062 41.1325C32.5531 40.9554 33.6224 40.2821 34.2559 39.9676C34.9897 39.6034 35.9029 39.286 36.7527 39.1C37.67 38.8993 40.0508 38.9167 40.9695 39.1308C41.8265 39.3305 41.9375 39.3265 42.3129 39.0824C42.4849 38.9706 43.4958 38.0052 44.5593 36.9372C45.6228 35.8692 46.5091 34.9954 46.5289 34.9954C46.5487 34.9954 48.02 36.4507 49.7984 38.2295ZM38.0486 49.9711L39.519 51.4427L37.3094 52.9015C30.1107 57.6544 30.8032 57.2049 30.8827 57.0734C31.1605 56.6141 36.5382 48.4994 36.5647 48.4994C36.5721 48.4994 37.2399 49.1617 38.0486 49.9711Z" fill="white" />
</svg>
  