<svg width="88" height="88" viewBox="0 0 88 88" fill="none" xmlns="http://www.w3.org/2000/svg">
  <circle cx="44" cy="44" r="44" fill="#246DE7" />
  <path fill-rule="evenodd" clip-rule="evenodd" d="M29.5203 26.114C28.2665 26.3861 27.0704 27.3205 26.502 28.4721C25.9648 29.5604 25.9974 28.7035 26.0019 41.6235C26.0052 50.6744 26.0252 53.2492 26.0937 53.439C26.2984 54.0054 26.9829 54.2791 27.5504 54.0213C27.7205 53.944 29.305 52.6742 31.0714 51.1994L34.2831 48.518L42.7499 48.5168C52.2158 48.5154 51.7238 48.5401 52.7951 48.0114C53.9617 47.4355 54.8844 46.2433 55.1561 44.9607C55.3102 44.233 55.3102 30.2903 55.1561 29.5626C54.8012 27.8871 53.3801 26.466 51.7046 26.1111C50.9967 25.9611 30.2125 25.9639 29.5203 26.114ZM51.68 28.476C52.1796 28.7103 52.5569 29.0876 52.7911 29.5872L52.9755 29.9802V37.2616V44.5431L52.7911 44.9361C52.5569 45.4356 52.1796 45.8129 51.68 46.0472L51.287 46.2315L42.4226 46.2667C34.3104 46.2989 33.5403 46.3119 33.3472 46.4195C33.2311 46.4842 32.0522 47.4418 30.7275 48.5477C29.4028 49.6535 28.3027 50.5582 28.2828 50.5582C28.2629 50.5582 28.2467 45.9893 28.2467 40.4051C28.2467 29.2676 28.2227 29.9017 28.6678 29.2299C28.9199 28.8493 29.311 28.562 29.8155 28.387C30.1626 28.2667 30.7234 28.261 40.7342 28.276L51.287 28.2917L51.68 28.476ZM33.414 32.8575C32.9485 33.0615 32.6803 33.6008 32.78 34.1324C32.8417 34.4613 33.193 34.85 33.512 34.9425C33.6878 34.9934 35.9918 35.0104 40.7818 34.9961C47.7383 34.9753 47.7959 34.9741 47.9885 34.8301C48.3578 34.5545 48.4729 34.3296 48.4729 33.8847C48.4729 33.4398 48.3578 33.215 47.9885 32.9393C47.7957 32.7953 47.7434 32.7941 40.7115 32.7789C34.9305 32.7663 33.5891 32.7808 33.414 32.8575ZM57.0524 35.1093C56.9344 35.1607 56.7537 35.3029 56.6507 35.4252C56.0445 36.1456 56.5809 37.2616 57.5333 37.2616C58.1786 37.2616 58.9854 37.6945 59.3411 38.2316C59.789 38.9077 59.7667 38.323 59.7471 48.8949L59.7293 58.5206L57.7859 56.9775C56.7171 56.1288 55.7832 55.4057 55.7105 55.3707C55.6353 55.3343 52.0088 55.2918 47.2769 55.2718L38.9754 55.2366L38.5824 55.0523C38.0813 54.8173 37.7041 54.4393 37.4738 53.9411C37.3126 53.5926 37.2878 53.4314 37.2543 52.5155C37.2134 51.3957 37.1748 51.2799 36.7322 50.9495C36.4598 50.7461 35.7924 50.7461 35.52 50.9495C35.0783 51.2793 35.0375 51.3995 35.0133 52.445C34.9856 53.6354 35.0971 54.2258 35.5069 55.0558C35.9203 55.8935 36.6299 56.6031 37.4673 57.0165C38.5343 57.5432 38.1086 57.5205 46.9518 57.5219L54.8578 57.5231L57.4694 59.6153C58.9058 60.766 60.2235 61.7814 60.3976 61.8718C60.9728 62.1703 61.667 61.9284 61.911 61.3445C62.0677 60.9693 62.0667 39.3077 61.9099 38.5676C61.6382 37.285 60.7155 36.0928 59.5489 35.517C58.6289 35.0628 57.5598 34.8883 57.0524 35.1093ZM33.414 37.3598C32.9483 37.5643 32.6803 38.1034 32.78 38.635C32.8417 38.9637 33.1928 39.3525 33.512 39.4452C33.6858 39.4957 35.3152 39.5132 38.5305 39.4989C43.2129 39.4781 43.295 39.4753 43.486 39.3327C43.8552 39.057 43.9704 38.8322 43.9704 38.3873C43.9704 37.9424 43.8552 37.7175 43.486 37.4419C43.2948 37.299 43.218 37.2966 38.4602 37.2812C34.5509 37.2686 33.5877 37.2836 33.414 37.3598Z" fill="white" />
</svg>
  