<svg width="20" height="16" viewBox="0 0 20 16" fill="none" xmlns="http://www.w3.org/2000/svg">
  <path d="M19.5018 1.89034C18.7846 2.19972 18.0042 2.42238 17.2003 2.50909C18.0349 2.01324 18.6599 1.22987 18.9581 0.305967C18.1749 0.771879 17.3169 1.09859 16.4221 1.27159C16.0482 0.871811 15.5959 0.553326 15.0935 0.335984C14.5911 0.118643 14.0493 0.00710129 13.5018 0.00831051C11.287 0.00831051 9.50575 1.80362 9.50575 4.00675C9.50575 4.31613 9.54325 4.6255 9.60419 4.92316C6.28779 4.74972 3.32998 3.16534 1.36357 0.739561C1.00527 1.35155 0.817511 2.04837 0.819823 2.75753C0.819823 4.14503 1.52529 5.36847 2.60107 6.088C1.9671 6.06304 1.34797 5.88878 0.794042 5.57941V5.62863C0.794042 7.5716 2.16748 9.18176 3.99794 9.55207C3.65425 9.64135 3.3007 9.68702 2.9456 9.68801C2.68545 9.68801 2.43935 9.66223 2.19092 9.62707C2.69716 11.2114 4.17138 12.3622 5.92685 12.3997C4.55341 13.4755 2.8331 14.1083 0.965136 14.1083C0.62998 14.1083 0.320605 14.0966 -0.000488281 14.0591C1.77138 15.1958 3.87373 15.8521 6.13779 15.8521C13.4878 15.8521 17.5096 9.76301 17.5096 4.47785C17.5096 4.30441 17.5096 4.13097 17.4979 3.95753C18.2761 3.388 18.9581 2.68253 19.5018 1.89034Z" fill="black" />
</svg>
  