<svg width="22" height="23" viewBox="0 0 22 23" fill="none" xmlns="http://www.w3.org/2000/svg">
  <path fill-rule="evenodd" clip-rule="evenodd" d="M6.46451 0.0743008C7.63751 0.0203008 8.01151 0.00830078 10.9995 0.00830078C13.9875 0.00830078 14.3615 0.0213008 15.5335 0.0743008C16.7055 0.127301 17.5055 0.314301 18.2055 0.585301C18.9385 0.862301 19.6035 1.2953 20.1535 1.8553C20.7135 2.4043 21.1455 3.0683 21.4215 3.8023C21.6935 4.5023 21.8795 5.3023 21.9335 6.4723C21.9875 7.6473 21.9995 8.0213 21.9995 11.0083C21.9995 13.9963 21.9865 14.3703 21.9335 15.5433C21.8805 16.7133 21.6935 17.5133 21.4215 18.2133C21.1455 18.9474 20.7128 19.6125 20.1535 20.1623C19.6035 20.7223 18.9385 21.1543 18.2055 21.4303C17.5055 21.7023 16.7055 21.8883 15.5355 21.9423C14.3615 21.9963 13.9875 22.0083 10.9995 22.0083C8.01151 22.0083 7.63751 21.9953 6.46451 21.9423C5.29451 21.8893 4.49451 21.7023 3.79451 21.4303C3.06043 21.1543 2.39533 20.7216 1.84551 20.1623C1.28589 19.613 0.852826 18.9482 0.576512 18.2143C0.305512 17.5143 0.119512 16.7143 0.0655117 15.5443C0.0115117 14.3693 -0.000488281 13.9953 -0.000488281 11.0083C-0.000488281 8.0203 0.0125117 7.6463 0.0655117 6.4743C0.118512 5.3023 0.305512 4.5023 0.576512 3.8023C0.853235 3.06838 1.28663 2.40361 1.84651 1.8543C2.39555 1.2948 3.05998 0.861744 3.79351 0.585301C4.49351 0.314301 5.29351 0.128301 6.46351 0.0743008H6.46451ZM15.4445 2.0543C14.2845 2.0013 13.9365 1.9903 10.9995 1.9903C8.06251 1.9903 7.71451 2.0013 6.55451 2.0543C5.48151 2.1033 4.89951 2.2823 4.51151 2.4333C3.99851 2.6333 3.63151 2.8703 3.24651 3.2553C2.88156 3.61035 2.60069 4.04258 2.42451 4.5203C2.27351 4.9083 2.09451 5.4903 2.04551 6.5633C1.99251 7.7233 1.98151 8.0713 1.98151 11.0083C1.98151 13.9453 1.99251 14.2933 2.04551 15.4533C2.09451 16.5263 2.27351 17.1083 2.42451 17.4963C2.60051 17.9733 2.88151 18.4063 3.24651 18.7613C3.60151 19.1263 4.03451 19.4073 4.51151 19.5833C4.89951 19.7343 5.48151 19.9133 6.55451 19.9623C7.71451 20.0153 8.06151 20.0263 10.9995 20.0263C13.9375 20.0263 14.2845 20.0153 15.4445 19.9623C16.5175 19.9133 17.0995 19.7343 17.4875 19.5833C18.0005 19.3833 18.3675 19.1463 18.7525 18.7613C19.1175 18.4063 19.3985 17.9733 19.5745 17.4963C19.7255 17.1083 19.9045 16.5263 19.9535 15.4533C20.0065 14.2933 20.0175 13.9453 20.0175 11.0083C20.0175 8.0713 20.0065 7.7233 19.9535 6.5633C19.9045 5.4903 19.7255 4.9083 19.5745 4.5203C19.3745 4.0073 19.1375 3.6403 18.7525 3.2553C18.3974 2.89037 17.9652 2.60951 17.4875 2.4333C17.0995 2.2823 16.5175 2.1033 15.4445 2.0543ZM9.59451 14.3993C10.3792 14.7259 11.2529 14.77 12.0664 14.524C12.88 14.278 13.5829 13.7572 14.0551 13.0505C14.5273 12.3439 14.7396 11.4952 14.6556 10.6494C14.5716 9.80364 14.1965 9.01327 13.5945 8.4133C13.2107 8.02978 12.7467 7.73611 12.2358 7.55345C11.725 7.37078 11.1799 7.30366 10.64 7.35692C10.1001 7.41017 9.57866 7.58248 9.11332 7.86143C8.64797 8.14038 8.25026 8.51904 7.94881 8.97015C7.64737 9.42126 7.4497 9.93359 7.37003 10.4703C7.29035 11.0069 7.33066 11.5546 7.48805 12.0738C7.64544 12.593 7.91599 13.0709 8.28023 13.473C8.64447 13.8751 9.09334 14.1915 9.59451 14.3993ZM7.00151 7.0103C7.52654 6.48528 8.14983 6.0688 8.83581 5.78466C9.52179 5.50052 10.257 5.35427 10.9995 5.35427C11.742 5.35427 12.4772 5.50052 13.1632 5.78466C13.8492 6.0688 14.4725 6.48528 14.9975 7.0103C15.5225 7.53533 15.939 8.15862 16.2232 8.8446C16.5073 9.53058 16.6535 10.2658 16.6535 11.0083C16.6535 11.7508 16.5073 12.486 16.2232 13.172C15.939 13.858 15.5225 14.4813 14.9975 15.0063C13.9372 16.0666 12.4991 16.6623 10.9995 16.6623C9.49997 16.6623 8.06185 16.0666 7.00151 15.0063C5.94118 13.946 5.34549 12.5078 5.34549 11.0083C5.34549 9.50876 5.94118 8.07064 7.00151 7.0103ZM17.9075 6.1963C18.0376 6.07357 18.1418 5.92598 18.2138 5.76227C18.2859 5.59857 18.3243 5.42207 18.3269 5.24323C18.3295 5.06439 18.2962 4.88685 18.229 4.72111C18.1618 4.55537 18.0619 4.40481 17.9355 4.27834C17.809 4.15187 17.6584 4.05206 17.4927 3.98482C17.327 3.91758 17.1494 3.88428 16.9706 3.88688C16.7917 3.88949 16.6152 3.92795 16.4515 4C16.2878 4.07204 16.1402 4.1762 16.0175 4.3063C15.7788 4.55933 15.6481 4.89542 15.6532 5.24323C15.6583 5.59104 15.7987 5.92318 16.0447 6.16914C16.2906 6.41511 16.6228 6.55553 16.9706 6.5606C17.3184 6.56567 17.6545 6.43499 17.9075 6.1963Z" fill="black" />
</svg>
  