<svg width="20" height="20" viewBox="0 0 20 20" fill="none" xmlns="http://www.w3.org/2000/svg">
<path d="M19.2836 7.27578L13.3328 6.41094L10.6727 1.01797C10.6 0.870309 10.4805 0.750778 10.3328 0.678121C9.9625 0.495309 9.5125 0.647653 9.32735 1.01797L6.66719 6.41094L0.716405 7.27578C0.552342 7.29922 0.402342 7.37656 0.287498 7.49375C0.148658 7.63645 0.0721514 7.82844 0.0747883 8.02752C0.0774251 8.2266 0.15899 8.41649 0.301561 8.55547L4.60703 12.7531L3.58984 18.6805C3.56599 18.8184 3.58125 18.9602 3.63389 19.0898C3.68653 19.2195 3.77444 19.3318 3.88766 19.414C4.00088 19.4962 4.13488 19.5451 4.27445 19.5551C4.41403 19.565 4.5536 19.5357 4.67734 19.4703L10 16.6719L15.3227 19.4703C15.468 19.5477 15.6367 19.5734 15.7984 19.5453C16.2063 19.475 16.4805 19.0883 16.4102 18.6805L15.393 12.7531L19.6984 8.55547C19.8156 8.44063 19.893 8.29062 19.9164 8.12656C19.9797 7.71641 19.6938 7.33672 19.2836 7.27578Z" fill="#FF9E0C"/>
</svg>
