<svg width="52" height="48" viewBox="0 0 52 48" fill="none" xmlns="http://www.w3.org/2000/svg">
  <path fill-rule="evenodd" clip-rule="evenodd" d="M28.1055 5.41187C27.8491 5.69177 27.3643 7.09147 24.9059 14.6505C22.2812 22.7208 22.0172 23.5945 22.1016 23.9331C22.206 24.3514 22.7196 24.7704 23.1283 24.7704C23.4928 24.7704 23.9492 24.4981 24.1092 24.1851C24.1873 24.0326 25.5402 19.9447 27.1156 15.1009C30.2402 5.49387 30.1506 5.85455 29.5413 5.34185C29.0776 4.95163 28.5013 4.97974 28.1055 5.41187ZM18.0752 7.54359C17.8746 7.66892 16.0195 9.22075 13.9526 10.9921C11.3842 13.1932 10.1528 14.3136 10.0624 14.5318C9.7738 15.2285 9.88483 15.351 13.9237 18.7964C15.961 20.5343 17.7751 22.0688 17.955 22.2062C18.821 22.8678 19.9798 22.1725 19.7405 21.1347C19.6645 20.8054 19.2624 20.4258 16.307 17.8947C14.4659 16.3178 12.9461 14.9871 12.9295 14.9375C12.913 14.8879 14.3744 13.5848 16.1771 12.0417C18.2491 10.268 19.5251 9.10384 19.6461 8.87681C19.9054 8.39029 19.7436 7.80106 19.2716 7.51325C18.8487 7.25537 18.5232 7.26369 18.0752 7.54359ZM32.7295 7.51325C32.2575 7.80106 32.0957 8.39029 32.355 8.87681C32.476 9.10384 33.7519 10.268 35.824 12.0417C37.6267 13.5848 39.0881 14.8879 39.0715 14.9375C39.055 14.9871 37.5351 16.3178 35.6941 17.8947C32.7387 20.4258 32.3365 20.8054 32.2606 21.1347C32.0213 22.1725 33.1801 22.8678 34.0461 22.2062C34.226 22.0688 36.0401 20.5343 38.0774 18.7964C42.1162 15.351 42.2273 15.2285 41.9386 14.5318C41.8483 14.3136 40.6169 13.1932 38.0485 10.9921C35.9816 9.22075 34.1264 7.66892 33.9259 7.54359C33.4778 7.26369 33.1524 7.25537 32.7295 7.51325ZM10.6174 26.1322C10.4335 26.2123 10.2351 26.4154 10.1353 26.6256C9.92481 27.0692 9.92481 27.14 10.1354 27.5838C10.5571 28.4723 11.9912 28.3952 12.2973 27.4676C12.6261 26.4714 11.6395 25.6871 10.6174 26.1322ZM16.3987 26.0877C15.7271 26.359 15.5429 27.2749 16.0466 27.8387L16.3427 28.1701L28.6055 28.2002C36.9789 28.2207 40.9854 28.1963 41.2377 28.1234C41.8744 27.9391 42.1668 27.2599 41.8745 26.644C41.5445 25.9485 42.3286 25.9875 28.82 25.9946C22.1062 25.9981 16.5166 26.0401 16.3987 26.0877Z" fill="#246DE7" />
  <path fill-rule="evenodd" clip-rule="evenodd" d="M3.85389 0.16586C2.03698 0.60631 0.652303 1.98561 0.170649 3.83459C-0.056883 4.70838 -0.056883 33.1625 0.170649 34.0363C0.61252 35.7328 1.71699 36.9349 3.42744 37.5813C4.02641 37.8076 4.05128 37.8083 11.4241 37.8398L18.82 37.8713L18.7498 38.8057C18.6014 40.7826 18.2171 42.8656 17.6648 44.6875L17.3649 45.677H15.5328C13.5463 45.677 13.2516 45.745 13.0184 46.2567C12.7376 46.8732 12.9758 47.5166 13.578 47.7683C14.0832 47.9794 37.9168 47.9794 38.422 47.7683C39.0242 47.5166 39.2624 46.8732 38.9816 46.2567C38.7484 45.745 38.4537 45.677 36.4672 45.677H34.6351L34.3352 44.6875C33.7829 42.8656 33.3987 40.7826 33.2502 38.8057L33.18 37.8713L40.5759 37.8398C47.9487 37.8083 47.9736 37.8076 48.5726 37.5813C50.283 36.9349 51.3875 35.7328 51.8293 34.0363C52.0569 33.1625 52.0569 4.70838 51.8293 3.83459C51.3415 1.96186 49.9582 0.599206 48.0996 0.161091C47.1758 -0.0568004 4.75316 -0.0521321 3.85389 0.16586ZM47.6132 2.35116C48.3435 2.50786 49.0041 2.99834 49.382 3.6645L49.697 4.21993L49.7239 17.337L49.7507 30.4541H26H2.24929L2.27608 17.337L2.30298 4.21993L2.61342 3.67261C2.97593 3.03366 3.56607 2.56997 4.25141 2.38567C4.90112 2.21101 46.804 2.17762 47.6132 2.35116ZM49.7168 33.1873C49.6051 34.13 48.9962 34.9641 48.1251 35.3673L47.6673 35.5792H26H4.3327L3.8749 35.3673C3.00384 34.9641 2.39492 34.13 2.28319 33.1873L2.22392 32.6868H26H49.7761L49.7168 33.1873ZM31.016 38.8521C31.148 40.6942 31.5532 43.0922 31.9914 44.6245C32.101 45.0076 32.1907 45.4013 32.1907 45.4991C32.1907 45.6668 31.8325 45.677 26 45.677C20.1675 45.677 19.8093 45.6668 19.8093 45.4991C19.8093 45.4013 19.899 45.0076 20.0086 44.6245C20.4468 43.0922 20.852 40.6942 20.984 38.8521L21.055 37.8626H26H30.945L31.016 38.8521Z" fill="black" />
</svg>
  