<svg width="49" height="47" viewBox="0 0 49 47" fill="none" xmlns="http://www.w3.org/2000/svg">
  <path fill-rule="evenodd" clip-rule="evenodd" d="M20.4934 2.6574C17.516 2.90894 14.9874 3.60818 12.3515 4.90907C6.50107 7.79638 2.24008 13.0367 0.658249 19.2897C0.130845 21.3749 0 22.4668 0 24.784C0 27.007 0.130749 28.1872 0.582577 30.0406C2.38692 37.4424 7.94985 43.4938 15.1053 45.8388C19.2119 47.1845 23.2274 47.3586 27.386 46.371C30.2352 45.6946 33.3249 44.2128 35.6901 42.3889C37.5711 40.9383 39.3461 39.0221 40.6842 36.9973C42.4496 34.3262 43.6298 31.2327 44.1172 27.9988C44.4448 25.8258 44.3769 22.0893 43.9922 21.1157C43.7997 20.6286 43.0818 20.4194 42.6265 20.7178C42.2261 20.98 42.1567 21.3121 42.2932 22.3111C42.4705 23.6087 42.4452 26.2267 42.242 27.6098C40.5412 39.185 29.6069 46.9649 18.2249 44.6984C12.7472 43.6076 7.90349 40.2693 4.95028 35.5492C2.60091 31.7941 1.52311 27.2143 1.96277 22.8545C2.90791 13.483 9.99108 6.08916 19.3439 4.71127C20.3997 4.55571 21.835 4.52668 24.6365 4.60446C25.198 4.61998 25.5658 4.2626 25.5658 3.7011C25.5658 3.15166 25.1692 2.8006 24.4572 2.71957C23.4808 2.60855 21.4491 2.57665 20.4934 2.6574Z" fill="black" />
  <path fill-rule="evenodd" clip-rule="evenodd" d="M31.0093 0.112934C30.0309 0.421464 29.325 1.04245 28.8842 1.98222L28.6351 2.51345V8.50015V14.4868L28.8486 14.9495C29.4804 16.3185 30.6692 17.0252 32.3403 17.0252H33.0892V18.7063C33.0892 20.0448 33.1197 20.4463 33.2392 20.6774C33.4106 21.0087 33.9572 21.2789 34.2696 21.1869C34.3843 21.1531 35.4048 20.2042 36.5375 19.0783L38.5969 17.0312L42.4763 17.0043C46.2838 16.9778 46.366 16.9732 46.9076 16.7545C47.6134 16.4695 48.3432 15.7645 48.6829 15.0395L48.942 14.4868V8.50015V2.51345L48.6896 1.97513C48.3345 1.21793 47.8279 0.698576 47.0898 0.335256L46.4557 0.0229895L38.9343 0.00431109C32.904 -0.0107275 31.3329 0.0108246 31.0093 0.112934ZM46.3103 2.08366C46.5551 2.20856 46.7571 2.41135 46.8835 2.65905C47.0741 3.03262 47.078 3.16998 47.0525 8.58961C47.0268 14.0228 47.0221 14.1432 46.8287 14.4022C46.7201 14.5476 46.5122 14.7554 46.3669 14.8641C46.1121 15.0544 45.9524 15.0634 41.9665 15.113C39.6918 15.1413 37.8125 15.1735 37.7901 15.1848C37.7679 15.1961 37.1322 15.8175 36.3773 16.5659L35.0049 17.9267V16.8107C35.0049 15.7697 34.9894 15.6768 34.7741 15.4261L34.5432 15.1574L33.0087 15.1095C31.3401 15.0574 31.2064 15.0156 30.7483 14.4022C30.555 14.1432 30.5503 14.0229 30.5246 8.58214C30.4986 3.06509 30.4998 3.024 30.7027 2.66317C30.815 2.46326 31.0639 2.20876 31.2557 2.09755C31.6021 1.89668 31.6543 1.89524 38.7684 1.89304C45.7615 1.89093 45.9413 1.89544 46.3103 2.08366ZM20.4761 12.2351C18.2597 12.816 16.5438 14.4119 15.7883 16.5951C15.4148 17.6745 15.3532 19.3443 15.6472 20.4163C16.0338 21.8252 16.932 23.2286 17.9058 23.9448C18.1394 24.1165 18.3318 24.2787 18.3333 24.305C18.3348 24.3314 18.0928 24.4736 17.7953 24.621C14.9272 26.0435 12.9641 28.9025 12.5974 32.1916C12.4421 33.5838 12.4633 36.5918 12.6311 36.9936C12.9068 37.6536 12.3861 37.6194 22.171 37.6194C28.4809 37.6194 31.0541 37.589 31.2037 37.5124C31.7351 37.2406 31.7439 37.1933 31.7448 34.5542C31.7455 32.5428 31.7142 31.9592 31.5673 31.2475C30.9943 28.4716 29.1174 25.9523 26.6959 24.7091C26.3142 24.5133 26.0124 24.3253 26.0254 24.2917C26.0383 24.2581 26.2428 24.0704 26.4799 23.8748C27.4164 23.102 28.1126 22.0723 28.5526 20.8088C28.7943 20.115 28.8194 19.9201 28.8174 18.7494C28.8155 17.6097 28.7851 17.3653 28.561 16.6899C27.8224 14.4647 26.0542 12.8007 23.8212 12.2296C22.8671 11.9856 21.419 11.9879 20.4761 12.2351ZM23.3794 14.0932C25.9392 14.7748 27.4872 17.4706 26.7811 20.017C25.9559 22.993 22.603 24.4127 19.8568 22.9489C18.3029 22.1207 17.3862 20.5778 17.3821 18.7834C17.3779 16.9623 18.2159 15.4718 19.7554 14.5627C20.7204 13.9929 22.2556 13.7939 23.3794 14.0932ZM24.1114 25.7346C26.3367 26.3088 28.4369 28.1481 29.2844 30.2652C29.7066 31.3198 29.8324 32.1829 29.8324 34.024V35.7048L22.1455 35.6803L14.4586 35.6558L14.4729 33.8358C14.4846 32.3376 14.5218 31.8854 14.6833 31.278C15.477 28.2931 17.9717 26.0318 21.0011 25.5513C21.7894 25.4263 23.2502 25.5124 24.1114 25.7346Z" fill="#246DE7" />
</svg>
  