<svg width="48" height="47" viewBox="0 0 48 47" fill="none" xmlns="http://www.w3.org/2000/svg">
  <path fill-rule="evenodd" clip-rule="evenodd" d="M4.89816 4.60545C4.79031 4.65758 4.6561 4.80133 4.59983 4.9248C4.45287 5.24745 4.457 13.1544 4.60433 13.4311C4.83382 13.8619 4.75542 13.8551 9.52743 13.8581L14.0525 13.861L14.2778 13.6357L14.5031 13.4104V11.1179V8.82531L15.1943 8.20423C15.5745 7.86257 15.9097 7.48714 15.9391 7.36982C16.0672 6.85926 15.5257 6.32245 15.0377 6.4763C14.8619 6.53165 13.0291 8.13575 11.5441 9.53387L11.2013 9.85661L10.4761 9.1509C9.6854 8.38148 9.474 8.30484 9.05377 8.63548C8.87046 8.77959 8.81189 8.90783 8.81189 9.16476C8.81189 9.47457 8.90112 9.5928 9.84604 10.535C11.2393 11.9243 11.1005 11.9295 12.7361 10.4273L13.0344 10.1533V11.2728V12.3923H9.50035H5.96628V9.17954V5.96675H10.0093H14.0525L14.2778 5.7414C14.6446 5.37468 14.5519 4.85981 14.0732 4.6048C13.8085 4.4639 5.18933 4.46445 4.89816 4.60545ZM18.9675 4.68834C18.7809 4.83502 18.7256 4.9595 18.7256 5.2324C18.7256 5.5053 18.7809 5.62978 18.9675 5.77646C19.2055 5.96363 19.2903 5.96675 24.1874 5.96675C29.0845 5.96675 29.1693 5.96363 29.4073 5.77646C29.7489 5.50778 29.7489 4.95702 29.4073 4.68834C29.1693 4.50117 29.0845 4.49805 24.1874 4.49805C19.2903 4.49805 19.2055 4.50117 18.9675 4.68834ZM18.9675 8.63548C18.7809 8.78217 18.7256 8.90664 18.7256 9.17954C18.7256 9.45245 18.7809 9.57692 18.9675 9.72361C19.2055 9.91077 19.2903 9.91389 24.1874 9.91389C29.0845 9.91389 29.1693 9.91077 29.4073 9.72361C29.7489 9.45492 29.7489 8.90416 29.4073 8.63548C29.1693 8.44831 29.0845 8.44519 24.1874 8.44519C19.2903 8.44519 19.2055 8.44831 18.9675 8.63548ZM4.89816 18.9253C4.79031 18.9775 4.6561 19.1212 4.59983 19.2447C4.45719 19.5577 4.45691 27.4404 4.59947 27.7534C4.65555 27.8764 4.80206 28.0229 4.92506 28.079C5.23799 28.2216 13.7627 28.2216 14.0756 28.079C14.466 27.9011 14.5031 27.6635 14.5031 25.3374V23.1452L15.1943 22.5241C15.5745 22.1824 15.9097 21.807 15.9391 21.6897C16.054 21.232 15.6439 20.7456 15.1433 20.7456C15.042 20.7456 14.157 21.4785 13.0782 22.4557L11.1903 24.1658L10.4706 23.4654C9.68568 22.7015 9.47345 22.6252 9.05377 22.9553C8.87046 23.0995 8.81189 23.2277 8.81189 23.4846C8.81189 23.7944 8.90112 23.9127 9.84604 24.8548C11.2393 26.2441 11.1005 26.2494 12.7361 24.7472L13.0344 24.4732V25.5927V26.7122H9.50035H5.96628V23.4994V20.2866H10.0093H14.0525L14.2778 20.0613C14.6396 19.6995 14.5701 19.1801 14.1293 18.9522C13.9116 18.8396 13.1621 18.8189 9.48199 18.8242C6.66043 18.8281 5.02429 18.8643 4.89816 18.9253ZM23.7743 31.6389C23.6986 31.6683 23.5437 31.777 23.4301 31.8804C23.227 32.0651 23.2236 32.1047 23.2236 34.2393C23.2236 36.39 23.2256 36.4123 23.436 36.61C23.642 36.8035 23.7157 36.8095 25.8619 36.8095H28.0753L28.2655 36.5677C28.4454 36.339 28.4558 36.2112 28.4558 34.2321C28.4558 32.1515 28.4544 32.1367 28.2344 31.8808L28.0131 31.6232L25.9625 31.6043C24.8347 31.5939 23.85 31.6095 23.7743 31.6389ZM30.6038 31.7084C30.4472 31.7765 30.2923 31.9021 30.2596 31.9877C30.2267 32.0732 30.1999 33.1104 30.1999 34.2927C30.1999 36.32 30.2104 36.4528 30.3835 36.6259C30.5567 36.7992 30.6894 36.8095 32.7303 36.8095C33.9657 36.8095 34.9655 36.771 35.0614 36.7197C35.1537 36.6703 35.2749 36.4989 35.3307 36.3388C35.4412 36.0219 35.4585 32.5217 35.3516 32.128C35.315 31.9936 35.1572 31.8321 34.9705 31.7381C34.6973 31.6004 34.3836 31.578 32.7701 31.581C31.3989 31.5835 30.8112 31.618 30.6038 31.7084ZM37.6719 31.7051C37.5153 31.775 37.3605 31.9021 37.3277 31.9877C37.2948 32.0732 37.268 33.1032 37.268 34.2767C37.268 36.3883 37.2702 36.4124 37.4804 36.61C37.6862 36.8032 37.7614 36.8095 39.857 36.8095C41.8509 36.8095 42.038 36.7958 42.2377 36.634L42.4544 36.4586V34.25C42.4544 31.3618 42.7037 31.6306 39.9965 31.6005C38.417 31.583 37.8922 31.6066 37.6719 31.7051ZM26.9871 34.1934V35.3408H25.8397H24.6923V34.1934V33.046H25.8397H26.9871V34.1934ZM33.9433 34.2164L33.9691 35.3408H32.8189H31.6686V34.1906V33.0403L32.7931 33.0661L33.9176 33.0919L33.9433 34.2164ZM41.0115 34.2164L41.0373 35.3408H39.887H38.7367V34.1906V33.0403L39.8612 33.0661L40.9857 33.0919L41.0115 34.2164ZM4.89816 33.2452C4.79031 33.2973 4.6561 33.4411 4.59983 33.5645C4.45719 33.8775 4.45691 41.7603 4.59947 42.0733C4.65555 42.1963 4.80206 42.3428 4.92506 42.3989C5.23799 42.5414 13.7627 42.5414 14.0756 42.3989C14.466 42.221 14.5031 41.9833 14.5031 39.6567V37.4638L15.195 36.8384C15.5756 36.4943 15.9107 36.1192 15.9398 36.0046C16.0546 35.5518 15.6416 35.0655 15.1423 35.0655C15.0397 35.0655 14.1628 35.791 13.0765 36.7749L11.189 38.4843L10.47 37.7847C9.68568 37.0215 9.47336 36.9451 9.05377 37.2752C8.86963 37.42 8.81189 37.5472 8.81189 37.8081C8.81189 38.1232 8.89543 38.2332 9.85339 39.1783C11.2519 40.558 11.1066 40.5636 12.7361 39.067L13.0344 38.793V39.9125V41.0321H9.50035H5.96628V37.8193V34.6065H10.0093H14.0525L14.2778 34.3811C14.4199 34.2391 14.5031 34.0509 14.5031 33.8721C14.5031 33.6933 14.4199 33.5051 14.2778 33.3631L14.0525 33.1378L9.57332 33.144C6.68888 33.148 5.02447 33.184 4.89816 33.2452ZM23.8202 38.0655C23.7192 38.0916 23.5437 38.1987 23.4301 38.3034C23.2271 38.4906 23.2236 38.531 23.2236 40.6649C23.2236 42.8156 23.2256 42.8378 23.436 43.0356C23.642 43.2291 23.7157 43.2351 25.8619 43.2351H28.0753L28.2655 42.9932C28.4454 42.7646 28.4558 42.6368 28.4558 40.6576C28.4558 38.5771 28.4544 38.5623 28.2344 38.3063L28.0131 38.0488L26.0084 38.0333C24.9059 38.0248 23.9212 38.0393 23.8202 38.0655ZM30.6038 38.1339C30.4472 38.2021 30.2923 38.3277 30.2596 38.4133C30.2267 38.4987 30.1999 39.536 30.1999 40.7183C30.1999 42.7456 30.2104 42.8784 30.3835 43.0515C30.5567 43.2247 30.6894 43.2351 32.7303 43.2351C33.9657 43.2351 34.9655 43.1966 35.0614 43.1453C35.3658 42.9823 35.4322 42.5354 35.4322 40.6483C35.4322 38.5652 35.3696 38.2786 34.8775 38.107C34.4322 37.9518 30.9722 37.9736 30.6038 38.1339ZM37.773 38.0975C37.2802 38.2502 37.268 38.3128 37.268 40.6824C37.268 42.7456 37.2783 42.8782 37.4516 43.0515C37.6249 43.2248 37.7576 43.2351 39.8281 43.2351C41.8504 43.2351 42.0378 43.2214 42.2377 43.0596L42.4544 42.8842V40.6755C42.4544 37.7898 42.696 38.0548 40.0424 38.0305C38.9457 38.0205 37.9245 38.0506 37.773 38.0975ZM26.9412 40.6649V41.8123L25.8167 41.8381L24.6923 41.8639V40.6649V39.4659L25.8167 39.4917L26.9412 39.5175V40.6649ZM33.9176 40.6649V41.8123L32.7931 41.8381L31.6686 41.8639V40.6649V39.4659L32.7931 39.4917L33.9176 39.5175V40.6649ZM40.9857 40.6649V41.8123L39.8612 41.8381L38.7367 41.8639V40.6649V39.4659L39.8612 39.4917L40.9857 39.5175V40.6649Z" fill="#246DE7" />
  <path fill-rule="evenodd" clip-rule="evenodd" d="M0.225354 0.225354L0 0.450617V23.4993V46.5479L0.226089 46.7739L0.452086 47L22.6927 46.9763L44.9332 46.9526L45.4177 46.7336C46.0515 46.4473 46.6762 45.7556 46.8599 45.137C47.0676 44.4379 47.0688 25.1461 46.8613 24.4473C46.6776 23.8288 46.1161 23.2064 45.4577 22.8913C45.0023 22.6734 44.7911 22.6349 43.8546 22.5995L42.776 22.5587V22.2088C42.776 21.5734 42.4182 20.9936 41.8397 20.6914C41.4745 20.5005 39.8277 20.5149 39.4113 20.7125C38.9513 20.9307 38.6537 21.3744 38.5335 22.0213L38.4293 22.5813H36.6096H34.7899L34.7879 22.2371C34.7838 21.5236 34.2142 20.7434 33.5988 20.6082L33.3212 20.5473V10.4989V0.450617L33.0959 0.225354L32.8706 0H16.6606H0.450617L0.225354 0.225354ZM31.8525 10.9977V20.5265L31.4895 20.6867C30.8743 20.9581 30.4776 21.6011 30.4762 22.3289L30.4756 22.5813H28.6525H26.8295L26.7757 22.1273C26.7058 21.5373 26.5158 21.1824 26.1 20.865C25.7895 20.628 25.6884 20.6053 24.8091 20.5763C24.2844 20.559 23.7575 20.5693 23.6383 20.5992C23.0712 20.7415 22.4956 21.5574 22.4916 22.2246L22.4895 22.5563L21.6404 22.6014C20.5781 22.6579 19.9887 22.8949 19.4332 23.4888C18.6663 24.3085 18.7178 23.4486 18.7483 34.9276C18.7632 40.5316 18.8103 45.2097 18.8531 45.3233L18.931 45.5298H10.1999H1.4687V23.4993V1.4687H16.6606H31.8525V10.9977ZM25.3156 23.4534C25.3515 25.3312 25.3802 25.2579 24.621 25.2245L24.0041 25.1975L23.979 23.61L23.9538 22.0224L24.6215 22.0495L25.2893 22.0765L25.3156 23.4534ZM33.2753 23.637V25.1975H32.6328H31.9902L31.9649 23.7324C31.9508 22.9267 31.9607 22.2122 31.9865 22.1448C32.0209 22.0553 32.2012 22.0295 32.6544 22.0493L33.2753 22.0765V23.637ZM41.2866 23.614L41.2614 25.1975L40.7259 25.2252C40.41 25.2416 40.137 25.2087 40.0604 25.1451C39.9584 25.0605 39.9304 24.7268 39.9304 23.5951C39.9304 22.8019 39.9579 22.1254 39.9916 22.0918C40.0252 22.0581 40.336 22.0306 40.6822 22.0306H41.3116L41.2866 23.614ZM22.5071 24.8233C22.5406 25.4603 22.5897 25.66 22.7858 25.9564C23.107 26.4418 23.5716 26.6517 24.4205 26.6946C25.328 26.7406 25.8403 26.5957 26.2626 26.1733C26.6487 25.7872 26.8026 25.3331 26.8033 24.5778L26.8039 24.05H28.6397H30.4756L30.4762 24.5778C30.4775 26.0452 31.1553 26.7131 32.6328 26.7031C33.5093 26.6971 33.8685 26.5816 34.2893 26.1701C34.66 25.8076 34.7887 25.4097 34.7894 24.6237L34.7899 24.05H36.6122H38.4345L38.491 24.7832C38.5543 25.6034 38.6905 25.9368 39.1052 26.2857C39.4999 26.6178 40.0351 26.7386 40.9102 26.693C41.5255 26.6609 41.7258 26.6107 42.0236 26.4136C42.5404 26.0716 42.776 25.538 42.776 24.7095V24.05H43.6051C44.5219 24.05 44.8977 24.164 45.2544 24.5502C45.4776 24.7918 45.4848 24.8416 45.5129 26.352L45.5419 27.9054H32.8683H20.1947V26.3876C20.1947 25.1108 20.2196 24.8317 20.3515 24.6304C20.5871 24.2709 21.151 24.0544 21.8584 24.052L22.4665 24.05L22.5071 24.8233ZM45.5298 37.0051C45.5298 44.5001 45.5265 44.6414 45.3445 44.936C44.9559 45.5648 45.6933 45.5298 32.8116 45.5298C20.199 45.5298 20.8114 45.5548 20.3937 45.0237L20.1947 44.7707V37.0724V29.3741H32.8623H45.5298V37.0051Z" fill="black" />
</svg>
  