<svg width="50" height="47" viewBox="0 0 50 47" fill="none" xmlns="http://www.w3.org/2000/svg">
  <path fill-rule="evenodd" clip-rule="evenodd" d="M23.9077 14.2128C23.6121 14.5084 23.5539 14.6377 23.5539 14.9994V15.4322L27.0362 18.9197L30.5185 22.4072H15.7532C-0.415647 22.4072 0.470492 22.3738 0.148743 22.996C-0.0495809 23.3796 -0.0495809 23.6407 0.148743 24.0243C0.470492 24.6464 -0.415647 24.6131 15.7532 24.6131H30.5185L27.0362 28.1006C23.7262 31.4156 23.5539 31.6063 23.5539 31.956C23.5539 32.7219 24.0596 33.2099 24.7388 33.0997C25.0557 33.0482 25.6776 32.465 29.6419 28.5015L34.182 23.9621V23.5101V23.0581L29.6374 18.5144C25.3536 14.2313 25.0689 13.9673 24.6771 13.9148C24.3007 13.8644 24.228 13.8925 23.9077 14.2128Z" fill="#246DE7" />
  <path fill-rule="evenodd" clip-rule="evenodd" d="M23.8047 0.0507994C16.4178 0.703422 9.88586 4.61695 5.86605 10.7983C4.87202 12.3268 3.57039 15.0747 3.43353 15.9337C3.31912 16.6515 4.19143 17.2886 4.89157 16.9986C5.26697 16.8431 5.38117 16.6662 5.80108 15.5894C8.24814 9.31455 13.8137 4.45663 20.496 2.76306C22.6527 2.21652 25.6105 2.00957 27.8806 2.2466C32.7685 2.75674 37.2401 4.8999 40.7528 8.41598C44.8367 12.5036 47.016 17.7556 47.016 23.5103C47.016 29.2653 44.8348 34.5217 40.7528 38.6036C37.2199 42.1366 32.8728 44.2179 27.8742 44.7699C26.3264 44.9409 23.4448 44.8459 21.9999 44.5765C17.6446 43.7643 13.9507 41.8883 10.8407 38.9092C8.70765 36.8658 6.95633 34.2886 5.86144 31.5816C5.34347 30.3011 5.29434 30.2193 4.94221 30.0514C4.32638 29.7577 3.60899 30.1142 3.43704 30.7994C3.31211 31.2972 4.54606 34.1321 5.65429 35.893C7.42436 38.7056 10.058 41.416 12.6753 43.1185C15.719 45.0983 18.9934 46.3234 22.6015 46.8325C24.0258 47.0334 27.0603 47.0586 28.4169 46.8808C32.7069 46.3185 36.4629 44.7967 39.8755 42.2382C40.9947 41.3991 43.2098 39.2411 44.0482 38.173C47.4222 33.8752 49.1515 28.9068 49.1515 23.5103C49.1515 18.1139 47.4222 13.1455 44.0482 8.84762C43.2066 7.77549 40.9908 5.61428 39.8825 4.7847C36.4798 2.23717 32.6133 0.665422 28.499 0.15708C27.2598 0.00397576 24.931 -0.0487634 23.8047 0.0507994Z" fill="black" />
</svg>
  